solid OpenSCAD_Model
  facet normal -0.831551 -0.555449 0
    outer loop
      vertex -12.5607 -32.5607 0
      vertex -12.8858 -32.074 13
      vertex -12.8858 -32.074 0
    endloop
  endfacet
  facet normal -0.831551 -0.555449 0
    outer loop
      vertex -12.8858 -32.074 13
      vertex -12.5607 -32.5607 0
      vertex -12.5607 -32.5607 13
    endloop
  endfacet
  facet normal -0.555449 -0.831551 0
    outer loop
      vertex -12.5607 -32.5607 0
      vertex -12.074 -32.8858 13
      vertex -12.5607 -32.5607 13
    endloop
  endfacet
  facet normal -0.555449 -0.831551 -0
    outer loop
      vertex -12.074 -32.8858 13
      vertex -12.5607 -32.5607 0
      vertex -12.074 -32.8858 0
    endloop
  endfacet
  facet normal 0 0 -1
    outer loop
      vertex 25 -31.5 0
      vertex 22.611 -27.3303 0
      vertex 23 -25.5 0
    endloop
  endfacet
  facet normal 0 0 -1
    outer loop
      vertex 25 -31.5 0
      vertex 21.5111 -28.8442 0
      vertex 22.611 -27.3303 0
    endloop
  endfacet
  facet normal 0 0 -1
    outer loop
      vertex 23.5 -33 0
      vertex 19.8906 -29.7798 0
      vertex 21.5111 -28.8442 0
    endloop
  endfacet
  facet normal 0 0 -1
    outer loop
      vertex 23.5 -33 0
      vertex 18.0296 -29.9753 0
      vertex 19.8906 -29.7798 0
    endloop
  endfacet
  facet normal 0 0 -1
    outer loop
      vertex 11.9309 -29.9951 0
      vertex 18.0296 -29.9753 0
      vertex 23.5 -33 0
    endloop
  endfacet
  facet normal -0 0 -1
    outer loop
      vertex 14.0983 -26.4356 0
      vertex 12 -29.9 0
      vertex 14.0983 -24.5644 0
    endloop
  endfacet
  facet normal -0 0 -1
    outer loop
      vertex 14.8594 -28.145 0
      vertex 12 -29.9 0
      vertex 14.0983 -26.4356 0
    endloop
  endfacet
  facet normal -0 0 -1
    outer loop
      vertex 16.25 -29.3971 0
      vertex 12 -29.9 0
      vertex 14.8594 -28.145 0
    endloop
  endfacet
  facet normal -0 0 -1
    outer loop
      vertex 18.0296 -29.9753 0
      vertex 11.9309 -29.9951 0
      vertex 16.25 -29.3971 0
    endloop
  endfacet
  facet normal 0 0 -1
    outer loop
      vertex 16.25 -29.3971 0
      vertex 11.9309 -29.9951 0
      vertex 12 -29.9 0
    endloop
  endfacet
  facet normal 0 0 -1
    outer loop
      vertex -11.5 -33 0
      vertex 11.9309 -29.9951 0
      vertex 23.5 -33 0
    endloop
  endfacet
  facet normal 0 0 -1
    outer loop
      vertex -13 -31.5 0
      vertex -9.9809 -29.9588 0
      vertex -11.5 -33 0
    endloop
  endfacet
  facet normal -0 0 -1
    outer loop
      vertex -9.8691 -29.9951 0
      vertex -11.5 -33 0
      vertex -9.9809 -29.9588 0
    endloop
  endfacet
  facet normal -0 0 -1
    outer loop
      vertex 11.9309 -29.9951 0
      vertex -11.5 -33 0
      vertex -9.8691 -29.9951 0
    endloop
  endfacet
  facet normal 0 0 -1
    outer loop
      vertex 23.5 -33 0
      vertex 25 -31.5 0
      vertex 24.8858 -32.074 0
    endloop
  endfacet
  facet normal 0 0 -1
    outer loop
      vertex 23.5 -33 0
      vertex 24.8858 -32.074 0
      vertex 24.5607 -32.5607 0
    endloop
  endfacet
  facet normal 0 0 -1
    outer loop
      vertex 23.5 -33 0
      vertex 24.5607 -32.5607 0
      vertex 24.074 -32.8858 0
    endloop
  endfacet
  facet normal 0 0 -1
    outer loop
      vertex 21.5111 -28.8442 0
      vertex 25 -31.5 0
      vertex 23.5 -33 0
    endloop
  endfacet
  facet normal 0 0 -1
    outer loop
      vertex 25 -31.5 0
      vertex 23 -25.5 0
      vertex 25 -10.9951 0
    endloop
  endfacet
  facet normal 0 0 -1
    outer loop
      vertex 22.611 -23.6697 0
      vertex 25 -10.9951 0
      vertex 23 -25.5 0
    endloop
  endfacet
  facet normal 0 0 -1
    outer loop
      vertex 21.5111 -22.1558 0
      vertex 25 -10.9951 0
      vertex 22.611 -23.6697 0
    endloop
  endfacet
  facet normal 0 0 -1
    outer loop
      vertex 19.8906 -21.2202 0
      vertex 25 -10.9951 0
      vertex 21.5111 -22.1558 0
    endloop
  endfacet
  facet normal 0 0 -1
    outer loop
      vertex 19.5 -10.9951 0
      vertex 19.8906 -21.2202 0
      vertex 19.5 -21.1792 0
    endloop
  endfacet
  facet normal 0 0 -1
    outer loop
      vertex 19.8906 -21.2202 0
      vertex 19.5 -10.9951 0
      vertex 25 -10.9951 0
    endloop
  endfacet
  facet normal 0 0 -1
    outer loop
      vertex 16.25 -21.6029 0
      vertex 17.5 -10.9951 0
      vertex 17.5 -21.1967 0
    endloop
  endfacet
  facet normal 0 0 -1
    outer loop
      vertex 12 -10.9951 0
      vertex 16.25 -21.6029 0
      vertex 14.8594 -22.855 0
    endloop
  endfacet
  facet normal 0 0 -1
    outer loop
      vertex 12 -10.9951 0
      vertex 14.8594 -22.855 0
      vertex 14.0983 -24.5644 0
    endloop
  endfacet
  facet normal 0 0 -1
    outer loop
      vertex 12 -10.9951 0
      vertex 14.0983 -24.5644 0
      vertex 12 -29.9 0
    endloop
  endfacet
  facet normal 0 0 -1
    outer loop
      vertex 16.25 -21.6029 0
      vertex 12 -10.9951 0
      vertex 17.5 -10.9951 0
    endloop
  endfacet
  facet normal 0 0 -1
    outer loop
      vertex -9.8691 9.9951 0
      vertex 18.6691 13 0
      vertex 18.6691 9.9951 0
    endloop
  endfacet
  facet normal 0 0 -1
    outer loop
      vertex -9.8691 9.9951 0
      vertex -11.5 13 0
      vertex 18.6691 13 0
    endloop
  endfacet
  facet normal 0 0 -1
    outer loop
      vertex -9.9809 9.95878 0
      vertex -11.5 13 0
      vertex -9.8691 9.9951 0
    endloop
  endfacet
  facet normal -0 0 -1
    outer loop
      vertex -9.9809 -29.9588 0
      vertex -13 -31.5 0
      vertex -9.9809 9.95878 0
    endloop
  endfacet
  facet normal 0 0 -1
    outer loop
      vertex -13 -31.5 0
      vertex -11.5 -33 0
      vertex -12.074 -32.8858 0
    endloop
  endfacet
  facet normal 0 0 -1
    outer loop
      vertex -13 11.5 0
      vertex -9.9809 9.95878 0
      vertex -13 -31.5 0
    endloop
  endfacet
  facet normal 0 0 -1
    outer loop
      vertex -13 -31.5 0
      vertex -12.074 -32.8858 0
      vertex -12.5607 -32.5607 0
    endloop
  endfacet
  facet normal 0 0 -1
    outer loop
      vertex -9.9809 9.95878 0
      vertex -13 11.5 0
      vertex -11.5 13 0
    endloop
  endfacet
  facet normal 0 0 -1
    outer loop
      vertex -13 -31.5 0
      vertex -12.5607 -32.5607 0
      vertex -12.8858 -32.074 0
    endloop
  endfacet
  facet normal 0 0 -1
    outer loop
      vertex -11.5 13 0
      vertex -13 11.5 0
      vertex -12.074 12.8858 0
    endloop
  endfacet
  facet normal 0 0 -1
    outer loop
      vertex -12.074 12.8858 0
      vertex -13 11.5 0
      vertex -12.5607 12.5607 0
    endloop
  endfacet
  facet normal 0 0 -1
    outer loop
      vertex -12.5607 12.5607 0
      vertex -13 11.5 0
      vertex -12.8858 12.074 0
    endloop
  endfacet
  facet normal -0.19513 -0.980777 0
    outer loop
      vertex -12.074 -32.8858 0
      vertex -11.5 -33 13
      vertex -12.074 -32.8858 13
    endloop
  endfacet
  facet normal -0.19513 -0.980777 -0
    outer loop
      vertex -11.5 -33 13
      vertex -12.074 -32.8858 0
      vertex -11.5 -33 0
    endloop
  endfacet
  facet normal 0 -1 0
    outer loop
      vertex -11.5 -33 0
      vertex 23.5 -33 13
      vertex -11.5 -33 13
    endloop
  endfacet
  facet normal 0 -1 -0
    outer loop
      vertex 23.5 -33 13
      vertex -11.5 -33 0
      vertex 23.5 -33 0
    endloop
  endfacet
  facet normal -0.980777 0.19513 0
    outer loop
      vertex -13 11.5 0
      vertex -12.8858 12.074 13
      vertex -12.8858 12.074 0
    endloop
  endfacet
  facet normal -0.980777 0.19513 0
    outer loop
      vertex -12.8858 12.074 13
      vertex -13 11.5 0
      vertex -13 11.5 13
    endloop
  endfacet
  facet normal 1 0 0
    outer loop
      vertex 25 -10.9951 13
      vertex 25 -12.116 6.5
      vertex 25 -10.9951 0
    endloop
  endfacet
  facet normal 1 0 0
    outer loop
      vertex 25 -10.9951 13
      vertex 25 -12.3571 7.71234
      vertex 25 -12.116 6.5
    endloop
  endfacet
  facet normal 1 0 0
    outer loop
      vertex 25 -10.9951 13
      vertex 25 -12.3622 7.7376
      vertex 25 -12.3571 7.71234
    endloop
  endfacet
  facet normal 1 0 0
    outer loop
      vertex 25 -10.9951 13
      vertex 25 -12.3765 7.75901
      vertex 25 -12.3622 7.7376
    endloop
  endfacet
  facet normal 1 0 0
    outer loop
      vertex 25 -10.9951 13
      vertex 25 -13.0632 8.78678
      vertex 25 -12.3765 7.75901
    endloop
  endfacet
  facet normal 1 0 0
    outer loop
      vertex 25 -10.9951 13
      vertex 25 -14.091 9.47352
      vertex 25 -13.0632 8.78678
    endloop
  endfacet
  facet normal 1 0 0
    outer loop
      vertex 25 -10.9951 13
      vertex 25 -14.1124 9.48783
      vertex 25 -14.091 9.47352
    endloop
  endfacet
  facet normal 1 0 0
    outer loop
      vertex 25 -10.9951 13
      vertex 25 -14.1377 9.49285
      vertex 25 -14.1124 9.48783
    endloop
  endfacet
  facet normal 1 0 0
    outer loop
      vertex 25 -10.9951 13
      vertex 25 -15.35 9.734
      vertex 25 -14.1377 9.49285
    endloop
  endfacet
  facet normal 1 0 0
    outer loop
      vertex 25 -10.9951 13
      vertex 25 -16.5623 9.49285
      vertex 25 -15.35 9.734
    endloop
  endfacet
  facet normal 1 0 0
    outer loop
      vertex 25 -10.9951 13
      vertex 25 -16.5876 9.48783
      vertex 25 -16.5623 9.49285
    endloop
  endfacet
  facet normal 1 0 0
    outer loop
      vertex 25 -31.5 13
      vertex 25 -16.609 9.47352
      vertex 25 -16.5876 9.48783
    endloop
  endfacet
  facet normal 1 0 0
    outer loop
      vertex 25 -18.3428 7.71234
      vertex 25 -31.5 13
      vertex 25 -18.584 6.5
    endloop
  endfacet
  facet normal 1 0 0
    outer loop
      vertex 25 -18.3378 7.7376
      vertex 25 -31.5 13
      vertex 25 -18.3428 7.71234
    endloop
  endfacet
  facet normal 1 0 0
    outer loop
      vertex 25 -17.6511 8.76537
      vertex 25 -31.5 13
      vertex 25 -18.3378 7.7376
    endloop
  endfacet
  facet normal 1 0 0
    outer loop
      vertex 25 -17.6368 8.78678
      vertex 25 -31.5 13
      vertex 25 -17.6511 8.76537
    endloop
  endfacet
  facet normal 1 0 0
    outer loop
      vertex 25 -16.609 9.47352
      vertex 25 -31.5 13
      vertex 25 -17.6368 8.78678
    endloop
  endfacet
  facet normal 1 -0 0
    outer loop
      vertex 25 -31.5 13
      vertex 25 -16.5876 9.48783
      vertex 25 -10.9951 13
    endloop
  endfacet
  facet normal 1 -0 0
    outer loop
      vertex 25 -12.3622 5.2624
      vertex 25 -10.9951 0
      vertex 25 -12.116 6.5
    endloop
  endfacet
  facet normal 1 -0 0
    outer loop
      vertex 25 -12.3765 5.24099
      vertex 25 -10.9951 0
      vertex 25 -12.3622 5.2624
    endloop
  endfacet
  facet normal 1 -0 0
    outer loop
      vertex 25 -13.0632 4.21322
      vertex 25 -10.9951 0
      vertex 25 -12.3765 5.24099
    endloop
  endfacet
  facet normal 1 -0 0
    outer loop
      vertex 25 -14.091 3.52648
      vertex 25 -10.9951 0
      vertex 25 -13.0632 4.21322
    endloop
  endfacet
  facet normal 1 -0 0
    outer loop
      vertex 25 -14.1124 3.51217
      vertex 25 -10.9951 0
      vertex 25 -14.091 3.52648
    endloop
  endfacet
  facet normal 1 -0 0
    outer loop
      vertex 25 -14.1377 3.50715
      vertex 25 -10.9951 0
      vertex 25 -14.1124 3.51217
    endloop
  endfacet
  facet normal 1 -0 0
    outer loop
      vertex 25 -15.35 3.266
      vertex 25 -10.9951 0
      vertex 25 -14.1377 3.50715
    endloop
  endfacet
  facet normal 1 0 0
    outer loop
      vertex 25 -16.5623 3.50715
      vertex 25 -10.9951 0
      vertex 25 -15.35 3.266
    endloop
  endfacet
  facet normal 1 0 0
    outer loop
      vertex 25 -16.5876 3.51217
      vertex 25 -10.9951 0
      vertex 25 -16.5623 3.50715
    endloop
  endfacet
  facet normal 1 0 0
    outer loop
      vertex 25 -31.5 0
      vertex 25 -18.584 6.5
      vertex 25 -31.5 13
    endloop
  endfacet
  facet normal 1 0 0
    outer loop
      vertex 25 -18.584 6.5
      vertex 25 -31.5 0
      vertex 25 -18.3378 5.2624
    endloop
  endfacet
  facet normal 1 0 0
    outer loop
      vertex 25 -18.3378 5.2624
      vertex 25 -31.5 0
      vertex 25 -17.6511 4.23463
    endloop
  endfacet
  facet normal 1 0 0
    outer loop
      vertex 25 -17.6511 4.23463
      vertex 25 -31.5 0
      vertex 25 -17.6368 4.21322
    endloop
  endfacet
  facet normal 1 0 0
    outer loop
      vertex 25 -17.6368 4.21322
      vertex 25 -31.5 0
      vertex 25 -16.609 3.52648
    endloop
  endfacet
  facet normal 1 0 0
    outer loop
      vertex 25 -16.5876 3.51217
      vertex 25 -31.5 0
      vertex 25 -10.9951 0
    endloop
  endfacet
  facet normal 1 0 0
    outer loop
      vertex 25 -16.609 3.52648
      vertex 25 -31.5 0
      vertex 25 -16.5876 3.51217
    endloop
  endfacet
  facet normal -0.980777 -0.19513 0
    outer loop
      vertex -12.8858 -32.074 0
      vertex -13 -31.5 13
      vertex -13 -31.5 0
    endloop
  endfacet
  facet normal -0.980777 -0.19513 0
    outer loop
      vertex -13 -31.5 13
      vertex -12.8858 -32.074 0
      vertex -12.8858 -32.074 13
    endloop
  endfacet
  facet normal -1 0 0
    outer loop
      vertex -13 -31.5 0
      vertex -13 11.5 13
      vertex -13 11.5 0
    endloop
  endfacet
  facet normal -1 -0 0
    outer loop
      vertex -13 11.5 13
      vertex -13 -31.5 0
      vertex -13 -31.5 13
    endloop
  endfacet
  facet normal 0 0 1
    outer loop
      vertex 18.6691 13 13
      vertex -9.8691 9.9951 13
      vertex 18.6691 9.9951 13
    endloop
  endfacet
  facet normal -0 0 1
    outer loop
      vertex -13 11.5 13
      vertex -9.9809 9.95878 13
      vertex -11.5 13 13
    endloop
  endfacet
  facet normal 0 0 1
    outer loop
      vertex -9.8691 9.9951 13
      vertex -11.5 13 13
      vertex -9.9809 9.95878 13
    endloop
  endfacet
  facet normal -0 0 1
    outer loop
      vertex -11.5 13 13
      vertex -9.8691 9.9951 13
      vertex 18.6691 13 13
    endloop
  endfacet
  facet normal 0 0 1
    outer loop
      vertex 17.5 -10.9951 13
      vertex 16.25 -21.6029 13
      vertex 17.5 -21.1967 13
    endloop
  endfacet
  facet normal -0 0 1
    outer loop
      vertex 12 -10.9951 13
      vertex 16.25 -21.6029 13
      vertex 17.5 -10.9951 13
    endloop
  endfacet
  facet normal 0 0 1
    outer loop
      vertex 16.25 -21.6029 13
      vertex 12 -10.9951 13
      vertex 14.8594 -22.855 13
    endloop
  endfacet
  facet normal 0 0 1
    outer loop
      vertex 12 -29.9 13
      vertex 14.0983 -24.5644 13
      vertex 12 -10.9951 13
    endloop
  endfacet
  facet normal 0 0 1
    outer loop
      vertex 14.8594 -22.855 13
      vertex 12 -10.9951 13
      vertex 14.0983 -24.5644 13
    endloop
  endfacet
  facet normal -0 0 1
    outer loop
      vertex 23 -25.5 13
      vertex 25 -31.5 13
      vertex 25 -10.9951 13
    endloop
  endfacet
  facet normal -0 0 1
    outer loop
      vertex 22.611 -27.3303 13
      vertex 25 -31.5 13
      vertex 23 -25.5 13
    endloop
  endfacet
  facet normal -0 0 1
    outer loop
      vertex 21.5111 -28.8442 13
      vertex 25 -31.5 13
      vertex 22.611 -27.3303 13
    endloop
  endfacet
  facet normal 0 -0 1
    outer loop
      vertex 23.5 -33 13
      vertex 25 -31.5 13
      vertex 21.5111 -28.8442 13
    endloop
  endfacet
  facet normal 0 0 1
    outer loop
      vertex 25 -31.5 13
      vertex 23.5 -33 13
      vertex 24.8858 -32.074 13
    endloop
  endfacet
  facet normal 0 0 1
    outer loop
      vertex 25 -10.9951 13
      vertex 22.611 -23.6697 13
      vertex 23 -25.5 13
    endloop
  endfacet
  facet normal 0 0 1
    outer loop
      vertex 25 -10.9951 13
      vertex 21.5111 -22.1558 13
      vertex 22.611 -23.6697 13
    endloop
  endfacet
  facet normal 0 0 1
    outer loop
      vertex 25 -10.9951 13
      vertex 19.8906 -21.2202 13
      vertex 21.5111 -22.1558 13
    endloop
  endfacet
  facet normal -0 0 1
    outer loop
      vertex 19.5 -10.9951 13
      vertex 19.8906 -21.2202 13
      vertex 25 -10.9951 13
    endloop
  endfacet
  facet normal 0 0 1
    outer loop
      vertex 19.8906 -21.2202 13
      vertex 19.5 -10.9951 13
      vertex 19.5 -21.1792 13
    endloop
  endfacet
  facet normal 0 0 1
    outer loop
      vertex 24.8858 -32.074 13
      vertex 23.5 -33 13
      vertex 24.5607 -32.5607 13
    endloop
  endfacet
  facet normal 0 0 1
    outer loop
      vertex 24.5607 -32.5607 13
      vertex 23.5 -33 13
      vertex 24.074 -32.8858 13
    endloop
  endfacet
  facet normal -0 0 1
    outer loop
      vertex 19.8906 -29.7798 13
      vertex 23.5 -33 13
      vertex 21.5111 -28.8442 13
    endloop
  endfacet
  facet normal -0 0 1
    outer loop
      vertex 18.0296 -29.9753 13
      vertex 23.5 -33 13
      vertex 19.8906 -29.7798 13
    endloop
  endfacet
  facet normal 0 0 1
    outer loop
      vertex 11.9309 -29.9951 13
      vertex 18.0296 -29.9753 13
      vertex 16.25 -29.3971 13
    endloop
  endfacet
  facet normal 0 0 1
    outer loop
      vertex 14.0983 -24.5644 13
      vertex 12 -29.9 13
      vertex 14.0983 -26.4356 13
    endloop
  endfacet
  facet normal 0 0 1
    outer loop
      vertex 12 -29.9 13
      vertex 14.8594 -28.145 13
      vertex 14.0983 -26.4356 13
    endloop
  endfacet
  facet normal 0 0 1
    outer loop
      vertex 12 -29.9 13
      vertex 16.25 -29.3971 13
      vertex 14.8594 -28.145 13
    endloop
  endfacet
  facet normal 0 0 1
    outer loop
      vertex 11.9309 -29.9951 13
      vertex 16.25 -29.3971 13
      vertex 12 -29.9 13
    endloop
  endfacet
  facet normal 0 0 1
    outer loop
      vertex 18.0296 -29.9753 13
      vertex 11.9309 -29.9951 13
      vertex 23.5 -33 13
    endloop
  endfacet
  facet normal 0 0 1
    outer loop
      vertex -11.5 -33 13
      vertex 11.9309 -29.9951 13
      vertex -9.8691 -29.9951 13
    endloop
  endfacet
  facet normal 0 0 1
    outer loop
      vertex 11.9309 -29.9951 13
      vertex -11.5 -33 13
      vertex 23.5 -33 13
    endloop
  endfacet
  facet normal 0 0 1
    outer loop
      vertex -9.9809 -29.9588 13
      vertex -11.5 -33 13
      vertex -9.8691 -29.9951 13
    endloop
  endfacet
  facet normal 0 0 1
    outer loop
      vertex -9.9809 9.95878 13
      vertex -13 11.5 13
      vertex -9.9809 -29.9588 13
    endloop
  endfacet
  facet normal 0 0 1
    outer loop
      vertex -13 11.5 13
      vertex -11.5 13 13
      vertex -12.074 12.8858 13
    endloop
  endfacet
  facet normal 0 0 1
    outer loop
      vertex -13 -31.5 13
      vertex -9.9809 -29.9588 13
      vertex -13 11.5 13
    endloop
  endfacet
  facet normal 0 0 1
    outer loop
      vertex -13 11.5 13
      vertex -12.074 12.8858 13
      vertex -12.5607 12.5607 13
    endloop
  endfacet
  facet normal 0 0 1
    outer loop
      vertex -9.9809 -29.9588 13
      vertex -13 -31.5 13
      vertex -11.5 -33 13
    endloop
  endfacet
  facet normal 0 0 1
    outer loop
      vertex -13 11.5 13
      vertex -12.5607 12.5607 13
      vertex -12.8858 12.074 13
    endloop
  endfacet
  facet normal 0 0 1
    outer loop
      vertex -11.5 -33 13
      vertex -13 -31.5 13
      vertex -12.074 -32.8858 13
    endloop
  endfacet
  facet normal 0 0 1
    outer loop
      vertex -12.074 -32.8858 13
      vertex -13 -31.5 13
      vertex -12.5607 -32.5607 13
    endloop
  endfacet
  facet normal 0 0 1
    outer loop
      vertex -12.5607 -32.5607 13
      vertex -13 -31.5 13
      vertex -12.8858 -32.074 13
    endloop
  endfacet
  facet normal -0.831551 0.555449 0
    outer loop
      vertex -12.8858 12.074 0
      vertex -12.5607 12.5607 13
      vertex -12.5607 12.5607 0
    endloop
  endfacet
  facet normal -0.831551 0.555449 0
    outer loop
      vertex -12.5607 12.5607 13
      vertex -12.8858 12.074 0
      vertex -12.8858 12.074 13
    endloop
  endfacet
  facet normal 0 1 0
    outer loop
      vertex 0.460167 13 9.10974
      vertex 18.6691 13 13
      vertex 12.4602 13 9.10974
    endloop
  endfacet
  facet normal 0 1 0
    outer loop
      vertex 18.6691 13 13
      vertex 14.03 13 8.20339
      vertex 12.4602 13 9.10974
    endloop
  endfacet
  facet normal 0 1 0
    outer loop
      vertex 18.6691 13 13
      vertex 14.65 13 6.5
      vertex 14.03 13 8.20339
    endloop
  endfacet
  facet normal 0 1 -0
    outer loop
      vertex 18.6691 13 0
      vertex 14.65 13 6.5
      vertex 18.6691 13 13
    endloop
  endfacet
  facet normal 0 1 0
    outer loop
      vertex 12.4602 13 3.89026
      vertex 18.6691 13 0
      vertex 0.460167 13 3.89026
    endloop
  endfacet
  facet normal 0 1 0
    outer loop
      vertex 14.03 13 4.79661
      vertex 18.6691 13 0
      vertex 12.4602 13 3.89026
    endloop
  endfacet
  facet normal 0 1 0
    outer loop
      vertex 14.65 13 6.5
      vertex 18.6691 13 0
      vertex 14.03 13 4.79661
    endloop
  endfacet
  facet normal 0 1 0
    outer loop
      vertex 18.6691 13 13
      vertex 0.460167 13 9.10974
      vertex -11.5 13 13
    endloop
  endfacet
  facet normal 0 1 -0
    outer loop
      vertex -1.325 13 8.79497
      vertex -11.5 13 13
      vertex 0.460167 13 9.10974
    endloop
  endfacet
  facet normal 0 1 -0
    outer loop
      vertex -2.49018 13 7.40635
      vertex -11.5 13 13
      vertex -1.325 13 8.79497
    endloop
  endfacet
  facet normal 0 1 -0
    outer loop
      vertex -2.49018 13 5.59365
      vertex -11.5 13 13
      vertex -2.49018 13 7.40635
    endloop
  endfacet
  facet normal 0 1 0
    outer loop
      vertex -11.5 13 0
      vertex -2.49018 13 5.59365
      vertex -1.325 13 4.20503
    endloop
  endfacet
  facet normal 0 1 0
    outer loop
      vertex -11.5 13 0
      vertex 0.460167 13 3.89026
      vertex 18.6691 13 0
    endloop
  endfacet
  facet normal 0 1 0
    outer loop
      vertex -2.49018 13 5.59365
      vertex -11.5 13 0
      vertex -11.5 13 13
    endloop
  endfacet
  facet normal 0 1 0
    outer loop
      vertex 0.460167 13 3.89026
      vertex -11.5 13 0
      vertex -1.325 13 4.20503
    endloop
  endfacet
  facet normal 0.831551 -0.555449 0
    outer loop
      vertex 24.5607 -32.5607 13
      vertex 24.8858 -32.074 0
      vertex 24.8858 -32.074 13
    endloop
  endfacet
  facet normal 0.831551 -0.555449 0
    outer loop
      vertex 24.8858 -32.074 0
      vertex 24.5607 -32.5607 13
      vertex 24.5607 -32.5607 0
    endloop
  endfacet
  facet normal -0.555449 0.831551 0
    outer loop
      vertex -12.074 12.8858 0
      vertex -12.5607 12.5607 13
      vertex -12.074 12.8858 13
    endloop
  endfacet
  facet normal -0.555449 0.831551 0
    outer loop
      vertex -12.5607 12.5607 13
      vertex -12.074 12.8858 0
      vertex -12.5607 12.5607 0
    endloop
  endfacet
  facet normal -0.19513 0.980777 0
    outer loop
      vertex -11.5 13 0
      vertex -12.074 12.8858 13
      vertex -11.5 13 13
    endloop
  endfacet
  facet normal -0.19513 0.980777 0
    outer loop
      vertex -12.074 12.8858 13
      vertex -11.5 13 0
      vertex -12.074 12.8858 0
    endloop
  endfacet
  facet normal 0.980777 -0.19513 0
    outer loop
      vertex 24.8858 -32.074 13
      vertex 25 -31.5 0
      vertex 25 -31.5 13
    endloop
  endfacet
  facet normal 0.980777 -0.19513 0
    outer loop
      vertex 25 -31.5 0
      vertex 24.8858 -32.074 13
      vertex 24.8858 -32.074 0
    endloop
  endfacet
  facet normal 0.555449 -0.831551 0
    outer loop
      vertex 24.074 -32.8858 0
      vertex 24.5607 -32.5607 13
      vertex 24.074 -32.8858 13
    endloop
  endfacet
  facet normal 0.555449 -0.831551 0
    outer loop
      vertex 24.5607 -32.5607 13
      vertex 24.074 -32.8858 0
      vertex 24.5607 -32.5607 0
    endloop
  endfacet
  facet normal 0.19513 -0.980777 0
    outer loop
      vertex 23.5 -33 0
      vertex 24.074 -32.8858 13
      vertex 23.5 -33 13
    endloop
  endfacet
  facet normal 0.19513 -0.980777 0
    outer loop
      vertex 24.074 -32.8858 13
      vertex 23.5 -33 0
      vertex 24.074 -32.8858 0
    endloop
  endfacet
  facet normal 0.308971 -0.951072 0
    outer loop
      vertex -9.9809 9.95878 0
      vertex -9.8691 9.9951 13
      vertex -9.9809 9.95878 13
    endloop
  endfacet
  facet normal 0.308971 -0.951072 0
    outer loop
      vertex -9.8691 9.9951 13
      vertex -9.9809 9.95878 0
      vertex -9.8691 9.9951 0
    endloop
  endfacet
  facet normal 1 -0 0
    outer loop
      vertex -9.9809 -29.9588 13
      vertex -9.9809 9.95878 0
      vertex -9.9809 9.95878 13
    endloop
  endfacet
  facet normal 1 0 0
    outer loop
      vertex -9.9809 9.95878 0
      vertex -9.9809 -29.9588 13
      vertex -9.9809 -29.9588 0
    endloop
  endfacet
  facet normal 0 1 -0
    outer loop
      vertex 25 -10.9951 0
      vertex 19.5 -10.9951 13
      vertex 25 -10.9951 13
    endloop
  endfacet
  facet normal 0 1 0
    outer loop
      vertex 19.5 -10.9951 13
      vertex 25 -10.9951 0
      vertex 19.5 -10.9951 0
    endloop
  endfacet
  facet normal 0 1 -0
    outer loop
      vertex 17.5 -10.9951 0
      vertex 12 -10.9951 13
      vertex 17.5 -10.9951 13
    endloop
  endfacet
  facet normal 0 1 0
    outer loop
      vertex 12 -10.9951 13
      vertex 17.5 -10.9951 0
      vertex 12 -10.9951 0
    endloop
  endfacet
  facet normal 0 -1 0
    outer loop
      vertex -9.8691 9.9951 13
      vertex 0.460167 9.9951 9.10974
      vertex 18.6691 9.9951 13
    endloop
  endfacet
  facet normal 0 -1 0
    outer loop
      vertex -9.8691 9.9951 13
      vertex -1.325 9.9951 8.79497
      vertex 0.460167 9.9951 9.10974
    endloop
  endfacet
  facet normal 0 -1 0
    outer loop
      vertex -9.8691 9.9951 13
      vertex -2.49018 9.9951 7.40635
      vertex -1.325 9.9951 8.79497
    endloop
  endfacet
  facet normal 0 -1 0
    outer loop
      vertex -9.8691 9.9951 13
      vertex -2.49018 9.9951 5.59365
      vertex -2.49018 9.9951 7.40635
    endloop
  endfacet
  facet normal 0 -1 0
    outer loop
      vertex -9.8691 9.9951 0
      vertex -2.49018 9.9951 5.59365
      vertex -9.8691 9.9951 13
    endloop
  endfacet
  facet normal 0 -1 0
    outer loop
      vertex 18.6691 9.9951 0
      vertex 0.460167 9.9951 3.89026
      vertex -9.8691 9.9951 0
    endloop
  endfacet
  facet normal 0 -1 -0
    outer loop
      vertex -1.325 9.9951 4.20503
      vertex -9.8691 9.9951 0
      vertex 0.460167 9.9951 3.89026
    endloop
  endfacet
  facet normal 0 -1 -0
    outer loop
      vertex -2.49018 9.9951 5.59365
      vertex -9.8691 9.9951 0
      vertex -1.325 9.9951 4.20503
    endloop
  endfacet
  facet normal 0 -1 0
    outer loop
      vertex 12.4602 9.9951 9.10974
      vertex 18.6691 9.9951 13
      vertex 0.460167 9.9951 9.10974
    endloop
  endfacet
  facet normal 0 -1 0
    outer loop
      vertex 14.03 9.9951 8.20339
      vertex 18.6691 9.9951 13
      vertex 12.4602 9.9951 9.10974
    endloop
  endfacet
  facet normal 0 -1 0
    outer loop
      vertex 14.65 9.9951 6.5
      vertex 18.6691 9.9951 13
      vertex 14.03 9.9951 8.20339
    endloop
  endfacet
  facet normal 0 -1 0
    outer loop
      vertex 18.6691 9.9951 0
      vertex 14.65 9.9951 6.5
      vertex 14.03 9.9951 4.79661
    endloop
  endfacet
  facet normal 0 -1 0
    outer loop
      vertex 14.65 9.9951 6.5
      vertex 18.6691 9.9951 0
      vertex 18.6691 9.9951 13
    endloop
  endfacet
  facet normal 0 -1 0
    outer loop
      vertex 12.4602 9.9951 3.89026
      vertex 18.6691 9.9951 0
      vertex 14.03 9.9951 4.79661
    endloop
  endfacet
  facet normal 0 -1 0
    outer loop
      vertex 0.460167 9.9951 3.89026
      vertex 18.6691 9.9951 0
      vertex 12.4602 9.9951 3.89026
    endloop
  endfacet
  facet normal 1 -0 0
    outer loop
      vertex 18.6691 9.9951 13
      vertex 18.6691 13 0
      vertex 18.6691 13 13
    endloop
  endfacet
  facet normal 1 0 0
    outer loop
      vertex 18.6691 13 0
      vertex 18.6691 9.9951 13
      vertex 18.6691 9.9951 0
    endloop
  endfacet
  facet normal 0.308817 0.951122 -0
    outer loop
      vertex -9.8691 -29.9951 0
      vertex -9.9809 -29.9588 13
      vertex -9.8691 -29.9951 13
    endloop
  endfacet
  facet normal 0.308817 0.951122 0
    outer loop
      vertex -9.9809 -29.9588 13
      vertex -9.8691 -29.9951 0
      vertex -9.9809 -29.9588 0
    endloop
  endfacet
  facet normal -1 0 0
    outer loop
      vertex 12 -10.9951 0
      vertex 12 -14 6.5
      vertex 12 -10.9951 13
    endloop
  endfacet
  facet normal -1 0 0
    outer loop
      vertex 12 -10.9951 0
      vertex 12 -14.1028 5.98338
      vertex 12 -14 6.5
    endloop
  endfacet
  facet normal -1 0 0
    outer loop
      vertex 12 -10.9951 0
      vertex 12 -14.3954 5.54541
      vertex 12 -14.1028 5.98338
    endloop
  endfacet
  facet normal -1 0 0
    outer loop
      vertex 12 -10.9951 0
      vertex 12 -14.8334 5.25276
      vertex 12 -14.3954 5.54541
    endloop
  endfacet
  facet normal -1 0 0
    outer loop
      vertex 12 -10.9951 0
      vertex 12 -15.35 5.15
      vertex 12 -14.8334 5.25276
    endloop
  endfacet
  facet normal -1 0 0
    outer loop
      vertex 12 -10.9951 0
      vertex 12 -15.8666 5.25276
      vertex 12 -15.35 5.15
    endloop
  endfacet
  facet normal -1 0 0
    outer loop
      vertex 12 -29.9 0
      vertex 12 -15.8666 5.25276
      vertex 12 -10.9951 0
    endloop
  endfacet
  facet normal -1 -0 0
    outer loop
      vertex 12 -16.5972 5.98338
      vertex 12 -29.9 0
      vertex 12 -16.7 6.5
    endloop
  endfacet
  facet normal -1 -0 0
    outer loop
      vertex 12 -16.3046 5.54541
      vertex 12 -29.9 0
      vertex 12 -16.5972 5.98338
    endloop
  endfacet
  facet normal -1 -0 0
    outer loop
      vertex 12 -15.8666 5.25276
      vertex 12 -29.9 0
      vertex 12 -16.3046 5.54541
    endloop
  endfacet
  facet normal -1 0 0
    outer loop
      vertex 12 -14.1028 7.01662
      vertex 12 -10.9951 13
      vertex 12 -14 6.5
    endloop
  endfacet
  facet normal -1 0 0
    outer loop
      vertex 12 -14.3954 7.45459
      vertex 12 -10.9951 13
      vertex 12 -14.1028 7.01662
    endloop
  endfacet
  facet normal -1 0 0
    outer loop
      vertex 12 -14.8334 7.74724
      vertex 12 -10.9951 13
      vertex 12 -14.3954 7.45459
    endloop
  endfacet
  facet normal -1 0 0
    outer loop
      vertex 12 -15.35 7.85
      vertex 12 -10.9951 13
      vertex 12 -14.8334 7.74724
    endloop
  endfacet
  facet normal -1 0 0
    outer loop
      vertex 12 -15.8666 7.74724
      vertex 12 -10.9951 13
      vertex 12 -15.35 7.85
    endloop
  endfacet
  facet normal -1 0 0
    outer loop
      vertex 12 -29.9 13
      vertex 12 -15.8666 7.74724
      vertex 12 -16.3046 7.45459
    endloop
  endfacet
  facet normal -1 0 0
    outer loop
      vertex 12 -29.9 13
      vertex 12 -16.7 6.5
      vertex 12 -29.9 0
    endloop
  endfacet
  facet normal -1 0 0
    outer loop
      vertex 12 -16.7 6.5
      vertex 12 -29.9 13
      vertex 12 -16.5972 7.01662
    endloop
  endfacet
  facet normal -1 0 0
    outer loop
      vertex 12 -16.5972 7.01662
      vertex 12 -29.9 13
      vertex 12 -16.3046 7.45459
    endloop
  endfacet
  facet normal -1 0 0
    outer loop
      vertex 12 -15.8666 7.74724
      vertex 12 -29.9 13
      vertex 12 -10.9951 13
    endloop
  endfacet
  facet normal 0 1 -0
    outer loop
      vertex 11.9309 -29.9951 0
      vertex -9.8691 -29.9951 13
      vertex 11.9309 -29.9951 13
    endloop
  endfacet
  facet normal 0 1 0
    outer loop
      vertex -9.8691 -29.9951 13
      vertex 11.9309 -29.9951 0
      vertex -9.8691 -29.9951 0
    endloop
  endfacet
  facet normal -0.808994 0.587818 0
    outer loop
      vertex 11.9309 -29.9951 0
      vertex 12 -29.9 13
      vertex 12 -29.9 0
    endloop
  endfacet
  facet normal -0.808994 0.587818 0
    outer loop
      vertex 12 -29.9 13
      vertex 11.9309 -29.9951 0
      vertex 11.9309 -29.9951 13
    endloop
  endfacet
  facet normal -0.500011 0 0.866019
    outer loop
      vertex 12.4602 13 3.89026
      vertex 14.03 9.9951 4.79661
      vertex 14.03 13 4.79661
    endloop
  endfacet
  facet normal -0.500011 0 0.866019
    outer loop
      vertex 14.03 9.9951 4.79661
      vertex 12.4602 13 3.89026
      vertex 12.4602 9.9951 3.89026
    endloop
  endfacet
  facet normal -0.500011 0 -0.866019
    outer loop
      vertex 12.4602 9.9951 9.10974
      vertex 14.03 13 8.20339
      vertex 14.03 9.9951 8.20339
    endloop
  endfacet
  facet normal -0.500011 0 -0.866019
    outer loop
      vertex 14.03 13 8.20339
      vertex 12.4602 9.9951 9.10974
      vertex 12.4602 13 9.10974
    endloop
  endfacet
  facet normal 0.766047 0 -0.642784
    outer loop
      vertex -1.325 9.9951 8.79497
      vertex -2.49018 13 7.40635
      vertex -1.325 13 8.79497
    endloop
  endfacet
  facet normal 0.766047 0 -0.642784
    outer loop
      vertex -2.49018 13 7.40635
      vertex -1.325 9.9951 8.79497
      vertex -2.49018 9.9951 7.40635
    endloop
  endfacet
  facet normal -0.93969 0 0.342028
    outer loop
      vertex 14.03 9.9951 4.79661
      vertex 14.65 13 6.5
      vertex 14.03 13 4.79661
    endloop
  endfacet
  facet normal -0.93969 0 0.342028
    outer loop
      vertex 14.65 13 6.5
      vertex 14.03 9.9951 4.79661
      vertex 14.65 9.9951 6.5
    endloop
  endfacet
  facet normal -0 0 1
    outer loop
      vertex 0.460167 13 3.89026
      vertex 12.4602 9.9951 3.89026
      vertex 12.4602 13 3.89026
    endloop
  endfacet
  facet normal 0 0 1
    outer loop
      vertex 12.4602 9.9951 3.89026
      vertex 0.460167 13 3.89026
      vertex 0.460167 9.9951 3.89026
    endloop
  endfacet
  facet normal 0.766047 -0 0.642784
    outer loop
      vertex -2.49018 9.9951 5.59365
      vertex -1.325 13 4.20503
      vertex -2.49018 13 5.59365
    endloop
  endfacet
  facet normal 0.766047 0 0.642784
    outer loop
      vertex -1.325 13 4.20503
      vertex -2.49018 9.9951 5.59365
      vertex -1.325 9.9951 4.20503
    endloop
  endfacet
  facet normal 0 0 -1
    outer loop
      vertex 0.460167 9.9951 9.10974
      vertex 12.4602 13 9.10974
      vertex 12.4602 9.9951 9.10974
    endloop
  endfacet
  facet normal -0 0 -1
    outer loop
      vertex 12.4602 13 9.10974
      vertex 0.460167 9.9951 9.10974
      vertex 0.460167 13 9.10974
    endloop
  endfacet
  facet normal 0.173647 0 -0.984808
    outer loop
      vertex -1.325 9.9951 8.79497
      vertex 0.460167 13 9.10974
      vertex 0.460167 9.9951 9.10974
    endloop
  endfacet
  facet normal 0.173647 0 -0.984808
    outer loop
      vertex 0.460167 13 9.10974
      vertex -1.325 9.9951 8.79497
      vertex -1.325 13 8.79497
    endloop
  endfacet
  facet normal 1 -0 0
    outer loop
      vertex -2.49018 9.9951 7.40635
      vertex -2.49018 13 5.59365
      vertex -2.49018 13 7.40635
    endloop
  endfacet
  facet normal 1 0 0
    outer loop
      vertex -2.49018 13 5.59365
      vertex -2.49018 9.9951 7.40635
      vertex -2.49018 9.9951 5.59365
    endloop
  endfacet
  facet normal -0.93969 0 -0.342028
    outer loop
      vertex 14.65 9.9951 6.5
      vertex 14.03 13 8.20339
      vertex 14.65 13 6.5
    endloop
  endfacet
  facet normal -0.93969 -0 -0.342028
    outer loop
      vertex 14.03 13 8.20339
      vertex 14.65 9.9951 6.5
      vertex 14.03 9.9951 8.20339
    endloop
  endfacet
  facet normal 0.173647 0 0.984808
    outer loop
      vertex -1.325 13 4.20503
      vertex 0.460167 9.9951 3.89026
      vertex 0.460167 13 3.89026
    endloop
  endfacet
  facet normal 0.173647 0 0.984808
    outer loop
      vertex 0.460167 9.9951 3.89026
      vertex -1.325 13 4.20503
      vertex -1.325 9.9951 4.20503
    endloop
  endfacet
  facet normal -0.978152 -0.20789 0
    outer loop
      vertex 23 -25.5 0
      vertex 22.611 -23.6697 13
      vertex 22.611 -23.6697 0
    endloop
  endfacet
  facet normal -0.978152 -0.20789 0
    outer loop
      vertex 22.611 -23.6697 13
      vertex 23 -25.5 0
      vertex 23 -25.5 13
    endloop
  endfacet
  facet normal 1 -0 0
    outer loop
      vertex 14.0983 -26.4356 13
      vertex 14.0983 -24.5644 0
      vertex 14.0983 -24.5644 13
    endloop
  endfacet
  facet normal 1 0 0
    outer loop
      vertex 14.0983 -24.5644 0
      vertex 14.0983 -26.4356 13
      vertex 14.0983 -26.4356 0
    endloop
  endfacet
  facet normal -0.104393 -0.994536 0
    outer loop
      vertex 19.5 -21.1792 0
      vertex 19.8906 -21.2202 13
      vertex 19.5 -21.1792 13
    endloop
  endfacet
  facet normal -0.104393 -0.994536 -0
    outer loop
      vertex 19.8906 -21.2202 13
      vertex 19.5 -21.1792 0
      vertex 19.8906 -21.2202 0
    endloop
  endfacet
  facet normal -0.80902 -0.587781 0
    outer loop
      vertex 22.611 -23.6697 0
      vertex 21.5111 -22.1558 13
      vertex 21.5111 -22.1558 0
    endloop
  endfacet
  facet normal -0.80902 -0.587781 0
    outer loop
      vertex 21.5111 -22.1558 13
      vertex 22.611 -23.6697 0
      vertex 22.611 -23.6697 13
    endloop
  endfacet
  facet normal -0.500002 -0.866025 0
    outer loop
      vertex 19.8906 -21.2202 0
      vertex 21.5111 -22.1558 13
      vertex 19.8906 -21.2202 13
    endloop
  endfacet
  facet normal -0.500002 -0.866025 -0
    outer loop
      vertex 21.5111 -22.1558 13
      vertex 19.8906 -21.2202 0
      vertex 21.5111 -22.1558 0
    endloop
  endfacet
  facet normal 0.309052 -0.951045 0
    outer loop
      vertex 16.25 -21.6029 0
      vertex 17.5 -21.1967 13
      vertex 16.25 -21.6029 13
    endloop
  endfacet
  facet normal 0.309052 -0.951045 0
    outer loop
      vertex 17.5 -21.1967 13
      vertex 16.25 -21.6029 0
      vertex 17.5 -21.1967 0
    endloop
  endfacet
  facet normal 0.66913 -0.743145 0
    outer loop
      vertex 14.8594 -22.855 0
      vertex 16.25 -21.6029 13
      vertex 14.8594 -22.855 13
    endloop
  endfacet
  facet normal 0.66913 -0.743145 0
    outer loop
      vertex 16.25 -21.6029 13
      vertex 14.8594 -22.855 0
      vertex 16.25 -21.6029 0
    endloop
  endfacet
  facet normal -0.978152 0.20789 0
    outer loop
      vertex 22.611 -27.3303 0
      vertex 23 -25.5 13
      vertex 23 -25.5 0
    endloop
  endfacet
  facet normal -0.978152 0.20789 0
    outer loop
      vertex 23 -25.5 13
      vertex 22.611 -27.3303 0
      vertex 22.611 -27.3303 13
    endloop
  endfacet
  facet normal 0.91354 0.406748 0
    outer loop
      vertex 14.8594 -28.145 13
      vertex 14.0983 -26.4356 0
      vertex 14.0983 -26.4356 13
    endloop
  endfacet
  facet normal 0.91354 0.406748 0
    outer loop
      vertex 14.0983 -26.4356 0
      vertex 14.8594 -28.145 13
      vertex 14.8594 -28.145 0
    endloop
  endfacet
  facet normal -0.104476 0.994527 0
    outer loop
      vertex 19.8906 -29.7798 0
      vertex 18.0296 -29.9753 13
      vertex 19.8906 -29.7798 13
    endloop
  endfacet
  facet normal -0.104476 0.994527 0
    outer loop
      vertex 18.0296 -29.9753 13
      vertex 19.8906 -29.7798 0
      vertex 18.0296 -29.9753 0
    endloop
  endfacet
  facet normal 0.66913 0.743145 -0
    outer loop
      vertex 16.25 -29.3971 0
      vertex 14.8594 -28.145 13
      vertex 16.25 -29.3971 13
    endloop
  endfacet
  facet normal 0.66913 0.743145 0
    outer loop
      vertex 14.8594 -28.145 13
      vertex 16.25 -29.3971 0
      vertex 14.8594 -28.145 0
    endloop
  endfacet
  facet normal 0.91354 -0.406748 0
    outer loop
      vertex 14.0983 -24.5644 13
      vertex 14.8594 -22.855 0
      vertex 14.8594 -22.855 13
    endloop
  endfacet
  facet normal 0.91354 -0.406748 0
    outer loop
      vertex 14.8594 -22.855 0
      vertex 14.0983 -24.5644 13
      vertex 14.0983 -24.5644 0
    endloop
  endfacet
  facet normal 0.309004 0.951061 -0
    outer loop
      vertex 18.0296 -29.9753 0
      vertex 16.25 -29.3971 13
      vertex 18.0296 -29.9753 13
    endloop
  endfacet
  facet normal 0.309004 0.951061 0
    outer loop
      vertex 16.25 -29.3971 13
      vertex 18.0296 -29.9753 0
      vertex 16.25 -29.3971 0
    endloop
  endfacet
  facet normal -0.500002 0.866025 0
    outer loop
      vertex 21.5111 -28.8442 0
      vertex 19.8906 -29.7798 13
      vertex 21.5111 -28.8442 13
    endloop
  endfacet
  facet normal -0.500002 0.866025 0
    outer loop
      vertex 19.8906 -29.7798 13
      vertex 21.5111 -28.8442 0
      vertex 19.8906 -29.7798 0
    endloop
  endfacet
  facet normal -0.80902 0.587781 0
    outer loop
      vertex 21.5111 -28.8442 0
      vertex 22.611 -27.3303 13
      vertex 22.611 -27.3303 0
    endloop
  endfacet
  facet normal -0.80902 0.587781 0
    outer loop
      vertex 22.611 -27.3303 13
      vertex 21.5111 -28.8442 0
      vertex 21.5111 -28.8442 13
    endloop
  endfacet
  facet normal 1 0 0
    outer loop
      vertex 17.5 -10.9951 13
      vertex 17.5 -14 6.5
      vertex 17.5 -10.9951 0
    endloop
  endfacet
  facet normal 1 0 0
    outer loop
      vertex 17.5 -10.9951 13
      vertex 17.5 -14.1028 7.01662
      vertex 17.5 -14 6.5
    endloop
  endfacet
  facet normal 1 0 0
    outer loop
      vertex 17.5 -10.9951 13
      vertex 17.5 -14.3954 7.45459
      vertex 17.5 -14.1028 7.01662
    endloop
  endfacet
  facet normal 1 0 0
    outer loop
      vertex 17.5 -10.9951 13
      vertex 17.5 -14.8334 7.74724
      vertex 17.5 -14.3954 7.45459
    endloop
  endfacet
  facet normal 1 0 0
    outer loop
      vertex 17.5 -10.9951 13
      vertex 17.5 -15.35 7.85
      vertex 17.5 -14.8334 7.74724
    endloop
  endfacet
  facet normal 1 -0 0
    outer loop
      vertex 17.5 -21.1967 13
      vertex 17.5 -15.35 7.85
      vertex 17.5 -10.9951 13
    endloop
  endfacet
  facet normal 1 0 0
    outer loop
      vertex 17.5 -15.35 7.85
      vertex 17.5 -21.1967 13
      vertex 17.5 -15.8666 7.74724
    endloop
  endfacet
  facet normal 1 0 0
    outer loop
      vertex 17.5 -16.5972 7.01662
      vertex 17.5 -21.1967 13
      vertex 17.5 -16.7 6.5
    endloop
  endfacet
  facet normal 1 0 0
    outer loop
      vertex 17.5 -16.3046 7.45459
      vertex 17.5 -21.1967 13
      vertex 17.5 -16.5972 7.01662
    endloop
  endfacet
  facet normal 1 0 0
    outer loop
      vertex 17.5 -15.8666 7.74724
      vertex 17.5 -21.1967 13
      vertex 17.5 -16.3046 7.45459
    endloop
  endfacet
  facet normal 1 -0 0
    outer loop
      vertex 17.5 -14.1028 5.98338
      vertex 17.5 -10.9951 0
      vertex 17.5 -14 6.5
    endloop
  endfacet
  facet normal 1 -0 0
    outer loop
      vertex 17.5 -14.3954 5.54541
      vertex 17.5 -10.9951 0
      vertex 17.5 -14.1028 5.98338
    endloop
  endfacet
  facet normal 1 -0 0
    outer loop
      vertex 17.5 -14.8334 5.25276
      vertex 17.5 -10.9951 0
      vertex 17.5 -14.3954 5.54541
    endloop
  endfacet
  facet normal 1 -0 0
    outer loop
      vertex 17.5 -15.35 5.15
      vertex 17.5 -10.9951 0
      vertex 17.5 -14.8334 5.25276
    endloop
  endfacet
  facet normal 1 0 0
    outer loop
      vertex 17.5 -21.1967 0
      vertex 17.5 -15.35 5.15
      vertex 17.5 -15.8666 5.25276
    endloop
  endfacet
  facet normal 1 0 0
    outer loop
      vertex 17.5 -21.1967 0
      vertex 17.5 -15.8666 5.25276
      vertex 17.5 -16.3046 5.54541
    endloop
  endfacet
  facet normal 1 0 0
    outer loop
      vertex 17.5 -21.1967 0
      vertex 17.5 -16.7 6.5
      vertex 17.5 -21.1967 13
    endloop
  endfacet
  facet normal 1 0 0
    outer loop
      vertex 17.5 -15.35 5.15
      vertex 17.5 -21.1967 0
      vertex 17.5 -10.9951 0
    endloop
  endfacet
  facet normal 1 0 0
    outer loop
      vertex 17.5 -16.5972 5.98338
      vertex 17.5 -21.1967 0
      vertex 17.5 -16.3046 5.54541
    endloop
  endfacet
  facet normal 1 0 0
    outer loop
      vertex 17.5 -16.7 6.5
      vertex 17.5 -21.1967 0
      vertex 17.5 -16.5972 5.98338
    endloop
  endfacet
  facet normal -1 0 0
    outer loop
      vertex 19.5 -10.9951 0
      vertex 19.5 -13.7 6.5
      vertex 19.5 -10.9951 13
    endloop
  endfacet
  facet normal -1 0 0
    outer loop
      vertex 19.5 -10.9951 0
      vertex 19.5 -13.8256 5.86857
      vertex 19.5 -13.7 6.5
    endloop
  endfacet
  facet normal -1 0 0
    outer loop
      vertex 19.5 -10.9951 0
      vertex 19.5 -14.1833 5.33327
      vertex 19.5 -13.8256 5.86857
    endloop
  endfacet
  facet normal -1 0 0
    outer loop
      vertex 19.5 -10.9951 0
      vertex 19.5 -14.7186 4.9756
      vertex 19.5 -14.1833 5.33327
    endloop
  endfacet
  facet normal -1 0 0
    outer loop
      vertex 19.5 -10.9951 0
      vertex 19.5 -15.35 4.85
      vertex 19.5 -14.7186 4.9756
    endloop
  endfacet
  facet normal -1 0 0
    outer loop
      vertex 19.5 -21.1792 0
      vertex 19.5 -15.35 4.85
      vertex 19.5 -10.9951 0
    endloop
  endfacet
  facet normal -1 -0 0
    outer loop
      vertex 19.5 -15.35 4.85
      vertex 19.5 -21.1792 0
      vertex 19.5 -15.9814 4.9756
    endloop
  endfacet
  facet normal -1 -0 0
    outer loop
      vertex 19.5 -16.8744 5.86857
      vertex 19.5 -21.1792 0
      vertex 19.5 -17 6.5
    endloop
  endfacet
  facet normal -1 -0 0
    outer loop
      vertex 19.5 -16.5167 5.33327
      vertex 19.5 -21.1792 0
      vertex 19.5 -16.8744 5.86857
    endloop
  endfacet
  facet normal -1 -0 0
    outer loop
      vertex 19.5 -15.9814 4.9756
      vertex 19.5 -21.1792 0
      vertex 19.5 -16.5167 5.33327
    endloop
  endfacet
  facet normal -1 0 0
    outer loop
      vertex 19.5 -13.8256 7.13143
      vertex 19.5 -10.9951 13
      vertex 19.5 -13.7 6.5
    endloop
  endfacet
  facet normal -1 0 0
    outer loop
      vertex 19.5 -14.1833 7.66673
      vertex 19.5 -10.9951 13
      vertex 19.5 -13.8256 7.13143
    endloop
  endfacet
  facet normal -1 0 0
    outer loop
      vertex 19.5 -14.7186 8.0244
      vertex 19.5 -10.9951 13
      vertex 19.5 -14.1833 7.66673
    endloop
  endfacet
  facet normal -1 0 0
    outer loop
      vertex 19.5 -15.35 8.15
      vertex 19.5 -10.9951 13
      vertex 19.5 -14.7186 8.0244
    endloop
  endfacet
  facet normal -1 0 0
    outer loop
      vertex 19.5 -21.1792 13
      vertex 19.5 -15.35 8.15
      vertex 19.5 -15.9814 8.0244
    endloop
  endfacet
  facet normal -1 0 0
    outer loop
      vertex 19.5 -21.1792 13
      vertex 19.5 -15.9814 8.0244
      vertex 19.5 -16.5167 7.66673
    endloop
  endfacet
  facet normal -1 0 0
    outer loop
      vertex 19.5 -21.1792 13
      vertex 19.5 -17 6.5
      vertex 19.5 -21.1792 0
    endloop
  endfacet
  facet normal -1 0 0
    outer loop
      vertex 19.5 -15.35 8.15
      vertex 19.5 -21.1792 13
      vertex 19.5 -10.9951 13
    endloop
  endfacet
  facet normal -1 0 0
    outer loop
      vertex 19.5 -16.8744 7.13143
      vertex 19.5 -21.1792 13
      vertex 19.5 -16.5167 7.66673
    endloop
  endfacet
  facet normal -1 0 0
    outer loop
      vertex 19.5 -17 6.5
      vertex 19.5 -21.1792 13
      vertex 19.5 -16.8744 7.13143
    endloop
  endfacet
  facet normal 0 -0.195094 -0.980785
    outer loop
      vertex 12 -15.35 7.85
      vertex 17.5 -14.8334 7.74724
      vertex 17.5 -15.35 7.85
    endloop
  endfacet
  facet normal -0 -0.195094 -0.980785
    outer loop
      vertex 17.5 -14.8334 7.74724
      vertex 12 -15.35 7.85
      vertex 12 -14.8334 7.74724
    endloop
  endfacet
  facet normal 0 -0.980772 0.19516
    outer loop
      vertex 12 -14.1028 5.98338
      vertex 17.5 -14 6.5
      vertex 12 -14 6.5
    endloop
  endfacet
  facet normal 0 -0.980772 0.19516
    outer loop
      vertex 17.5 -14 6.5
      vertex 12 -14.1028 5.98338
      vertex 17.5 -14.1028 5.98338
    endloop
  endfacet
  facet normal 0 0.980772 -0.19516
    outer loop
      vertex 17.5 -16.7 6.5
      vertex 12 -16.5972 7.01662
      vertex 17.5 -16.5972 7.01662
    endloop
  endfacet
  facet normal 0 0.980772 -0.19516
    outer loop
      vertex 12 -16.5972 7.01662
      vertex 17.5 -16.7 6.5
      vertex 12 -16.7 6.5
    endloop
  endfacet
  facet normal -0 0.195094 0.980785
    outer loop
      vertex 12 -15.35 5.15
      vertex 17.5 -15.8666 5.25276
      vertex 17.5 -15.35 5.15
    endloop
  endfacet
  facet normal 0 0.195094 0.980785
    outer loop
      vertex 17.5 -15.8666 5.25276
      vertex 12 -15.35 5.15
      vertex 12 -15.8666 5.25276
    endloop
  endfacet
  facet normal 0 -0.555554 0.83148
    outer loop
      vertex 12 -14.3954 5.54541
      vertex 17.5 -14.8334 5.25276
      vertex 17.5 -14.3954 5.54541
    endloop
  endfacet
  facet normal 0 -0.555554 0.83148
    outer loop
      vertex 17.5 -14.8334 5.25276
      vertex 12 -14.3954 5.54541
      vertex 12 -14.8334 5.25276
    endloop
  endfacet
  facet normal 0 -0.980772 -0.19516
    outer loop
      vertex 12 -14 6.5
      vertex 17.5 -14.1028 7.01662
      vertex 12 -14.1028 7.01662
    endloop
  endfacet
  facet normal 0 -0.980772 -0.19516
    outer loop
      vertex 17.5 -14.1028 7.01662
      vertex 12 -14 6.5
      vertex 17.5 -14 6.5
    endloop
  endfacet
  facet normal 0 -0.831507 -0.555515
    outer loop
      vertex 12 -14.1028 7.01662
      vertex 17.5 -14.3954 7.45459
      vertex 12 -14.3954 7.45459
    endloop
  endfacet
  facet normal 0 -0.831507 -0.555515
    outer loop
      vertex 17.5 -14.3954 7.45459
      vertex 12 -14.1028 7.01662
      vertex 17.5 -14.1028 7.01662
    endloop
  endfacet
  facet normal 0 -0.555554 -0.83148
    outer loop
      vertex 12 -14.8334 7.74724
      vertex 17.5 -14.3954 7.45459
      vertex 17.5 -14.8334 7.74724
    endloop
  endfacet
  facet normal -0 -0.555554 -0.83148
    outer loop
      vertex 17.5 -14.3954 7.45459
      vertex 12 -14.8334 7.74724
      vertex 12 -14.3954 7.45459
    endloop
  endfacet
  facet normal 0 0.831507 0.555515
    outer loop
      vertex 17.5 -16.3046 5.54541
      vertex 12 -16.5972 5.98338
      vertex 17.5 -16.5972 5.98338
    endloop
  endfacet
  facet normal 0 0.831507 0.555515
    outer loop
      vertex 12 -16.5972 5.98338
      vertex 17.5 -16.3046 5.54541
      vertex 12 -16.3046 5.54541
    endloop
  endfacet
  facet normal 0 0.980772 0.19516
    outer loop
      vertex 17.5 -16.5972 5.98338
      vertex 12 -16.7 6.5
      vertex 17.5 -16.7 6.5
    endloop
  endfacet
  facet normal 0 0.980772 0.19516
    outer loop
      vertex 12 -16.7 6.5
      vertex 17.5 -16.5972 5.98338
      vertex 12 -16.5972 5.98338
    endloop
  endfacet
  facet normal -0 0.555554 0.83148
    outer loop
      vertex 12 -15.8666 5.25276
      vertex 17.5 -16.3046 5.54541
      vertex 17.5 -15.8666 5.25276
    endloop
  endfacet
  facet normal 0 0.555554 0.83148
    outer loop
      vertex 17.5 -16.3046 5.54541
      vertex 12 -15.8666 5.25276
      vertex 12 -16.3046 5.54541
    endloop
  endfacet
  facet normal 0 0.195094 -0.980785
    outer loop
      vertex 12 -15.8666 7.74724
      vertex 17.5 -15.35 7.85
      vertex 17.5 -15.8666 7.74724
    endloop
  endfacet
  facet normal 0 0.195094 -0.980785
    outer loop
      vertex 17.5 -15.35 7.85
      vertex 12 -15.8666 7.74724
      vertex 12 -15.35 7.85
    endloop
  endfacet
  facet normal 0 0.555554 -0.83148
    outer loop
      vertex 12 -16.3046 7.45459
      vertex 17.5 -15.8666 7.74724
      vertex 17.5 -16.3046 7.45459
    endloop
  endfacet
  facet normal 0 0.555554 -0.83148
    outer loop
      vertex 17.5 -15.8666 7.74724
      vertex 12 -16.3046 7.45459
      vertex 12 -15.8666 7.74724
    endloop
  endfacet
  facet normal 0 -0.831507 0.555515
    outer loop
      vertex 12 -14.3954 5.54541
      vertex 17.5 -14.1028 5.98338
      vertex 12 -14.1028 5.98338
    endloop
  endfacet
  facet normal 0 -0.831507 0.555515
    outer loop
      vertex 17.5 -14.1028 5.98338
      vertex 12 -14.3954 5.54541
      vertex 17.5 -14.3954 5.54541
    endloop
  endfacet
  facet normal 0 -0.195094 0.980785
    outer loop
      vertex 12 -14.8334 5.25276
      vertex 17.5 -15.35 5.15
      vertex 17.5 -14.8334 5.25276
    endloop
  endfacet
  facet normal 0 -0.195094 0.980785
    outer loop
      vertex 17.5 -15.35 5.15
      vertex 12 -14.8334 5.25276
      vertex 12 -15.35 5.15
    endloop
  endfacet
  facet normal 0 0.831507 -0.555515
    outer loop
      vertex 17.5 -16.5972 7.01662
      vertex 12 -16.3046 7.45459
      vertex 17.5 -16.3046 7.45459
    endloop
  endfacet
  facet normal 0 0.831507 -0.555515
    outer loop
      vertex 12 -16.3046 7.45459
      vertex 17.5 -16.5972 7.01662
      vertex 12 -16.5972 7.01662
    endloop
  endfacet
  facet normal 0 -0.1951 0.980783
    outer loop
      vertex 19.5 -14.7186 4.9756
      vertex 22.6 -15.35 4.85
      vertex 22.6 -14.7186 4.9756
    endloop
  endfacet
  facet normal 0 -0.1951 0.980783
    outer loop
      vertex 22.6 -15.35 4.85
      vertex 19.5 -14.7186 4.9756
      vertex 19.5 -15.35 4.85
    endloop
  endfacet
  facet normal 0 -0.1951 -0.980783
    outer loop
      vertex 19.5 -15.35 8.15
      vertex 22.6 -14.7186 8.0244
      vertex 22.6 -15.35 8.15
    endloop
  endfacet
  facet normal -0 -0.1951 -0.980783
    outer loop
      vertex 22.6 -14.7186 8.0244
      vertex 19.5 -15.35 8.15
      vertex 19.5 -14.7186 8.0244
    endloop
  endfacet
  facet normal 0 -0.555564 0.831474
    outer loop
      vertex 19.5 -14.1833 5.33327
      vertex 22.6 -14.7186 4.9756
      vertex 22.6 -14.1833 5.33327
    endloop
  endfacet
  facet normal 0 -0.555564 0.831474
    outer loop
      vertex 22.6 -14.7186 4.9756
      vertex 19.5 -14.1833 5.33327
      vertex 19.5 -14.7186 4.9756
    endloop
  endfacet
  facet normal 0 0.980785 -0.195091
    outer loop
      vertex 22.6 -17 6.5
      vertex 19.5 -16.8744 7.13143
      vertex 22.6 -16.8744 7.13143
    endloop
  endfacet
  facet normal 0 0.980785 -0.195091
    outer loop
      vertex 19.5 -16.8744 7.13143
      vertex 22.6 -17 6.5
      vertex 19.5 -17 6.5
    endloop
  endfacet
  facet normal 0 0.980785 0.195091
    outer loop
      vertex 22.6 -16.8744 5.86857
      vertex 19.5 -17 6.5
      vertex 22.6 -17 6.5
    endloop
  endfacet
  facet normal 0 0.980785 0.195091
    outer loop
      vertex 19.5 -17 6.5
      vertex 22.6 -16.8744 5.86857
      vertex 19.5 -16.8744 5.86857
    endloop
  endfacet
  facet normal 0 -0.980785 0.195091
    outer loop
      vertex 19.5 -13.8256 5.86857
      vertex 22.6 -13.7 6.5
      vertex 19.5 -13.7 6.5
    endloop
  endfacet
  facet normal 0 -0.980785 0.195091
    outer loop
      vertex 22.6 -13.7 6.5
      vertex 19.5 -13.8256 5.86857
      vertex 22.6 -13.8256 5.86857
    endloop
  endfacet
  facet normal 0 -0.831452 0.555596
    outer loop
      vertex 19.5 -14.1833 5.33327
      vertex 22.6 -13.8256 5.86857
      vertex 19.5 -13.8256 5.86857
    endloop
  endfacet
  facet normal 0 -0.831452 0.555596
    outer loop
      vertex 22.6 -13.8256 5.86857
      vertex 19.5 -14.1833 5.33327
      vertex 22.6 -14.1833 5.33327
    endloop
  endfacet
  facet normal 0 -0.980785 -0.195091
    outer loop
      vertex 19.5 -13.7 6.5
      vertex 22.6 -13.8256 7.13143
      vertex 19.5 -13.8256 7.13143
    endloop
  endfacet
  facet normal 0 -0.980785 -0.195091
    outer loop
      vertex 22.6 -13.8256 7.13143
      vertex 19.5 -13.7 6.5
      vertex 22.6 -13.7 6.5
    endloop
  endfacet
  facet normal 0 -0.831452 -0.555596
    outer loop
      vertex 19.5 -13.8256 7.13143
      vertex 22.6 -14.1833 7.66673
      vertex 19.5 -14.1833 7.66673
    endloop
  endfacet
  facet normal 0 -0.831452 -0.555596
    outer loop
      vertex 22.6 -14.1833 7.66673
      vertex 19.5 -13.8256 7.13143
      vertex 22.6 -13.8256 7.13143
    endloop
  endfacet
  facet normal 0 0.1951 -0.980783
    outer loop
      vertex 19.5 -15.9814 8.0244
      vertex 22.6 -15.35 8.15
      vertex 22.6 -15.9814 8.0244
    endloop
  endfacet
  facet normal 0 0.1951 -0.980783
    outer loop
      vertex 22.6 -15.35 8.15
      vertex 19.5 -15.9814 8.0244
      vertex 19.5 -15.35 8.15
    endloop
  endfacet
  facet normal 0 0.555564 -0.831474
    outer loop
      vertex 19.5 -16.5167 7.66673
      vertex 22.6 -15.9814 8.0244
      vertex 22.6 -16.5167 7.66673
    endloop
  endfacet
  facet normal 0 0.555564 -0.831474
    outer loop
      vertex 22.6 -15.9814 8.0244
      vertex 19.5 -16.5167 7.66673
      vertex 19.5 -15.9814 8.0244
    endloop
  endfacet
  facet normal 0 -0.555564 -0.831474
    outer loop
      vertex 19.5 -14.7186 8.0244
      vertex 22.6 -14.1833 7.66673
      vertex 22.6 -14.7186 8.0244
    endloop
  endfacet
  facet normal -0 -0.555564 -0.831474
    outer loop
      vertex 22.6 -14.1833 7.66673
      vertex 19.5 -14.7186 8.0244
      vertex 19.5 -14.1833 7.66673
    endloop
  endfacet
  facet normal -0 0.555564 0.831474
    outer loop
      vertex 19.5 -15.9814 4.9756
      vertex 22.6 -16.5167 5.33327
      vertex 22.6 -15.9814 4.9756
    endloop
  endfacet
  facet normal 0 0.555564 0.831474
    outer loop
      vertex 22.6 -16.5167 5.33327
      vertex 19.5 -15.9814 4.9756
      vertex 19.5 -16.5167 5.33327
    endloop
  endfacet
  facet normal 0 0.831452 0.555596
    outer loop
      vertex 22.6 -16.5167 5.33327
      vertex 19.5 -16.8744 5.86857
      vertex 22.6 -16.8744 5.86857
    endloop
  endfacet
  facet normal 0 0.831452 0.555596
    outer loop
      vertex 19.5 -16.8744 5.86857
      vertex 22.6 -16.5167 5.33327
      vertex 19.5 -16.5167 5.33327
    endloop
  endfacet
  facet normal -0 0.1951 0.980783
    outer loop
      vertex 19.5 -15.35 4.85
      vertex 22.6 -15.9814 4.9756
      vertex 22.6 -15.35 4.85
    endloop
  endfacet
  facet normal 0 0.1951 0.980783
    outer loop
      vertex 22.6 -15.9814 4.9756
      vertex 19.5 -15.35 4.85
      vertex 19.5 -15.9814 4.9756
    endloop
  endfacet
  facet normal 0 0.831452 -0.555596
    outer loop
      vertex 22.6 -16.8744 7.13143
      vertex 19.5 -16.5167 7.66673
      vertex 22.6 -16.5167 7.66673
    endloop
  endfacet
  facet normal 0 0.831452 -0.555596
    outer loop
      vertex 19.5 -16.5167 7.66673
      vertex 22.6 -16.8744 7.13143
      vertex 19.5 -16.8744 7.13143
    endloop
  endfacet
  facet normal 0.543405 0.82334 0.163774
    outer loop
      vertex 25 -18.584 6.5
      vertex 22.6 -16.8744 5.86857
      vertex 22.6 -17 6.5
    endloop
  endfacet
  facet normal 0.5434 0.82334 0.16379
    outer loop
      vertex 22.6 -16.8744 5.86857
      vertex 25 -18.584 6.5
      vertex 25 -18.3378 5.2624
    endloop
  endfacet
  facet normal 0.543404 -0.163778 0.82334
    outer loop
      vertex 25 -15.35 3.266
      vertex 25 -14.1377 3.50715
      vertex 22.6 -15.35 4.85
    endloop
  endfacet
  facet normal 0.543371 -0.163386 0.82344
    outer loop
      vertex 22.6 -14.7186 4.9756
      vertex 25 -14.1377 3.50715
      vertex 25 -14.1124 3.51217
    endloop
  endfacet
  facet normal 0.543405 -0.163781 0.823339
    outer loop
      vertex 25 -14.1377 3.50715
      vertex 22.6 -14.7186 4.9756
      vertex 22.6 -15.35 4.85
    endloop
  endfacet
  facet normal 0.543405 0.163781 0.823339
    outer loop
      vertex 22.6 -15.9814 4.9756
      vertex 25 -16.5623 3.50715
      vertex 22.6 -15.35 4.85
    endloop
  endfacet
  facet normal 0.543371 0.163386 0.82344
    outer loop
      vertex 25 -16.5623 3.50715
      vertex 22.6 -15.9814 4.9756
      vertex 25 -16.5876 3.51217
    endloop
  endfacet
  facet normal 0.543325 0.466661 -0.697872
    outer loop
      vertex 22.6 -16.5167 7.66673
      vertex 25 -16.5876 9.48783
      vertex 25 -16.609 9.47352
    endloop
  endfacet
  facet normal 0.54341 0.466378 -0.697995
    outer loop
      vertex 25 -16.5876 9.48783
      vertex 22.6 -16.5167 7.66673
      vertex 22.6 -15.9814 8.0244
    endloop
  endfacet
  facet normal 0.543404 -0.163778 -0.82334
    outer loop
      vertex 25 -14.1377 9.49285
      vertex 25 -15.35 9.734
      vertex 22.6 -15.35 8.15
    endloop
  endfacet
  facet normal 0.543408 0.466377 0.697997
    outer loop
      vertex 25 -17.6368 4.21322
      vertex 25 -16.609 3.52648
      vertex 22.6 -16.5167 5.33327
    endloop
  endfacet
  facet normal 0.543404 0.163778 0.82334
    outer loop
      vertex 25 -16.5623 3.50715
      vertex 25 -15.35 3.266
      vertex 22.6 -15.35 4.85
    endloop
  endfacet
  facet normal 0.543401 0.698007 0.46637
    outer loop
      vertex 25 -18.3378 5.2624
      vertex 25 -17.6511 4.23463
      vertex 22.6 -16.8744 5.86857
    endloop
  endfacet
  facet normal 0.543408 -0.823345 -0.16374
    outer loop
      vertex 25 -12.116 6.5
      vertex 25 -12.3571 7.71234
      vertex 22.6 -13.7 6.5
    endloop
  endfacet
  facet normal 0.54341 -0.466378 -0.697995
    outer loop
      vertex 22.6 -14.1833 7.66673
      vertex 25 -14.1124 9.48783
      vertex 22.6 -14.7186 8.0244
    endloop
  endfacet
  facet normal 0.543325 -0.466661 -0.697872
    outer loop
      vertex 25 -14.1124 9.48783
      vertex 22.6 -14.1833 7.66673
      vertex 25 -14.091 9.47352
    endloop
  endfacet
  facet normal 0.54341 0.466378 0.697995
    outer loop
      vertex 22.6 -16.5167 5.33327
      vertex 25 -16.5876 3.51217
      vertex 22.6 -15.9814 4.9756
    endloop
  endfacet
  facet normal 0.543325 0.466661 0.697872
    outer loop
      vertex 25 -16.5876 3.51217
      vertex 22.6 -16.5167 5.33327
      vertex 25 -16.609 3.52648
    endloop
  endfacet
  facet normal 0.543414 0.697975 0.466403
    outer loop
      vertex 25 -17.6511 4.23463
      vertex 22.6 -16.5167 5.33327
      vertex 22.6 -16.8744 5.86857
    endloop
  endfacet
  facet normal 0.543399 0.698084 0.466259
    outer loop
      vertex 22.6 -16.5167 5.33327
      vertex 25 -17.6511 4.23463
      vertex 25 -17.6368 4.21322
    endloop
  endfacet
  facet normal 0.543402 0.823336 -0.163806
    outer loop
      vertex 25 -18.3428 7.71234
      vertex 25 -18.584 6.5
      vertex 22.6 -17 6.5
    endloop
  endfacet
  facet normal 0.543408 0.466377 -0.697997
    outer loop
      vertex 25 -16.609 9.47352
      vertex 25 -17.6368 8.78678
      vertex 22.6 -16.5167 7.66673
    endloop
  endfacet
  facet normal 0.543327 0.823542 -0.163013
    outer loop
      vertex 25 -18.3428 7.71234
      vertex 22.6 -16.8744 7.13143
      vertex 25 -18.3378 7.7376
    endloop
  endfacet
  facet normal 0.543393 0.823348 -0.163775
    outer loop
      vertex 22.6 -16.8744 7.13143
      vertex 25 -18.3428 7.71234
      vertex 22.6 -17 6.5
    endloop
  endfacet
  facet normal 0.543405 -0.82334 0.163774
    outer loop
      vertex 22.6 -13.8256 5.86857
      vertex 25 -12.116 6.5
      vertex 22.6 -13.7 6.5
    endloop
  endfacet
  facet normal 0.5434 -0.82334 0.16379
    outer loop
      vertex 25 -12.116 6.5
      vertex 22.6 -13.8256 5.86857
      vertex 25 -12.3622 5.2624
    endloop
  endfacet
  facet normal 0.543404 0.163778 -0.82334
    outer loop
      vertex 25 -15.35 9.734
      vertex 25 -16.5623 9.49285
      vertex 22.6 -15.35 8.15
    endloop
  endfacet
  facet normal 0.543371 0.163386 -0.82344
    outer loop
      vertex 22.6 -15.9814 8.0244
      vertex 25 -16.5623 9.49285
      vertex 25 -16.5876 9.48783
    endloop
  endfacet
  facet normal 0.543405 0.163781 -0.823339
    outer loop
      vertex 25 -16.5623 9.49285
      vertex 22.6 -15.9814 8.0244
      vertex 22.6 -15.35 8.15
    endloop
  endfacet
  facet normal 0.543401 0.698007 -0.46637
    outer loop
      vertex 25 -17.6511 8.76537
      vertex 25 -18.3378 7.7376
      vertex 22.6 -16.8744 7.13143
    endloop
  endfacet
  facet normal 0.543399 0.698084 -0.466259
    outer loop
      vertex 25 -17.6511 8.76537
      vertex 22.6 -16.5167 7.66673
      vertex 25 -17.6368 8.78678
    endloop
  endfacet
  facet normal 0.543414 0.697975 -0.466403
    outer loop
      vertex 22.6 -16.5167 7.66673
      vertex 25 -17.6511 8.76537
      vertex 22.6 -16.8744 7.13143
    endloop
  endfacet
  facet normal 0.543411 -0.698002 0.466367
    outer loop
      vertex 25 -13.0632 4.21322
      vertex 25 -12.3765 5.24099
      vertex 22.6 -14.1833 5.33327
    endloop
  endfacet
  facet normal 0.543325 -0.466661 0.697872
    outer loop
      vertex 22.6 -14.1833 5.33327
      vertex 25 -14.1124 3.51217
      vertex 25 -14.091 3.52648
    endloop
  endfacet
  facet normal 0.54341 -0.466378 0.697995
    outer loop
      vertex 25 -14.1124 3.51217
      vertex 22.6 -14.1833 5.33327
      vertex 22.6 -14.7186 4.9756
    endloop
  endfacet
  facet normal 0.543408 -0.466377 0.697997
    outer loop
      vertex 25 -14.091 3.52648
      vertex 25 -13.0632 4.21322
      vertex 22.6 -14.1833 5.33327
    endloop
  endfacet
  facet normal 0.543405 -0.163781 -0.823339
    outer loop
      vertex 22.6 -14.7186 8.0244
      vertex 25 -14.1377 9.49285
      vertex 22.6 -15.35 8.15
    endloop
  endfacet
  facet normal 0.543371 -0.163386 -0.82344
    outer loop
      vertex 25 -14.1377 9.49285
      vertex 22.6 -14.7186 8.0244
      vertex 25 -14.1124 9.48783
    endloop
  endfacet
  facet normal 0.543411 -0.698002 -0.466367
    outer loop
      vertex 25 -12.3765 7.75901
      vertex 25 -13.0632 8.78678
      vertex 22.6 -14.1833 7.66673
    endloop
  endfacet
  facet normal 0.543408 -0.466377 -0.697997
    outer loop
      vertex 25 -13.0632 8.78678
      vertex 25 -14.091 9.47352
      vertex 22.6 -14.1833 7.66673
    endloop
  endfacet
  facet normal 0.543448 -0.698057 -0.466241
    outer loop
      vertex 22.6 -14.1833 7.66673
      vertex 25 -12.3622 7.7376
      vertex 25 -12.3765 7.75901
    endloop
  endfacet
  facet normal 0.543397 -0.697984 -0.466409
    outer loop
      vertex 25 -12.3622 7.7376
      vertex 22.6 -14.1833 7.66673
      vertex 22.6 -13.8256 7.13143
    endloop
  endfacet
  facet normal 0.543616 -0.822733 -0.16611
    outer loop
      vertex 22.6 -13.8256 7.13143
      vertex 25 -12.3571 7.71234
      vertex 25 -12.3622 7.7376
    endloop
  endfacet
  facet normal 0.543417 -0.823333 -0.163772
    outer loop
      vertex 25 -12.3571 7.71234
      vertex 22.6 -13.8256 7.13143
      vertex 22.6 -13.7 6.5
    endloop
  endfacet
  facet normal 0.543397 -0.697984 0.466409
    outer loop
      vertex 22.6 -14.1833 5.33327
      vertex 25 -12.3622 5.2624
      vertex 22.6 -13.8256 5.86857
    endloop
  endfacet
  facet normal 0.543448 -0.698057 0.466241
    outer loop
      vertex 25 -12.3622 5.2624
      vertex 22.6 -14.1833 5.33327
      vertex 25 -12.3765 5.24099
    endloop
  endfacet
endsolid OpenSCAD_Model
