solid OpenSCAD_Model
  facet normal 0 0 1
    outer loop
      vertex 9.98315 9.95556 113
      vertex 14 11 113
      vertex 13.9424 11.5853 113
    endloop
  endfacet
  facet normal 0 0 1
    outer loop
      vertex 14 11 113
      vertex 10 -9.9 113
      vertex 14 -23 113
    endloop
  endfacet
  facet normal 0 0 1
    outer loop
      vertex 9.98315 9.95556 113
      vertex 13.9424 11.5853 113
      vertex 13.7716 12.148 113
    endloop
  endfacet
  facet normal -0 0 1
    outer loop
      vertex 9.99808 -9.91951 113
      vertex 14 -23 113
      vertex 10 -9.9 113
    endloop
  endfacet
  facet normal 0 0 1
    outer loop
      vertex 9.98315 9.95556 113
      vertex 13.7716 12.148 113
      vertex 13.4944 12.6667 113
    endloop
  endfacet
  facet normal -0 0 1
    outer loop
      vertex 9.99239 -9.93827 113
      vertex 14 -23 113
      vertex 9.99808 -9.91951 113
    endloop
  endfacet
  facet normal 0 0 1
    outer loop
      vertex 9.97071 9.97071 113
      vertex 13.4944 12.6667 113
      vertex 13.1213 13.1213 113
    endloop
  endfacet
  facet normal -0 0 1
    outer loop
      vertex 9.98315 -9.95556 113
      vertex 14 -23 113
      vertex 9.99239 -9.93827 113
    endloop
  endfacet
  facet normal 0 0 1
    outer loop
      vertex 9.97071 9.97071 113
      vertex 13.1213 13.1213 113
      vertex 12.6667 13.4944 113
    endloop
  endfacet
  facet normal -0 0 1
    outer loop
      vertex 9.97071 -9.97071 113
      vertex 14 -23 113
      vertex 9.98315 -9.95556 113
    endloop
  endfacet
  facet normal 0 0 1
    outer loop
      vertex 9.97071 9.97071 113
      vertex 12.6667 13.4944 113
      vertex 12.148 13.7716 113
    endloop
  endfacet
  facet normal -0 0 1
    outer loop
      vertex 9.95556 -9.98315 113
      vertex 14 -23 113
      vertex 9.97071 -9.97071 113
    endloop
  endfacet
  facet normal 0 0 1
    outer loop
      vertex 9.95556 9.98315 113
      vertex 12.148 13.7716 113
      vertex 11.5853 13.9424 113
    endloop
  endfacet
  facet normal -0 0 1
    outer loop
      vertex 9.93827 -9.99239 113
      vertex 14 -23 113
      vertex 9.95556 -9.98315 113
    endloop
  endfacet
  facet normal 0 0 1
    outer loop
      vertex 9.95556 9.98315 113
      vertex 11.5853 13.9424 113
      vertex 11 14 113
    endloop
  endfacet
  facet normal -0 0 1
    outer loop
      vertex 9.91951 -9.99808 113
      vertex 14 -23 113
      vertex 9.93827 -9.99239 113
    endloop
  endfacet
  facet normal 0 0 1
    outer loop
      vertex 14 11 113
      vertex 10 9.9 113
      vertex 10 -9.9 113
    endloop
  endfacet
  facet normal 0 0 1
    outer loop
      vertex 14 11 113
      vertex 9.99808 9.91951 113
      vertex 10 9.9 113
    endloop
  endfacet
  facet normal 0 0 1
    outer loop
      vertex 14 11 113
      vertex 9.99239 9.93827 113
      vertex 9.99808 9.91951 113
    endloop
  endfacet
  facet normal 0 0 1
    outer loop
      vertex 14 11 113
      vertex 9.98315 9.95556 113
      vertex 9.99239 9.93827 113
    endloop
  endfacet
  facet normal 0 0 1
    outer loop
      vertex 13.4944 12.6667 113
      vertex 9.97071 9.97071 113
      vertex 9.98315 9.95556 113
    endloop
  endfacet
  facet normal 0 0 1
    outer loop
      vertex 12.148 13.7716 113
      vertex 9.95556 9.98315 113
      vertex 9.97071 9.97071 113
    endloop
  endfacet
  facet normal 0 0 1
    outer loop
      vertex 11 14 113
      vertex 9.93827 9.99239 113
      vertex 9.95556 9.98315 113
    endloop
  endfacet
  facet normal 0 0 1
    outer loop
      vertex 11 14 113
      vertex 9.91951 9.99808 113
      vertex 9.93827 9.99239 113
    endloop
  endfacet
  facet normal 0 0 1
    outer loop
      vertex 11 14 113
      vertex 9.9 10 113
      vertex 9.91951 9.99808 113
    endloop
  endfacet
  facet normal 0 0 1
    outer loop
      vertex 11 14 113
      vertex -9.9 10 113
      vertex 9.9 10 113
    endloop
  endfacet
  facet normal -0 0 1
    outer loop
      vertex -11 14 113
      vertex -9.9 10 113
      vertex 11 14 113
    endloop
  endfacet
  facet normal -0 0 1
    outer loop
      vertex -13.4944 12.6667 113
      vertex -9.97071 9.97071 113
      vertex -13.1213 13.1213 113
    endloop
  endfacet
  facet normal -0 0 1
    outer loop
      vertex -13.1213 13.1213 113
      vertex -9.97071 9.97071 113
      vertex -12.6667 13.4944 113
    endloop
  endfacet
  facet normal -0 0 1
    outer loop
      vertex -12.6667 13.4944 113
      vertex -9.97071 9.97071 113
      vertex -12.148 13.7716 113
    endloop
  endfacet
  facet normal 0 0 1
    outer loop
      vertex -9.95556 9.98315 113
      vertex -12.148 13.7716 113
      vertex -9.97071 9.97071 113
    endloop
  endfacet
  facet normal -0 0 1
    outer loop
      vertex -12.148 13.7716 113
      vertex -9.95556 9.98315 113
      vertex -11.5853 13.9424 113
    endloop
  endfacet
  facet normal -0 0 1
    outer loop
      vertex -11.5853 13.9424 113
      vertex -9.95556 9.98315 113
      vertex -11 14 113
    endloop
  endfacet
  facet normal 0 0 1
    outer loop
      vertex -9.93827 9.99239 113
      vertex -11 14 113
      vertex -9.95556 9.98315 113
    endloop
  endfacet
  facet normal 0 0 1
    outer loop
      vertex -9.91951 9.99808 113
      vertex -11 14 113
      vertex -9.93827 9.99239 113
    endloop
  endfacet
  facet normal 0 0 1
    outer loop
      vertex -9.9 10 113
      vertex -11 14 113
      vertex -9.91951 9.99808 113
    endloop
  endfacet
  facet normal -0 0 1
    outer loop
      vertex 9.9 -10 113
      vertex 14 -23 113
      vertex 9.91951 -9.99808 113
    endloop
  endfacet
  facet normal 0 -0 1
    outer loop
      vertex 11 -26 113
      vertex 14 -23 113
      vertex 9.9 -10 113
    endloop
  endfacet
  facet normal 0 0 1
    outer loop
      vertex 14 -23 113
      vertex 11 -26 113
      vertex 13.9424 -23.5853 113
    endloop
  endfacet
  facet normal 0 0 1
    outer loop
      vertex 13.9424 -23.5853 113
      vertex 11 -26 113
      vertex 13.7716 -24.148 113
    endloop
  endfacet
  facet normal 0 0 1
    outer loop
      vertex 13.7716 -24.148 113
      vertex 11 -26 113
      vertex 13.4944 -24.6667 113
    endloop
  endfacet
  facet normal 0 0 1
    outer loop
      vertex 13.4944 -24.6667 113
      vertex 11 -26 113
      vertex 13.1213 -25.1213 113
    endloop
  endfacet
  facet normal 0 0 1
    outer loop
      vertex 13.1213 -25.1213 113
      vertex 11 -26 113
      vertex 12.6667 -25.4944 113
    endloop
  endfacet
  facet normal 0 0 1
    outer loop
      vertex 12.6667 -25.4944 113
      vertex 11 -26 113
      vertex 12.148 -25.7716 113
    endloop
  endfacet
  facet normal 0 0 1
    outer loop
      vertex 12.148 -25.7716 113
      vertex 11 -26 113
      vertex 11.5853 -25.9424 113
    endloop
  endfacet
  facet normal -0 0 1
    outer loop
      vertex -9.9 -10 113
      vertex 11 -26 113
      vertex 9.9 -10 113
    endloop
  endfacet
  facet normal 0 0 1
    outer loop
      vertex -14 -23 113
      vertex -9.9 -10 113
      vertex -9.91951 -9.99808 113
    endloop
  endfacet
  facet normal 0 0 1
    outer loop
      vertex -14 -23 113
      vertex -9.91951 -9.99808 113
      vertex -9.93827 -9.99239 113
    endloop
  endfacet
  facet normal 0 0 1
    outer loop
      vertex -14 -23 113
      vertex -9.93827 -9.99239 113
      vertex -9.95556 -9.98315 113
    endloop
  endfacet
  facet normal 0 0 1
    outer loop
      vertex -9.9 -10 113
      vertex -11 -26 113
      vertex 11 -26 113
    endloop
  endfacet
  facet normal 0 0 1
    outer loop
      vertex -14 -23 113
      vertex -9.95556 -9.98315 113
      vertex -9.97071 -9.97071 113
    endloop
  endfacet
  facet normal 0 0 1
    outer loop
      vertex -14 -23 113
      vertex -9.97071 -9.97071 113
      vertex -9.98315 -9.95556 113
    endloop
  endfacet
  facet normal 0 0 1
    outer loop
      vertex -14 -23 113
      vertex -9.98315 -9.95556 113
      vertex -9.99239 -9.93827 113
    endloop
  endfacet
  facet normal 0 0 1
    outer loop
      vertex -14 -23 113
      vertex -9.99239 -9.93827 113
      vertex -9.99808 -9.91951 113
    endloop
  endfacet
  facet normal 0 0 1
    outer loop
      vertex -14 -23 113
      vertex -9.99808 -9.91951 113
      vertex -10 -9.9 113
    endloop
  endfacet
  facet normal 0 0 1
    outer loop
      vertex -10 9.9 113
      vertex -14 11 113
      vertex -10 -9.9 113
    endloop
  endfacet
  facet normal 0 0 1
    outer loop
      vertex -9.97071 9.97071 113
      vertex -13.4944 12.6667 113
      vertex -9.98315 9.95556 113
    endloop
  endfacet
  facet normal 0 0 1
    outer loop
      vertex -14 -23 113
      vertex -10 -9.9 113
      vertex -14 11 113
    endloop
  endfacet
  facet normal -0 0 1
    outer loop
      vertex -13.7716 12.148 113
      vertex -9.98315 9.95556 113
      vertex -13.4944 12.6667 113
    endloop
  endfacet
  facet normal 0 0 1
    outer loop
      vertex -9.9 -10 113
      vertex -14 -23 113
      vertex -11 -26 113
    endloop
  endfacet
  facet normal -0 0 1
    outer loop
      vertex -13.9424 11.5853 113
      vertex -9.98315 9.95556 113
      vertex -13.7716 12.148 113
    endloop
  endfacet
  facet normal 0 0 1
    outer loop
      vertex -11 -26 113
      vertex -14 -23 113
      vertex -11.5853 -25.9424 113
    endloop
  endfacet
  facet normal -0 0 1
    outer loop
      vertex -14 11 113
      vertex -9.98315 9.95556 113
      vertex -13.9424 11.5853 113
    endloop
  endfacet
  facet normal 0 0 1
    outer loop
      vertex -11.5853 -25.9424 113
      vertex -14 -23 113
      vertex -12.148 -25.7716 113
    endloop
  endfacet
  facet normal 0 0 1
    outer loop
      vertex -9.98315 9.95556 113
      vertex -14 11 113
      vertex -9.99239 9.93827 113
    endloop
  endfacet
  facet normal 0 0 1
    outer loop
      vertex -12.148 -25.7716 113
      vertex -14 -23 113
      vertex -12.6667 -25.4944 113
    endloop
  endfacet
  facet normal 0 0 1
    outer loop
      vertex -9.99239 9.93827 113
      vertex -14 11 113
      vertex -9.99808 9.91951 113
    endloop
  endfacet
  facet normal 0 0 1
    outer loop
      vertex -12.6667 -25.4944 113
      vertex -14 -23 113
      vertex -13.1213 -25.1213 113
    endloop
  endfacet
  facet normal 0 0 1
    outer loop
      vertex -9.99808 9.91951 113
      vertex -14 11 113
      vertex -10 9.9 113
    endloop
  endfacet
  facet normal 0 0 1
    outer loop
      vertex -13.1213 -25.1213 113
      vertex -14 -23 113
      vertex -13.4944 -24.6667 113
    endloop
  endfacet
  facet normal 0 0 1
    outer loop
      vertex -13.4944 -24.6667 113
      vertex -14 -23 113
      vertex -13.7716 -24.148 113
    endloop
  endfacet
  facet normal 0 0 1
    outer loop
      vertex -13.7716 -24.148 113
      vertex -14 -23 113
      vertex -13.9424 -23.5853 113
    endloop
  endfacet
  facet normal 1 0 0
    outer loop
      vertex 14 11 113
      vertex 14 -8.54412 106.5
      vertex 14 11 100
    endloop
  endfacet
  facet normal 1 0 0
    outer loop
      vertex 14 11 113
      vertex 14 -11.4191 111.48
      vertex 14 -8.54412 106.5
    endloop
  endfacet
  facet normal 1 -0 0
    outer loop
      vertex 14 -23 113
      vertex 14 -11.4191 111.48
      vertex 14 11 113
    endloop
  endfacet
  facet normal 1 0 0
    outer loop
      vertex 14 -11.4191 111.48
      vertex 14 -23 113
      vertex 14 -21.1691 111.48
    endloop
  endfacet
  facet normal 1 0 0
    outer loop
      vertex 14 -21.1691 111.48
      vertex 14 -23 113
      vertex 14 -23 108.308
    endloop
  endfacet
  facet normal 1 -0 0
    outer loop
      vertex 14 -11.4191 101.52
      vertex 14 11 100
      vertex 14 -8.54412 106.5
    endloop
  endfacet
  facet normal 1 0 0
    outer loop
      vertex 14 -23 100
      vertex 14 -11.4191 101.52
      vertex 14 -21.1691 101.52
    endloop
  endfacet
  facet normal 1 0 0
    outer loop
      vertex 14 -11.4191 101.52
      vertex 14 -23 100
      vertex 14 11 100
    endloop
  endfacet
  facet normal 1 0 0
    outer loop
      vertex 14 -23 100
      vertex 14 -21.1691 101.52
      vertex 14 -23 104.692
    endloop
  endfacet
  facet normal -1 0 0
    outer loop
      vertex -14 11 100
      vertex -14 2.65 106.5
      vertex -14 11 113
    endloop
  endfacet
  facet normal -1 0 0
    outer loop
      vertex -14 11 100
      vertex -14 2.59908 105.983
      vertex -14 2.65 106.5
    endloop
  endfacet
  facet normal -1 0 0
    outer loop
      vertex -14 11 100
      vertex -14 2.44828 105.486
      vertex -14 2.59908 105.983
    endloop
  endfacet
  facet normal -1 0 0
    outer loop
      vertex -14 11 100
      vertex -14 2.20339 105.028
      vertex -14 2.44828 105.486
    endloop
  endfacet
  facet normal -1 0 0
    outer loop
      vertex -14 11 100
      vertex -14 1.87383 104.626
      vertex -14 2.20339 105.028
    endloop
  endfacet
  facet normal -1 0 0
    outer loop
      vertex -14 11 100
      vertex -14 1.47226 104.297
      vertex -14 1.87383 104.626
    endloop
  endfacet
  facet normal -1 0 0
    outer loop
      vertex -14 11 100
      vertex -14 1.01411 104.052
      vertex -14 1.47226 104.297
    endloop
  endfacet
  facet normal -1 0 0
    outer loop
      vertex -14 11 100
      vertex -14 0.516989 103.901
      vertex -14 1.01411 104.052
    endloop
  endfacet
  facet normal -1 0 0
    outer loop
      vertex -14 11 100
      vertex -14 0 103.85
      vertex -14 0.516989 103.901
    endloop
  endfacet
  facet normal -1 0 0
    outer loop
      vertex -14 11 100
      vertex -14 -0.516989 103.901
      vertex -14 0 103.85
    endloop
  endfacet
  facet normal -1 0 0
    outer loop
      vertex -14 -13.6796 103.411
      vertex -14 -0.516989 103.901
      vertex -14 11 100
    endloop
  endfacet
  facet normal -1 0 0
    outer loop
      vertex -14 -2.59908 105.983
      vertex -14 -11.1441 106.5
      vertex -14 -2.65 106.5
    endloop
  endfacet
  facet normal -1 0 0
    outer loop
      vertex -14 -11.2046 105.885
      vertex -14 -2.59908 105.983
      vertex -14 -2.44828 105.486
    endloop
  endfacet
  facet normal -1 0 0
    outer loop
      vertex -14 -11.3839 105.295
      vertex -14 -2.44828 105.486
      vertex -14 -2.20339 105.028
    endloop
  endfacet
  facet normal -1 0 0
    outer loop
      vertex -14 -11.675 104.75
      vertex -14 -2.20339 105.028
      vertex -14 -1.87383 104.626
    endloop
  endfacet
  facet normal -1 0 0
    outer loop
      vertex -14 -12.0667 104.273
      vertex -14 -1.87383 104.626
      vertex -14 -1.47226 104.297
    endloop
  endfacet
  facet normal -1 0 0
    outer loop
      vertex -14 -12.5441 103.881
      vertex -14 -1.47226 104.297
      vertex -14 -1.01411 104.052
    endloop
  endfacet
  facet normal -1 0 -0
    outer loop
      vertex -14 -13.0887 103.59
      vertex -14 -0.516989 103.901
      vertex -14 -13.6796 103.411
    endloop
  endfacet
  facet normal -1 -0 0
    outer loop
      vertex -14 -2.59908 105.983
      vertex -14 -11.2046 105.885
      vertex -14 -11.1441 106.5
    endloop
  endfacet
  facet normal -1 -0 0
    outer loop
      vertex -14 -2.44828 105.486
      vertex -14 -11.3839 105.295
      vertex -14 -11.2046 105.885
    endloop
  endfacet
  facet normal -1 -0 0
    outer loop
      vertex -14 -2.20339 105.028
      vertex -14 -11.675 104.75
      vertex -14 -11.3839 105.295
    endloop
  endfacet
  facet normal -1 -0 0
    outer loop
      vertex -14 -1.87383 104.626
      vertex -14 -12.0667 104.273
      vertex -14 -11.675 104.75
    endloop
  endfacet
  facet normal -1 0 0
    outer loop
      vertex -14 -1.47226 104.297
      vertex -14 -12.5441 103.881
      vertex -14 -12.0667 104.273
    endloop
  endfacet
  facet normal -1 0 0
    outer loop
      vertex -14 -1.01411 104.052
      vertex -14 -13.0887 103.59
      vertex -14 -12.5441 103.881
    endloop
  endfacet
  facet normal -1 -0 0
    outer loop
      vertex -14 -0.516989 103.901
      vertex -14 -13.0887 103.59
      vertex -14 -1.01411 104.052
    endloop
  endfacet
  facet normal -1 0 0
    outer loop
      vertex -14 -23 100
      vertex -14 -13.6796 103.411
      vertex -14 11 100
    endloop
  endfacet
  facet normal -1 0 0
    outer loop
      vertex -14 -13.6796 103.411
      vertex -14 -23 100
      vertex -14 -14.2941 103.35
    endloop
  endfacet
  facet normal -1 -0 0
    outer loop
      vertex -14 -14.2941 103.35
      vertex -14 -23 100
      vertex -14 -18.2941 103.35
    endloop
  endfacet
  facet normal -1 -0 0
    outer loop
      vertex -14 -21.3836 105.885
      vertex -14 -23 100
      vertex -14 -21.4441 106.5
    endloop
  endfacet
  facet normal -1 -0 0
    outer loop
      vertex -14 -21.2043 105.295
      vertex -14 -23 100
      vertex -14 -21.3836 105.885
    endloop
  endfacet
  facet normal -1 -0 0
    outer loop
      vertex -14 -20.9132 104.75
      vertex -14 -23 100
      vertex -14 -21.2043 105.295
    endloop
  endfacet
  facet normal -1 -0 0
    outer loop
      vertex -14 -20.5215 104.273
      vertex -14 -23 100
      vertex -14 -20.9132 104.75
    endloop
  endfacet
  facet normal -1 -0 0
    outer loop
      vertex -14 -20.0442 103.881
      vertex -14 -23 100
      vertex -14 -20.5215 104.273
    endloop
  endfacet
  facet normal -1 -0 0
    outer loop
      vertex -14 -19.4996 103.59
      vertex -14 -23 100
      vertex -14 -20.0442 103.881
    endloop
  endfacet
  facet normal -1 -0 0
    outer loop
      vertex -14 -18.9087 103.411
      vertex -14 -23 100
      vertex -14 -19.4996 103.59
    endloop
  endfacet
  facet normal -1 -0 0
    outer loop
      vertex -14 -18.2941 103.35
      vertex -14 -23 100
      vertex -14 -18.9087 103.411
    endloop
  endfacet
  facet normal -1 0 0
    outer loop
      vertex -14 2.59908 107.017
      vertex -14 11 113
      vertex -14 2.65 106.5
    endloop
  endfacet
  facet normal -1 0 0
    outer loop
      vertex -14 2.44828 107.514
      vertex -14 11 113
      vertex -14 2.59908 107.017
    endloop
  endfacet
  facet normal -1 0 0
    outer loop
      vertex -14 2.20339 107.972
      vertex -14 11 113
      vertex -14 2.44828 107.514
    endloop
  endfacet
  facet normal -1 0 0
    outer loop
      vertex -14 1.87383 108.374
      vertex -14 11 113
      vertex -14 2.20339 107.972
    endloop
  endfacet
  facet normal -1 0 0
    outer loop
      vertex -14 1.47226 108.703
      vertex -14 11 113
      vertex -14 1.87383 108.374
    endloop
  endfacet
  facet normal -1 0 0
    outer loop
      vertex -14 1.01411 108.948
      vertex -14 11 113
      vertex -14 1.47226 108.703
    endloop
  endfacet
  facet normal -1 0 0
    outer loop
      vertex -14 0.516989 109.099
      vertex -14 11 113
      vertex -14 1.01411 108.948
    endloop
  endfacet
  facet normal -1 0 0
    outer loop
      vertex -14 0 109.15
      vertex -14 11 113
      vertex -14 0.516989 109.099
    endloop
  endfacet
  facet normal -1 0 0
    outer loop
      vertex -14 -0.516989 109.099
      vertex -14 11 113
      vertex -14 0 109.15
    endloop
  endfacet
  facet normal -1 0 0
    outer loop
      vertex -14 -13.0887 109.41
      vertex -14 -0.516989 109.099
      vertex -14 -1.01411 108.948
    endloop
  endfacet
  facet normal -1 0 0
    outer loop
      vertex -14 -11.1441 106.5
      vertex -14 -2.59908 107.017
      vertex -14 -2.65 106.5
    endloop
  endfacet
  facet normal -1 0 0
    outer loop
      vertex -14 -11.2046 107.115
      vertex -14 -2.59908 107.017
      vertex -14 -11.1441 106.5
    endloop
  endfacet
  facet normal -1 0 0
    outer loop
      vertex -14 -2.59908 107.017
      vertex -14 -11.2046 107.115
      vertex -14 -2.44828 107.514
    endloop
  endfacet
  facet normal -1 0 0
    outer loop
      vertex -14 -11.3839 107.705
      vertex -14 -2.44828 107.514
      vertex -14 -11.2046 107.115
    endloop
  endfacet
  facet normal -1 0 0
    outer loop
      vertex -14 -2.44828 107.514
      vertex -14 -11.3839 107.705
      vertex -14 -2.20339 107.972
    endloop
  endfacet
  facet normal -1 0 0
    outer loop
      vertex -14 -11.675 108.25
      vertex -14 -2.20339 107.972
      vertex -14 -11.3839 107.705
    endloop
  endfacet
  facet normal -1 0 0
    outer loop
      vertex -14 -2.20339 107.972
      vertex -14 -11.675 108.25
      vertex -14 -1.87383 108.374
    endloop
  endfacet
  facet normal -1 0 0
    outer loop
      vertex -14 -12.0667 108.727
      vertex -14 -1.87383 108.374
      vertex -14 -11.675 108.25
    endloop
  endfacet
  facet normal -1 0 0
    outer loop
      vertex -14 -1.87383 108.374
      vertex -14 -12.0667 108.727
      vertex -14 -1.47226 108.703
    endloop
  endfacet
  facet normal -1 0 0
    outer loop
      vertex -14 -12.5441 109.119
      vertex -14 -1.47226 108.703
      vertex -14 -12.0667 108.727
    endloop
  endfacet
  facet normal -1 0 0
    outer loop
      vertex -14 -1.47226 108.703
      vertex -14 -12.5441 109.119
      vertex -14 -1.01411 108.948
    endloop
  endfacet
  facet normal -1 0 0
    outer loop
      vertex -14 -13.0887 109.41
      vertex -14 -1.01411 108.948
      vertex -14 -12.5441 109.119
    endloop
  endfacet
  facet normal -1 0 0
    outer loop
      vertex -14 -0.516989 109.099
      vertex -14 -13.0887 109.41
      vertex -14 -13.6796 109.589
    endloop
  endfacet
  facet normal -1 0 0
    outer loop
      vertex -14 -0.516989 109.099
      vertex -14 -13.6796 109.589
      vertex -14 11 113
    endloop
  endfacet
  facet normal -1 0 0
    outer loop
      vertex -14 -23 113
      vertex -14 -13.6796 109.589
      vertex -14 -14.2941 109.65
    endloop
  endfacet
  facet normal -1 0 0
    outer loop
      vertex -14 -23 113
      vertex -14 -14.2941 109.65
      vertex -14 -18.2941 109.65
    endloop
  endfacet
  facet normal -1 0 0
    outer loop
      vertex -14 -23 113
      vertex -14 -18.2941 109.65
      vertex -14 -18.9087 109.589
    endloop
  endfacet
  facet normal -1 0 0
    outer loop
      vertex -14 -23 113
      vertex -14 -21.4441 106.5
      vertex -14 -23 100
    endloop
  endfacet
  facet normal -1 0 0
    outer loop
      vertex -14 -13.6796 109.589
      vertex -14 -23 113
      vertex -14 11 113
    endloop
  endfacet
  facet normal -1 0 0
    outer loop
      vertex -14 -19.4996 109.41
      vertex -14 -23 113
      vertex -14 -18.9087 109.589
    endloop
  endfacet
  facet normal -1 0 0
    outer loop
      vertex -14 -20.0442 109.119
      vertex -14 -23 113
      vertex -14 -19.4996 109.41
    endloop
  endfacet
  facet normal -1 0 0
    outer loop
      vertex -14 -20.5215 108.727
      vertex -14 -23 113
      vertex -14 -20.0442 109.119
    endloop
  endfacet
  facet normal -1 0 0
    outer loop
      vertex -14 -20.9132 108.25
      vertex -14 -23 113
      vertex -14 -20.5215 108.727
    endloop
  endfacet
  facet normal -1 0 0
    outer loop
      vertex -14 -21.2043 107.705
      vertex -14 -23 113
      vertex -14 -20.9132 108.25
    endloop
  endfacet
  facet normal -1 0 0
    outer loop
      vertex -14 -21.3836 107.115
      vertex -14 -23 113
      vertex -14 -21.2043 107.705
    endloop
  endfacet
  facet normal -1 0 0
    outer loop
      vertex -14 -21.4441 106.5
      vertex -14 -23 113
      vertex -14 -21.3836 107.115
    endloop
  endfacet
  facet normal 0 0 -1
    outer loop
      vertex 11 -26 100
      vertex 14 -23 100
      vertex 13.9424 -23.5853 100
    endloop
  endfacet
  facet normal 0 0 -1
    outer loop
      vertex 14 -23 100
      vertex 10 -9.9 100
      vertex 14 11 100
    endloop
  endfacet
  facet normal 0 0 -1
    outer loop
      vertex 11 -26 100
      vertex 13.9424 -23.5853 100
      vertex 13.7716 -24.148 100
    endloop
  endfacet
  facet normal 0 0 -1
    outer loop
      vertex 10 9.9 100
      vertex 14 11 100
      vertex 10 -9.9 100
    endloop
  endfacet
  facet normal 0 0 -1
    outer loop
      vertex 11 -26 100
      vertex 13.7716 -24.148 100
      vertex 13.4944 -24.6667 100
    endloop
  endfacet
  facet normal 0 0 -1
    outer loop
      vertex 9.99808 9.91951 100
      vertex 14 11 100
      vertex 10 9.9 100
    endloop
  endfacet
  facet normal 0 0 -1
    outer loop
      vertex 11 -26 100
      vertex 13.4944 -24.6667 100
      vertex 13.1213 -25.1213 100
    endloop
  endfacet
  facet normal 0 0 -1
    outer loop
      vertex 9.99239 9.93827 100
      vertex 14 11 100
      vertex 9.99808 9.91951 100
    endloop
  endfacet
  facet normal 0 0 -1
    outer loop
      vertex 11 -26 100
      vertex 13.1213 -25.1213 100
      vertex 12.6667 -25.4944 100
    endloop
  endfacet
  facet normal 0 0 -1
    outer loop
      vertex 9.98315 9.95556 100
      vertex 14 11 100
      vertex 9.99239 9.93827 100
    endloop
  endfacet
  facet normal 0 0 -1
    outer loop
      vertex 11 -26 100
      vertex 12.6667 -25.4944 100
      vertex 12.148 -25.7716 100
    endloop
  endfacet
  facet normal -0 0 -1
    outer loop
      vertex 14 11 100
      vertex 9.98315 9.95556 100
      vertex 13.9424 11.5853 100
    endloop
  endfacet
  facet normal 0 0 -1
    outer loop
      vertex 11 -26 100
      vertex 12.148 -25.7716 100
      vertex 11.5853 -25.9424 100
    endloop
  endfacet
  facet normal -0 0 -1
    outer loop
      vertex 13.9424 11.5853 100
      vertex 9.98315 9.95556 100
      vertex 13.7716 12.148 100
    endloop
  endfacet
  facet normal -0 0 -1
    outer loop
      vertex 14 -23 100
      vertex 11 -26 100
      vertex 9.9 -10 100
    endloop
  endfacet
  facet normal -0 0 -1
    outer loop
      vertex 13.7716 12.148 100
      vertex 9.98315 9.95556 100
      vertex 13.4944 12.6667 100
    endloop
  endfacet
  facet normal 0 0 -1
    outer loop
      vertex 9.97071 9.97071 100
      vertex 13.4944 12.6667 100
      vertex 9.98315 9.95556 100
    endloop
  endfacet
  facet normal 0 0 -1
    outer loop
      vertex 14 -23 100
      vertex 9.99808 -9.91951 100
      vertex 10 -9.9 100
    endloop
  endfacet
  facet normal 0 0 -1
    outer loop
      vertex 14 -23 100
      vertex 9.99239 -9.93827 100
      vertex 9.99808 -9.91951 100
    endloop
  endfacet
  facet normal 0 0 -1
    outer loop
      vertex 14 -23 100
      vertex 9.98315 -9.95556 100
      vertex 9.99239 -9.93827 100
    endloop
  endfacet
  facet normal 0 0 -1
    outer loop
      vertex 14 -23 100
      vertex 9.97071 -9.97071 100
      vertex 9.98315 -9.95556 100
    endloop
  endfacet
  facet normal 0 0 -1
    outer loop
      vertex 14 -23 100
      vertex 9.95556 -9.98315 100
      vertex 9.97071 -9.97071 100
    endloop
  endfacet
  facet normal 0 0 -1
    outer loop
      vertex 14 -23 100
      vertex 9.93827 -9.99239 100
      vertex 9.95556 -9.98315 100
    endloop
  endfacet
  facet normal 0 0 -1
    outer loop
      vertex 14 -23 100
      vertex 9.91951 -9.99808 100
      vertex 9.93827 -9.99239 100
    endloop
  endfacet
  facet normal 0 0 -1
    outer loop
      vertex 14 -23 100
      vertex 9.9 -10 100
      vertex 9.91951 -9.99808 100
    endloop
  endfacet
  facet normal 0 0 -1
    outer loop
      vertex 11 -26 100
      vertex -9.9 -10 100
      vertex 9.9 -10 100
    endloop
  endfacet
  facet normal 0 0 -1
    outer loop
      vertex -11 -26 100
      vertex -9.9 -10 100
      vertex 11 -26 100
    endloop
  endfacet
  facet normal 0 0 -1
    outer loop
      vertex -14 -23 100
      vertex -9.9 -10 100
      vertex -11 -26 100
    endloop
  endfacet
  facet normal -0 0 -1
    outer loop
      vertex -9.9 -10 100
      vertex -14 -23 100
      vertex -9.91951 -9.99808 100
    endloop
  endfacet
  facet normal -0 0 -1
    outer loop
      vertex -9.99808 -9.91951 100
      vertex -14 -23 100
      vertex -10 -9.9 100
    endloop
  endfacet
  facet normal -0 0 -1
    outer loop
      vertex -9.99239 -9.93827 100
      vertex -14 -23 100
      vertex -9.99808 -9.91951 100
    endloop
  endfacet
  facet normal -0 0 -1
    outer loop
      vertex -9.98315 -9.95556 100
      vertex -14 -23 100
      vertex -9.99239 -9.93827 100
    endloop
  endfacet
  facet normal -0 0 -1
    outer loop
      vertex -9.97071 -9.97071 100
      vertex -14 -23 100
      vertex -9.98315 -9.95556 100
    endloop
  endfacet
  facet normal -0 0 -1
    outer loop
      vertex -9.95556 -9.98315 100
      vertex -14 -23 100
      vertex -9.97071 -9.97071 100
    endloop
  endfacet
  facet normal -0 0 -1
    outer loop
      vertex -9.93827 -9.99239 100
      vertex -14 -23 100
      vertex -9.95556 -9.98315 100
    endloop
  endfacet
  facet normal -0 0 -1
    outer loop
      vertex -9.91951 -9.99808 100
      vertex -14 -23 100
      vertex -9.93827 -9.99239 100
    endloop
  endfacet
  facet normal -0 0 -1
    outer loop
      vertex 13.4944 12.6667 100
      vertex 9.97071 9.97071 100
      vertex 13.1213 13.1213 100
    endloop
  endfacet
  facet normal -0 0 -1
    outer loop
      vertex 13.1213 13.1213 100
      vertex 9.97071 9.97071 100
      vertex 12.6667 13.4944 100
    endloop
  endfacet
  facet normal -0 0 -1
    outer loop
      vertex 12.6667 13.4944 100
      vertex 9.97071 9.97071 100
      vertex 12.148 13.7716 100
    endloop
  endfacet
  facet normal 0 0 -1
    outer loop
      vertex 9.95556 9.98315 100
      vertex 12.148 13.7716 100
      vertex 9.97071 9.97071 100
    endloop
  endfacet
  facet normal -0 0 -1
    outer loop
      vertex 12.148 13.7716 100
      vertex 9.95556 9.98315 100
      vertex 11.5853 13.9424 100
    endloop
  endfacet
  facet normal -0 0 -1
    outer loop
      vertex 11.5853 13.9424 100
      vertex 9.95556 9.98315 100
      vertex 11 14 100
    endloop
  endfacet
  facet normal 0 0 -1
    outer loop
      vertex 9.93827 9.99239 100
      vertex 11 14 100
      vertex 9.95556 9.98315 100
    endloop
  endfacet
  facet normal 0 0 -1
    outer loop
      vertex 9.91951 9.99808 100
      vertex 11 14 100
      vertex 9.93827 9.99239 100
    endloop
  endfacet
  facet normal 0 0 -1
    outer loop
      vertex 9.9 10 100
      vertex 11 14 100
      vertex 9.91951 9.99808 100
    endloop
  endfacet
  facet normal 0 0 -1
    outer loop
      vertex -9.9 10 100
      vertex 11 14 100
      vertex 9.9 10 100
    endloop
  endfacet
  facet normal 0 0 -1
    outer loop
      vertex -11 14 100
      vertex -9.9 10 100
      vertex -9.91951 9.99808 100
    endloop
  endfacet
  facet normal 0 0 -1
    outer loop
      vertex -9.9 10 100
      vertex -11 14 100
      vertex 11 14 100
    endloop
  endfacet
  facet normal 0 0 -1
    outer loop
      vertex -9.93827 9.99239 100
      vertex -11 14 100
      vertex -9.91951 9.99808 100
    endloop
  endfacet
  facet normal 0 0 -1
    outer loop
      vertex -9.95556 9.98315 100
      vertex -11 14 100
      vertex -9.93827 9.99239 100
    endloop
  endfacet
  facet normal 0 0 -1
    outer loop
      vertex -12.148 13.7716 100
      vertex -9.95556 9.98315 100
      vertex -9.97071 9.97071 100
    endloop
  endfacet
  facet normal 0 0 -1
    outer loop
      vertex -13.4944 12.6667 100
      vertex -9.97071 9.97071 100
      vertex -9.98315 9.95556 100
    endloop
  endfacet
  facet normal 0 0 -1
    outer loop
      vertex -14 11 100
      vertex -9.98315 9.95556 100
      vertex -9.99239 9.93827 100
    endloop
  endfacet
  facet normal 0 0 -1
    outer loop
      vertex -14 11 100
      vertex -9.99239 9.93827 100
      vertex -9.99808 9.91951 100
    endloop
  endfacet
  facet normal 0 0 -1
    outer loop
      vertex -14 11 100
      vertex -9.99808 9.91951 100
      vertex -10 9.9 100
    endloop
  endfacet
  facet normal 0 0 -1
    outer loop
      vertex -14 11 100
      vertex -10 -9.9 100
      vertex -14 -23 100
    endloop
  endfacet
  facet normal 0 0 -1
    outer loop
      vertex -14 -23 100
      vertex -11 -26 100
      vertex -11.5853 -25.9424 100
    endloop
  endfacet
  facet normal 0 0 -1
    outer loop
      vertex -10 -9.9 100
      vertex -14 11 100
      vertex -10 9.9 100
    endloop
  endfacet
  facet normal 0 0 -1
    outer loop
      vertex -14 -23 100
      vertex -11.5853 -25.9424 100
      vertex -12.148 -25.7716 100
    endloop
  endfacet
  facet normal 0 0 -1
    outer loop
      vertex -9.98315 9.95556 100
      vertex -14 11 100
      vertex -13.9424 11.5853 100
    endloop
  endfacet
  facet normal 0 0 -1
    outer loop
      vertex -14 -23 100
      vertex -12.148 -25.7716 100
      vertex -12.6667 -25.4944 100
    endloop
  endfacet
  facet normal 0 0 -1
    outer loop
      vertex -9.95556 9.98315 100
      vertex -11.5853 13.9424 100
      vertex -11 14 100
    endloop
  endfacet
  facet normal 0 0 -1
    outer loop
      vertex -14 -23 100
      vertex -12.6667 -25.4944 100
      vertex -13.1213 -25.1213 100
    endloop
  endfacet
  facet normal 0 0 -1
    outer loop
      vertex -9.95556 9.98315 100
      vertex -12.148 13.7716 100
      vertex -11.5853 13.9424 100
    endloop
  endfacet
  facet normal 0 0 -1
    outer loop
      vertex -14 -23 100
      vertex -13.1213 -25.1213 100
      vertex -13.4944 -24.6667 100
    endloop
  endfacet
  facet normal 0 0 -1
    outer loop
      vertex -9.97071 9.97071 100
      vertex -12.6667 13.4944 100
      vertex -12.148 13.7716 100
    endloop
  endfacet
  facet normal 0 0 -1
    outer loop
      vertex -14 -23 100
      vertex -13.4944 -24.6667 100
      vertex -13.7716 -24.148 100
    endloop
  endfacet
  facet normal 0 0 -1
    outer loop
      vertex -9.97071 9.97071 100
      vertex -13.1213 13.1213 100
      vertex -12.6667 13.4944 100
    endloop
  endfacet
  facet normal 0 0 -1
    outer loop
      vertex -14 -23 100
      vertex -13.7716 -24.148 100
      vertex -13.9424 -23.5853 100
    endloop
  endfacet
  facet normal 0 0 -1
    outer loop
      vertex -9.97071 9.97071 100
      vertex -13.4944 12.6667 100
      vertex -13.1213 13.1213 100
    endloop
  endfacet
  facet normal 0 0 -1
    outer loop
      vertex -9.98315 9.95556 100
      vertex -13.7716 12.148 100
      vertex -13.4944 12.6667 100
    endloop
  endfacet
  facet normal 0 0 -1
    outer loop
      vertex -9.98315 9.95556 100
      vertex -13.9424 11.5853 100
      vertex -13.7716 12.148 100
    endloop
  endfacet
  facet normal -0.995193 0.097938 0
    outer loop
      vertex -14 11 100
      vertex -13.9424 11.5853 113
      vertex -13.9424 11.5853 100
    endloop
  endfacet
  facet normal -0.995193 0.097938 0
    outer loop
      vertex -13.9424 11.5853 113
      vertex -14 11 100
      vertex -14 11 113
    endloop
  endfacet
  facet normal 0.097938 0.995193 -0
    outer loop
      vertex 11.5853 13.9424 100
      vertex 11 14 113
      vertex 11.5853 13.9424 113
    endloop
  endfacet
  facet normal 0.097938 0.995193 0
    outer loop
      vertex 11 14 113
      vertex 11.5853 13.9424 100
      vertex 11 14 100
    endloop
  endfacet
  facet normal 0 1 -0
    outer loop
      vertex 11 14 100
      vertex -11 14 113
      vertex 11 14 113
    endloop
  endfacet
  facet normal 0 1 0
    outer loop
      vertex -11 14 113
      vertex 11 14 100
      vertex -11 14 100
    endloop
  endfacet
  facet normal 0.995193 0.097938 0
    outer loop
      vertex 14 11 113
      vertex 13.9424 11.5853 100
      vertex 13.9424 11.5853 113
    endloop
  endfacet
  facet normal 0.995193 0.097938 0
    outer loop
      vertex 13.9424 11.5853 100
      vertex 14 11 113
      vertex 14 11 100
    endloop
  endfacet
  facet normal -0.881957 0.471329 0
    outer loop
      vertex -13.7716 12.148 100
      vertex -13.4944 12.6667 113
      vertex -13.4944 12.6667 100
    endloop
  endfacet
  facet normal -0.881957 0.471329 0
    outer loop
      vertex -13.4944 12.6667 113
      vertex -13.7716 12.148 100
      vertex -13.7716 12.148 113
    endloop
  endfacet
  facet normal -0.772994 0.634413 0
    outer loop
      vertex -13.4944 12.6667 100
      vertex -13.1213 13.1213 113
      vertex -13.1213 13.1213 100
    endloop
  endfacet
  facet normal -0.772994 0.634413 0
    outer loop
      vertex -13.1213 13.1213 113
      vertex -13.4944 12.6667 100
      vertex -13.4944 12.6667 113
    endloop
  endfacet
  facet normal -0.95689 0.290451 0
    outer loop
      vertex -13.9424 11.5853 100
      vertex -13.7716 12.148 113
      vertex -13.7716 12.148 100
    endloop
  endfacet
  facet normal -0.95689 0.290451 0
    outer loop
      vertex -13.7716 12.148 113
      vertex -13.9424 11.5853 100
      vertex -13.9424 11.5853 113
    endloop
  endfacet
  facet normal 0.290451 0.95689 -0
    outer loop
      vertex 12.148 13.7716 100
      vertex 11.5853 13.9424 113
      vertex 12.148 13.7716 113
    endloop
  endfacet
  facet normal 0.290451 0.95689 0
    outer loop
      vertex 11.5853 13.9424 113
      vertex 12.148 13.7716 100
      vertex 11.5853 13.9424 100
    endloop
  endfacet
  facet normal 0.634413 0.772994 -0
    outer loop
      vertex 13.1213 13.1213 100
      vertex 12.6667 13.4944 113
      vertex 13.1213 13.1213 113
    endloop
  endfacet
  facet normal 0.634413 0.772994 0
    outer loop
      vertex 12.6667 13.4944 113
      vertex 13.1213 13.1213 100
      vertex 12.6667 13.4944 100
    endloop
  endfacet
  facet normal 0.772994 0.634413 0
    outer loop
      vertex 13.4944 12.6667 113
      vertex 13.1213 13.1213 100
      vertex 13.1213 13.1213 113
    endloop
  endfacet
  facet normal 0.772994 0.634413 0
    outer loop
      vertex 13.1213 13.1213 100
      vertex 13.4944 12.6667 113
      vertex 13.4944 12.6667 100
    endloop
  endfacet
  facet normal -0.097938 0.995193 0
    outer loop
      vertex -11 14 100
      vertex -11.5853 13.9424 113
      vertex -11 14 113
    endloop
  endfacet
  facet normal -0.097938 0.995193 0
    outer loop
      vertex -11.5853 13.9424 113
      vertex -11 14 100
      vertex -11.5853 13.9424 100
    endloop
  endfacet
  facet normal -0.634413 0.772994 0
    outer loop
      vertex -12.6667 13.4944 100
      vertex -13.1213 13.1213 113
      vertex -12.6667 13.4944 113
    endloop
  endfacet
  facet normal -0.634413 0.772994 0
    outer loop
      vertex -13.1213 13.1213 113
      vertex -12.6667 13.4944 100
      vertex -13.1213 13.1213 100
    endloop
  endfacet
  facet normal 0.881957 0.471329 0
    outer loop
      vertex 13.7716 12.148 113
      vertex 13.4944 12.6667 100
      vertex 13.4944 12.6667 113
    endloop
  endfacet
  facet normal 0.881957 0.471329 0
    outer loop
      vertex 13.4944 12.6667 100
      vertex 13.7716 12.148 113
      vertex 13.7716 12.148 100
    endloop
  endfacet
  facet normal 0.95689 0.290451 0
    outer loop
      vertex 13.9424 11.5853 113
      vertex 13.7716 12.148 100
      vertex 13.7716 12.148 113
    endloop
  endfacet
  facet normal 0.95689 0.290451 0
    outer loop
      vertex 13.7716 12.148 100
      vertex 13.9424 11.5853 113
      vertex 13.9424 11.5853 100
    endloop
  endfacet
  facet normal 0.471329 0.881957 -0
    outer loop
      vertex 12.6667 13.4944 100
      vertex 12.148 13.7716 113
      vertex 12.6667 13.4944 113
    endloop
  endfacet
  facet normal 0.471329 0.881957 0
    outer loop
      vertex 12.148 13.7716 113
      vertex 12.6667 13.4944 100
      vertex 12.148 13.7716 100
    endloop
  endfacet
  facet normal -0.290451 0.95689 0
    outer loop
      vertex -11.5853 13.9424 100
      vertex -12.148 13.7716 113
      vertex -11.5853 13.9424 113
    endloop
  endfacet
  facet normal -0.290451 0.95689 0
    outer loop
      vertex -12.148 13.7716 113
      vertex -11.5853 13.9424 100
      vertex -12.148 13.7716 100
    endloop
  endfacet
  facet normal -0.471329 0.881957 0
    outer loop
      vertex -12.148 13.7716 100
      vertex -12.6667 13.4944 113
      vertex -12.148 13.7716 113
    endloop
  endfacet
  facet normal -0.471329 0.881957 0
    outer loop
      vertex -12.6667 13.4944 113
      vertex -12.148 13.7716 100
      vertex -12.6667 13.4944 100
    endloop
  endfacet
  facet normal -0.95689 -0.290451 0
    outer loop
      vertex -13.7716 -24.148 100
      vertex -13.9424 -23.5853 113
      vertex -13.9424 -23.5853 100
    endloop
  endfacet
  facet normal -0.95689 -0.290451 0
    outer loop
      vertex -13.9424 -23.5853 113
      vertex -13.7716 -24.148 100
      vertex -13.7716 -24.148 113
    endloop
  endfacet
  facet normal -0.995193 -0.097938 0
    outer loop
      vertex -13.9424 -23.5853 100
      vertex -14 -23 113
      vertex -14 -23 100
    endloop
  endfacet
  facet normal -0.995193 -0.097938 0
    outer loop
      vertex -14 -23 113
      vertex -13.9424 -23.5853 100
      vertex -13.9424 -23.5853 113
    endloop
  endfacet
  facet normal -0.881957 -0.471329 0
    outer loop
      vertex -13.4944 -24.6667 100
      vertex -13.7716 -24.148 113
      vertex -13.7716 -24.148 100
    endloop
  endfacet
  facet normal -0.881957 -0.471329 0
    outer loop
      vertex -13.7716 -24.148 113
      vertex -13.4944 -24.6667 100
      vertex -13.4944 -24.6667 113
    endloop
  endfacet
  facet normal -0.772994 -0.634413 0
    outer loop
      vertex -13.1213 -25.1213 100
      vertex -13.4944 -24.6667 113
      vertex -13.4944 -24.6667 100
    endloop
  endfacet
  facet normal -0.772994 -0.634413 0
    outer loop
      vertex -13.4944 -24.6667 113
      vertex -13.1213 -25.1213 100
      vertex -13.1213 -25.1213 113
    endloop
  endfacet
  facet normal 0 -1 0
    outer loop
      vertex -11 -26 100
      vertex 11 -26 113
      vertex -11 -26 113
    endloop
  endfacet
  facet normal 0 -1 -0
    outer loop
      vertex 11 -26 113
      vertex -11 -26 100
      vertex 11 -26 100
    endloop
  endfacet
  facet normal -0.634413 -0.772994 0
    outer loop
      vertex -13.1213 -25.1213 100
      vertex -12.6667 -25.4944 113
      vertex -13.1213 -25.1213 113
    endloop
  endfacet
  facet normal -0.634413 -0.772994 -0
    outer loop
      vertex -12.6667 -25.4944 113
      vertex -13.1213 -25.1213 100
      vertex -12.6667 -25.4944 100
    endloop
  endfacet
  facet normal 0.95689 -0.290451 0
    outer loop
      vertex 13.7716 -24.148 113
      vertex 13.9424 -23.5853 107.295
      vertex 13.9424 -23.5853 113
    endloop
  endfacet
  facet normal 0.956921 -0.290349 1.09905e-05
    outer loop
      vertex 13.9424 -23.5853 107.295
      vertex 13.7716 -24.148 113
      vertex 13.8032 -24.0441 106.5
    endloop
  endfacet
  facet normal 0.956921 -0.290349 -1.09905e-05
    outer loop
      vertex 13.7716 -24.148 100
      vertex 13.9424 -23.5853 105.705
      vertex 13.8032 -24.0441 106.5
    endloop
  endfacet
  facet normal 0.95689 -0.290451 0
    outer loop
      vertex 13.9424 -23.5853 105.705
      vertex 13.7716 -24.148 100
      vertex 13.9424 -23.5853 100
    endloop
  endfacet
  facet normal 0.95673 -0.290978 0
    outer loop
      vertex 13.7716 -24.148 100
      vertex 13.8032 -24.0441 106.5
      vertex 13.7716 -24.148 113
    endloop
  endfacet
  facet normal 0.471329 -0.881957 0
    outer loop
      vertex 12.148 -25.7716 100
      vertex 12.6667 -25.4944 113
      vertex 12.148 -25.7716 113
    endloop
  endfacet
  facet normal 0.471329 -0.881957 0
    outer loop
      vertex 12.6667 -25.4944 113
      vertex 12.148 -25.7716 100
      vertex 12.6667 -25.4944 100
    endloop
  endfacet
  facet normal 0.772994 -0.634413 0
    outer loop
      vertex 13.1213 -25.1213 113
      vertex 13.4944 -24.6667 100
      vertex 13.4944 -24.6667 113
    endloop
  endfacet
  facet normal 0.772994 -0.634413 0
    outer loop
      vertex 13.4944 -24.6667 100
      vertex 13.1213 -25.1213 113
      vertex 13.1213 -25.1213 100
    endloop
  endfacet
  facet normal 0.881957 -0.471329 0
    outer loop
      vertex 13.4944 -24.6667 113
      vertex 13.7716 -24.148 100
      vertex 13.7716 -24.148 113
    endloop
  endfacet
  facet normal 0.881957 -0.471329 0
    outer loop
      vertex 13.7716 -24.148 100
      vertex 13.4944 -24.6667 113
      vertex 13.4944 -24.6667 100
    endloop
  endfacet
  facet normal -0.097938 -0.995193 0
    outer loop
      vertex -11.5853 -25.9424 100
      vertex -11 -26 113
      vertex -11.5853 -25.9424 113
    endloop
  endfacet
  facet normal -0.097938 -0.995193 -0
    outer loop
      vertex -11 -26 113
      vertex -11.5853 -25.9424 100
      vertex -11 -26 100
    endloop
  endfacet
  facet normal 0.097938 -0.995193 0
    outer loop
      vertex 11 -26 100
      vertex 11.5853 -25.9424 113
      vertex 11 -26 113
    endloop
  endfacet
  facet normal 0.097938 -0.995193 0
    outer loop
      vertex 11.5853 -25.9424 113
      vertex 11 -26 100
      vertex 11.5853 -25.9424 100
    endloop
  endfacet
  facet normal 0.995193 -0.097938 0
    outer loop
      vertex 13.9424 -23.5853 100
      vertex 14 -23 104.692
      vertex 13.9424 -23.5853 105.705
    endloop
  endfacet
  facet normal 0.995193 -0.097938 0
    outer loop
      vertex 14 -23 104.692
      vertex 13.9424 -23.5853 100
      vertex 14 -23 100
    endloop
  endfacet
  facet normal 0.995193 -0.097938 0
    outer loop
      vertex 13.9424 -23.5853 113
      vertex 14 -23 108.308
      vertex 14 -23 113
    endloop
  endfacet
  facet normal 0.995193 -0.097938 0
    outer loop
      vertex 14 -23 108.308
      vertex 13.9424 -23.5853 113
      vertex 13.9424 -23.5853 107.295
    endloop
  endfacet
  facet normal 0.290451 -0.95689 0
    outer loop
      vertex 11.5853 -25.9424 100
      vertex 12.148 -25.7716 113
      vertex 11.5853 -25.9424 113
    endloop
  endfacet
  facet normal 0.290451 -0.95689 0
    outer loop
      vertex 12.148 -25.7716 113
      vertex 11.5853 -25.9424 100
      vertex 12.148 -25.7716 100
    endloop
  endfacet
  facet normal 0.634413 -0.772994 0
    outer loop
      vertex 12.6667 -25.4944 100
      vertex 13.1213 -25.1213 113
      vertex 12.6667 -25.4944 113
    endloop
  endfacet
  facet normal 0.634413 -0.772994 0
    outer loop
      vertex 13.1213 -25.1213 113
      vertex 12.6667 -25.4944 100
      vertex 13.1213 -25.1213 100
    endloop
  endfacet
  facet normal -0.471329 -0.881957 0
    outer loop
      vertex -12.6667 -25.4944 100
      vertex -12.148 -25.7716 113
      vertex -12.6667 -25.4944 113
    endloop
  endfacet
  facet normal -0.471329 -0.881957 -0
    outer loop
      vertex -12.148 -25.7716 113
      vertex -12.6667 -25.4944 100
      vertex -12.148 -25.7716 100
    endloop
  endfacet
  facet normal -0.290451 -0.95689 0
    outer loop
      vertex -12.148 -25.7716 100
      vertex -11.5853 -25.9424 113
      vertex -12.148 -25.7716 113
    endloop
  endfacet
  facet normal -0.290451 -0.95689 -0
    outer loop
      vertex -11.5853 -25.9424 113
      vertex -12.148 -25.7716 100
      vertex -11.5853 -25.9424 100
    endloop
  endfacet
  facet normal 0 0 -1
    outer loop
      vertex -14 -18.2941 109.65
      vertex 11.5 -14.2941 109.65
      vertex 11.5 -18.2941 109.65
    endloop
  endfacet
  facet normal -0 0 -1
    outer loop
      vertex 11.5 -14.2941 109.65
      vertex -14 -18.2941 109.65
      vertex -14 -14.2941 109.65
    endloop
  endfacet
  facet normal 0 0.995196 -0.0979014
    outer loop
      vertex 11.5 -21.4441 106.5
      vertex -14 -21.3836 107.115
      vertex 11.5 -21.3836 107.115
    endloop
  endfacet
  facet normal 0 0.995196 -0.0979014
    outer loop
      vertex -14 -21.3836 107.115
      vertex 11.5 -21.4441 106.5
      vertex -14 -21.4441 106.5
    endloop
  endfacet
  facet normal 0 0.634674 -0.77278
    outer loop
      vertex -14 -20.5215 108.727
      vertex 11.5 -20.0442 109.119
      vertex 11.5 -20.5215 108.727
    endloop
  endfacet
  facet normal 0 0.634674 -0.77278
    outer loop
      vertex 11.5 -20.0442 109.119
      vertex -14 -20.5215 108.727
      vertex -14 -20.0442 109.119
    endloop
  endfacet
  facet normal 0 -0.772823 -0.634622
    outer loop
      vertex -14 -11.675 108.25
      vertex 11.5 -12.0667 108.727
      vertex -14 -12.0667 108.727
    endloop
  endfacet
  facet normal 0 -0.772823 -0.634622
    outer loop
      vertex 11.5 -12.0667 108.727
      vertex -14 -11.675 108.25
      vertex 11.5 -11.675 108.25
    endloop
  endfacet
  facet normal 0 0.289917 -0.957052
    outer loop
      vertex -14 -19.4996 109.41
      vertex 11.5 -18.9087 109.589
      vertex 11.5 -19.4996 109.41
    endloop
  endfacet
  facet normal 0 0.289917 -0.957052
    outer loop
      vertex 11.5 -18.9087 109.589
      vertex -14 -19.4996 109.41
      vertex -14 -18.9087 109.589
    endloop
  endfacet
  facet normal 0 -0.956794 0.290768
    outer loop
      vertex -14 -11.3839 105.295
      vertex 11.5 -11.2046 105.885
      vertex -14 -11.2046 105.885
    endloop
  endfacet
  facet normal 0 -0.956794 0.290768
    outer loop
      vertex 11.5 -11.2046 105.885
      vertex -14 -11.3839 105.295
      vertex 11.5 -11.3839 105.295
    endloop
  endfacet
  facet normal 0 -0.289917 -0.957052
    outer loop
      vertex -14 -13.6796 109.589
      vertex 11.5 -13.0887 109.41
      vertex 11.5 -13.6796 109.589
    endloop
  endfacet
  facet normal -0 -0.289917 -0.957052
    outer loop
      vertex 11.5 -13.0887 109.41
      vertex -14 -13.6796 109.589
      vertex -14 -13.0887 109.41
    endloop
  endfacet
  facet normal 0 -0.0987822 -0.995109
    outer loop
      vertex -14 -14.2941 109.65
      vertex 11.5 -13.6796 109.589
      vertex 11.5 -14.2941 109.65
    endloop
  endfacet
  facet normal -0 -0.0987822 -0.995109
    outer loop
      vertex 11.5 -13.6796 109.589
      vertex -14 -14.2941 109.65
      vertex -14 -13.6796 109.589
    endloop
  endfacet
  facet normal 0 -0.0987822 0.995109
    outer loop
      vertex -14 -13.6796 103.411
      vertex 11.5 -14.2941 103.35
      vertex 11.5 -13.6796 103.411
    endloop
  endfacet
  facet normal 0 -0.0987822 0.995109
    outer loop
      vertex 11.5 -14.2941 103.35
      vertex -14 -13.6796 103.411
      vertex -14 -14.2941 103.35
    endloop
  endfacet
  facet normal -0 0 1
    outer loop
      vertex -14 -14.2941 103.35
      vertex 11.5 -18.2941 103.35
      vertex 11.5 -14.2941 103.35
    endloop
  endfacet
  facet normal 0 0 1
    outer loop
      vertex 11.5 -18.2941 103.35
      vertex -14 -14.2941 103.35
      vertex -14 -18.2941 103.35
    endloop
  endfacet
  facet normal -0 0.471277 0.881985
    outer loop
      vertex -14 -19.4996 103.59
      vertex 11.5 -20.0442 103.881
      vertex 11.5 -19.4996 103.59
    endloop
  endfacet
  facet normal 0 0.471277 0.881985
    outer loop
      vertex 11.5 -20.0442 103.881
      vertex -14 -19.4996 103.59
      vertex -14 -20.0442 103.881
    endloop
  endfacet
  facet normal -0 0.0987663 0.995111
    outer loop
      vertex -14 -18.2941 103.35
      vertex 11.5 -18.9087 103.411
      vertex 11.5 -18.2941 103.35
    endloop
  endfacet
  facet normal 0 0.0987663 0.995111
    outer loop
      vertex 11.5 -18.9087 103.411
      vertex -14 -18.2941 103.35
      vertex -14 -18.9087 103.411
    endloop
  endfacet
  facet normal 0 0.995196 0.0979014
    outer loop
      vertex 11.5 -21.3836 105.885
      vertex -14 -21.4441 106.5
      vertex 11.5 -21.4441 106.5
    endloop
  endfacet
  facet normal 0 0.995196 0.0979014
    outer loop
      vertex -14 -21.4441 106.5
      vertex 11.5 -21.3836 105.885
      vertex -14 -21.3836 105.885
    endloop
  endfacet
  facet normal 0 0.882062 -0.471134
    outer loop
      vertex 11.5 -21.2043 107.705
      vertex -14 -20.9132 108.25
      vertex 11.5 -20.9132 108.25
    endloop
  endfacet
  facet normal 0 0.882062 -0.471134
    outer loop
      vertex -14 -20.9132 108.25
      vertex 11.5 -21.2043 107.705
      vertex -14 -21.2043 107.705
    endloop
  endfacet
  facet normal 0 0.772823 -0.634622
    outer loop
      vertex 11.5 -20.9132 108.25
      vertex -14 -20.5215 108.727
      vertex 11.5 -20.5215 108.727
    endloop
  endfacet
  facet normal 0 0.772823 -0.634622
    outer loop
      vertex -14 -20.5215 108.727
      vertex 11.5 -20.9132 108.25
      vertex -14 -20.9132 108.25
    endloop
  endfacet
  facet normal 0 0.956794 -0.290768
    outer loop
      vertex 11.5 -21.3836 107.115
      vertex -14 -21.2043 107.705
      vertex 11.5 -21.2043 107.705
    endloop
  endfacet
  facet normal 0 0.956794 -0.290768
    outer loop
      vertex -14 -21.2043 107.705
      vertex 11.5 -21.3836 107.115
      vertex -14 -21.3836 107.115
    endloop
  endfacet
  facet normal 0 0.471277 -0.881985
    outer loop
      vertex -14 -20.0442 109.119
      vertex 11.5 -19.4996 109.41
      vertex 11.5 -20.0442 109.119
    endloop
  endfacet
  facet normal 0 0.471277 -0.881985
    outer loop
      vertex 11.5 -19.4996 109.41
      vertex -14 -20.0442 109.119
      vertex -14 -19.4996 109.41
    endloop
  endfacet
  facet normal 0 0.0987663 -0.995111
    outer loop
      vertex -14 -18.9087 109.589
      vertex 11.5 -18.2941 109.65
      vertex 11.5 -18.9087 109.589
    endloop
  endfacet
  facet normal 0 0.0987663 -0.995111
    outer loop
      vertex 11.5 -18.2941 109.65
      vertex -14 -18.9087 109.589
      vertex -14 -18.2941 109.65
    endloop
  endfacet
  facet normal 0 -0.882062 -0.471134
    outer loop
      vertex -14 -11.3839 107.705
      vertex 11.5 -11.675 108.25
      vertex -14 -11.675 108.25
    endloop
  endfacet
  facet normal 0 -0.882062 -0.471134
    outer loop
      vertex 11.5 -11.675 108.25
      vertex -14 -11.3839 107.705
      vertex 11.5 -11.3839 107.705
    endloop
  endfacet
  facet normal 0 -0.289917 0.957052
    outer loop
      vertex -14 -13.0887 103.59
      vertex 11.5 -13.6796 103.411
      vertex 11.5 -13.0887 103.59
    endloop
  endfacet
  facet normal 0 -0.289917 0.957052
    outer loop
      vertex 11.5 -13.6796 103.411
      vertex -14 -13.0887 103.59
      vertex -14 -13.6796 103.411
    endloop
  endfacet
  facet normal 0 -0.471277 -0.881985
    outer loop
      vertex -14 -13.0887 109.41
      vertex 11.5 -12.5441 109.119
      vertex 11.5 -13.0887 109.41
    endloop
  endfacet
  facet normal -0 -0.471277 -0.881985
    outer loop
      vertex 11.5 -12.5441 109.119
      vertex -14 -13.0887 109.41
      vertex -14 -12.5441 109.119
    endloop
  endfacet
  facet normal 0 -0.634594 -0.772845
    outer loop
      vertex -14 -12.5441 109.119
      vertex 11.5 -12.0667 108.727
      vertex 11.5 -12.5441 109.119
    endloop
  endfacet
  facet normal -0 -0.634594 -0.772845
    outer loop
      vertex 11.5 -12.0667 108.727
      vertex -14 -12.5441 109.119
      vertex -14 -12.0667 108.727
    endloop
  endfacet
  facet normal 0 0.882062 0.471134
    outer loop
      vertex 11.5 -20.9132 104.75
      vertex -14 -21.2043 105.295
      vertex 11.5 -21.2043 105.295
    endloop
  endfacet
  facet normal 0 0.882062 0.471134
    outer loop
      vertex -14 -21.2043 105.295
      vertex 11.5 -20.9132 104.75
      vertex -14 -20.9132 104.75
    endloop
  endfacet
  facet normal 0 0.956794 0.290768
    outer loop
      vertex 11.5 -21.2043 105.295
      vertex -14 -21.3836 105.885
      vertex 11.5 -21.3836 105.885
    endloop
  endfacet
  facet normal 0 0.956794 0.290768
    outer loop
      vertex -14 -21.3836 105.885
      vertex 11.5 -21.2043 105.295
      vertex -14 -21.2043 105.295
    endloop
  endfacet
  facet normal 0 -0.956794 -0.290768
    outer loop
      vertex -14 -11.2046 107.115
      vertex 11.5 -11.3839 107.705
      vertex -14 -11.3839 107.705
    endloop
  endfacet
  facet normal 0 -0.956794 -0.290768
    outer loop
      vertex 11.5 -11.3839 107.705
      vertex -14 -11.2046 107.115
      vertex 11.5 -11.2046 107.115
    endloop
  endfacet
  facet normal 0 -0.882062 0.471134
    outer loop
      vertex -14 -11.675 104.75
      vertex 11.5 -11.3839 105.295
      vertex -14 -11.3839 105.295
    endloop
  endfacet
  facet normal 0 -0.882062 0.471134
    outer loop
      vertex 11.5 -11.3839 105.295
      vertex -14 -11.675 104.75
      vertex 11.5 -11.675 104.75
    endloop
  endfacet
  facet normal 0 -0.634594 0.772845
    outer loop
      vertex -14 -12.0667 104.273
      vertex 11.5 -12.5441 103.881
      vertex 11.5 -12.0667 104.273
    endloop
  endfacet
  facet normal 0 -0.634594 0.772845
    outer loop
      vertex 11.5 -12.5441 103.881
      vertex -14 -12.0667 104.273
      vertex -14 -12.5441 103.881
    endloop
  endfacet
  facet normal 0 -0.772823 0.634622
    outer loop
      vertex -14 -12.0667 104.273
      vertex 11.5 -11.675 104.75
      vertex -14 -11.675 104.75
    endloop
  endfacet
  facet normal 0 -0.772823 0.634622
    outer loop
      vertex 11.5 -11.675 104.75
      vertex -14 -12.0667 104.273
      vertex 11.5 -12.0667 104.273
    endloop
  endfacet
  facet normal 0 -0.471277 0.881985
    outer loop
      vertex -14 -12.5441 103.881
      vertex 11.5 -13.0887 103.59
      vertex 11.5 -12.5441 103.881
    endloop
  endfacet
  facet normal 0 -0.471277 0.881985
    outer loop
      vertex 11.5 -13.0887 103.59
      vertex -14 -12.5441 103.881
      vertex -14 -13.0887 103.59
    endloop
  endfacet
  facet normal -0 0.289917 0.957052
    outer loop
      vertex -14 -18.9087 103.411
      vertex 11.5 -19.4996 103.59
      vertex 11.5 -18.9087 103.411
    endloop
  endfacet
  facet normal 0 0.289917 0.957052
    outer loop
      vertex 11.5 -19.4996 103.59
      vertex -14 -18.9087 103.411
      vertex -14 -19.4996 103.59
    endloop
  endfacet
  facet normal 0 0.772823 0.634622
    outer loop
      vertex 11.5 -20.5215 104.273
      vertex -14 -20.9132 104.75
      vertex 11.5 -20.9132 104.75
    endloop
  endfacet
  facet normal 0 0.772823 0.634622
    outer loop
      vertex -14 -20.9132 104.75
      vertex 11.5 -20.5215 104.273
      vertex -14 -20.5215 104.273
    endloop
  endfacet
  facet normal -0 0.634674 0.77278
    outer loop
      vertex -14 -20.0442 103.881
      vertex 11.5 -20.5215 104.273
      vertex 11.5 -20.0442 103.881
    endloop
  endfacet
  facet normal 0 0.634674 0.77278
    outer loop
      vertex 11.5 -20.5215 104.273
      vertex -14 -20.0442 103.881
      vertex -14 -20.5215 104.273
    endloop
  endfacet
  facet normal 0 -0.995196 0.0979014
    outer loop
      vertex -14 -11.2046 105.885
      vertex 11.5 -11.1441 106.5
      vertex -14 -11.1441 106.5
    endloop
  endfacet
  facet normal 0 -0.995196 0.0979014
    outer loop
      vertex 11.5 -11.1441 106.5
      vertex -14 -11.2046 105.885
      vertex 11.5 -11.2046 105.885
    endloop
  endfacet
  facet normal 0 -0.995196 -0.0979014
    outer loop
      vertex -14 -11.1441 106.5
      vertex 11.5 -11.2046 107.115
      vertex -14 -11.2046 107.115
    endloop
  endfacet
  facet normal 0 -0.995196 -0.0979014
    outer loop
      vertex 11.5 -11.2046 107.115
      vertex -14 -11.1441 106.5
      vertex 11.5 -11.1441 106.5
    endloop
  endfacet
  facet normal 0 0 -1
    outer loop
      vertex 11.5 -21.1691 111.48
      vertex 14 -11.4191 111.48
      vertex 14 -21.1691 111.48
    endloop
  endfacet
  facet normal -0 0 -1
    outer loop
      vertex 14 -11.4191 111.48
      vertex 11.5 -21.1691 111.48
      vertex 11.5 -11.4191 111.48
    endloop
  endfacet
  facet normal 0 -0.866042 -0.499971
    outer loop
      vertex 11.5 -8.54412 106.5
      vertex 14 -11.4191 111.48
      vertex 11.5 -11.4191 111.48
    endloop
  endfacet
  facet normal 0 -0.866042 -0.499971
    outer loop
      vertex 14 -11.4191 111.48
      vertex 11.5 -8.54412 106.5
      vertex 14 -8.54412 106.5
    endloop
  endfacet
  facet normal 1 0 0
    outer loop
      vertex 11.5 -8.54412 106.5
      vertex 11.5 -11.2046 107.115
      vertex 11.5 -11.1441 106.5
    endloop
  endfacet
  facet normal 1 0 0
    outer loop
      vertex 11.5 -8.54412 106.5
      vertex 11.5 -11.3839 107.705
      vertex 11.5 -11.2046 107.115
    endloop
  endfacet
  facet normal 1 -0 0
    outer loop
      vertex 11.5 -11.675 108.25
      vertex 11.5 -8.54412 106.5
      vertex 11.5 -11.4191 111.48
    endloop
  endfacet
  facet normal 1 0 0
    outer loop
      vertex 11.5 -8.54412 106.5
      vertex 11.5 -11.675 108.25
      vertex 11.5 -11.3839 107.705
    endloop
  endfacet
  facet normal 1 0 0
    outer loop
      vertex 11.5 -11.4191 111.48
      vertex 11.5 -12.0667 108.727
      vertex 11.5 -11.675 108.25
    endloop
  endfacet
  facet normal 1 0 0
    outer loop
      vertex 11.5 -11.4191 111.48
      vertex 11.5 -12.5441 109.119
      vertex 11.5 -12.0667 108.727
    endloop
  endfacet
  facet normal 1 0 0
    outer loop
      vertex 11.5 -11.4191 111.48
      vertex 11.5 -13.0887 109.41
      vertex 11.5 -12.5441 109.119
    endloop
  endfacet
  facet normal 1 0 0
    outer loop
      vertex 11.5 -11.4191 111.48
      vertex 11.5 -13.6796 109.589
      vertex 11.5 -13.0887 109.41
    endloop
  endfacet
  facet normal 1 0 0
    outer loop
      vertex 11.5 -11.4191 111.48
      vertex 11.5 -14.2941 109.65
      vertex 11.5 -13.6796 109.589
    endloop
  endfacet
  facet normal 1 0 0
    outer loop
      vertex 11.5 -11.4191 111.48
      vertex 11.5 -18.2941 109.65
      vertex 11.5 -14.2941 109.65
    endloop
  endfacet
  facet normal 1 -0 0
    outer loop
      vertex 11.5 -21.1691 111.48
      vertex 11.5 -18.2941 109.65
      vertex 11.5 -11.4191 111.48
    endloop
  endfacet
  facet normal 1 0 0
    outer loop
      vertex 11.5 -18.2941 109.65
      vertex 11.5 -21.1691 111.48
      vertex 11.5 -18.9087 109.589
    endloop
  endfacet
  facet normal 1 0 0
    outer loop
      vertex 11.5 -21.1691 111.48
      vertex 11.5 -19.4996 109.41
      vertex 11.5 -18.9087 109.589
    endloop
  endfacet
  facet normal 1 0 0
    outer loop
      vertex 11.5 -21.1691 111.48
      vertex 11.5 -20.0442 109.119
      vertex 11.5 -19.4996 109.41
    endloop
  endfacet
  facet normal 1 0 0
    outer loop
      vertex 11.5 -21.1691 111.48
      vertex 11.5 -20.5215 108.727
      vertex 11.5 -20.0442 109.119
    endloop
  endfacet
  facet normal 1 0 0
    outer loop
      vertex 11.5 -21.1691 111.48
      vertex 11.5 -20.9132 108.25
      vertex 11.5 -20.5215 108.727
    endloop
  endfacet
  facet normal 1 0 0
    outer loop
      vertex 11.5 -24.0441 106.5
      vertex 11.5 -20.9132 108.25
      vertex 11.5 -21.1691 111.48
    endloop
  endfacet
  facet normal 1 0 0
    outer loop
      vertex 11.5 -20.9132 108.25
      vertex 11.5 -24.0441 106.5
      vertex 11.5 -21.2043 107.705
    endloop
  endfacet
  facet normal 1 0 0
    outer loop
      vertex 11.5 -21.2043 107.705
      vertex 11.5 -24.0441 106.5
      vertex 11.5 -21.3836 107.115
    endloop
  endfacet
  facet normal 1 0 0
    outer loop
      vertex 11.5 -21.3836 107.115
      vertex 11.5 -24.0441 106.5
      vertex 11.5 -21.4441 106.5
    endloop
  endfacet
  facet normal 1 0 0
    outer loop
      vertex 11.5 -11.2046 105.885
      vertex 11.5 -8.54412 106.5
      vertex 11.5 -11.1441 106.5
    endloop
  endfacet
  facet normal 1 0 0
    outer loop
      vertex 11.5 -11.3839 105.295
      vertex 11.5 -8.54412 106.5
      vertex 11.5 -11.2046 105.885
    endloop
  endfacet
  facet normal 1 0 0
    outer loop
      vertex 11.5 -11.675 104.75
      vertex 11.5 -8.54412 106.5
      vertex 11.5 -11.3839 105.295
    endloop
  endfacet
  facet normal 1 0 0
    outer loop
      vertex 11.5 -8.54412 106.5
      vertex 11.5 -11.675 104.75
      vertex 11.5 -11.4191 101.52
    endloop
  endfacet
  facet normal 1 -0 0
    outer loop
      vertex 11.5 -12.0667 104.273
      vertex 11.5 -11.4191 101.52
      vertex 11.5 -11.675 104.75
    endloop
  endfacet
  facet normal 1 -0 0
    outer loop
      vertex 11.5 -12.5441 103.881
      vertex 11.5 -11.4191 101.52
      vertex 11.5 -12.0667 104.273
    endloop
  endfacet
  facet normal 1 -0 0
    outer loop
      vertex 11.5 -13.0887 103.59
      vertex 11.5 -11.4191 101.52
      vertex 11.5 -12.5441 103.881
    endloop
  endfacet
  facet normal 1 -0 0
    outer loop
      vertex 11.5 -13.6796 103.411
      vertex 11.5 -11.4191 101.52
      vertex 11.5 -13.0887 103.59
    endloop
  endfacet
  facet normal 1 -0 0
    outer loop
      vertex 11.5 -14.2941 103.35
      vertex 11.5 -11.4191 101.52
      vertex 11.5 -13.6796 103.411
    endloop
  endfacet
  facet normal 1 -0 0
    outer loop
      vertex 11.5 -18.2941 103.35
      vertex 11.5 -11.4191 101.52
      vertex 11.5 -14.2941 103.35
    endloop
  endfacet
  facet normal 1 0 0
    outer loop
      vertex 11.5 -21.1691 101.52
      vertex 11.5 -18.2941 103.35
      vertex 11.5 -18.9087 103.411
    endloop
  endfacet
  facet normal 1 0 0
    outer loop
      vertex 11.5 -18.2941 103.35
      vertex 11.5 -21.1691 101.52
      vertex 11.5 -11.4191 101.52
    endloop
  endfacet
  facet normal 1 0 0
    outer loop
      vertex 11.5 -19.4996 103.59
      vertex 11.5 -21.1691 101.52
      vertex 11.5 -18.9087 103.411
    endloop
  endfacet
  facet normal 1 0 0
    outer loop
      vertex 11.5 -20.0442 103.881
      vertex 11.5 -21.1691 101.52
      vertex 11.5 -19.4996 103.59
    endloop
  endfacet
  facet normal 1 0 0
    outer loop
      vertex 11.5 -20.5215 104.273
      vertex 11.5 -21.1691 101.52
      vertex 11.5 -20.0442 103.881
    endloop
  endfacet
  facet normal 1 0 0
    outer loop
      vertex 11.5 -20.9132 104.75
      vertex 11.5 -21.1691 101.52
      vertex 11.5 -20.5215 104.273
    endloop
  endfacet
  facet normal 1 0 0
    outer loop
      vertex 11.5 -24.0441 106.5
      vertex 11.5 -20.9132 104.75
      vertex 11.5 -21.2043 105.295
    endloop
  endfacet
  facet normal 1 0 0
    outer loop
      vertex 11.5 -24.0441 106.5
      vertex 11.5 -21.2043 105.295
      vertex 11.5 -21.3836 105.885
    endloop
  endfacet
  facet normal 1 -0 0
    outer loop
      vertex 11.5 -24.0441 106.5
      vertex 11.5 -21.3836 105.885
      vertex 11.5 -21.4441 106.5
    endloop
  endfacet
  facet normal 1 0 0
    outer loop
      vertex 11.5 -20.9132 104.75
      vertex 11.5 -24.0441 106.5
      vertex 11.5 -21.1691 101.52
    endloop
  endfacet
  facet normal 0 -0.866042 0.499971
    outer loop
      vertex 11.5 -11.4191 101.52
      vertex 14 -8.54412 106.5
      vertex 11.5 -8.54412 106.5
    endloop
  endfacet
  facet normal 0 -0.866042 0.499971
    outer loop
      vertex 14 -8.54412 106.5
      vertex 11.5 -11.4191 101.52
      vertex 14 -11.4191 101.52
    endloop
  endfacet
  facet normal -0 0 1
    outer loop
      vertex 11.5 -11.4191 101.52
      vertex 14 -21.1691 101.52
      vertex 14 -11.4191 101.52
    endloop
  endfacet
  facet normal 0 0 1
    outer loop
      vertex 14 -21.1691 101.52
      vertex 11.5 -11.4191 101.52
      vertex 11.5 -21.1691 101.52
    endloop
  endfacet
  facet normal 0 0.866117 0.499842
    outer loop
      vertex 13.9424 -23.5853 105.705
      vertex 11.5 -24.0441 106.5
      vertex 13.8032 -24.0441 106.5
    endloop
  endfacet
  facet normal 0.000195787 0.865856 0.500293
    outer loop
      vertex 14 -23 104.692
      vertex 11.5 -24.0441 106.5
      vertex 13.9424 -23.5853 105.705
    endloop
  endfacet
  facet normal -0 0.866079 0.499907
    outer loop
      vertex 11.5 -21.1691 101.52
      vertex 14 -23 104.692
      vertex 14 -21.1691 101.52
    endloop
  endfacet
  facet normal -0.000112551 0.866041 0.499973
    outer loop
      vertex 14 -23 104.692
      vertex 11.5 -21.1691 101.52
      vertex 11.5 -24.0441 106.5
    endloop
  endfacet
  facet normal 0 0.866079 -0.499907
    outer loop
      vertex 14 -23 108.308
      vertex 11.5 -21.1691 111.48
      vertex 14 -21.1691 111.48
    endloop
  endfacet
  facet normal 0.000195787 0.865856 -0.500293
    outer loop
      vertex 11.5 -24.0441 106.5
      vertex 14 -23 108.308
      vertex 13.9424 -23.5853 107.295
    endloop
  endfacet
  facet normal 0 0.866117 -0.499842
    outer loop
      vertex 11.5 -24.0441 106.5
      vertex 13.9424 -23.5853 107.295
      vertex 13.8032 -24.0441 106.5
    endloop
  endfacet
  facet normal -0.000112551 0.866041 -0.499973
    outer loop
      vertex 14 -23 108.308
      vertex 11.5 -24.0441 106.5
      vertex 11.5 -21.1691 111.48
    endloop
  endfacet
  facet normal 0.956951 0.290248 0
    outer loop
      vertex -9.99239 -9.93827 113
      vertex -9.99808 -9.91951 100
      vertex -9.99808 -9.91951 113
    endloop
  endfacet
  facet normal 0.956951 0.290248 0
    outer loop
      vertex -9.99808 -9.91951 100
      vertex -9.99239 -9.93827 113
      vertex -9.99239 -9.93827 100
    endloop
  endfacet
  facet normal 1 0 0
    outer loop
      vertex -10 9.9 113
      vertex -10 2.65 106.5
      vertex -10 9.9 100
    endloop
  endfacet
  facet normal 1 0 0
    outer loop
      vertex -10 9.9 113
      vertex -10 2.59908 107.017
      vertex -10 2.65 106.5
    endloop
  endfacet
  facet normal 1 0 0
    outer loop
      vertex -10 9.9 113
      vertex -10 2.44828 107.514
      vertex -10 2.59908 107.017
    endloop
  endfacet
  facet normal 1 0 0
    outer loop
      vertex -10 9.9 113
      vertex -10 2.20339 107.972
      vertex -10 2.44828 107.514
    endloop
  endfacet
  facet normal 1 0 0
    outer loop
      vertex -10 9.9 113
      vertex -10 1.87383 108.374
      vertex -10 2.20339 107.972
    endloop
  endfacet
  facet normal 1 0 0
    outer loop
      vertex -10 9.9 113
      vertex -10 1.47226 108.703
      vertex -10 1.87383 108.374
    endloop
  endfacet
  facet normal 1 0 0
    outer loop
      vertex -10 9.9 113
      vertex -10 1.01411 108.948
      vertex -10 1.47226 108.703
    endloop
  endfacet
  facet normal 1 0 0
    outer loop
      vertex -10 9.9 113
      vertex -10 0.516989 109.099
      vertex -10 1.01411 108.948
    endloop
  endfacet
  facet normal 1 0 0
    outer loop
      vertex -10 9.9 113
      vertex -10 0 109.15
      vertex -10 0.516989 109.099
    endloop
  endfacet
  facet normal 1 -0 0
    outer loop
      vertex -10 -9.9 113
      vertex -10 0 109.15
      vertex -10 9.9 113
    endloop
  endfacet
  facet normal 1 0 0
    outer loop
      vertex -10 0 109.15
      vertex -10 -9.9 113
      vertex -10 -0.516989 109.099
    endloop
  endfacet
  facet normal 1 0 0
    outer loop
      vertex -10 -2.59908 107.017
      vertex -10 -9.9 113
      vertex -10 -2.65 106.5
    endloop
  endfacet
  facet normal 1 0 0
    outer loop
      vertex -10 -2.44828 107.514
      vertex -10 -9.9 113
      vertex -10 -2.59908 107.017
    endloop
  endfacet
  facet normal 1 0 0
    outer loop
      vertex -10 -2.20339 107.972
      vertex -10 -9.9 113
      vertex -10 -2.44828 107.514
    endloop
  endfacet
  facet normal 1 0 0
    outer loop
      vertex -10 -1.87383 108.374
      vertex -10 -9.9 113
      vertex -10 -2.20339 107.972
    endloop
  endfacet
  facet normal 1 0 0
    outer loop
      vertex -10 -1.47226 108.703
      vertex -10 -9.9 113
      vertex -10 -1.87383 108.374
    endloop
  endfacet
  facet normal 1 0 0
    outer loop
      vertex -10 -1.01411 108.948
      vertex -10 -9.9 113
      vertex -10 -1.47226 108.703
    endloop
  endfacet
  facet normal 1 0 0
    outer loop
      vertex -10 -0.516989 109.099
      vertex -10 -9.9 113
      vertex -10 -1.01411 108.948
    endloop
  endfacet
  facet normal 1 -0 0
    outer loop
      vertex -10 2.59908 105.983
      vertex -10 9.9 100
      vertex -10 2.65 106.5
    endloop
  endfacet
  facet normal 1 -0 0
    outer loop
      vertex -10 2.44828 105.486
      vertex -10 9.9 100
      vertex -10 2.59908 105.983
    endloop
  endfacet
  facet normal 1 -0 0
    outer loop
      vertex -10 2.20339 105.028
      vertex -10 9.9 100
      vertex -10 2.44828 105.486
    endloop
  endfacet
  facet normal 1 -0 0
    outer loop
      vertex -10 1.87383 104.626
      vertex -10 9.9 100
      vertex -10 2.20339 105.028
    endloop
  endfacet
  facet normal 1 -0 0
    outer loop
      vertex -10 1.47226 104.297
      vertex -10 9.9 100
      vertex -10 1.87383 104.626
    endloop
  endfacet
  facet normal 1 -0 0
    outer loop
      vertex -10 1.01411 104.052
      vertex -10 9.9 100
      vertex -10 1.47226 104.297
    endloop
  endfacet
  facet normal 1 -0 0
    outer loop
      vertex -10 0.516989 103.901
      vertex -10 9.9 100
      vertex -10 1.01411 104.052
    endloop
  endfacet
  facet normal 1 -0 0
    outer loop
      vertex -10 0 103.85
      vertex -10 9.9 100
      vertex -10 0.516989 103.901
    endloop
  endfacet
  facet normal 1 0 0
    outer loop
      vertex -10 -9.9 100
      vertex -10 0 103.85
      vertex -10 -0.516989 103.901
    endloop
  endfacet
  facet normal 1 0 0
    outer loop
      vertex -10 -9.9 100
      vertex -10 -0.516989 103.901
      vertex -10 -1.01411 104.052
    endloop
  endfacet
  facet normal 1 0 0
    outer loop
      vertex -10 -9.9 100
      vertex -10 -2.65 106.5
      vertex -10 -9.9 113
    endloop
  endfacet
  facet normal 1 0 0
    outer loop
      vertex -10 -2.65 106.5
      vertex -10 -9.9 100
      vertex -10 -2.59908 105.983
    endloop
  endfacet
  facet normal 1 0 0
    outer loop
      vertex -10 -2.59908 105.983
      vertex -10 -9.9 100
      vertex -10 -2.44828 105.486
    endloop
  endfacet
  facet normal 1 0 0
    outer loop
      vertex -10 -2.44828 105.486
      vertex -10 -9.9 100
      vertex -10 -2.20339 105.028
    endloop
  endfacet
  facet normal 1 0 0
    outer loop
      vertex -10 0 103.85
      vertex -10 -9.9 100
      vertex -10 9.9 100
    endloop
  endfacet
  facet normal 1 0 0
    outer loop
      vertex -10 -1.47226 104.297
      vertex -10 -9.9 100
      vertex -10 -1.01411 104.052
    endloop
  endfacet
  facet normal 1 0 0
    outer loop
      vertex -10 -1.87383 104.626
      vertex -10 -9.9 100
      vertex -10 -1.47226 104.297
    endloop
  endfacet
  facet normal 1 0 0
    outer loop
      vertex -10 -2.20339 105.028
      vertex -10 -9.9 100
      vertex -10 -1.87383 104.626
    endloop
  endfacet
  facet normal -0.995193 -0.097938 0
    outer loop
      vertex 10 9.9 100
      vertex 9.99808 9.91951 113
      vertex 9.99808 9.91951 100
    endloop
  endfacet
  facet normal -0.995193 -0.097938 0
    outer loop
      vertex 9.99808 9.91951 113
      vertex 10 9.9 100
      vertex 10 9.9 113
    endloop
  endfacet
  facet normal 0.995193 0.097938 0
    outer loop
      vertex -9.99808 -9.91951 113
      vertex -10 -9.9 100
      vertex -10 -9.9 113
    endloop
  endfacet
  facet normal 0.995193 0.097938 0
    outer loop
      vertex -10 -9.9 100
      vertex -9.99808 -9.91951 113
      vertex -9.99808 -9.91951 100
    endloop
  endfacet
  facet normal 0.634598 -0.772842 0
    outer loop
      vertex -9.97071 9.97071 100
      vertex -9.95556 9.98315 113
      vertex -9.97071 9.97071 113
    endloop
  endfacet
  facet normal 0.634598 -0.772842 0
    outer loop
      vertex -9.95556 9.98315 113
      vertex -9.97071 9.97071 100
      vertex -9.95556 9.98315 100
    endloop
  endfacet
  facet normal -0.881957 -0.471329 0
    outer loop
      vertex 9.99239 9.93827 100
      vertex 9.98315 9.95556 113
      vertex 9.98315 9.95556 100
    endloop
  endfacet
  facet normal -0.881957 -0.471329 0
    outer loop
      vertex 9.98315 9.95556 113
      vertex 9.99239 9.93827 100
      vertex 9.99239 9.93827 113
    endloop
  endfacet
  facet normal -0.097938 -0.995193 0
    outer loop
      vertex 9.9 10 100
      vertex 9.91951 9.99808 113
      vertex 9.9 10 113
    endloop
  endfacet
  facet normal -0.097938 -0.995193 -0
    outer loop
      vertex 9.91951 9.99808 113
      vertex 9.9 10 100
      vertex 9.91951 9.99808 100
    endloop
  endfacet
  facet normal 0 -1 0
    outer loop
      vertex -9.9 10 100
      vertex 9.9 10 113
      vertex -9.9 10 113
    endloop
  endfacet
  facet normal 0 -1 -0
    outer loop
      vertex 9.9 10 113
      vertex -9.9 10 100
      vertex 9.9 10 100
    endloop
  endfacet
  facet normal 0.995193 -0.097938 0
    outer loop
      vertex -10 9.9 113
      vertex -9.99808 9.91951 100
      vertex -9.99808 9.91951 113
    endloop
  endfacet
  facet normal 0.995193 -0.097938 0
    outer loop
      vertex -9.99808 9.91951 100
      vertex -10 9.9 113
      vertex -10 9.9 100
    endloop
  endfacet
  facet normal -1 0 0
    outer loop
      vertex 10 -9.9 100
      vertex 10 9.9 113
      vertex 10 9.9 100
    endloop
  endfacet
  facet normal -1 -0 0
    outer loop
      vertex 10 9.9 113
      vertex 10 -9.9 100
      vertex 10 -9.9 113
    endloop
  endfacet
  facet normal 0 1 -0
    outer loop
      vertex 9.9 -10 100
      vertex -9.9 -10 113
      vertex 9.9 -10 113
    endloop
  endfacet
  facet normal 0 1 0
    outer loop
      vertex -9.9 -10 113
      vertex 9.9 -10 100
      vertex -9.9 -10 100
    endloop
  endfacet
  facet normal -0.772842 -0.634598 0
    outer loop
      vertex 9.98315 9.95556 100
      vertex 9.97071 9.97071 113
      vertex 9.97071 9.97071 100
    endloop
  endfacet
  facet normal -0.772842 -0.634598 0
    outer loop
      vertex 9.97071 9.97071 113
      vertex 9.98315 9.95556 100
      vertex 9.98315 9.95556 113
    endloop
  endfacet
  facet normal 0.881957 -0.471329 0
    outer loop
      vertex -9.99239 9.93827 113
      vertex -9.98315 9.95556 100
      vertex -9.98315 9.95556 113
    endloop
  endfacet
  facet normal 0.881957 -0.471329 0
    outer loop
      vertex -9.98315 9.95556 100
      vertex -9.99239 9.93827 113
      vertex -9.99239 9.93827 100
    endloop
  endfacet
  facet normal 0.772842 -0.634598 0
    outer loop
      vertex -9.98315 9.95556 113
      vertex -9.97071 9.97071 100
      vertex -9.97071 9.97071 113
    endloop
  endfacet
  facet normal 0.772842 -0.634598 0
    outer loop
      vertex -9.97071 9.97071 100
      vertex -9.98315 9.95556 113
      vertex -9.98315 9.95556 100
    endloop
  endfacet
  facet normal 0.956951 -0.290248 0
    outer loop
      vertex -9.99808 9.91951 113
      vertex -9.99239 9.93827 100
      vertex -9.99239 9.93827 113
    endloop
  endfacet
  facet normal 0.956951 -0.290248 0
    outer loop
      vertex -9.99239 9.93827 100
      vertex -9.99808 9.91951 113
      vertex -9.99808 9.91951 100
    endloop
  endfacet
  facet normal -0.772842 0.634598 0
    outer loop
      vertex 9.97071 -9.97071 100
      vertex 9.98315 -9.95556 113
      vertex 9.98315 -9.95556 100
    endloop
  endfacet
  facet normal -0.772842 0.634598 0
    outer loop
      vertex 9.98315 -9.95556 113
      vertex 9.97071 -9.97071 100
      vertex 9.97071 -9.97071 113
    endloop
  endfacet
  facet normal -0.956951 0.290248 0
    outer loop
      vertex 9.99239 -9.93827 100
      vertex 9.99808 -9.91951 113
      vertex 9.99808 -9.91951 100
    endloop
  endfacet
  facet normal -0.956951 0.290248 0
    outer loop
      vertex 9.99808 -9.91951 113
      vertex 9.99239 -9.93827 100
      vertex 9.99239 -9.93827 113
    endloop
  endfacet
  facet normal -0.634598 0.772842 0
    outer loop
      vertex 9.97071 -9.97071 100
      vertex 9.95556 -9.98315 113
      vertex 9.97071 -9.97071 113
    endloop
  endfacet
  facet normal -0.634598 0.772842 0
    outer loop
      vertex 9.95556 -9.98315 113
      vertex 9.97071 -9.97071 100
      vertex 9.95556 -9.98315 100
    endloop
  endfacet
  facet normal 0.634598 0.772842 -0
    outer loop
      vertex -9.95556 -9.98315 100
      vertex -9.97071 -9.97071 113
      vertex -9.95556 -9.98315 113
    endloop
  endfacet
  facet normal 0.634598 0.772842 0
    outer loop
      vertex -9.97071 -9.97071 113
      vertex -9.95556 -9.98315 100
      vertex -9.97071 -9.97071 100
    endloop
  endfacet
  facet normal 0.881957 0.471329 0
    outer loop
      vertex -9.98315 -9.95556 113
      vertex -9.99239 -9.93827 100
      vertex -9.99239 -9.93827 113
    endloop
  endfacet
  facet normal 0.881957 0.471329 0
    outer loop
      vertex -9.99239 -9.93827 100
      vertex -9.98315 -9.95556 113
      vertex -9.98315 -9.95556 100
    endloop
  endfacet
  facet normal -0.634598 -0.772842 0
    outer loop
      vertex 9.95556 9.98315 100
      vertex 9.97071 9.97071 113
      vertex 9.95556 9.98315 113
    endloop
  endfacet
  facet normal -0.634598 -0.772842 -0
    outer loop
      vertex 9.97071 9.97071 113
      vertex 9.95556 9.98315 100
      vertex 9.97071 9.97071 100
    endloop
  endfacet
  facet normal -0.471329 -0.881957 0
    outer loop
      vertex 9.93827 9.99239 100
      vertex 9.95556 9.98315 113
      vertex 9.93827 9.99239 113
    endloop
  endfacet
  facet normal -0.471329 -0.881957 -0
    outer loop
      vertex 9.95556 9.98315 113
      vertex 9.93827 9.99239 100
      vertex 9.95556 9.98315 100
    endloop
  endfacet
  facet normal -0.290248 -0.956951 0
    outer loop
      vertex 9.91951 9.99808 100
      vertex 9.93827 9.99239 113
      vertex 9.91951 9.99808 113
    endloop
  endfacet
  facet normal -0.290248 -0.956951 -0
    outer loop
      vertex 9.93827 9.99239 113
      vertex 9.91951 9.99808 100
      vertex 9.93827 9.99239 100
    endloop
  endfacet
  facet normal 0.290248 -0.956951 0
    outer loop
      vertex -9.93827 9.99239 100
      vertex -9.91951 9.99808 113
      vertex -9.93827 9.99239 113
    endloop
  endfacet
  facet normal 0.290248 -0.956951 0
    outer loop
      vertex -9.91951 9.99808 113
      vertex -9.93827 9.99239 100
      vertex -9.91951 9.99808 100
    endloop
  endfacet
  facet normal -0.881957 0.471329 0
    outer loop
      vertex 9.98315 -9.95556 100
      vertex 9.99239 -9.93827 113
      vertex 9.99239 -9.93827 100
    endloop
  endfacet
  facet normal -0.881957 0.471329 0
    outer loop
      vertex 9.99239 -9.93827 113
      vertex 9.98315 -9.95556 100
      vertex 9.98315 -9.95556 113
    endloop
  endfacet
  facet normal -0.995193 0.097938 0
    outer loop
      vertex 9.99808 -9.91951 100
      vertex 10 -9.9 113
      vertex 10 -9.9 100
    endloop
  endfacet
  facet normal -0.995193 0.097938 0
    outer loop
      vertex 10 -9.9 113
      vertex 9.99808 -9.91951 100
      vertex 9.99808 -9.91951 113
    endloop
  endfacet
  facet normal -0.290248 0.956951 0
    outer loop
      vertex 9.93827 -9.99239 100
      vertex 9.91951 -9.99808 113
      vertex 9.93827 -9.99239 113
    endloop
  endfacet
  facet normal -0.290248 0.956951 0
    outer loop
      vertex 9.91951 -9.99808 113
      vertex 9.93827 -9.99239 100
      vertex 9.91951 -9.99808 100
    endloop
  endfacet
  facet normal -0.097938 0.995193 0
    outer loop
      vertex 9.91951 -9.99808 100
      vertex 9.9 -10 113
      vertex 9.91951 -9.99808 113
    endloop
  endfacet
  facet normal -0.097938 0.995193 0
    outer loop
      vertex 9.9 -10 113
      vertex 9.91951 -9.99808 100
      vertex 9.9 -10 100
    endloop
  endfacet
  facet normal -0.471329 0.881957 0
    outer loop
      vertex 9.95556 -9.98315 100
      vertex 9.93827 -9.99239 113
      vertex 9.95556 -9.98315 113
    endloop
  endfacet
  facet normal -0.471329 0.881957 0
    outer loop
      vertex 9.93827 -9.99239 113
      vertex 9.95556 -9.98315 100
      vertex 9.93827 -9.99239 100
    endloop
  endfacet
  facet normal 0.097938 0.995193 -0
    outer loop
      vertex -9.9 -10 100
      vertex -9.91951 -9.99808 113
      vertex -9.9 -10 113
    endloop
  endfacet
  facet normal 0.097938 0.995193 0
    outer loop
      vertex -9.91951 -9.99808 113
      vertex -9.9 -10 100
      vertex -9.91951 -9.99808 100
    endloop
  endfacet
  facet normal 0.471329 0.881957 -0
    outer loop
      vertex -9.93827 -9.99239 100
      vertex -9.95556 -9.98315 113
      vertex -9.93827 -9.99239 113
    endloop
  endfacet
  facet normal 0.471329 0.881957 0
    outer loop
      vertex -9.95556 -9.98315 113
      vertex -9.93827 -9.99239 100
      vertex -9.95556 -9.98315 100
    endloop
  endfacet
  facet normal 0.290248 0.956951 -0
    outer loop
      vertex -9.91951 -9.99808 100
      vertex -9.93827 -9.99239 113
      vertex -9.91951 -9.99808 113
    endloop
  endfacet
  facet normal 0.290248 0.956951 0
    outer loop
      vertex -9.93827 -9.99239 113
      vertex -9.91951 -9.99808 100
      vertex -9.93827 -9.99239 100
    endloop
  endfacet
  facet normal 0.772842 0.634598 0
    outer loop
      vertex -9.97071 -9.97071 113
      vertex -9.98315 -9.95556 100
      vertex -9.98315 -9.95556 113
    endloop
  endfacet
  facet normal 0.772842 0.634598 0
    outer loop
      vertex -9.98315 -9.95556 100
      vertex -9.97071 -9.97071 113
      vertex -9.97071 -9.97071 100
    endloop
  endfacet
  facet normal -0.956951 -0.290248 0
    outer loop
      vertex 9.99808 9.91951 100
      vertex 9.99239 9.93827 113
      vertex 9.99239 9.93827 100
    endloop
  endfacet
  facet normal -0.956951 -0.290248 0
    outer loop
      vertex 9.99239 9.93827 113
      vertex 9.99808 9.91951 100
      vertex 9.99808 9.91951 113
    endloop
  endfacet
  facet normal 0.471329 -0.881957 0
    outer loop
      vertex -9.95556 9.98315 100
      vertex -9.93827 9.99239 113
      vertex -9.95556 9.98315 113
    endloop
  endfacet
  facet normal 0.471329 -0.881957 0
    outer loop
      vertex -9.93827 9.99239 113
      vertex -9.95556 9.98315 100
      vertex -9.93827 9.99239 100
    endloop
  endfacet
  facet normal 0.097938 -0.995193 0
    outer loop
      vertex -9.91951 9.99808 100
      vertex -9.9 10 113
      vertex -9.91951 9.99808 113
    endloop
  endfacet
  facet normal 0.097938 -0.995193 0
    outer loop
      vertex -9.9 10 113
      vertex -9.91951 9.99808 100
      vertex -9.9 10 100
    endloop
  endfacet
  facet normal 0 -0.0981716 -0.99517
    outer loop
      vertex -14 0 109.15
      vertex -10 0.516989 109.099
      vertex -10 0 109.15
    endloop
  endfacet
  facet normal -0 -0.0981716 -0.99517
    outer loop
      vertex -10 0.516989 109.099
      vertex -14 0 109.15
      vertex -14 0.516989 109.099
    endloop
  endfacet
  facet normal 0 -0.290637 -0.956833
    outer loop
      vertex -14 0.516989 109.099
      vertex -10 1.01411 108.948
      vertex -10 0.516989 109.099
    endloop
  endfacet
  facet normal -0 -0.290637 -0.956833
    outer loop
      vertex -10 1.01411 108.948
      vertex -14 0.516989 109.099
      vertex -14 1.01411 108.948
    endloop
  endfacet
  facet normal 0 -0.0981716 0.99517
    outer loop
      vertex -14 0.516989 103.901
      vertex -10 0 103.85
      vertex -10 0.516989 103.901
    endloop
  endfacet
  facet normal 0 -0.0981716 0.99517
    outer loop
      vertex -10 0 103.85
      vertex -14 0.516989 103.901
      vertex -14 0 103.85
    endloop
  endfacet
  facet normal 0 0.995185 0.098017
    outer loop
      vertex -10 -2.59908 105.983
      vertex -14 -2.65 106.5
      vertex -10 -2.65 106.5
    endloop
  endfacet
  facet normal 0 0.995185 0.098017
    outer loop
      vertex -14 -2.65 106.5
      vertex -10 -2.59908 105.983
      vertex -14 -2.59908 105.983
    endloop
  endfacet
  facet normal -0 0.633748 0.773539
    outer loop
      vertex -14 -1.47226 104.297
      vertex -10 -1.87383 104.626
      vertex -10 -1.47226 104.297
    endloop
  endfacet
  facet normal 0 0.633748 0.773539
    outer loop
      vertex -10 -1.87383 104.626
      vertex -14 -1.47226 104.297
      vertex -14 -1.87383 104.626
    endloop
  endfacet
  facet normal 0 -0.773343 0.633988
    outer loop
      vertex -14 1.87383 104.626
      vertex -10 2.20339 105.028
      vertex -14 2.20339 105.028
    endloop
  endfacet
  facet normal 0 -0.773343 0.633988
    outer loop
      vertex -10 2.20339 105.028
      vertex -14 1.87383 104.626
      vertex -10 1.87383 104.626
    endloop
  endfacet
  facet normal 0 -0.956921 0.290349
    outer loop
      vertex -14 2.44828 105.486
      vertex -10 2.59908 105.983
      vertex -14 2.59908 105.983
    endloop
  endfacet
  facet normal 0 -0.956921 0.290349
    outer loop
      vertex -10 2.59908 105.983
      vertex -14 2.44828 105.486
      vertex -10 2.44828 105.486
    endloop
  endfacet
  facet normal 0 0.995185 -0.098017
    outer loop
      vertex -10 -2.65 106.5
      vertex -14 -2.59908 107.017
      vertex -10 -2.59908 107.017
    endloop
  endfacet
  facet normal 0 0.995185 -0.098017
    outer loop
      vertex -14 -2.59908 107.017
      vertex -10 -2.65 106.5
      vertex -14 -2.65 106.5
    endloop
  endfacet
  facet normal 0 0.633748 -0.773539
    outer loop
      vertex -14 -1.87383 108.374
      vertex -10 -1.47226 108.703
      vertex -10 -1.87383 108.374
    endloop
  endfacet
  facet normal 0 0.633748 -0.773539
    outer loop
      vertex -10 -1.47226 108.703
      vertex -14 -1.87383 108.374
      vertex -14 -1.47226 108.703
    endloop
  endfacet
  facet normal 0 -0.773343 -0.633988
    outer loop
      vertex -14 2.20339 107.972
      vertex -10 1.87383 108.374
      vertex -14 1.87383 108.374
    endloop
  endfacet
  facet normal 0 -0.773343 -0.633988
    outer loop
      vertex -10 1.87383 108.374
      vertex -14 2.20339 107.972
      vertex -10 2.20339 107.972
    endloop
  endfacet
  facet normal 0 -0.471567 0.88183
    outer loop
      vertex -14 1.47226 104.297
      vertex -10 1.01411 104.052
      vertex -10 1.47226 104.297
    endloop
  endfacet
  facet normal 0 -0.471567 0.88183
    outer loop
      vertex -10 1.01411 104.052
      vertex -14 1.47226 104.297
      vertex -14 1.01411 104.052
    endloop
  endfacet
  facet normal 0 -0.633748 0.773539
    outer loop
      vertex -14 1.87383 104.626
      vertex -10 1.47226 104.297
      vertex -10 1.87383 104.626
    endloop
  endfacet
  facet normal 0 -0.633748 0.773539
    outer loop
      vertex -10 1.47226 104.297
      vertex -14 1.87383 104.626
      vertex -14 1.47226 104.297
    endloop
  endfacet
  facet normal 0 -0.995185 0.098017
    outer loop
      vertex -14 2.59908 105.983
      vertex -10 2.65 106.5
      vertex -14 2.65 106.5
    endloop
  endfacet
  facet normal 0 -0.995185 0.098017
    outer loop
      vertex -10 2.65 106.5
      vertex -14 2.59908 105.983
      vertex -10 2.59908 105.983
    endloop
  endfacet
  facet normal 0 0.0981716 -0.99517
    outer loop
      vertex -14 -0.516989 109.099
      vertex -10 0 109.15
      vertex -10 -0.516989 109.099
    endloop
  endfacet
  facet normal 0 0.0981716 -0.99517
    outer loop
      vertex -10 0 109.15
      vertex -14 -0.516989 109.099
      vertex -14 0 109.15
    endloop
  endfacet
  facet normal 0 0.881854 0.471522
    outer loop
      vertex -10 -2.20339 105.028
      vertex -14 -2.44828 105.486
      vertex -10 -2.44828 105.486
    endloop
  endfacet
  facet normal 0 0.881854 0.471522
    outer loop
      vertex -14 -2.44828 105.486
      vertex -10 -2.20339 105.028
      vertex -14 -2.20339 105.028
    endloop
  endfacet
  facet normal 0 0.773343 0.633988
    outer loop
      vertex -10 -1.87383 104.626
      vertex -14 -2.20339 105.028
      vertex -10 -2.20339 105.028
    endloop
  endfacet
  facet normal 0 0.773343 0.633988
    outer loop
      vertex -14 -2.20339 105.028
      vertex -10 -1.87383 104.626
      vertex -14 -1.87383 104.626
    endloop
  endfacet
  facet normal 0 -0.471567 -0.88183
    outer loop
      vertex -14 1.01411 108.948
      vertex -10 1.47226 108.703
      vertex -10 1.01411 108.948
    endloop
  endfacet
  facet normal -0 -0.471567 -0.88183
    outer loop
      vertex -10 1.47226 108.703
      vertex -14 1.01411 108.948
      vertex -14 1.47226 108.703
    endloop
  endfacet
  facet normal 0 -0.633748 -0.773539
    outer loop
      vertex -14 1.47226 108.703
      vertex -10 1.87383 108.374
      vertex -10 1.47226 108.703
    endloop
  endfacet
  facet normal -0 -0.633748 -0.773539
    outer loop
      vertex -10 1.87383 108.374
      vertex -14 1.47226 108.703
      vertex -14 1.87383 108.374
    endloop
  endfacet
  facet normal 0 -0.956921 -0.290349
    outer loop
      vertex -14 2.59908 107.017
      vertex -10 2.44828 107.514
      vertex -14 2.44828 107.514
    endloop
  endfacet
  facet normal 0 -0.956921 -0.290349
    outer loop
      vertex -10 2.44828 107.514
      vertex -14 2.59908 107.017
      vertex -10 2.59908 107.017
    endloop
  endfacet
  facet normal 0 -0.995185 -0.098017
    outer loop
      vertex -14 2.65 106.5
      vertex -10 2.59908 107.017
      vertex -14 2.59908 107.017
    endloop
  endfacet
  facet normal 0 -0.995185 -0.098017
    outer loop
      vertex -10 2.59908 107.017
      vertex -14 2.65 106.5
      vertex -10 2.65 106.5
    endloop
  endfacet
  facet normal 0 -0.881854 -0.471522
    outer loop
      vertex -14 2.44828 107.514
      vertex -10 2.20339 107.972
      vertex -14 2.20339 107.972
    endloop
  endfacet
  facet normal 0 -0.881854 -0.471522
    outer loop
      vertex -10 2.20339 107.972
      vertex -14 2.44828 107.514
      vertex -10 2.44828 107.514
    endloop
  endfacet
  facet normal 0 -0.290637 0.956833
    outer loop
      vertex -14 1.01411 104.052
      vertex -10 0.516989 103.901
      vertex -10 1.01411 104.052
    endloop
  endfacet
  facet normal 0 -0.290637 0.956833
    outer loop
      vertex -10 0.516989 103.901
      vertex -14 1.01411 104.052
      vertex -14 0.516989 103.901
    endloop
  endfacet
  facet normal 0 -0.881854 0.471522
    outer loop
      vertex -14 2.20339 105.028
      vertex -10 2.44828 105.486
      vertex -14 2.44828 105.486
    endloop
  endfacet
  facet normal 0 -0.881854 0.471522
    outer loop
      vertex -10 2.44828 105.486
      vertex -14 2.20339 105.028
      vertex -10 2.20339 105.028
    endloop
  endfacet
  facet normal 0 0.956921 -0.290349
    outer loop
      vertex -10 -2.59908 107.017
      vertex -14 -2.44828 107.514
      vertex -10 -2.44828 107.514
    endloop
  endfacet
  facet normal 0 0.956921 -0.290349
    outer loop
      vertex -14 -2.44828 107.514
      vertex -10 -2.59908 107.017
      vertex -14 -2.59908 107.017
    endloop
  endfacet
  facet normal 0 0.881854 -0.471522
    outer loop
      vertex -10 -2.44828 107.514
      vertex -14 -2.20339 107.972
      vertex -10 -2.20339 107.972
    endloop
  endfacet
  facet normal 0 0.881854 -0.471522
    outer loop
      vertex -14 -2.20339 107.972
      vertex -10 -2.44828 107.514
      vertex -14 -2.44828 107.514
    endloop
  endfacet
  facet normal 0 0.773343 -0.633988
    outer loop
      vertex -10 -2.20339 107.972
      vertex -14 -1.87383 108.374
      vertex -10 -1.87383 108.374
    endloop
  endfacet
  facet normal 0 0.773343 -0.633988
    outer loop
      vertex -14 -1.87383 108.374
      vertex -10 -2.20339 107.972
      vertex -14 -2.20339 107.972
    endloop
  endfacet
  facet normal 0 0.471567 -0.88183
    outer loop
      vertex -14 -1.47226 108.703
      vertex -10 -1.01411 108.948
      vertex -10 -1.47226 108.703
    endloop
  endfacet
  facet normal 0 0.471567 -0.88183
    outer loop
      vertex -10 -1.01411 108.948
      vertex -14 -1.47226 108.703
      vertex -14 -1.01411 108.948
    endloop
  endfacet
  facet normal 0 0.290637 -0.956833
    outer loop
      vertex -14 -1.01411 108.948
      vertex -10 -0.516989 109.099
      vertex -10 -1.01411 108.948
    endloop
  endfacet
  facet normal 0 0.290637 -0.956833
    outer loop
      vertex -10 -0.516989 109.099
      vertex -14 -1.01411 108.948
      vertex -14 -0.516989 109.099
    endloop
  endfacet
  facet normal 0 0.956921 0.290349
    outer loop
      vertex -10 -2.44828 105.486
      vertex -14 -2.59908 105.983
      vertex -10 -2.59908 105.983
    endloop
  endfacet
  facet normal 0 0.956921 0.290349
    outer loop
      vertex -14 -2.59908 105.983
      vertex -10 -2.44828 105.486
      vertex -14 -2.44828 105.486
    endloop
  endfacet
  facet normal -0 0.471567 0.88183
    outer loop
      vertex -14 -1.01411 104.052
      vertex -10 -1.47226 104.297
      vertex -10 -1.01411 104.052
    endloop
  endfacet
  facet normal 0 0.471567 0.88183
    outer loop
      vertex -10 -1.47226 104.297
      vertex -14 -1.01411 104.052
      vertex -14 -1.47226 104.297
    endloop
  endfacet
  facet normal -0 0.0981716 0.99517
    outer loop
      vertex -14 0 103.85
      vertex -10 -0.516989 103.901
      vertex -10 0 103.85
    endloop
  endfacet
  facet normal 0 0.0981716 0.99517
    outer loop
      vertex -10 -0.516989 103.901
      vertex -14 0 103.85
      vertex -14 -0.516989 103.901
    endloop
  endfacet
  facet normal -0 0.290637 0.956833
    outer loop
      vertex -14 -0.516989 103.901
      vertex -10 -1.01411 104.052
      vertex -10 -0.516989 103.901
    endloop
  endfacet
  facet normal 0 0.290637 0.956833
    outer loop
      vertex -10 -1.01411 104.052
      vertex -14 -0.516989 103.901
      vertex -14 -1.01411 104.052
    endloop
  endfacet
endsolid OpenSCAD_Model
