solid OpenSCAD_Model
  facet normal -0.956956 -0.290234 0
    outer loop
      vertex -12.3478 -10.0154 200
      vertex -12.4616 -9.64018 213
      vertex -12.4616 -9.64018 200
    endloop
  endfacet
  facet normal -0.956956 -0.290234 0
    outer loop
      vertex -12.4616 -9.64018 213
      vertex -12.3478 -10.0154 200
      vertex -12.3478 -10.0154 213
    endloop
  endfacet
  facet normal -0.881795 -0.471634 0
    outer loop
      vertex -12.1629 -10.3611 200
      vertex -12.3478 -10.0154 213
      vertex -12.3478 -10.0154 200
    endloop
  endfacet
  facet normal -0.881795 -0.471634 0
    outer loop
      vertex -12.3478 -10.0154 213
      vertex -12.1629 -10.3611 200
      vertex -12.1629 -10.3611 213
    endloop
  endfacet
  facet normal -0.995192 -0.0979429 0
    outer loop
      vertex -12.4616 -9.64018 200
      vertex -12.5 -9.25 213
      vertex -12.5 -9.25 200
    endloop
  endfacet
  facet normal -0.995192 -0.0979429 0
    outer loop
      vertex -12.5 -9.25 213
      vertex -12.4616 -9.64018 200
      vertex -12.4616 -9.64018 213
    endloop
  endfacet
  facet normal 0 -1 0
    outer loop
      vertex -10.5 -11.25 213
      vertex 0 -11.25 209.15
      vertex 10.5 -11.25 213
    endloop
  endfacet
  facet normal 0 -1 0
    outer loop
      vertex -10.5 -11.25 213
      vertex -0.516989 -11.25 209.099
      vertex 0 -11.25 209.15
    endloop
  endfacet
  facet normal 0 -1 0
    outer loop
      vertex -10.5 -11.25 213
      vertex -1.01411 -11.25 208.948
      vertex -0.516989 -11.25 209.099
    endloop
  endfacet
  facet normal 0 -1 0
    outer loop
      vertex -10.5 -11.25 213
      vertex -1.47226 -11.25 208.703
      vertex -1.01411 -11.25 208.948
    endloop
  endfacet
  facet normal 0 -1 0
    outer loop
      vertex -10.5 -11.25 213
      vertex -1.87383 -11.25 208.374
      vertex -1.47226 -11.25 208.703
    endloop
  endfacet
  facet normal 0 -1 0
    outer loop
      vertex -10.5 -11.25 213
      vertex -2.20339 -11.25 207.972
      vertex -1.87383 -11.25 208.374
    endloop
  endfacet
  facet normal 0 -1 0
    outer loop
      vertex -10.5 -11.25 213
      vertex -2.44828 -11.25 207.514
      vertex -2.20339 -11.25 207.972
    endloop
  endfacet
  facet normal 0 -1 0
    outer loop
      vertex -10.5 -11.25 213
      vertex -2.59908 -11.25 207.017
      vertex -2.44828 -11.25 207.514
    endloop
  endfacet
  facet normal 0 -1 0
    outer loop
      vertex -10.5 -11.25 213
      vertex -2.65 -11.25 206.5
      vertex -2.59908 -11.25 207.017
    endloop
  endfacet
  facet normal 0 -1 0
    outer loop
      vertex -10.5 -11.25 200
      vertex -2.65 -11.25 206.5
      vertex -10.5 -11.25 213
    endloop
  endfacet
  facet normal 0 -1 -0
    outer loop
      vertex -2.65 -11.25 206.5
      vertex -10.5 -11.25 200
      vertex -2.59908 -11.25 205.983
    endloop
  endfacet
  facet normal 0 -1 -0
    outer loop
      vertex -2.59908 -11.25 205.983
      vertex -10.5 -11.25 200
      vertex -2.44828 -11.25 205.486
    endloop
  endfacet
  facet normal 0 -1 -0
    outer loop
      vertex -2.44828 -11.25 205.486
      vertex -10.5 -11.25 200
      vertex -2.20339 -11.25 205.028
    endloop
  endfacet
  facet normal 0 -1 -0
    outer loop
      vertex -0.516989 -11.25 203.901
      vertex -10.5 -11.25 200
      vertex 0 -11.25 203.85
    endloop
  endfacet
  facet normal 0 -1 -0
    outer loop
      vertex -1.01411 -11.25 204.052
      vertex -10.5 -11.25 200
      vertex -0.516989 -11.25 203.901
    endloop
  endfacet
  facet normal 0 -1 -0
    outer loop
      vertex -1.47226 -11.25 204.297
      vertex -10.5 -11.25 200
      vertex -1.01411 -11.25 204.052
    endloop
  endfacet
  facet normal 0 -1 -0
    outer loop
      vertex -1.87383 -11.25 204.626
      vertex -10.5 -11.25 200
      vertex -1.47226 -11.25 204.297
    endloop
  endfacet
  facet normal 0 -1 -0
    outer loop
      vertex -2.20339 -11.25 205.028
      vertex -10.5 -11.25 200
      vertex -1.87383 -11.25 204.626
    endloop
  endfacet
  facet normal 0 -1 0
    outer loop
      vertex 0.516989 -11.25 209.099
      vertex 10.5 -11.25 213
      vertex 0 -11.25 209.15
    endloop
  endfacet
  facet normal 0 -1 0
    outer loop
      vertex 1.01411 -11.25 208.948
      vertex 10.5 -11.25 213
      vertex 0.516989 -11.25 209.099
    endloop
  endfacet
  facet normal 0 -1 0
    outer loop
      vertex 1.47226 -11.25 208.703
      vertex 10.5 -11.25 213
      vertex 1.01411 -11.25 208.948
    endloop
  endfacet
  facet normal 0 -1 0
    outer loop
      vertex 1.87383 -11.25 208.374
      vertex 10.5 -11.25 213
      vertex 1.47226 -11.25 208.703
    endloop
  endfacet
  facet normal 0 -1 0
    outer loop
      vertex 2.20339 -11.25 207.972
      vertex 10.5 -11.25 213
      vertex 1.87383 -11.25 208.374
    endloop
  endfacet
  facet normal 0 -1 0
    outer loop
      vertex 2.44828 -11.25 207.514
      vertex 10.5 -11.25 213
      vertex 2.20339 -11.25 207.972
    endloop
  endfacet
  facet normal 0 -1 0
    outer loop
      vertex 2.59908 -11.25 207.017
      vertex 10.5 -11.25 213
      vertex 2.44828 -11.25 207.514
    endloop
  endfacet
  facet normal 0 -1 0
    outer loop
      vertex 2.65 -11.25 206.5
      vertex 10.5 -11.25 213
      vertex 2.59908 -11.25 207.017
    endloop
  endfacet
  facet normal 0 -1 0
    outer loop
      vertex 10.5 -11.25 200
      vertex 2.65 -11.25 206.5
      vertex 2.59908 -11.25 205.983
    endloop
  endfacet
  facet normal 0 -1 0
    outer loop
      vertex 10.5 -11.25 200
      vertex 2.59908 -11.25 205.983
      vertex 2.44828 -11.25 205.486
    endloop
  endfacet
  facet normal 0 -1 0
    outer loop
      vertex 10.5 -11.25 200
      vertex 2.44828 -11.25 205.486
      vertex 2.20339 -11.25 205.028
    endloop
  endfacet
  facet normal 0 -1 0
    outer loop
      vertex 10.5 -11.25 200
      vertex 2.20339 -11.25 205.028
      vertex 1.87383 -11.25 204.626
    endloop
  endfacet
  facet normal 0 -1 0
    outer loop
      vertex 10.5 -11.25 200
      vertex 0 -11.25 203.85
      vertex -10.5 -11.25 200
    endloop
  endfacet
  facet normal 0 -1 0
    outer loop
      vertex 0 -11.25 203.85
      vertex 10.5 -11.25 200
      vertex 0.516989 -11.25 203.901
    endloop
  endfacet
  facet normal 0 -1 0
    outer loop
      vertex 2.65 -11.25 206.5
      vertex 10.5 -11.25 200
      vertex 10.5 -11.25 213
    endloop
  endfacet
  facet normal 0 -1 0
    outer loop
      vertex 1.47226 -11.25 204.297
      vertex 10.5 -11.25 200
      vertex 1.87383 -11.25 204.626
    endloop
  endfacet
  facet normal 0 -1 0
    outer loop
      vertex 1.01411 -11.25 204.052
      vertex 10.5 -11.25 200
      vertex 1.47226 -11.25 204.297
    endloop
  endfacet
  facet normal 0 -1 0
    outer loop
      vertex 0.516989 -11.25 203.901
      vertex 10.5 -11.25 200
      vertex 1.01411 -11.25 204.052
    endloop
  endfacet
  facet normal 0 0 1
    outer loop
      vertex -12.5 9.25 213
      vertex -10 11.25 213
      vertex -10.5 11.25 213
    endloop
  endfacet
  facet normal 0 0 1
    outer loop
      vertex 10.5 11.25 213
      vertex 12.5 9.25 213
      vertex 12.4616 9.64018 213
    endloop
  endfacet
  facet normal 0 0 1
    outer loop
      vertex 12.5 9.25 213
      vertex 10 -8.65 213
      vertex 12.5 -9.25 213
    endloop
  endfacet
  facet normal 0 0 1
    outer loop
      vertex 10.5 11.25 213
      vertex 12.4616 9.64018 213
      vertex 12.3478 10.0154 213
    endloop
  endfacet
  facet normal -0 0 1
    outer loop
      vertex 9.99808 -8.66951 213
      vertex 12.5 -9.25 213
      vertex 10 -8.65 213
    endloop
  endfacet
  facet normal 0 0 1
    outer loop
      vertex 10.5 11.25 213
      vertex 12.3478 10.0154 213
      vertex 12.1629 10.3611 213
    endloop
  endfacet
  facet normal -0 0 1
    outer loop
      vertex 9.99239 -8.68827 213
      vertex 12.5 -9.25 213
      vertex 9.99808 -8.66951 213
    endloop
  endfacet
  facet normal 0 0 1
    outer loop
      vertex 10.5 11.25 213
      vertex 12.1629 10.3611 213
      vertex 11.9142 10.6642 213
    endloop
  endfacet
  facet normal 0 0 1
    outer loop
      vertex 12.5 -9.25 213
      vertex 9.99239 -8.68827 213
      vertex 12.4616 -9.64018 213
    endloop
  endfacet
  facet normal 0 0 1
    outer loop
      vertex 10.5 11.25 213
      vertex 11.9142 10.6642 213
      vertex 11.6111 10.9129 213
    endloop
  endfacet
  facet normal -0 0 1
    outer loop
      vertex 9.98315 -8.70556 213
      vertex 12.4616 -9.64018 213
      vertex 9.99239 -8.68827 213
    endloop
  endfacet
  facet normal 0 0 1
    outer loop
      vertex 10.5 11.25 213
      vertex 11.6111 10.9129 213
      vertex 11.2654 11.0978 213
    endloop
  endfacet
  facet normal 0 0 1
    outer loop
      vertex 12.4616 -9.64018 213
      vertex 9.98315 -8.70556 213
      vertex 12.3478 -10.0154 213
    endloop
  endfacet
  facet normal 0 0 1
    outer loop
      vertex 10.5 11.25 213
      vertex 11.2654 11.0978 213
      vertex 10.8902 11.2116 213
    endloop
  endfacet
  facet normal 0 0 1
    outer loop
      vertex 12.3478 -10.0154 213
      vertex 9.98315 -8.70556 213
      vertex 12.1629 -10.3611 213
    endloop
  endfacet
  facet normal 0 0 1
    outer loop
      vertex 12.5 9.25 213
      vertex 10.5 11.25 213
      vertex 10 11.25 213
    endloop
  endfacet
  facet normal -0 0 1
    outer loop
      vertex 9.97071 -8.72071 213
      vertex 12.1629 -10.3611 213
      vertex 9.98315 -8.70556 213
    endloop
  endfacet
  facet normal 0 0 1
    outer loop
      vertex 12.5 9.25 213
      vertex 10 11.25 213
      vertex 10 -8.65 213
    endloop
  endfacet
  facet normal 0 0 1
    outer loop
      vertex 12.1629 -10.3611 213
      vertex 9.97071 -8.72071 213
      vertex 11.9142 -10.6642 213
    endloop
  endfacet
  facet normal 0 0 1
    outer loop
      vertex 11.9142 -10.6642 213
      vertex 9.97071 -8.72071 213
      vertex 11.6111 -10.9129 213
    endloop
  endfacet
  facet normal -0 0 1
    outer loop
      vertex 9.95556 -8.73315 213
      vertex 11.6111 -10.9129 213
      vertex 9.97071 -8.72071 213
    endloop
  endfacet
  facet normal 0 0 1
    outer loop
      vertex 11.6111 -10.9129 213
      vertex 9.95556 -8.73315 213
      vertex 11.2654 -11.0978 213
    endloop
  endfacet
  facet normal 0 0 1
    outer loop
      vertex 11.2654 -11.0978 213
      vertex 9.95556 -8.73315 213
      vertex 10.8902 -11.2116 213
    endloop
  endfacet
  facet normal 0 0 1
    outer loop
      vertex 10.8902 -11.2116 213
      vertex 9.95556 -8.73315 213
      vertex 10.5 -11.25 213
    endloop
  endfacet
  facet normal -0 0 1
    outer loop
      vertex 9.93827 -8.74239 213
      vertex 10.5 -11.25 213
      vertex 9.95556 -8.73315 213
    endloop
  endfacet
  facet normal -0 0 1
    outer loop
      vertex 9.91951 -8.74808 213
      vertex 10.5 -11.25 213
      vertex 9.93827 -8.74239 213
    endloop
  endfacet
  facet normal -0 0 1
    outer loop
      vertex 9.9 -8.75 213
      vertex 10.5 -11.25 213
      vertex 9.91951 -8.74808 213
    endloop
  endfacet
  facet normal -0 0 1
    outer loop
      vertex -9.9 -8.75 213
      vertex 10.5 -11.25 213
      vertex 9.9 -8.75 213
    endloop
  endfacet
  facet normal 0 0 1
    outer loop
      vertex -10.5 -11.25 213
      vertex -9.9 -8.75 213
      vertex -9.91951 -8.74808 213
    endloop
  endfacet
  facet normal 0 0 1
    outer loop
      vertex -9.9 -8.75 213
      vertex -10.5 -11.25 213
      vertex 10.5 -11.25 213
    endloop
  endfacet
  facet normal 0 0 1
    outer loop
      vertex -9.93827 -8.74239 213
      vertex -10.5 -11.25 213
      vertex -9.91951 -8.74808 213
    endloop
  endfacet
  facet normal 0 0 1
    outer loop
      vertex -9.95556 -8.73315 213
      vertex -10.5 -11.25 213
      vertex -9.93827 -8.74239 213
    endloop
  endfacet
  facet normal 0 0 1
    outer loop
      vertex -11.6111 -10.9129 213
      vertex -9.95556 -8.73315 213
      vertex -9.97071 -8.72071 213
    endloop
  endfacet
  facet normal 0 0 1
    outer loop
      vertex -12.1629 -10.3611 213
      vertex -9.97071 -8.72071 213
      vertex -9.98315 -8.70556 213
    endloop
  endfacet
  facet normal 0 0 1
    outer loop
      vertex -12.4616 -9.64018 213
      vertex -9.98315 -8.70556 213
      vertex -9.99239 -8.68827 213
    endloop
  endfacet
  facet normal 0 0 1
    outer loop
      vertex -12.5 -9.25 213
      vertex -9.99239 -8.68827 213
      vertex -9.99808 -8.66951 213
    endloop
  endfacet
  facet normal 0 0 1
    outer loop
      vertex -12.5 -9.25 213
      vertex -9.99808 -8.66951 213
      vertex -10 -8.65 213
    endloop
  endfacet
  facet normal 0 0 1
    outer loop
      vertex -10 11.25 213
      vertex -12.5 9.25 213
      vertex -10 -8.65 213
    endloop
  endfacet
  facet normal 0 0 1
    outer loop
      vertex -12.5 9.25 213
      vertex -10.5 11.25 213
      vertex -10.8902 11.2116 213
    endloop
  endfacet
  facet normal 0 0 1
    outer loop
      vertex -12.5 -9.25 213
      vertex -10 -8.65 213
      vertex -12.5 9.25 213
    endloop
  endfacet
  facet normal 0 0 1
    outer loop
      vertex -12.5 9.25 213
      vertex -10.8902 11.2116 213
      vertex -11.2654 11.0978 213
    endloop
  endfacet
  facet normal 0 0 1
    outer loop
      vertex -9.99239 -8.68827 213
      vertex -12.5 -9.25 213
      vertex -12.4616 -9.64018 213
    endloop
  endfacet
  facet normal 0 0 1
    outer loop
      vertex -12.5 9.25 213
      vertex -11.2654 11.0978 213
      vertex -11.6111 10.9129 213
    endloop
  endfacet
  facet normal 0 0 1
    outer loop
      vertex -9.95556 -8.73315 213
      vertex -10.8902 -11.2116 213
      vertex -10.5 -11.25 213
    endloop
  endfacet
  facet normal 0 0 1
    outer loop
      vertex -12.5 9.25 213
      vertex -11.6111 10.9129 213
      vertex -11.9142 10.6642 213
    endloop
  endfacet
  facet normal 0 0 1
    outer loop
      vertex -9.95556 -8.73315 213
      vertex -11.2654 -11.0978 213
      vertex -10.8902 -11.2116 213
    endloop
  endfacet
  facet normal 0 0 1
    outer loop
      vertex -12.5 9.25 213
      vertex -11.9142 10.6642 213
      vertex -12.1629 10.3611 213
    endloop
  endfacet
  facet normal 0 0 1
    outer loop
      vertex -9.95556 -8.73315 213
      vertex -11.6111 -10.9129 213
      vertex -11.2654 -11.0978 213
    endloop
  endfacet
  facet normal 0 0 1
    outer loop
      vertex -12.5 9.25 213
      vertex -12.1629 10.3611 213
      vertex -12.3478 10.0154 213
    endloop
  endfacet
  facet normal 0 0 1
    outer loop
      vertex -9.97071 -8.72071 213
      vertex -11.9142 -10.6642 213
      vertex -11.6111 -10.9129 213
    endloop
  endfacet
  facet normal 0 0 1
    outer loop
      vertex -12.5 9.25 213
      vertex -12.3478 10.0154 213
      vertex -12.4616 9.64018 213
    endloop
  endfacet
  facet normal 0 0 1
    outer loop
      vertex -9.97071 -8.72071 213
      vertex -12.1629 -10.3611 213
      vertex -11.9142 -10.6642 213
    endloop
  endfacet
  facet normal 0 0 1
    outer loop
      vertex -9.98315 -8.70556 213
      vertex -12.3478 -10.0154 213
      vertex -12.1629 -10.3611 213
    endloop
  endfacet
  facet normal 0 0 1
    outer loop
      vertex -9.98315 -8.70556 213
      vertex -12.4616 -9.64018 213
      vertex -12.3478 -10.0154 213
    endloop
  endfacet
  facet normal -0.471634 -0.881795 0
    outer loop
      vertex -11.6111 -10.9129 200
      vertex -11.2654 -11.0978 213
      vertex -11.6111 -10.9129 213
    endloop
  endfacet
  facet normal -0.471634 -0.881795 -0
    outer loop
      vertex -11.2654 -11.0978 213
      vertex -11.6111 -10.9129 200
      vertex -11.2654 -11.0978 200
    endloop
  endfacet
  facet normal 1 -0 0
    outer loop
      vertex 12.5 -9.25 213
      vertex 12.5 9.25 200
      vertex 12.5 9.25 213
    endloop
  endfacet
  facet normal 1 0 0
    outer loop
      vertex 12.5 9.25 200
      vertex 12.5 -9.25 213
      vertex 12.5 -9.25 200
    endloop
  endfacet
  facet normal -1 0 0
    outer loop
      vertex -12.5 -9.25 200
      vertex -12.5 9.25 213
      vertex -12.5 9.25 200
    endloop
  endfacet
  facet normal -1 -0 0
    outer loop
      vertex -12.5 9.25 213
      vertex -12.5 -9.25 200
      vertex -12.5 -9.25 213
    endloop
  endfacet
  facet normal 0 0 -1
    outer loop
      vertex 9.99239 -8.68827 200
      vertex 12.5 -9.25 200
      vertex 12.4616 -9.64018 200
    endloop
  endfacet
  facet normal 0 0 -1
    outer loop
      vertex 12.5 -9.25 200
      vertex 10 -8.65 200
      vertex 12.5 9.25 200
    endloop
  endfacet
  facet normal 0 0 -1
    outer loop
      vertex 9.98315 -8.70556 200
      vertex 12.4616 -9.64018 200
      vertex 12.3478 -10.0154 200
    endloop
  endfacet
  facet normal 0 0 -1
    outer loop
      vertex 10 11.25 200
      vertex 12.5 9.25 200
      vertex 10 -8.65 200
    endloop
  endfacet
  facet normal 0 0 -1
    outer loop
      vertex 9.98315 -8.70556 200
      vertex 12.3478 -10.0154 200
      vertex 12.1629 -10.3611 200
    endloop
  endfacet
  facet normal -0 -0 -1
    outer loop
      vertex 10.5 11.25 200
      vertex 12.5 9.25 200
      vertex 10 11.25 200
    endloop
  endfacet
  facet normal 0 0 -1
    outer loop
      vertex 9.97071 -8.72071 200
      vertex 12.1629 -10.3611 200
      vertex 11.9142 -10.6642 200
    endloop
  endfacet
  facet normal 0 0 -1
    outer loop
      vertex 12.5 9.25 200
      vertex 10.5 11.25 200
      vertex 12.4616 9.64018 200
    endloop
  endfacet
  facet normal 0 0 -1
    outer loop
      vertex 9.97071 -8.72071 200
      vertex 11.9142 -10.6642 200
      vertex 11.6111 -10.9129 200
    endloop
  endfacet
  facet normal 0 0 -1
    outer loop
      vertex 12.4616 9.64018 200
      vertex 10.5 11.25 200
      vertex 12.3478 10.0154 200
    endloop
  endfacet
  facet normal 0 0 -1
    outer loop
      vertex 9.95556 -8.73315 200
      vertex 11.6111 -10.9129 200
      vertex 11.2654 -11.0978 200
    endloop
  endfacet
  facet normal 0 0 -1
    outer loop
      vertex 12.3478 10.0154 200
      vertex 10.5 11.25 200
      vertex 12.1629 10.3611 200
    endloop
  endfacet
  facet normal 0 0 -1
    outer loop
      vertex 9.95556 -8.73315 200
      vertex 11.2654 -11.0978 200
      vertex 10.8902 -11.2116 200
    endloop
  endfacet
  facet normal 0 0 -1
    outer loop
      vertex 12.1629 10.3611 200
      vertex 10.5 11.25 200
      vertex 11.9142 10.6642 200
    endloop
  endfacet
  facet normal 0 0 -1
    outer loop
      vertex 9.95556 -8.73315 200
      vertex 10.8902 -11.2116 200
      vertex 10.5 -11.25 200
    endloop
  endfacet
  facet normal 0 0 -1
    outer loop
      vertex 11.9142 10.6642 200
      vertex 10.5 11.25 200
      vertex 11.6111 10.9129 200
    endloop
  endfacet
  facet normal 0 0 -1
    outer loop
      vertex 11.6111 10.9129 200
      vertex 10.5 11.25 200
      vertex 11.2654 11.0978 200
    endloop
  endfacet
  facet normal 0 0 -1
    outer loop
      vertex 12.5 -9.25 200
      vertex 9.99808 -8.66951 200
      vertex 10 -8.65 200
    endloop
  endfacet
  facet normal 0 0 -1
    outer loop
      vertex 12.5 -9.25 200
      vertex 9.99239 -8.68827 200
      vertex 9.99808 -8.66951 200
    endloop
  endfacet
  facet normal 0 0 -1
    outer loop
      vertex 12.4616 -9.64018 200
      vertex 9.98315 -8.70556 200
      vertex 9.99239 -8.68827 200
    endloop
  endfacet
  facet normal 0 0 -1
    outer loop
      vertex 12.1629 -10.3611 200
      vertex 9.97071 -8.72071 200
      vertex 9.98315 -8.70556 200
    endloop
  endfacet
  facet normal 0 0 -1
    outer loop
      vertex 11.6111 -10.9129 200
      vertex 9.95556 -8.73315 200
      vertex 9.97071 -8.72071 200
    endloop
  endfacet
  facet normal 0 0 -1
    outer loop
      vertex 10.5 -11.25 200
      vertex 9.93827 -8.74239 200
      vertex 9.95556 -8.73315 200
    endloop
  endfacet
  facet normal 0 0 -1
    outer loop
      vertex 10.5 -11.25 200
      vertex 9.91951 -8.74808 200
      vertex 9.93827 -8.74239 200
    endloop
  endfacet
  facet normal 0 0 -1
    outer loop
      vertex 10.5 -11.25 200
      vertex 9.9 -8.75 200
      vertex 9.91951 -8.74808 200
    endloop
  endfacet
  facet normal 0 0 -1
    outer loop
      vertex 10.5 -11.25 200
      vertex -9.9 -8.75 200
      vertex 9.9 -8.75 200
    endloop
  endfacet
  facet normal 0 0 -1
    outer loop
      vertex -10.5 -11.25 200
      vertex -9.9 -8.75 200
      vertex 10.5 -11.25 200
    endloop
  endfacet
  facet normal -0 0 -1
    outer loop
      vertex -9.9 -8.75 200
      vertex -10.5 -11.25 200
      vertex -9.91951 -8.74808 200
    endloop
  endfacet
  facet normal 0 0 -1
    outer loop
      vertex -10.5 -11.25 200
      vertex -9.93827 -8.74239 200
      vertex -9.91951 -8.74808 200
    endloop
  endfacet
  facet normal 0 0 -1
    outer loop
      vertex -10.5 -11.25 200
      vertex -9.95556 -8.73315 200
      vertex -9.93827 -8.74239 200
    endloop
  endfacet
  facet normal 0 0 -1
    outer loop
      vertex -10.8902 -11.2116 200
      vertex -9.95556 -8.73315 200
      vertex -10.5 -11.25 200
    endloop
  endfacet
  facet normal 0 0 -1
    outer loop
      vertex -11.2654 -11.0978 200
      vertex -9.95556 -8.73315 200
      vertex -10.8902 -11.2116 200
    endloop
  endfacet
  facet normal 0 0 -1
    outer loop
      vertex -11.6111 -10.9129 200
      vertex -9.95556 -8.73315 200
      vertex -11.2654 -11.0978 200
    endloop
  endfacet
  facet normal -0 0 -1
    outer loop
      vertex -9.95556 -8.73315 200
      vertex -11.6111 -10.9129 200
      vertex -9.97071 -8.72071 200
    endloop
  endfacet
  facet normal 0 0 -1
    outer loop
      vertex -11.9142 -10.6642 200
      vertex -9.97071 -8.72071 200
      vertex -11.6111 -10.9129 200
    endloop
  endfacet
  facet normal 0 0 -1
    outer loop
      vertex -12.1629 -10.3611 200
      vertex -9.97071 -8.72071 200
      vertex -11.9142 -10.6642 200
    endloop
  endfacet
  facet normal 0 0 -1
    outer loop
      vertex -12.5 9.25 200
      vertex -10 -8.65 200
      vertex -12.5 -9.25 200
    endloop
  endfacet
  facet normal -0 0 -1
    outer loop
      vertex -9.97071 -8.72071 200
      vertex -12.1629 -10.3611 200
      vertex -9.98315 -8.70556 200
    endloop
  endfacet
  facet normal 0 0 -1
    outer loop
      vertex -10 -8.65 200
      vertex -12.5 9.25 200
      vertex -10 11.25 200
    endloop
  endfacet
  facet normal 0 0 -1
    outer loop
      vertex -12.3478 -10.0154 200
      vertex -9.98315 -8.70556 200
      vertex -12.1629 -10.3611 200
    endloop
  endfacet
  facet normal -0 0 -1
    outer loop
      vertex -10 11.25 200
      vertex -12.5 9.25 200
      vertex -10.5 11.25 200
    endloop
  endfacet
  facet normal 0 0 -1
    outer loop
      vertex -12.4616 -9.64018 200
      vertex -9.98315 -8.70556 200
      vertex -12.3478 -10.0154 200
    endloop
  endfacet
  facet normal 0 0 -1
    outer loop
      vertex -10.5 11.25 200
      vertex -12.5 9.25 200
      vertex -10.8902 11.2116 200
    endloop
  endfacet
  facet normal -0 0 -1
    outer loop
      vertex -9.98315 -8.70556 200
      vertex -12.4616 -9.64018 200
      vertex -9.99239 -8.68827 200
    endloop
  endfacet
  facet normal 0 0 -1
    outer loop
      vertex -10.8902 11.2116 200
      vertex -12.5 9.25 200
      vertex -11.2654 11.0978 200
    endloop
  endfacet
  facet normal 0 0 -1
    outer loop
      vertex -12.5 -9.25 200
      vertex -9.99239 -8.68827 200
      vertex -12.4616 -9.64018 200
    endloop
  endfacet
  facet normal 0 0 -1
    outer loop
      vertex -11.2654 11.0978 200
      vertex -12.5 9.25 200
      vertex -11.6111 10.9129 200
    endloop
  endfacet
  facet normal -0 0 -1
    outer loop
      vertex -9.99239 -8.68827 200
      vertex -12.5 -9.25 200
      vertex -9.99808 -8.66951 200
    endloop
  endfacet
  facet normal 0 0 -1
    outer loop
      vertex -11.6111 10.9129 200
      vertex -12.5 9.25 200
      vertex -11.9142 10.6642 200
    endloop
  endfacet
  facet normal -0 0 -1
    outer loop
      vertex -9.99808 -8.66951 200
      vertex -12.5 -9.25 200
      vertex -10 -8.65 200
    endloop
  endfacet
  facet normal 0 0 -1
    outer loop
      vertex -11.9142 10.6642 200
      vertex -12.5 9.25 200
      vertex -12.1629 10.3611 200
    endloop
  endfacet
  facet normal 0 0 -1
    outer loop
      vertex -12.1629 10.3611 200
      vertex -12.5 9.25 200
      vertex -12.3478 10.0154 200
    endloop
  endfacet
  facet normal 0 0 -1
    outer loop
      vertex -12.3478 10.0154 200
      vertex -12.5 9.25 200
      vertex -12.4616 9.64018 200
    endloop
  endfacet
  facet normal 0 0 -1
    outer loop
      vertex 11.2654 11.0978 200
      vertex 10.5 11.25 200
      vertex 10.8902 11.2116 200
    endloop
  endfacet
  facet normal -0.995192 0.0979429 0
    outer loop
      vertex -12.5 9.25 200
      vertex -12.4616 9.64018 213
      vertex -12.4616 9.64018 200
    endloop
  endfacet
  facet normal -0.995192 0.0979429 0
    outer loop
      vertex -12.4616 9.64018 213
      vertex -12.5 9.25 200
      vertex -12.5 9.25 213
    endloop
  endfacet
  facet normal 0.097938 0.995193 -0
    outer loop
      vertex 10.8902 11.2116 200
      vertex 10.5 11.25 213
      vertex 10.8902 11.2116 213
    endloop
  endfacet
  facet normal 0.097938 0.995193 0
    outer loop
      vertex 10.5 11.25 213
      vertex 10.8902 11.2116 200
      vertex 10.5 11.25 200
    endloop
  endfacet
  facet normal 0 1 -0
    outer loop
      vertex 10.5 11.25 200
      vertex 10 11.25 213
      vertex 10.5 11.25 213
    endloop
  endfacet
  facet normal 0 1 0
    outer loop
      vertex 10 11.25 213
      vertex 10.5 11.25 200
      vertex 10 11.25 200
    endloop
  endfacet
  facet normal 0 1 -0
    outer loop
      vertex -10 11.25 200
      vertex -10.5 11.25 213
      vertex -10 11.25 213
    endloop
  endfacet
  facet normal 0 1 0
    outer loop
      vertex -10.5 11.25 213
      vertex -10 11.25 200
      vertex -10.5 11.25 200
    endloop
  endfacet
  facet normal 0.956956 0.290234 0
    outer loop
      vertex 12.4616 9.64018 213
      vertex 12.3478 10.0154 200
      vertex 12.3478 10.0154 213
    endloop
  endfacet
  facet normal 0.956956 0.290234 0
    outer loop
      vertex 12.3478 10.0154 200
      vertex 12.4616 9.64018 213
      vertex 12.4616 9.64018 200
    endloop
  endfacet
  facet normal 0.995192 0.0979429 0
    outer loop
      vertex 12.5 9.25 213
      vertex 12.4616 9.64018 200
      vertex 12.4616 9.64018 213
    endloop
  endfacet
  facet normal 0.995192 0.0979429 0
    outer loop
      vertex 12.4616 9.64018 200
      vertex 12.5 9.25 213
      vertex 12.5 9.25 200
    endloop
  endfacet
  facet normal 0.995192 -0.0979429 0
    outer loop
      vertex 12.4616 -9.64018 213
      vertex 12.5 -9.25 200
      vertex 12.5 -9.25 213
    endloop
  endfacet
  facet normal 0.995192 -0.0979429 0
    outer loop
      vertex 12.5 -9.25 200
      vertex 12.4616 -9.64018 213
      vertex 12.4616 -9.64018 200
    endloop
  endfacet
  facet normal -0.77307 0.634321 0
    outer loop
      vertex -12.1629 10.3611 200
      vertex -11.9142 10.6642 213
      vertex -11.9142 10.6642 200
    endloop
  endfacet
  facet normal -0.77307 0.634321 0
    outer loop
      vertex -11.9142 10.6642 213
      vertex -12.1629 10.3611 200
      vertex -12.1629 10.3611 213
    endloop
  endfacet
  facet normal -0.634321 0.77307 0
    outer loop
      vertex -11.6111 10.9129 200
      vertex -11.9142 10.6642 213
      vertex -11.6111 10.9129 213
    endloop
  endfacet
  facet normal -0.634321 0.77307 0
    outer loop
      vertex -11.9142 10.6642 213
      vertex -11.6111 10.9129 200
      vertex -11.9142 10.6642 200
    endloop
  endfacet
  facet normal 0.634321 0.77307 -0
    outer loop
      vertex 11.9142 10.6642 200
      vertex 11.6111 10.9129 213
      vertex 11.9142 10.6642 213
    endloop
  endfacet
  facet normal 0.634321 0.77307 0
    outer loop
      vertex 11.6111 10.9129 213
      vertex 11.9142 10.6642 200
      vertex 11.6111 10.9129 200
    endloop
  endfacet
  facet normal 0.881795 0.471634 0
    outer loop
      vertex 12.3478 10.0154 213
      vertex 12.1629 10.3611 200
      vertex 12.1629 10.3611 213
    endloop
  endfacet
  facet normal 0.881795 0.471634 0
    outer loop
      vertex 12.1629 10.3611 200
      vertex 12.3478 10.0154 213
      vertex 12.3478 10.0154 200
    endloop
  endfacet
  facet normal -0.097938 0.995193 0
    outer loop
      vertex -10.5 11.25 200
      vertex -10.8902 11.2116 213
      vertex -10.5 11.25 213
    endloop
  endfacet
  facet normal -0.097938 0.995193 0
    outer loop
      vertex -10.8902 11.2116 213
      vertex -10.5 11.25 200
      vertex -10.8902 11.2116 200
    endloop
  endfacet
  facet normal -0.471634 0.881795 0
    outer loop
      vertex -11.2654 11.0978 200
      vertex -11.6111 10.9129 213
      vertex -11.2654 11.0978 213
    endloop
  endfacet
  facet normal -0.471634 0.881795 0
    outer loop
      vertex -11.6111 10.9129 213
      vertex -11.2654 11.0978 200
      vertex -11.6111 10.9129 200
    endloop
  endfacet
  facet normal 0.77307 -0.634321 0
    outer loop
      vertex 11.9142 -10.6642 213
      vertex 12.1629 -10.3611 200
      vertex 12.1629 -10.3611 213
    endloop
  endfacet
  facet normal 0.77307 -0.634321 0
    outer loop
      vertex 12.1629 -10.3611 200
      vertex 11.9142 -10.6642 213
      vertex 11.9142 -10.6642 200
    endloop
  endfacet
  facet normal -0.956956 0.290234 0
    outer loop
      vertex -12.4616 9.64018 200
      vertex -12.3478 10.0154 213
      vertex -12.3478 10.0154 200
    endloop
  endfacet
  facet normal -0.956956 0.290234 0
    outer loop
      vertex -12.3478 10.0154 213
      vertex -12.4616 9.64018 200
      vertex -12.4616 9.64018 213
    endloop
  endfacet
  facet normal -0.881795 0.471634 0
    outer loop
      vertex -12.3478 10.0154 200
      vertex -12.1629 10.3611 213
      vertex -12.1629 10.3611 200
    endloop
  endfacet
  facet normal -0.881795 0.471634 0
    outer loop
      vertex -12.1629 10.3611 213
      vertex -12.3478 10.0154 200
      vertex -12.3478 10.0154 213
    endloop
  endfacet
  facet normal 0.290248 0.956951 -0
    outer loop
      vertex 11.2654 11.0978 200
      vertex 10.8902 11.2116 213
      vertex 11.2654 11.0978 213
    endloop
  endfacet
  facet normal 0.290248 0.956951 0
    outer loop
      vertex 10.8902 11.2116 213
      vertex 11.2654 11.0978 200
      vertex 10.8902 11.2116 200
    endloop
  endfacet
  facet normal 0.471634 0.881795 -0
    outer loop
      vertex 11.6111 10.9129 200
      vertex 11.2654 11.0978 213
      vertex 11.6111 10.9129 213
    endloop
  endfacet
  facet normal 0.471634 0.881795 0
    outer loop
      vertex 11.2654 11.0978 213
      vertex 11.6111 10.9129 200
      vertex 11.2654 11.0978 200
    endloop
  endfacet
  facet normal 0.77307 0.634321 0
    outer loop
      vertex 12.1629 10.3611 213
      vertex 11.9142 10.6642 200
      vertex 11.9142 10.6642 213
    endloop
  endfacet
  facet normal 0.77307 0.634321 0
    outer loop
      vertex 11.9142 10.6642 200
      vertex 12.1629 10.3611 213
      vertex 12.1629 10.3611 200
    endloop
  endfacet
  facet normal -0.290248 0.956951 0
    outer loop
      vertex -10.8902 11.2116 200
      vertex -11.2654 11.0978 213
      vertex -10.8902 11.2116 213
    endloop
  endfacet
  facet normal -0.290248 0.956951 0
    outer loop
      vertex -11.2654 11.0978 213
      vertex -10.8902 11.2116 200
      vertex -11.2654 11.0978 200
    endloop
  endfacet
  facet normal 0.471634 -0.881795 0
    outer loop
      vertex 11.2654 -11.0978 200
      vertex 11.6111 -10.9129 213
      vertex 11.2654 -11.0978 213
    endloop
  endfacet
  facet normal 0.471634 -0.881795 0
    outer loop
      vertex 11.6111 -10.9129 213
      vertex 11.2654 -11.0978 200
      vertex 11.6111 -10.9129 200
    endloop
  endfacet
  facet normal 0.290248 -0.956951 0
    outer loop
      vertex 10.8902 -11.2116 200
      vertex 11.2654 -11.0978 213
      vertex 10.8902 -11.2116 213
    endloop
  endfacet
  facet normal 0.290248 -0.956951 0
    outer loop
      vertex 11.2654 -11.0978 213
      vertex 10.8902 -11.2116 200
      vertex 11.2654 -11.0978 200
    endloop
  endfacet
  facet normal 0.097938 -0.995193 0
    outer loop
      vertex 10.5 -11.25 200
      vertex 10.8902 -11.2116 213
      vertex 10.5 -11.25 213
    endloop
  endfacet
  facet normal 0.097938 -0.995193 0
    outer loop
      vertex 10.8902 -11.2116 213
      vertex 10.5 -11.25 200
      vertex 10.8902 -11.2116 200
    endloop
  endfacet
  facet normal 0.634321 -0.77307 0
    outer loop
      vertex 11.6111 -10.9129 200
      vertex 11.9142 -10.6642 213
      vertex 11.6111 -10.9129 213
    endloop
  endfacet
  facet normal 0.634321 -0.77307 0
    outer loop
      vertex 11.9142 -10.6642 213
      vertex 11.6111 -10.9129 200
      vertex 11.9142 -10.6642 200
    endloop
  endfacet
  facet normal 0.956956 -0.290234 0
    outer loop
      vertex 12.3478 -10.0154 213
      vertex 12.4616 -9.64018 200
      vertex 12.4616 -9.64018 213
    endloop
  endfacet
  facet normal 0.956956 -0.290234 0
    outer loop
      vertex 12.4616 -9.64018 200
      vertex 12.3478 -10.0154 213
      vertex 12.3478 -10.0154 200
    endloop
  endfacet
  facet normal 0.881795 -0.471634 0
    outer loop
      vertex 12.1629 -10.3611 213
      vertex 12.3478 -10.0154 200
      vertex 12.3478 -10.0154 213
    endloop
  endfacet
  facet normal 0.881795 -0.471634 0
    outer loop
      vertex 12.3478 -10.0154 200
      vertex 12.1629 -10.3611 213
      vertex 12.1629 -10.3611 200
    endloop
  endfacet
  facet normal -0.097938 -0.995193 0
    outer loop
      vertex -10.8902 -11.2116 200
      vertex -10.5 -11.25 213
      vertex -10.8902 -11.2116 213
    endloop
  endfacet
  facet normal -0.097938 -0.995193 -0
    outer loop
      vertex -10.5 -11.25 213
      vertex -10.8902 -11.2116 200
      vertex -10.5 -11.25 200
    endloop
  endfacet
  facet normal -0.290248 -0.956951 0
    outer loop
      vertex -11.2654 -11.0978 200
      vertex -10.8902 -11.2116 213
      vertex -11.2654 -11.0978 213
    endloop
  endfacet
  facet normal -0.290248 -0.956951 -0
    outer loop
      vertex -10.8902 -11.2116 213
      vertex -11.2654 -11.0978 200
      vertex -10.8902 -11.2116 200
    endloop
  endfacet
  facet normal -0.634321 -0.77307 0
    outer loop
      vertex -11.9142 -10.6642 200
      vertex -11.6111 -10.9129 213
      vertex -11.9142 -10.6642 213
    endloop
  endfacet
  facet normal -0.634321 -0.77307 -0
    outer loop
      vertex -11.6111 -10.9129 213
      vertex -11.9142 -10.6642 200
      vertex -11.6111 -10.9129 200
    endloop
  endfacet
  facet normal -0.77307 -0.634321 0
    outer loop
      vertex -11.9142 -10.6642 200
      vertex -12.1629 -10.3611 213
      vertex -12.1629 -10.3611 200
    endloop
  endfacet
  facet normal -0.77307 -0.634321 0
    outer loop
      vertex -12.1629 -10.3611 213
      vertex -11.9142 -10.6642 200
      vertex -11.9142 -10.6642 213
    endloop
  endfacet
  facet normal -0.995185 0 -0.098017
    outer loop
      vertex 2.65 -11.25 206.5
      vertex 2.59908 -8.75 207.017
      vertex 2.65 -8.75 206.5
    endloop
  endfacet
  facet normal -0.995185 -0 -0.098017
    outer loop
      vertex 2.59908 -8.75 207.017
      vertex 2.65 -11.25 206.5
      vertex 2.59908 -11.25 207.017
    endloop
  endfacet
  facet normal -0.956921 0 -0.290349
    outer loop
      vertex 2.59908 -11.25 207.017
      vertex 2.44828 -8.75 207.514
      vertex 2.59908 -8.75 207.017
    endloop
  endfacet
  facet normal -0.956921 -0 -0.290349
    outer loop
      vertex 2.44828 -8.75 207.514
      vertex 2.59908 -11.25 207.017
      vertex 2.44828 -11.25 207.514
    endloop
  endfacet
  facet normal 0.0981716 0 -0.99517
    outer loop
      vertex -0.516989 -11.25 209.099
      vertex 0 -8.75 209.15
      vertex 0 -11.25 209.15
    endloop
  endfacet
  facet normal 0.0981716 0 -0.99517
    outer loop
      vertex 0 -8.75 209.15
      vertex -0.516989 -11.25 209.099
      vertex -0.516989 -8.75 209.099
    endloop
  endfacet
  facet normal -0.633748 0 -0.773539
    outer loop
      vertex 1.47226 -11.25 208.703
      vertex 1.87383 -8.75 208.374
      vertex 1.87383 -11.25 208.374
    endloop
  endfacet
  facet normal -0.633748 0 -0.773539
    outer loop
      vertex 1.87383 -8.75 208.374
      vertex 1.47226 -11.25 208.703
      vertex 1.47226 -8.75 208.703
    endloop
  endfacet
  facet normal 0.773343 0 -0.633988
    outer loop
      vertex -1.87383 -11.25 208.374
      vertex -2.20339 -8.75 207.972
      vertex -1.87383 -8.75 208.374
    endloop
  endfacet
  facet normal 0.773343 0 -0.633988
    outer loop
      vertex -2.20339 -8.75 207.972
      vertex -1.87383 -11.25 208.374
      vertex -2.20339 -11.25 207.972
    endloop
  endfacet
  facet normal 0.471567 0 -0.88183
    outer loop
      vertex -1.47226 -11.25 208.703
      vertex -1.01411 -8.75 208.948
      vertex -1.01411 -11.25 208.948
    endloop
  endfacet
  facet normal 0.471567 0 -0.88183
    outer loop
      vertex -1.01411 -8.75 208.948
      vertex -1.47226 -11.25 208.703
      vertex -1.47226 -8.75 208.703
    endloop
  endfacet
  facet normal -0.881854 0 -0.471522
    outer loop
      vertex 2.44828 -11.25 207.514
      vertex 2.20339 -8.75 207.972
      vertex 2.44828 -8.75 207.514
    endloop
  endfacet
  facet normal -0.881854 -0 -0.471522
    outer loop
      vertex 2.20339 -8.75 207.972
      vertex 2.44828 -11.25 207.514
      vertex 2.20339 -11.25 207.972
    endloop
  endfacet
  facet normal -0.290637 0 -0.956833
    outer loop
      vertex 0.516989 -11.25 209.099
      vertex 1.01411 -8.75 208.948
      vertex 1.01411 -11.25 208.948
    endloop
  endfacet
  facet normal -0.290637 0 -0.956833
    outer loop
      vertex 1.01411 -8.75 208.948
      vertex 0.516989 -11.25 209.099
      vertex 0.516989 -8.75 209.099
    endloop
  endfacet
  facet normal -0.471567 0 -0.88183
    outer loop
      vertex 1.01411 -11.25 208.948
      vertex 1.47226 -8.75 208.703
      vertex 1.47226 -11.25 208.703
    endloop
  endfacet
  facet normal -0.471567 0 -0.88183
    outer loop
      vertex 1.47226 -8.75 208.703
      vertex 1.01411 -11.25 208.948
      vertex 1.01411 -8.75 208.948
    endloop
  endfacet
  facet normal 0.956921 0 -0.290349
    outer loop
      vertex -2.44828 -11.25 207.514
      vertex -2.59908 -8.75 207.017
      vertex -2.44828 -8.75 207.514
    endloop
  endfacet
  facet normal 0.956921 0 -0.290349
    outer loop
      vertex -2.59908 -8.75 207.017
      vertex -2.44828 -11.25 207.514
      vertex -2.59908 -11.25 207.017
    endloop
  endfacet
  facet normal 0.881854 0 -0.471522
    outer loop
      vertex -2.20339 -11.25 207.972
      vertex -2.44828 -8.75 207.514
      vertex -2.20339 -8.75 207.972
    endloop
  endfacet
  facet normal 0.881854 0 -0.471522
    outer loop
      vertex -2.44828 -8.75 207.514
      vertex -2.20339 -11.25 207.972
      vertex -2.44828 -11.25 207.514
    endloop
  endfacet
  facet normal 0.290637 0 -0.956833
    outer loop
      vertex -1.01411 -11.25 208.948
      vertex -0.516989 -8.75 209.099
      vertex -0.516989 -11.25 209.099
    endloop
  endfacet
  facet normal 0.290637 0 -0.956833
    outer loop
      vertex -0.516989 -8.75 209.099
      vertex -1.01411 -11.25 208.948
      vertex -1.01411 -8.75 208.948
    endloop
  endfacet
  facet normal -0.995185 0 0.098017
    outer loop
      vertex 2.59908 -11.25 205.983
      vertex 2.65 -8.75 206.5
      vertex 2.59908 -8.75 205.983
    endloop
  endfacet
  facet normal -0.995185 0 0.098017
    outer loop
      vertex 2.65 -8.75 206.5
      vertex 2.59908 -11.25 205.983
      vertex 2.65 -11.25 206.5
    endloop
  endfacet
  facet normal 0.956921 -0 0.290349
    outer loop
      vertex -2.59908 -11.25 205.983
      vertex -2.44828 -8.75 205.486
      vertex -2.59908 -8.75 205.983
    endloop
  endfacet
  facet normal 0.956921 0 0.290349
    outer loop
      vertex -2.44828 -8.75 205.486
      vertex -2.59908 -11.25 205.983
      vertex -2.44828 -11.25 205.486
    endloop
  endfacet
  facet normal -0.290637 0 0.956833
    outer loop
      vertex 0.516989 -8.75 203.901
      vertex 1.01411 -11.25 204.052
      vertex 1.01411 -8.75 204.052
    endloop
  endfacet
  facet normal -0.290637 0 0.956833
    outer loop
      vertex 1.01411 -11.25 204.052
      vertex 0.516989 -8.75 203.901
      vertex 0.516989 -11.25 203.901
    endloop
  endfacet
  facet normal -0.471567 0 0.88183
    outer loop
      vertex 1.01411 -8.75 204.052
      vertex 1.47226 -11.25 204.297
      vertex 1.47226 -8.75 204.297
    endloop
  endfacet
  facet normal -0.471567 0 0.88183
    outer loop
      vertex 1.47226 -11.25 204.297
      vertex 1.01411 -8.75 204.052
      vertex 1.01411 -11.25 204.052
    endloop
  endfacet
  facet normal -0.773343 0 -0.633988
    outer loop
      vertex 2.20339 -11.25 207.972
      vertex 1.87383 -8.75 208.374
      vertex 2.20339 -8.75 207.972
    endloop
  endfacet
  facet normal -0.773343 -0 -0.633988
    outer loop
      vertex 1.87383 -8.75 208.374
      vertex 2.20339 -11.25 207.972
      vertex 1.87383 -11.25 208.374
    endloop
  endfacet
  facet normal -0.0981716 0 -0.99517
    outer loop
      vertex 0 -11.25 209.15
      vertex 0.516989 -8.75 209.099
      vertex 0.516989 -11.25 209.099
    endloop
  endfacet
  facet normal -0.0981716 0 -0.99517
    outer loop
      vertex 0.516989 -8.75 209.099
      vertex 0 -11.25 209.15
      vertex 0 -8.75 209.15
    endloop
  endfacet
  facet normal 0.995185 0 -0.098017
    outer loop
      vertex -2.59908 -11.25 207.017
      vertex -2.65 -8.75 206.5
      vertex -2.59908 -8.75 207.017
    endloop
  endfacet
  facet normal 0.995185 0 -0.098017
    outer loop
      vertex -2.65 -8.75 206.5
      vertex -2.59908 -11.25 207.017
      vertex -2.65 -11.25 206.5
    endloop
  endfacet
  facet normal 0.995185 -0 0.098017
    outer loop
      vertex -2.65 -11.25 206.5
      vertex -2.59908 -8.75 205.983
      vertex -2.65 -8.75 206.5
    endloop
  endfacet
  facet normal 0.995185 0 0.098017
    outer loop
      vertex -2.59908 -8.75 205.983
      vertex -2.65 -11.25 206.5
      vertex -2.59908 -11.25 205.983
    endloop
  endfacet
  facet normal 0.633748 0 -0.773539
    outer loop
      vertex -1.87383 -11.25 208.374
      vertex -1.47226 -8.75 208.703
      vertex -1.47226 -11.25 208.703
    endloop
  endfacet
  facet normal 0.633748 0 -0.773539
    outer loop
      vertex -1.47226 -8.75 208.703
      vertex -1.87383 -11.25 208.374
      vertex -1.87383 -8.75 208.374
    endloop
  endfacet
  facet normal -0.881854 0 0.471522
    outer loop
      vertex 2.20339 -11.25 205.028
      vertex 2.44828 -8.75 205.486
      vertex 2.20339 -8.75 205.028
    endloop
  endfacet
  facet normal -0.881854 0 0.471522
    outer loop
      vertex 2.44828 -8.75 205.486
      vertex 2.20339 -11.25 205.028
      vertex 2.44828 -11.25 205.486
    endloop
  endfacet
  facet normal 0.773343 -0 0.633988
    outer loop
      vertex -2.20339 -11.25 205.028
      vertex -1.87383 -8.75 204.626
      vertex -2.20339 -8.75 205.028
    endloop
  endfacet
  facet normal 0.773343 0 0.633988
    outer loop
      vertex -1.87383 -8.75 204.626
      vertex -2.20339 -11.25 205.028
      vertex -1.87383 -11.25 204.626
    endloop
  endfacet
  facet normal -0.0981716 0 0.99517
    outer loop
      vertex 0 -8.75 203.85
      vertex 0.516989 -11.25 203.901
      vertex 0.516989 -8.75 203.901
    endloop
  endfacet
  facet normal -0.0981716 0 0.99517
    outer loop
      vertex 0.516989 -11.25 203.901
      vertex 0 -8.75 203.85
      vertex 0 -11.25 203.85
    endloop
  endfacet
  facet normal -0.956921 0 0.290349
    outer loop
      vertex 2.44828 -11.25 205.486
      vertex 2.59908 -8.75 205.983
      vertex 2.44828 -8.75 205.486
    endloop
  endfacet
  facet normal -0.956921 0 0.290349
    outer loop
      vertex 2.59908 -8.75 205.983
      vertex 2.44828 -11.25 205.486
      vertex 2.59908 -11.25 205.983
    endloop
  endfacet
  facet normal 0.633748 0 0.773539
    outer loop
      vertex -1.87383 -8.75 204.626
      vertex -1.47226 -11.25 204.297
      vertex -1.47226 -8.75 204.297
    endloop
  endfacet
  facet normal 0.633748 0 0.773539
    outer loop
      vertex -1.47226 -11.25 204.297
      vertex -1.87383 -8.75 204.626
      vertex -1.87383 -11.25 204.626
    endloop
  endfacet
  facet normal 0.471567 0 0.88183
    outer loop
      vertex -1.47226 -8.75 204.297
      vertex -1.01411 -11.25 204.052
      vertex -1.01411 -8.75 204.052
    endloop
  endfacet
  facet normal 0.471567 0 0.88183
    outer loop
      vertex -1.01411 -11.25 204.052
      vertex -1.47226 -8.75 204.297
      vertex -1.47226 -11.25 204.297
    endloop
  endfacet
  facet normal 0.290637 0 0.956833
    outer loop
      vertex -1.01411 -8.75 204.052
      vertex -0.516989 -11.25 203.901
      vertex -0.516989 -8.75 203.901
    endloop
  endfacet
  facet normal 0.290637 0 0.956833
    outer loop
      vertex -0.516989 -11.25 203.901
      vertex -1.01411 -8.75 204.052
      vertex -1.01411 -11.25 204.052
    endloop
  endfacet
  facet normal 0.0981716 0 0.99517
    outer loop
      vertex -0.516989 -8.75 203.901
      vertex 0 -11.25 203.85
      vertex 0 -8.75 203.85
    endloop
  endfacet
  facet normal 0.0981716 0 0.99517
    outer loop
      vertex 0 -11.25 203.85
      vertex -0.516989 -8.75 203.901
      vertex -0.516989 -11.25 203.901
    endloop
  endfacet
  facet normal 0.881854 -0 0.471522
    outer loop
      vertex -2.44828 -11.25 205.486
      vertex -2.20339 -8.75 205.028
      vertex -2.44828 -8.75 205.486
    endloop
  endfacet
  facet normal 0.881854 0 0.471522
    outer loop
      vertex -2.20339 -8.75 205.028
      vertex -2.44828 -11.25 205.486
      vertex -2.20339 -11.25 205.028
    endloop
  endfacet
  facet normal -0.633748 0 0.773539
    outer loop
      vertex 1.47226 -8.75 204.297
      vertex 1.87383 -11.25 204.626
      vertex 1.87383 -8.75 204.626
    endloop
  endfacet
  facet normal -0.633748 0 0.773539
    outer loop
      vertex 1.87383 -11.25 204.626
      vertex 1.47226 -8.75 204.297
      vertex 1.47226 -11.25 204.297
    endloop
  endfacet
  facet normal -0.773343 0 0.633988
    outer loop
      vertex 1.87383 -11.25 204.626
      vertex 2.20339 -8.75 205.028
      vertex 1.87383 -8.75 204.626
    endloop
  endfacet
  facet normal -0.773343 0 0.633988
    outer loop
      vertex 2.20339 -8.75 205.028
      vertex 1.87383 -11.25 204.626
      vertex 2.20339 -11.25 205.028
    endloop
  endfacet
  facet normal 0.956951 0.290248 0
    outer loop
      vertex -9.99239 -8.68827 213
      vertex -9.99808 -8.66951 200
      vertex -9.99808 -8.66951 213
    endloop
  endfacet
  facet normal 0.956951 0.290248 0
    outer loop
      vertex -9.99808 -8.66951 200
      vertex -9.99239 -8.68827 213
      vertex -9.99239 -8.68827 200
    endloop
  endfacet
  facet normal 1 -0 0
    outer loop
      vertex -10 -8.65 213
      vertex -10 11.25 200
      vertex -10 11.25 213
    endloop
  endfacet
  facet normal 1 0 0
    outer loop
      vertex -10 11.25 200
      vertex -10 -8.65 213
      vertex -10 -8.65 200
    endloop
  endfacet
  facet normal 0.995193 0.097938 0
    outer loop
      vertex -9.99808 -8.66951 213
      vertex -10 -8.65 200
      vertex -10 -8.65 213
    endloop
  endfacet
  facet normal 0.995193 0.097938 0
    outer loop
      vertex -10 -8.65 200
      vertex -9.99808 -8.66951 213
      vertex -9.99808 -8.66951 200
    endloop
  endfacet
  facet normal -0.772842 0.634598 0
    outer loop
      vertex 9.97071 -8.72071 200
      vertex 9.98315 -8.70556 213
      vertex 9.98315 -8.70556 200
    endloop
  endfacet
  facet normal -0.772842 0.634598 0
    outer loop
      vertex 9.98315 -8.70556 213
      vertex 9.97071 -8.72071 200
      vertex 9.97071 -8.72071 213
    endloop
  endfacet
  facet normal 0.097938 0.995193 -0
    outer loop
      vertex -9.9 -8.75 200
      vertex -9.91951 -8.74808 213
      vertex -9.9 -8.75 213
    endloop
  endfacet
  facet normal 0.097938 0.995193 0
    outer loop
      vertex -9.91951 -8.74808 213
      vertex -9.9 -8.75 200
      vertex -9.91951 -8.74808 200
    endloop
  endfacet
  facet normal -1 0 0
    outer loop
      vertex 10 -8.65 200
      vertex 10 11.25 213
      vertex 10 11.25 200
    endloop
  endfacet
  facet normal -1 -0 0
    outer loop
      vertex 10 11.25 213
      vertex 10 -8.65 200
      vertex 10 -8.65 213
    endloop
  endfacet
  facet normal 0 1 0
    outer loop
      vertex 9.9 -8.75 213
      vertex 0 -8.75 209.15
      vertex -9.9 -8.75 213
    endloop
  endfacet
  facet normal 0 1 0
    outer loop
      vertex 9.9 -8.75 213
      vertex 0.516989 -8.75 209.099
      vertex 0 -8.75 209.15
    endloop
  endfacet
  facet normal 0 1 0
    outer loop
      vertex 9.9 -8.75 213
      vertex 1.01411 -8.75 208.948
      vertex 0.516989 -8.75 209.099
    endloop
  endfacet
  facet normal 0 1 0
    outer loop
      vertex 9.9 -8.75 213
      vertex 1.47226 -8.75 208.703
      vertex 1.01411 -8.75 208.948
    endloop
  endfacet
  facet normal 0 1 0
    outer loop
      vertex 9.9 -8.75 213
      vertex 1.87383 -8.75 208.374
      vertex 1.47226 -8.75 208.703
    endloop
  endfacet
  facet normal 0 1 0
    outer loop
      vertex 9.9 -8.75 213
      vertex 2.20339 -8.75 207.972
      vertex 1.87383 -8.75 208.374
    endloop
  endfacet
  facet normal 0 1 0
    outer loop
      vertex 9.9 -8.75 213
      vertex 2.44828 -8.75 207.514
      vertex 2.20339 -8.75 207.972
    endloop
  endfacet
  facet normal 0 1 0
    outer loop
      vertex 9.9 -8.75 213
      vertex 2.59908 -8.75 207.017
      vertex 2.44828 -8.75 207.514
    endloop
  endfacet
  facet normal 0 1 0
    outer loop
      vertex 9.9 -8.75 213
      vertex 2.65 -8.75 206.5
      vertex 2.59908 -8.75 207.017
    endloop
  endfacet
  facet normal 0 1 -0
    outer loop
      vertex 9.9 -8.75 200
      vertex 2.65 -8.75 206.5
      vertex 9.9 -8.75 213
    endloop
  endfacet
  facet normal 0 1 0
    outer loop
      vertex 2.65 -8.75 206.5
      vertex 9.9 -8.75 200
      vertex 2.59908 -8.75 205.983
    endloop
  endfacet
  facet normal 0 1 0
    outer loop
      vertex 2.59908 -8.75 205.983
      vertex 9.9 -8.75 200
      vertex 2.44828 -8.75 205.486
    endloop
  endfacet
  facet normal 0 1 0
    outer loop
      vertex 2.44828 -8.75 205.486
      vertex 9.9 -8.75 200
      vertex 2.20339 -8.75 205.028
    endloop
  endfacet
  facet normal 0 1 0
    outer loop
      vertex 0.516989 -8.75 203.901
      vertex 9.9 -8.75 200
      vertex 0 -8.75 203.85
    endloop
  endfacet
  facet normal 0 1 0
    outer loop
      vertex 1.01411 -8.75 204.052
      vertex 9.9 -8.75 200
      vertex 0.516989 -8.75 203.901
    endloop
  endfacet
  facet normal 0 1 0
    outer loop
      vertex 1.47226 -8.75 204.297
      vertex 9.9 -8.75 200
      vertex 1.01411 -8.75 204.052
    endloop
  endfacet
  facet normal 0 1 0
    outer loop
      vertex 1.87383 -8.75 204.626
      vertex 9.9 -8.75 200
      vertex 1.47226 -8.75 204.297
    endloop
  endfacet
  facet normal 0 1 0
    outer loop
      vertex 2.20339 -8.75 205.028
      vertex 9.9 -8.75 200
      vertex 1.87383 -8.75 204.626
    endloop
  endfacet
  facet normal 0 1 -0
    outer loop
      vertex -0.516989 -8.75 209.099
      vertex -9.9 -8.75 213
      vertex 0 -8.75 209.15
    endloop
  endfacet
  facet normal 0 1 -0
    outer loop
      vertex -1.01411 -8.75 208.948
      vertex -9.9 -8.75 213
      vertex -0.516989 -8.75 209.099
    endloop
  endfacet
  facet normal 0 1 -0
    outer loop
      vertex -1.47226 -8.75 208.703
      vertex -9.9 -8.75 213
      vertex -1.01411 -8.75 208.948
    endloop
  endfacet
  facet normal 0 1 -0
    outer loop
      vertex -1.87383 -8.75 208.374
      vertex -9.9 -8.75 213
      vertex -1.47226 -8.75 208.703
    endloop
  endfacet
  facet normal 0 1 -0
    outer loop
      vertex -2.20339 -8.75 207.972
      vertex -9.9 -8.75 213
      vertex -1.87383 -8.75 208.374
    endloop
  endfacet
  facet normal 0 1 -0
    outer loop
      vertex -2.44828 -8.75 207.514
      vertex -9.9 -8.75 213
      vertex -2.20339 -8.75 207.972
    endloop
  endfacet
  facet normal 0 1 -0
    outer loop
      vertex -2.59908 -8.75 207.017
      vertex -9.9 -8.75 213
      vertex -2.44828 -8.75 207.514
    endloop
  endfacet
  facet normal 0 1 -0
    outer loop
      vertex -2.65 -8.75 206.5
      vertex -9.9 -8.75 213
      vertex -2.59908 -8.75 207.017
    endloop
  endfacet
  facet normal 0 1 0
    outer loop
      vertex -9.9 -8.75 200
      vertex -2.65 -8.75 206.5
      vertex -2.59908 -8.75 205.983
    endloop
  endfacet
  facet normal 0 1 0
    outer loop
      vertex -9.9 -8.75 200
      vertex -2.59908 -8.75 205.983
      vertex -2.44828 -8.75 205.486
    endloop
  endfacet
  facet normal 0 1 0
    outer loop
      vertex -9.9 -8.75 200
      vertex -2.44828 -8.75 205.486
      vertex -2.20339 -8.75 205.028
    endloop
  endfacet
  facet normal 0 1 0
    outer loop
      vertex -9.9 -8.75 200
      vertex -2.20339 -8.75 205.028
      vertex -1.87383 -8.75 204.626
    endloop
  endfacet
  facet normal 0 1 0
    outer loop
      vertex -9.9 -8.75 200
      vertex 0 -8.75 203.85
      vertex 9.9 -8.75 200
    endloop
  endfacet
  facet normal 0 1 0
    outer loop
      vertex 0 -8.75 203.85
      vertex -9.9 -8.75 200
      vertex -0.516989 -8.75 203.901
    endloop
  endfacet
  facet normal 0 1 0
    outer loop
      vertex -2.65 -8.75 206.5
      vertex -9.9 -8.75 200
      vertex -9.9 -8.75 213
    endloop
  endfacet
  facet normal 0 1 0
    outer loop
      vertex -1.47226 -8.75 204.297
      vertex -9.9 -8.75 200
      vertex -1.87383 -8.75 204.626
    endloop
  endfacet
  facet normal 0 1 0
    outer loop
      vertex -1.01411 -8.75 204.052
      vertex -9.9 -8.75 200
      vertex -1.47226 -8.75 204.297
    endloop
  endfacet
  facet normal 0 1 0
    outer loop
      vertex -0.516989 -8.75 203.901
      vertex -9.9 -8.75 200
      vertex -1.01411 -8.75 204.052
    endloop
  endfacet
  facet normal -0.881957 0.471329 0
    outer loop
      vertex 9.98315 -8.70556 200
      vertex 9.99239 -8.68827 213
      vertex 9.99239 -8.68827 200
    endloop
  endfacet
  facet normal -0.881957 0.471329 0
    outer loop
      vertex 9.99239 -8.68827 213
      vertex 9.98315 -8.70556 200
      vertex 9.98315 -8.70556 213
    endloop
  endfacet
  facet normal -0.995193 0.097938 0
    outer loop
      vertex 9.99808 -8.66951 200
      vertex 10 -8.65 213
      vertex 10 -8.65 200
    endloop
  endfacet
  facet normal -0.995193 0.097938 0
    outer loop
      vertex 10 -8.65 213
      vertex 9.99808 -8.66951 200
      vertex 9.99808 -8.66951 213
    endloop
  endfacet
  facet normal 0.881957 0.471329 0
    outer loop
      vertex -9.98315 -8.70556 213
      vertex -9.99239 -8.68827 200
      vertex -9.99239 -8.68827 213
    endloop
  endfacet
  facet normal 0.881957 0.471329 0
    outer loop
      vertex -9.99239 -8.68827 200
      vertex -9.98315 -8.70556 213
      vertex -9.98315 -8.70556 200
    endloop
  endfacet
  facet normal -0.956951 0.290248 0
    outer loop
      vertex 9.99239 -8.68827 200
      vertex 9.99808 -8.66951 213
      vertex 9.99808 -8.66951 200
    endloop
  endfacet
  facet normal -0.956951 0.290248 0
    outer loop
      vertex 9.99808 -8.66951 213
      vertex 9.99239 -8.68827 200
      vertex 9.99239 -8.68827 213
    endloop
  endfacet
  facet normal -0.471329 0.881957 0
    outer loop
      vertex 9.95556 -8.73315 200
      vertex 9.93827 -8.74239 213
      vertex 9.95556 -8.73315 213
    endloop
  endfacet
  facet normal -0.471329 0.881957 0
    outer loop
      vertex 9.93827 -8.74239 213
      vertex 9.95556 -8.73315 200
      vertex 9.93827 -8.74239 200
    endloop
  endfacet
  facet normal -0.097938 0.995193 0
    outer loop
      vertex 9.91951 -8.74808 200
      vertex 9.9 -8.75 213
      vertex 9.91951 -8.74808 213
    endloop
  endfacet
  facet normal -0.097938 0.995193 0
    outer loop
      vertex 9.9 -8.75 213
      vertex 9.91951 -8.74808 200
      vertex 9.9 -8.75 200
    endloop
  endfacet
  facet normal -0.634598 0.772842 0
    outer loop
      vertex 9.97071 -8.72071 200
      vertex 9.95556 -8.73315 213
      vertex 9.97071 -8.72071 213
    endloop
  endfacet
  facet normal -0.634598 0.772842 0
    outer loop
      vertex 9.95556 -8.73315 213
      vertex 9.97071 -8.72071 200
      vertex 9.95556 -8.73315 200
    endloop
  endfacet
  facet normal 0.471329 0.881957 -0
    outer loop
      vertex -9.93827 -8.74239 200
      vertex -9.95556 -8.73315 213
      vertex -9.93827 -8.74239 213
    endloop
  endfacet
  facet normal 0.471329 0.881957 0
    outer loop
      vertex -9.95556 -8.73315 213
      vertex -9.93827 -8.74239 200
      vertex -9.95556 -8.73315 200
    endloop
  endfacet
  facet normal 0.772842 0.634598 0
    outer loop
      vertex -9.97071 -8.72071 213
      vertex -9.98315 -8.70556 200
      vertex -9.98315 -8.70556 213
    endloop
  endfacet
  facet normal 0.772842 0.634598 0
    outer loop
      vertex -9.98315 -8.70556 200
      vertex -9.97071 -8.72071 213
      vertex -9.97071 -8.72071 200
    endloop
  endfacet
  facet normal -0.290248 0.956951 0
    outer loop
      vertex 9.93827 -8.74239 200
      vertex 9.91951 -8.74808 213
      vertex 9.93827 -8.74239 213
    endloop
  endfacet
  facet normal -0.290248 0.956951 0
    outer loop
      vertex 9.91951 -8.74808 213
      vertex 9.93827 -8.74239 200
      vertex 9.91951 -8.74808 200
    endloop
  endfacet
  facet normal 0.290248 0.956951 -0
    outer loop
      vertex -9.91951 -8.74808 200
      vertex -9.93827 -8.74239 213
      vertex -9.91951 -8.74808 213
    endloop
  endfacet
  facet normal 0.290248 0.956951 0
    outer loop
      vertex -9.93827 -8.74239 213
      vertex -9.91951 -8.74808 200
      vertex -9.93827 -8.74239 200
    endloop
  endfacet
  facet normal 0.634598 0.772842 -0
    outer loop
      vertex -9.95556 -8.73315 200
      vertex -9.97071 -8.72071 213
      vertex -9.95556 -8.73315 213
    endloop
  endfacet
  facet normal 0.634598 0.772842 0
    outer loop
      vertex -9.97071 -8.72071 213
      vertex -9.95556 -8.73315 200
      vertex -9.97071 -8.72071 200
    endloop
  endfacet
endsolid OpenSCAD_Model
