G04 #@! TF.GenerationSoftware,KiCad,Pcbnew,(5.1.4)-1*
G04 #@! TF.CreationDate,2019-11-09T18:37:34+01:00*
G04 #@! TF.ProjectId,hexPre,68657850-7265-42e6-9b69-6361645f7063,rev?*
G04 #@! TF.SameCoordinates,PXc1c960PY54c81a0*
G04 #@! TF.FileFunction,Copper,L1,Top*
G04 #@! TF.FilePolarity,Positive*
%FSLAX46Y46*%
G04 Gerber Fmt 4.6, Leading zero omitted, Abs format (unit mm)*
G04 Created by KiCad (PCBNEW (5.1.4)-1) date 2019-11-09 18:37:34*
%MOMM*%
%LPD*%
G04 APERTURE LIST*
%ADD10R,1.500000X1.250000*%
%ADD11R,1.250000X1.500000*%
%ADD12R,1.700000X1.700000*%
%ADD13O,1.700000X1.700000*%
%ADD14R,2.400000X1.600000*%
%ADD15C,1.600000*%
%ADD16C,0.100000*%
%ADD17C,0.500000*%
G04 APERTURE END LIST*
D10*
X53315865Y3840359D03*
X50815865Y3840359D03*
D11*
X54610000Y21610000D03*
X54610000Y24110000D03*
D12*
X45720000Y3810000D03*
D13*
X45720000Y6350000D03*
X45720000Y8890000D03*
D11*
X48260000Y6370000D03*
X48260000Y8870000D03*
X49530000Y24110000D03*
X49530000Y21610000D03*
D10*
X53315865Y6380359D03*
X50815865Y6380359D03*
X50815865Y8920359D03*
X53315865Y8920359D03*
D14*
X46990000Y11430000D03*
X57150000Y19050000D03*
X46990000Y13970000D03*
D15*
X57150000Y16510000D03*
D16*
G36*
X58350000Y17310000D02*
G01*
X58350000Y15710000D01*
X55950000Y15710000D01*
X55950000Y17310000D01*
X58350000Y17310000D01*
X58350000Y17310000D01*
G37*
D14*
X46990000Y16510000D03*
X57150000Y13970000D03*
X46990000Y19050000D03*
X57150000Y11430000D03*
D11*
X46990000Y21610000D03*
X46990000Y24110000D03*
D13*
X57785000Y22860000D03*
D12*
X57785000Y25400000D03*
D11*
X52070000Y21610000D03*
X52070000Y24110000D03*
D10*
X32360865Y3840359D03*
X29860865Y3840359D03*
D11*
X33655000Y21610000D03*
X33655000Y24110000D03*
D12*
X24765000Y3810000D03*
D13*
X24765000Y6350000D03*
X24765000Y8890000D03*
D11*
X27305000Y6370000D03*
X27305000Y8870000D03*
X28575000Y24110000D03*
X28575000Y21610000D03*
D10*
X32360865Y6380359D03*
X29860865Y6380359D03*
X29860865Y8920359D03*
X32360865Y8920359D03*
D14*
X26035000Y11430000D03*
X36195000Y19050000D03*
X26035000Y13970000D03*
D15*
X36195000Y16510000D03*
D16*
G36*
X37395000Y17310000D02*
G01*
X37395000Y15710000D01*
X34995000Y15710000D01*
X34995000Y17310000D01*
X37395000Y17310000D01*
X37395000Y17310000D01*
G37*
D14*
X26035000Y16510000D03*
X36195000Y13970000D03*
X26035000Y19050000D03*
X36195000Y11430000D03*
D11*
X26035000Y21610000D03*
X26035000Y24110000D03*
D13*
X36830000Y22860000D03*
D12*
X36830000Y25400000D03*
D11*
X31115000Y21610000D03*
X31115000Y24110000D03*
X10160000Y24110000D03*
X10160000Y21610000D03*
D13*
X3810000Y8890000D03*
X3810000Y6350000D03*
D12*
X3810000Y3810000D03*
D11*
X6350000Y8870000D03*
X6350000Y6370000D03*
D12*
X15875000Y25400000D03*
D13*
X15875000Y22860000D03*
D11*
X5080000Y24110000D03*
X5080000Y21610000D03*
X7620000Y21610000D03*
X7620000Y24110000D03*
X12700000Y24110000D03*
X12700000Y21610000D03*
D10*
X8905865Y3840359D03*
X11405865Y3840359D03*
X8905865Y6380359D03*
X11405865Y6380359D03*
X11405865Y8920359D03*
X8905865Y8920359D03*
D14*
X15240000Y11430000D03*
X5080000Y19050000D03*
X15240000Y13970000D03*
X5080000Y16510000D03*
D15*
X15240000Y16510000D03*
D16*
G36*
X16440000Y17310000D02*
G01*
X16440000Y15710000D01*
X14040000Y15710000D01*
X14040000Y17310000D01*
X16440000Y17310000D01*
X16440000Y17310000D01*
G37*
D14*
X5080000Y13970000D03*
X15240000Y19050000D03*
X5080000Y11430000D03*
D17*
X8905865Y6380359D02*
X8905865Y3840359D01*
X11405865Y6380359D02*
X11405865Y8920359D01*
X11405865Y12675865D02*
X11405865Y8920359D01*
X15240000Y13970000D02*
X12700000Y13970000D01*
X12700000Y13970000D02*
X11405865Y12675865D01*
X8905865Y8920359D02*
X8905865Y15224135D01*
X7620000Y16510000D02*
X5080000Y16510000D01*
X8905865Y15224135D02*
X7620000Y16510000D01*
X6350000Y21610000D02*
X8890000Y21610000D01*
X13939641Y3840359D02*
X11405865Y3840359D01*
X13970000Y3810000D02*
X13939641Y3840359D01*
X17780000Y7620000D02*
X13970000Y3810000D01*
X17780000Y18210000D02*
X17780000Y7620000D01*
X15240000Y19050000D02*
X16940000Y19050000D01*
X6360359Y8920359D02*
X6330000Y8890000D01*
X8905865Y8920359D02*
X6360359Y8920359D01*
X11405865Y2515865D02*
X11405865Y3840359D01*
X3830000Y6370000D02*
X3810000Y6350000D01*
X6350000Y6370000D02*
X3830000Y6370000D01*
X3810000Y8890000D02*
X2540000Y10160000D01*
X16590000Y25400000D02*
X15240000Y25400000D01*
X17780000Y24210000D02*
X16590000Y25400000D01*
X13890000Y25400000D02*
X15240000Y25400000D01*
X13255000Y26035000D02*
X13890000Y25400000D01*
X8890000Y26035000D02*
X13255000Y26035000D01*
X4365000Y1905000D02*
X10795000Y1905000D01*
X3810000Y2460000D02*
X4365000Y1905000D01*
X3810000Y3810000D02*
X3810000Y2460000D01*
X10795000Y1905000D02*
X11405865Y2515865D01*
X15875000Y22860000D02*
X14605000Y21590000D01*
X14585000Y21610000D02*
X13335000Y21610000D01*
X14605000Y21590000D02*
X14585000Y21610000D01*
X3155000Y24110000D02*
X5080000Y24110000D01*
X2540000Y23495000D02*
X3155000Y24110000D01*
X2540000Y15240000D02*
X2540000Y23495000D01*
X8890000Y26035000D02*
X8255000Y26035000D01*
X7620000Y25400000D02*
X7620000Y24110000D01*
X8255000Y26035000D02*
X7620000Y25400000D01*
X10160000Y19050000D02*
X10160000Y21610000D01*
X15240000Y16510000D02*
X12700000Y16510000D01*
X12700000Y16510000D02*
X10160000Y19050000D01*
X10160000Y21610000D02*
X5080000Y21610000D01*
X12700000Y24110000D02*
X10160000Y24110000D01*
X3380000Y13970000D02*
X5080000Y13970000D01*
X2540000Y10160000D02*
X2540000Y13970000D01*
X2540000Y13970000D02*
X2540000Y15240000D01*
X2540000Y13970000D02*
X5080000Y13970000D01*
X15240000Y19050000D02*
X17780000Y19050000D01*
X17780000Y18210000D02*
X17780000Y19050000D01*
X17780000Y19050000D02*
X17780000Y24210000D01*
X38735000Y18210000D02*
X38735000Y7620000D01*
X32360865Y6380359D02*
X32360865Y8920359D01*
X24765000Y3810000D02*
X24765000Y2460000D01*
X28575000Y25400000D02*
X28575000Y24110000D01*
X31750000Y1905000D02*
X32360865Y2515865D01*
X34845000Y25400000D02*
X36195000Y25400000D01*
X31115000Y21610000D02*
X26035000Y21610000D01*
X38735000Y7620000D02*
X34925000Y3810000D01*
X36195000Y19050000D02*
X37895000Y19050000D01*
X32360865Y2515865D02*
X32360865Y3840359D01*
X34210000Y26035000D02*
X34845000Y25400000D01*
X36195000Y13970000D02*
X33655000Y13970000D01*
X33655000Y24110000D02*
X31115000Y24110000D01*
X23495000Y10160000D02*
X23495000Y13970000D01*
X24335000Y13970000D02*
X26035000Y13970000D01*
X27305000Y21610000D02*
X29845000Y21610000D01*
X29860865Y15224135D02*
X28575000Y16510000D01*
X34925000Y3810000D02*
X34894641Y3840359D01*
X29860865Y8920359D02*
X27315359Y8920359D01*
X27305000Y6370000D02*
X24785000Y6370000D01*
X37545000Y25400000D02*
X36195000Y25400000D01*
X28575000Y16510000D02*
X26035000Y16510000D01*
X32360865Y12675865D02*
X32360865Y8920359D01*
X34894641Y3840359D02*
X32360865Y3840359D01*
X25320000Y1905000D02*
X31750000Y1905000D01*
X29860865Y6380359D02*
X29860865Y3840359D01*
X27315359Y8920359D02*
X27285000Y8890000D01*
X24785000Y6370000D02*
X24765000Y6350000D01*
X24765000Y8890000D02*
X23495000Y10160000D01*
X24765000Y2460000D02*
X25320000Y1905000D01*
X33655000Y13970000D02*
X32360865Y12675865D01*
X38735000Y24210000D02*
X37545000Y25400000D01*
X35560000Y21590000D02*
X35540000Y21610000D01*
X23495000Y15240000D02*
X23495000Y23495000D01*
X29845000Y26035000D02*
X29210000Y26035000D01*
X31115000Y19050000D02*
X31115000Y21610000D01*
X36195000Y16510000D02*
X33655000Y16510000D01*
X29845000Y26035000D02*
X34210000Y26035000D01*
X35540000Y21610000D02*
X34290000Y21610000D01*
X24110000Y24110000D02*
X26035000Y24110000D01*
X29860865Y8920359D02*
X29860865Y15224135D01*
X29210000Y26035000D02*
X28575000Y25400000D01*
X33655000Y16510000D02*
X31115000Y19050000D01*
X36830000Y22860000D02*
X35560000Y21590000D01*
X23495000Y23495000D02*
X24110000Y24110000D01*
X38735000Y19050000D02*
X38735000Y24210000D01*
X23495000Y13970000D02*
X23495000Y15240000D01*
X36195000Y19050000D02*
X38735000Y19050000D01*
X38735000Y18210000D02*
X38735000Y19050000D01*
X23495000Y13970000D02*
X26035000Y13970000D01*
X59690000Y18210000D02*
X59690000Y7620000D01*
X53315865Y6380359D02*
X53315865Y8920359D01*
X45720000Y3810000D02*
X45720000Y2460000D01*
X49530000Y25400000D02*
X49530000Y24110000D01*
X52705000Y1905000D02*
X53315865Y2515865D01*
X55800000Y25400000D02*
X57150000Y25400000D01*
X52070000Y21610000D02*
X46990000Y21610000D01*
X59690000Y7620000D02*
X55880000Y3810000D01*
X57150000Y19050000D02*
X58850000Y19050000D01*
X53315865Y2515865D02*
X53315865Y3840359D01*
X55165000Y26035000D02*
X55800000Y25400000D01*
X57150000Y13970000D02*
X54610000Y13970000D01*
X54610000Y24110000D02*
X52070000Y24110000D01*
X44450000Y10160000D02*
X44450000Y13970000D01*
X45290000Y13970000D02*
X46990000Y13970000D01*
X48260000Y21610000D02*
X50800000Y21610000D01*
X50815865Y15224135D02*
X49530000Y16510000D01*
X55880000Y3810000D02*
X55849641Y3840359D01*
X50815865Y8920359D02*
X48270359Y8920359D01*
X48260000Y6370000D02*
X45740000Y6370000D01*
X58500000Y25400000D02*
X57150000Y25400000D01*
X49530000Y16510000D02*
X46990000Y16510000D01*
X53315865Y12675865D02*
X53315865Y8920359D01*
X55849641Y3840359D02*
X53315865Y3840359D01*
X46275000Y1905000D02*
X52705000Y1905000D01*
X50815865Y6380359D02*
X50815865Y3840359D01*
X48270359Y8920359D02*
X48240000Y8890000D01*
X45740000Y6370000D02*
X45720000Y6350000D01*
X45720000Y8890000D02*
X44450000Y10160000D01*
X45720000Y2460000D02*
X46275000Y1905000D01*
X54610000Y13970000D02*
X53315865Y12675865D01*
X59690000Y24210000D02*
X58500000Y25400000D01*
X56515000Y21590000D02*
X56495000Y21610000D01*
X44450000Y15240000D02*
X44450000Y23495000D01*
X50800000Y26035000D02*
X50165000Y26035000D01*
X52070000Y19050000D02*
X52070000Y21610000D01*
X57150000Y16510000D02*
X54610000Y16510000D01*
X50800000Y26035000D02*
X55165000Y26035000D01*
X56495000Y21610000D02*
X55245000Y21610000D01*
X45065000Y24110000D02*
X46990000Y24110000D01*
X50815865Y8920359D02*
X50815865Y15224135D01*
X50165000Y26035000D02*
X49530000Y25400000D01*
X54610000Y16510000D02*
X52070000Y19050000D01*
X57785000Y22860000D02*
X56515000Y21590000D01*
X44450000Y23495000D02*
X45065000Y24110000D01*
X59690000Y19050000D02*
X59690000Y24210000D01*
X44450000Y13970000D02*
X44450000Y15240000D01*
X57150000Y19050000D02*
X59690000Y19050000D01*
X59690000Y18210000D02*
X59690000Y19050000D01*
X44450000Y13970000D02*
X46990000Y13970000D01*
M02*
