solid OpenSCAD_Model
  facet normal 0.980867 0.19468 0
    outer loop
      vertex 1.85081 0.75 5
      vertex 1.84776 0.765367 0
      vertex 1.84776 0.765367 5
    endloop
  endfacet
  facet normal 0.980867 0.19468 0
    outer loop
      vertex 1.84776 0.765367 0
      vertex 1.85081 0.75 5
      vertex 1.85081 0.75 0
    endloop
  endfacet
  facet normal -0.980867 0.19468 0
    outer loop
      vertex -1.85081 0.75 0
      vertex -1.84776 0.765367 5
      vertex -1.84776 0.765367 0
    endloop
  endfacet
  facet normal -0.980867 0.19468 0
    outer loop
      vertex -1.84776 0.765367 5
      vertex -1.85081 0.75 0
      vertex -1.85081 0.75 5
    endloop
  endfacet
  facet normal 0.195089 0.980786 -0
    outer loop
      vertex 0.765367 1.84776 0
      vertex 0 2 5
      vertex 0.765367 1.84776 5
    endloop
  endfacet
  facet normal 0.195089 0.980786 0
    outer loop
      vertex 0 2 5
      vertex 0.765367 1.84776 0
      vertex 0 2 0
    endloop
  endfacet
  facet normal 0.831465 0.555576 0
    outer loop
      vertex 1.84776 0.765367 5
      vertex 1.41421 1.41421 0
      vertex 1.41421 1.41421 5
    endloop
  endfacet
  facet normal 0.831465 0.555576 0
    outer loop
      vertex 1.41421 1.41421 0
      vertex 1.84776 0.765367 5
      vertex 1.84776 0.765367 0
    endloop
  endfacet
  facet normal 0.195089 -0.980786 0
    outer loop
      vertex 0 -2 0
      vertex 0.765367 -1.84776 5
      vertex 0 -2 5
    endloop
  endfacet
  facet normal 0.195089 -0.980786 0
    outer loop
      vertex 0.765367 -1.84776 5
      vertex 0 -2 0
      vertex 0.765367 -1.84776 0
    endloop
  endfacet
  facet normal -0.195089 -0.980786 0
    outer loop
      vertex -0.765367 -1.84776 0
      vertex 0 -2 5
      vertex -0.765367 -1.84776 5
    endloop
  endfacet
  facet normal -0.195089 -0.980786 -0
    outer loop
      vertex 0 -2 5
      vertex -0.765367 -1.84776 0
      vertex 0 -2 0
    endloop
  endfacet
  facet normal 0.555576 0.831465 -0
    outer loop
      vertex 1.41421 1.41421 0
      vertex 0.765367 1.84776 5
      vertex 1.41421 1.41421 5
    endloop
  endfacet
  facet normal 0.555576 0.831465 0
    outer loop
      vertex 0.765367 1.84776 5
      vertex 1.41421 1.41421 0
      vertex 0.765367 1.84776 0
    endloop
  endfacet
  facet normal -0.195089 0.980786 0
    outer loop
      vertex 0 2 0
      vertex -0.765367 1.84776 5
      vertex 0 2 5
    endloop
  endfacet
  facet normal -0.195089 0.980786 0
    outer loop
      vertex -0.765367 1.84776 5
      vertex 0 2 0
      vertex -0.765367 1.84776 0
    endloop
  endfacet
  facet normal -0.555576 0.831465 0
    outer loop
      vertex -0.765367 1.84776 0
      vertex -1.41421 1.41421 5
      vertex -0.765367 1.84776 5
    endloop
  endfacet
  facet normal -0.555576 0.831465 0
    outer loop
      vertex -1.41421 1.41421 5
      vertex -0.765367 1.84776 0
      vertex -1.41421 1.41421 0
    endloop
  endfacet
  facet normal -0.980867 -0.19468 0
    outer loop
      vertex -1.84776 -0.765367 0
      vertex -1.85081 -0.75 5
      vertex -1.85081 -0.75 0
    endloop
  endfacet
  facet normal -0.980867 -0.19468 0
    outer loop
      vertex -1.85081 -0.75 5
      vertex -1.84776 -0.765367 0
      vertex -1.84776 -0.765367 5
    endloop
  endfacet
  facet normal -0.555576 -0.831465 0
    outer loop
      vertex -1.41421 -1.41421 0
      vertex -0.765367 -1.84776 5
      vertex -1.41421 -1.41421 5
    endloop
  endfacet
  facet normal -0.555576 -0.831465 -0
    outer loop
      vertex -0.765367 -1.84776 5
      vertex -1.41421 -1.41421 0
      vertex -0.765367 -1.84776 0
    endloop
  endfacet
  facet normal 0 0 -1
    outer loop
      vertex 1.85081 -0.75 0
      vertex 4.5 0.75 0
      vertex 4.5 -0.75 0
    endloop
  endfacet
  facet normal 0 0 -1
    outer loop
      vertex 1.85081 -0.75 0
      vertex 1.85081 0.75 0
      vertex 4.5 0.75 0
    endloop
  endfacet
  facet normal 0 0 -1
    outer loop
      vertex 0.554327 -0.229609 0
      vertex 1.85081 -0.75 0
      vertex 1.84776 -0.765367 0
    endloop
  endfacet
  facet normal 0 0 -1
    outer loop
      vertex 1.85081 -0.75 0
      vertex 0.599999 0 0
      vertex 1.85081 0.75 0
    endloop
  endfacet
  facet normal 0 0 -1
    outer loop
      vertex 0.554327 -0.229609 0
      vertex 1.84776 -0.765367 0
      vertex 1.41421 -1.41421 0
    endloop
  endfacet
  facet normal 0 0 -1
    outer loop
      vertex 0.554327 0.229609 0
      vertex 1.85081 0.75 0
      vertex 0.599999 0 0
    endloop
  endfacet
  facet normal 0 0 -1
    outer loop
      vertex 0.424264 -0.424264 0
      vertex 1.41421 -1.41421 0
      vertex 0.765367 -1.84776 0
    endloop
  endfacet
  facet normal -0 0 -1
    outer loop
      vertex 1.85081 0.75 0
      vertex 0.554327 0.229609 0
      vertex 1.84776 0.765367 0
    endloop
  endfacet
  facet normal -0 0 -1
    outer loop
      vertex 1.84776 0.765367 0
      vertex 0.554327 0.229609 0
      vertex 1.41421 1.41421 0
    endloop
  endfacet
  facet normal 0 0 -1
    outer loop
      vertex 1.85081 -0.75 0
      vertex 0.554327 -0.229609 0
      vertex 0.599999 0 0
    endloop
  endfacet
  facet normal 0 0 -1
    outer loop
      vertex 1.41421 -1.41421 0
      vertex 0.424264 -0.424264 0
      vertex 0.554327 -0.229609 0
    endloop
  endfacet
  facet normal 0 0 -1
    outer loop
      vertex 0.765367 -1.84776 0
      vertex 0.229609 -0.554327 0
      vertex 0.424264 -0.424264 0
    endloop
  endfacet
  facet normal 0 0 -1
    outer loop
      vertex 0 -2 0
      vertex 0.229609 -0.554327 0
      vertex 0.765367 -1.84776 0
    endloop
  endfacet
  facet normal 0 0 -1
    outer loop
      vertex 0 -2 0
      vertex 0 -0.599999 0
      vertex 0.229609 -0.554327 0
    endloop
  endfacet
  facet normal 0 0 -1
    outer loop
      vertex 0 -2 0
      vertex -0.229609 -0.554327 0
      vertex 0 -0.599999 0
    endloop
  endfacet
  facet normal 0 0 -1
    outer loop
      vertex -0.765367 -1.84776 0
      vertex -0.229609 -0.554327 0
      vertex 0 -2 0
    endloop
  endfacet
  facet normal -0 0 -1
    outer loop
      vertex -0.229609 -0.554327 0
      vertex -0.765367 -1.84776 0
      vertex -0.424264 -0.424264 0
    endloop
  endfacet
  facet normal -0 0 -1
    outer loop
      vertex -0.424264 -0.424264 0
      vertex -1.41421 -1.41421 0
      vertex -0.554327 -0.229609 0
    endloop
  endfacet
  facet normal 0 0 -1
    outer loop
      vertex -1.41421 -1.41421 0
      vertex -0.424264 -0.424264 0
      vertex -0.765367 -1.84776 0
    endloop
  endfacet
  facet normal 0 0 -1
    outer loop
      vertex 0.424264 0.424264 0
      vertex 1.41421 1.41421 0
      vertex 0.554327 0.229609 0
    endloop
  endfacet
  facet normal -0 0 -1
    outer loop
      vertex 1.41421 1.41421 0
      vertex 0.424264 0.424264 0
      vertex 0.765367 1.84776 0
    endloop
  endfacet
  facet normal 0 0 -1
    outer loop
      vertex 0.229609 0.554327 0
      vertex 0.765367 1.84776 0
      vertex 0.424264 0.424264 0
    endloop
  endfacet
  facet normal 0 0 -1
    outer loop
      vertex 0 0.599999 0
      vertex 0.765367 1.84776 0
      vertex 0.229609 0.554327 0
    endloop
  endfacet
  facet normal 0 0 -1
    outer loop
      vertex 0 0.599999 0
      vertex 0 2 0
      vertex 0.765367 1.84776 0
    endloop
  endfacet
  facet normal 0 0 -1
    outer loop
      vertex -0.229609 0.554327 0
      vertex 0 2 0
      vertex 0 0.599999 0
    endloop
  endfacet
  facet normal 0 0 -1
    outer loop
      vertex -0.765367 1.84776 0
      vertex -0.229609 0.554327 0
      vertex -0.424264 0.424264 0
    endloop
  endfacet
  facet normal 0 0 -1
    outer loop
      vertex -1.41421 1.41421 0
      vertex -0.424264 0.424264 0
      vertex -0.554327 0.229609 0
    endloop
  endfacet
  facet normal 0 0 -1
    outer loop
      vertex -0.229609 0.554327 0
      vertex -0.765367 1.84776 0
      vertex 0 2 0
    endloop
  endfacet
  facet normal 0 0 -1
    outer loop
      vertex -1.85081 0.75 0
      vertex -0.554327 0.229609 0
      vertex -0.599999 0 0
    endloop
  endfacet
  facet normal 0 0 -1
    outer loop
      vertex -1.84776 -0.765367 0
      vertex -0.554327 -0.229609 0
      vertex -1.41421 -1.41421 0
    endloop
  endfacet
  facet normal 0 0 -1
    outer loop
      vertex -1.85081 -0.75 0
      vertex -0.554327 -0.229609 0
      vertex -1.84776 -0.765367 0
    endloop
  endfacet
  facet normal 0 0 -1
    outer loop
      vertex -0.424264 0.424264 0
      vertex -1.41421 1.41421 0
      vertex -0.765367 1.84776 0
    endloop
  endfacet
  facet normal -0 0 -1
    outer loop
      vertex -0.554327 -0.229609 0
      vertex -1.85081 -0.75 0
      vertex -0.599999 0 0
    endloop
  endfacet
  facet normal 0 0 -1
    outer loop
      vertex -1.85081 0.75 0
      vertex -0.599999 0 0
      vertex -1.85081 -0.75 0
    endloop
  endfacet
  facet normal 0 0 -1
    outer loop
      vertex -0.554327 0.229609 0
      vertex -1.85081 0.75 0
      vertex -1.84776 0.765367 0
    endloop
  endfacet
  facet normal 0 0 -1
    outer loop
      vertex -0.554327 0.229609 0
      vertex -1.84776 0.765367 0
      vertex -1.41421 1.41421 0
    endloop
  endfacet
  facet normal 0 0 -1
    outer loop
      vertex -4.5 -0.75 0
      vertex -1.85081 0.75 0
      vertex -1.85081 -0.75 0
    endloop
  endfacet
  facet normal -0 0 -1
    outer loop
      vertex -1.85081 0.75 0
      vertex -4.5 -0.75 0
      vertex -4.5 0.75 0
    endloop
  endfacet
  facet normal -0.831465 -0.555576 0
    outer loop
      vertex -1.41421 -1.41421 0
      vertex -1.84776 -0.765367 5
      vertex -1.84776 -0.765367 0
    endloop
  endfacet
  facet normal -0.831465 -0.555576 0
    outer loop
      vertex -1.84776 -0.765367 5
      vertex -1.41421 -1.41421 0
      vertex -1.41421 -1.41421 5
    endloop
  endfacet
  facet normal -0 0 1
    outer loop
      vertex 1.85081 0.75 5
      vertex 4.5 -0.75 5
      vertex 4.5 0.75 5
    endloop
  endfacet
  facet normal 0 0 1
    outer loop
      vertex 1.85081 0.75 5
      vertex 1.85081 -0.75 5
      vertex 4.5 -0.75 5
    endloop
  endfacet
  facet normal 0 0 1
    outer loop
      vertex 1.41421 1.41421 5
      vertex 1.85081 0.75 5
      vertex 1.84776 0.765367 5
    endloop
  endfacet
  facet normal 0 0 1
    outer loop
      vertex 1.85081 0.75 5
      vertex 1.41421 1.41421 5
      vertex 1.85081 -0.75 5
    endloop
  endfacet
  facet normal 0 0 1
    outer loop
      vertex 1.41421 -1.41421 5
      vertex 1.85081 -0.75 5
      vertex 1.41421 1.41421 5
    endloop
  endfacet
  facet normal 0 0 1
    outer loop
      vertex 1.85081 -0.75 5
      vertex 1.41421 -1.41421 5
      vertex 1.84776 -0.765367 5
    endloop
  endfacet
  facet normal 0 0 1
    outer loop
      vertex 0.765367 1.84776 5
      vertex 1.41421 -1.41421 5
      vertex 1.41421 1.41421 5
    endloop
  endfacet
  facet normal 0 0 1
    outer loop
      vertex 0.765367 1.84776 5
      vertex 0.765367 -1.84776 5
      vertex 1.41421 -1.41421 5
    endloop
  endfacet
  facet normal 0 0 1
    outer loop
      vertex 0 2 5
      vertex 0.765367 -1.84776 5
      vertex 0.765367 1.84776 5
    endloop
  endfacet
  facet normal 0 0 1
    outer loop
      vertex 0 2 5
      vertex 0 -2 5
      vertex 0.765367 -1.84776 5
    endloop
  endfacet
  facet normal -0 0 1
    outer loop
      vertex -0.765367 1.84776 5
      vertex 0 -2 5
      vertex 0 2 5
    endloop
  endfacet
  facet normal 0 0 1
    outer loop
      vertex -0.765367 1.84776 5
      vertex -0.765367 -1.84776 5
      vertex 0 -2 5
    endloop
  endfacet
  facet normal -0 0 1
    outer loop
      vertex -1.41421 1.41421 5
      vertex -0.765367 -1.84776 5
      vertex -0.765367 1.84776 5
    endloop
  endfacet
  facet normal 0 0 1
    outer loop
      vertex -1.41421 1.41421 5
      vertex -1.41421 -1.41421 5
      vertex -0.765367 -1.84776 5
    endloop
  endfacet
  facet normal 0 0 1
    outer loop
      vertex -1.85081 0.75 5
      vertex -1.41421 1.41421 5
      vertex -1.84776 0.765367 5
    endloop
  endfacet
  facet normal 0 0 1
    outer loop
      vertex -1.41421 1.41421 5
      vertex -1.85081 0.75 5
      vertex -1.41421 -1.41421 5
    endloop
  endfacet
  facet normal -0 0 1
    outer loop
      vertex -1.85081 -0.75 5
      vertex -1.41421 -1.41421 5
      vertex -1.85081 0.75 5
    endloop
  endfacet
  facet normal 0 0 1
    outer loop
      vertex -1.41421 -1.41421 5
      vertex -1.85081 -0.75 5
      vertex -1.84776 -0.765367 5
    endloop
  endfacet
  facet normal -0 0 1
    outer loop
      vertex -4.5 0.75 5
      vertex -1.85081 -0.75 5
      vertex -1.85081 0.75 5
    endloop
  endfacet
  facet normal 0 0 1
    outer loop
      vertex -1.85081 -0.75 5
      vertex -4.5 0.75 5
      vertex -4.5 -0.75 5
    endloop
  endfacet
  facet normal -0.831465 0.555576 0
    outer loop
      vertex -1.84776 0.765367 0
      vertex -1.41421 1.41421 5
      vertex -1.41421 1.41421 0
    endloop
  endfacet
  facet normal -0.831465 0.555576 0
    outer loop
      vertex -1.41421 1.41421 5
      vertex -1.84776 0.765367 0
      vertex -1.84776 0.765367 5
    endloop
  endfacet
  facet normal 0.831465 -0.555576 0
    outer loop
      vertex 1.41421 -1.41421 5
      vertex 1.84776 -0.765367 0
      vertex 1.84776 -0.765367 5
    endloop
  endfacet
  facet normal 0.831465 -0.555576 0
    outer loop
      vertex 1.84776 -0.765367 0
      vertex 1.41421 -1.41421 5
      vertex 1.41421 -1.41421 0
    endloop
  endfacet
  facet normal 0.555576 -0.831465 0
    outer loop
      vertex 0.765367 -1.84776 0
      vertex 1.41421 -1.41421 5
      vertex 0.765367 -1.84776 5
    endloop
  endfacet
  facet normal 0.555576 -0.831465 0
    outer loop
      vertex 1.41421 -1.41421 5
      vertex 0.765367 -1.84776 0
      vertex 1.41421 -1.41421 0
    endloop
  endfacet
  facet normal 0.980867 -0.19468 0
    outer loop
      vertex 1.84776 -0.765367 5
      vertex 1.85081 -0.75 0
      vertex 1.85081 -0.75 5
    endloop
  endfacet
  facet normal 0.980867 -0.19468 0
    outer loop
      vertex 1.85081 -0.75 0
      vertex 1.84776 -0.765367 5
      vertex 1.84776 -0.765367 0
    endloop
  endfacet
  facet normal -1 0 0
    outer loop
      vertex -4.5 -0.75 0
      vertex -4.5 0.75 5
      vertex -4.5 0.75 0
    endloop
  endfacet
  facet normal -1 -0 0
    outer loop
      vertex -4.5 0.75 5
      vertex -4.5 -0.75 0
      vertex -4.5 -0.75 5
    endloop
  endfacet
  facet normal 1 -0 0
    outer loop
      vertex 4.5 -0.75 5
      vertex 4.5 0.75 0
      vertex 4.5 0.75 5
    endloop
  endfacet
  facet normal 1 0 0
    outer loop
      vertex 4.5 0.75 0
      vertex 4.5 -0.75 5
      vertex 4.5 -0.75 0
    endloop
  endfacet
  facet normal 0 1 0
    outer loop
      vertex 4.5 0.75 5
      vertex 3.5 0.75 4.25
      vertex 1.85081 0.75 5
    endloop
  endfacet
  facet normal 0 1 0
    outer loop
      vertex 4.5 0.75 5
      vertex 3.5 0.75 0.75
      vertex 3.5 0.75 4.25
    endloop
  endfacet
  facet normal 0 1 0
    outer loop
      vertex 1.85081 0.75 0
      vertex 3.5 0.75 0.75
      vertex 4.5 0.75 0
    endloop
  endfacet
  facet normal 0 1 -0
    outer loop
      vertex 4.5 0.75 0
      vertex 3.5 0.75 0.75
      vertex 4.5 0.75 5
    endloop
  endfacet
  facet normal 0 1 -0
    outer loop
      vertex 2 0.75 4.25
      vertex 1.85081 0.75 5
      vertex 3.5 0.75 4.25
    endloop
  endfacet
  facet normal 0 1 -0
    outer loop
      vertex 2 0.75 0.75
      vertex 1.85081 0.75 5
      vertex 2 0.75 4.25
    endloop
  endfacet
  facet normal 0 1 0
    outer loop
      vertex 2 0.75 0.75
      vertex 1.85081 0.75 0
      vertex 1.85081 0.75 5
    endloop
  endfacet
  facet normal 0 1 0
    outer loop
      vertex 3.5 0.75 0.75
      vertex 1.85081 0.75 0
      vertex 2 0.75 0.75
    endloop
  endfacet
  facet normal 0 1 0
    outer loop
      vertex -3.5 0.75 4.25
      vertex -1.85081 0.75 5
      vertex -2 0.75 4.25
    endloop
  endfacet
  facet normal 0 1 0
    outer loop
      vertex -1.85081 0.75 5
      vertex -2 0.75 0.75
      vertex -2 0.75 4.25
    endloop
  endfacet
  facet normal 0 1 0
    outer loop
      vertex -2 0.75 0.75
      vertex -1.85081 0.75 0
      vertex -3.5 0.75 0.75
    endloop
  endfacet
  facet normal 0 1 -0
    outer loop
      vertex -1.85081 0.75 0
      vertex -2 0.75 0.75
      vertex -1.85081 0.75 5
    endloop
  endfacet
  facet normal 0 1 0
    outer loop
      vertex -1.85081 0.75 5
      vertex -3.5 0.75 4.25
      vertex -4.5 0.75 5
    endloop
  endfacet
  facet normal 0 1 -0
    outer loop
      vertex -3.5 0.75 0.75
      vertex -4.5 0.75 5
      vertex -3.5 0.75 4.25
    endloop
  endfacet
  facet normal 0 1 0
    outer loop
      vertex -3.5 0.75 0.75
      vertex -4.5 0.75 0
      vertex -4.5 0.75 5
    endloop
  endfacet
  facet normal 0 1 0
    outer loop
      vertex -4.5 0.75 0
      vertex -3.5 0.75 0.75
      vertex -1.85081 0.75 0
    endloop
  endfacet
  facet normal 0 -1 0
    outer loop
      vertex 3.5 -0.75 4.25
      vertex 1.85081 -0.75 5
      vertex 2 -0.75 4.25
    endloop
  endfacet
  facet normal 0 -1 0
    outer loop
      vertex 1.85081 -0.75 5
      vertex 2 -0.75 0.75
      vertex 2 -0.75 4.25
    endloop
  endfacet
  facet normal 0 -1 -0
    outer loop
      vertex 2 -0.75 0.75
      vertex 1.85081 -0.75 0
      vertex 3.5 -0.75 0.75
    endloop
  endfacet
  facet normal 0 -1 0
    outer loop
      vertex 1.85081 -0.75 0
      vertex 2 -0.75 0.75
      vertex 1.85081 -0.75 5
    endloop
  endfacet
  facet normal 0 -1 0
    outer loop
      vertex 1.85081 -0.75 5
      vertex 3.5 -0.75 4.25
      vertex 4.5 -0.75 5
    endloop
  endfacet
  facet normal 0 -1 0
    outer loop
      vertex 3.5 -0.75 0.75
      vertex 4.5 -0.75 5
      vertex 3.5 -0.75 4.25
    endloop
  endfacet
  facet normal 0 -1 0
    outer loop
      vertex 3.5 -0.75 0.75
      vertex 4.5 -0.75 0
      vertex 4.5 -0.75 5
    endloop
  endfacet
  facet normal 0 -1 0
    outer loop
      vertex 4.5 -0.75 0
      vertex 3.5 -0.75 0.75
      vertex 1.85081 -0.75 0
    endloop
  endfacet
  facet normal 0 -1 0
    outer loop
      vertex -4.5 -0.75 5
      vertex -3.5 -0.75 4.25
      vertex -1.85081 -0.75 5
    endloop
  endfacet
  facet normal 0 -1 0
    outer loop
      vertex -4.5 -0.75 5
      vertex -3.5 -0.75 0.75
      vertex -3.5 -0.75 4.25
    endloop
  endfacet
  facet normal 0 -1 0
    outer loop
      vertex -1.85081 -0.75 0
      vertex -3.5 -0.75 0.75
      vertex -4.5 -0.75 0
    endloop
  endfacet
  facet normal 0 -1 0
    outer loop
      vertex -4.5 -0.75 0
      vertex -3.5 -0.75 0.75
      vertex -4.5 -0.75 5
    endloop
  endfacet
  facet normal 0 -1 0
    outer loop
      vertex -2 -0.75 4.25
      vertex -1.85081 -0.75 5
      vertex -3.5 -0.75 4.25
    endloop
  endfacet
  facet normal 0 -1 0
    outer loop
      vertex -2 -0.75 0.75
      vertex -1.85081 -0.75 5
      vertex -2 -0.75 4.25
    endloop
  endfacet
  facet normal 0 -1 0
    outer loop
      vertex -2 -0.75 0.75
      vertex -1.85081 -0.75 0
      vertex -1.85081 -0.75 5
    endloop
  endfacet
  facet normal 0 -1 0
    outer loop
      vertex -3.5 -0.75 0.75
      vertex -1.85081 -0.75 0
      vertex -2 -0.75 0.75
    endloop
  endfacet
  facet normal -0.980785 -0.19509 0
    outer loop
      vertex 0.599999 0 0
      vertex 0.554327 0.229609 4
      vertex 0.554327 0.229609 0
    endloop
  endfacet
  facet normal -0.980785 -0.19509 0
    outer loop
      vertex 0.554327 0.229609 4
      vertex 0.599999 0 0
      vertex 0.599999 0 4
    endloop
  endfacet
  facet normal 0.980785 -0.19509 0
    outer loop
      vertex -0.599999 0 4
      vertex -0.554327 0.229609 0
      vertex -0.554327 0.229609 4
    endloop
  endfacet
  facet normal 0.980785 -0.19509 0
    outer loop
      vertex -0.554327 0.229609 0
      vertex -0.599999 0 4
      vertex -0.599999 0 0
    endloop
  endfacet
  facet normal -0.19509 -0.980785 0
    outer loop
      vertex 0 0.599999 0
      vertex 0.229609 0.554327 4
      vertex 0 0.599999 4
    endloop
  endfacet
  facet normal -0.19509 -0.980785 -0
    outer loop
      vertex 0.229609 0.554327 4
      vertex 0 0.599999 0
      vertex 0.229609 0.554327 0
    endloop
  endfacet
  facet normal -0.831472 -0.555566 0
    outer loop
      vertex 0.554327 0.229609 0
      vertex 0.424264 0.424264 4
      vertex 0.424264 0.424264 0
    endloop
  endfacet
  facet normal -0.831472 -0.555566 0
    outer loop
      vertex 0.424264 0.424264 4
      vertex 0.554327 0.229609 0
      vertex 0.554327 0.229609 4
    endloop
  endfacet
  facet normal -0.19509 0.980785 0
    outer loop
      vertex 0.229609 -0.554327 0
      vertex 0 -0.599999 4
      vertex 0.229609 -0.554327 4
    endloop
  endfacet
  facet normal -0.19509 0.980785 0
    outer loop
      vertex 0 -0.599999 4
      vertex 0.229609 -0.554327 0
      vertex 0 -0.599999 0
    endloop
  endfacet
  facet normal 0.19509 0.980785 -0
    outer loop
      vertex 0 -0.599999 0
      vertex -0.229609 -0.554327 4
      vertex 0 -0.599999 4
    endloop
  endfacet
  facet normal 0.19509 0.980785 0
    outer loop
      vertex -0.229609 -0.554327 4
      vertex 0 -0.599999 0
      vertex -0.229609 -0.554327 0
    endloop
  endfacet
  facet normal 0.19509 -0.980785 0
    outer loop
      vertex -0.229609 0.554327 0
      vertex 0 0.599999 4
      vertex -0.229609 0.554327 4
    endloop
  endfacet
  facet normal 0.19509 -0.980785 0
    outer loop
      vertex 0 0.599999 4
      vertex -0.229609 0.554327 0
      vertex 0 0.599999 0
    endloop
  endfacet
  facet normal 0.831472 -0.555566 0
    outer loop
      vertex -0.554327 0.229609 4
      vertex -0.424264 0.424264 0
      vertex -0.424264 0.424264 4
    endloop
  endfacet
  facet normal 0.831472 -0.555566 0
    outer loop
      vertex -0.424264 0.424264 0
      vertex -0.554327 0.229609 4
      vertex -0.554327 0.229609 0
    endloop
  endfacet
  facet normal 0.555566 -0.831472 0
    outer loop
      vertex -0.424264 0.424264 0
      vertex -0.229609 0.554327 4
      vertex -0.424264 0.424264 4
    endloop
  endfacet
  facet normal 0.555566 -0.831472 0
    outer loop
      vertex -0.229609 0.554327 4
      vertex -0.424264 0.424264 0
      vertex -0.229609 0.554327 0
    endloop
  endfacet
  facet normal 0.980785 0.19509 0
    outer loop
      vertex -0.554327 -0.229609 4
      vertex -0.599999 0 0
      vertex -0.599999 0 4
    endloop
  endfacet
  facet normal 0.980785 0.19509 0
    outer loop
      vertex -0.599999 0 0
      vertex -0.554327 -0.229609 4
      vertex -0.554327 -0.229609 0
    endloop
  endfacet
  facet normal 0.555566 0.831472 -0
    outer loop
      vertex -0.229609 -0.554327 0
      vertex -0.424264 -0.424264 4
      vertex -0.229609 -0.554327 4
    endloop
  endfacet
  facet normal 0.555566 0.831472 0
    outer loop
      vertex -0.424264 -0.424264 4
      vertex -0.229609 -0.554327 0
      vertex -0.424264 -0.424264 0
    endloop
  endfacet
  facet normal 0.831472 0.555566 0
    outer loop
      vertex -0.424264 -0.424264 4
      vertex -0.554327 -0.229609 0
      vertex -0.554327 -0.229609 4
    endloop
  endfacet
  facet normal 0.831472 0.555566 0
    outer loop
      vertex -0.554327 -0.229609 0
      vertex -0.424264 -0.424264 4
      vertex -0.424264 -0.424264 0
    endloop
  endfacet
  facet normal -0.555566 -0.831472 0
    outer loop
      vertex 0.229609 0.554327 0
      vertex 0.424264 0.424264 4
      vertex 0.229609 0.554327 4
    endloop
  endfacet
  facet normal -0.555566 -0.831472 -0
    outer loop
      vertex 0.424264 0.424264 4
      vertex 0.229609 0.554327 0
      vertex 0.424264 0.424264 0
    endloop
  endfacet
  facet normal 0 0 -1
    outer loop
      vertex 0.554327 -0.229609 4
      vertex 0.554327 0.229609 4
      vertex 0.599999 0 4
    endloop
  endfacet
  facet normal 0 0 -1
    outer loop
      vertex 0.424264 -0.424264 4
      vertex 0.554327 0.229609 4
      vertex 0.554327 -0.229609 4
    endloop
  endfacet
  facet normal 0 0 -1
    outer loop
      vertex 0.424264 -0.424264 4
      vertex 0.424264 0.424264 4
      vertex 0.554327 0.229609 4
    endloop
  endfacet
  facet normal 0 0 -1
    outer loop
      vertex 0.229609 -0.554327 4
      vertex 0.424264 0.424264 4
      vertex 0.424264 -0.424264 4
    endloop
  endfacet
  facet normal 0 0 -1
    outer loop
      vertex 0.229609 -0.554327 4
      vertex 0.229609 0.554327 4
      vertex 0.424264 0.424264 4
    endloop
  endfacet
  facet normal 0 0 -1
    outer loop
      vertex 0 -0.599999 4
      vertex 0.229609 0.554327 4
      vertex 0.229609 -0.554327 4
    endloop
  endfacet
  facet normal 0 0 -1
    outer loop
      vertex 0 -0.599999 4
      vertex 0 0.599999 4
      vertex 0.229609 0.554327 4
    endloop
  endfacet
  facet normal 0 0 -1
    outer loop
      vertex -0.229609 -0.554327 4
      vertex 0 0.599999 4
      vertex 0 -0.599999 4
    endloop
  endfacet
  facet normal 0 0 -1
    outer loop
      vertex -0.229609 -0.554327 4
      vertex -0.229609 0.554327 4
      vertex 0 0.599999 4
    endloop
  endfacet
  facet normal 0 0 -1
    outer loop
      vertex -0.424264 -0.424264 4
      vertex -0.229609 0.554327 4
      vertex -0.229609 -0.554327 4
    endloop
  endfacet
  facet normal 0 0 -1
    outer loop
      vertex -0.424264 -0.424264 4
      vertex -0.424264 0.424264 4
      vertex -0.229609 0.554327 4
    endloop
  endfacet
  facet normal 0 0 -1
    outer loop
      vertex -0.554327 -0.229609 4
      vertex -0.424264 0.424264 4
      vertex -0.424264 -0.424264 4
    endloop
  endfacet
  facet normal 0 0 -1
    outer loop
      vertex -0.554327 -0.229609 4
      vertex -0.554327 0.229609 4
      vertex -0.424264 0.424264 4
    endloop
  endfacet
  facet normal 0 -0 -1
    outer loop
      vertex -0.554327 0.229609 4
      vertex -0.554327 -0.229609 4
      vertex -0.599999 0 4
    endloop
  endfacet
  facet normal -0.831472 0.555566 0
    outer loop
      vertex 0.424264 -0.424264 0
      vertex 0.554327 -0.229609 4
      vertex 0.554327 -0.229609 0
    endloop
  endfacet
  facet normal -0.831472 0.555566 0
    outer loop
      vertex 0.554327 -0.229609 4
      vertex 0.424264 -0.424264 0
      vertex 0.424264 -0.424264 4
    endloop
  endfacet
  facet normal -0.555566 0.831472 0
    outer loop
      vertex 0.424264 -0.424264 0
      vertex 0.229609 -0.554327 4
      vertex 0.424264 -0.424264 4
    endloop
  endfacet
  facet normal -0.555566 0.831472 0
    outer loop
      vertex 0.229609 -0.554327 4
      vertex 0.424264 -0.424264 0
      vertex 0.229609 -0.554327 0
    endloop
  endfacet
  facet normal -0.980785 0.19509 0
    outer loop
      vertex 0.554327 -0.229609 0
      vertex 0.599999 0 4
      vertex 0.599999 0 0
    endloop
  endfacet
  facet normal -0.980785 0.19509 0
    outer loop
      vertex 0.599999 0 4
      vertex 0.554327 -0.229609 0
      vertex 0.554327 -0.229609 4
    endloop
  endfacet
  facet normal 1 -0 0
    outer loop
      vertex 2 -0.75 4.25
      vertex 2 0.75 0.75
      vertex 2 0.75 4.25
    endloop
  endfacet
  facet normal 1 0 0
    outer loop
      vertex 2 0.75 0.75
      vertex 2 -0.75 4.25
      vertex 2 -0.75 0.75
    endloop
  endfacet
  facet normal 0 0 -1
    outer loop
      vertex 2 -0.75 4.25
      vertex 3.5 0.75 4.25
      vertex 3.5 -0.75 4.25
    endloop
  endfacet
  facet normal -0 0 -1
    outer loop
      vertex 3.5 0.75 4.25
      vertex 2 -0.75 4.25
      vertex 2 0.75 4.25
    endloop
  endfacet
  facet normal -1 0 0
    outer loop
      vertex 3.5 -0.75 0.75
      vertex 3.5 0.75 4.25
      vertex 3.5 0.75 0.75
    endloop
  endfacet
  facet normal -1 -0 0
    outer loop
      vertex 3.5 0.75 4.25
      vertex 3.5 -0.75 0.75
      vertex 3.5 -0.75 4.25
    endloop
  endfacet
  facet normal -0 0 1
    outer loop
      vertex 2 0.75 0.75
      vertex 3.5 -0.75 0.75
      vertex 3.5 0.75 0.75
    endloop
  endfacet
  facet normal 0 0 1
    outer loop
      vertex 3.5 -0.75 0.75
      vertex 2 0.75 0.75
      vertex 2 -0.75 0.75
    endloop
  endfacet
  facet normal 1 -0 0
    outer loop
      vertex -3.5 -0.75 4.25
      vertex -3.5 0.75 0.75
      vertex -3.5 0.75 4.25
    endloop
  endfacet
  facet normal 1 0 0
    outer loop
      vertex -3.5 0.75 0.75
      vertex -3.5 -0.75 4.25
      vertex -3.5 -0.75 0.75
    endloop
  endfacet
  facet normal 0 0 -1
    outer loop
      vertex -3.5 -0.75 4.25
      vertex -2 0.75 4.25
      vertex -2 -0.75 4.25
    endloop
  endfacet
  facet normal -0 0 -1
    outer loop
      vertex -2 0.75 4.25
      vertex -3.5 -0.75 4.25
      vertex -3.5 0.75 4.25
    endloop
  endfacet
  facet normal -1 0 0
    outer loop
      vertex -2 -0.75 0.75
      vertex -2 0.75 4.25
      vertex -2 0.75 0.75
    endloop
  endfacet
  facet normal -1 -0 0
    outer loop
      vertex -2 0.75 4.25
      vertex -2 -0.75 0.75
      vertex -2 -0.75 4.25
    endloop
  endfacet
  facet normal -0 0 1
    outer loop
      vertex -3.5 0.75 0.75
      vertex -2 -0.75 0.75
      vertex -2 0.75 0.75
    endloop
  endfacet
  facet normal 0 0 1
    outer loop
      vertex -2 -0.75 0.75
      vertex -3.5 0.75 0.75
      vertex -3.5 -0.75 0.75
    endloop
  endfacet
endsolid OpenSCAD_Model
