solid OpenSCAD_Model
  facet normal -0.95689 -0.290451 0
    outer loop
      vertex -13.2716 -11.648 200
      vertex -13.4424 -11.0853 220
      vertex -13.4424 -11.0853 200
    endloop
  endfacet
  facet normal -0.95689 -0.290451 0
    outer loop
      vertex -13.4424 -11.0853 220
      vertex -13.2716 -11.648 200
      vertex -13.2716 -11.648 220
    endloop
  endfacet
  facet normal -0.995193 -0.097938 0
    outer loop
      vertex -13.4424 -11.0853 200
      vertex -13.5 -10.5 220
      vertex -13.5 -10.5 200
    endloop
  endfacet
  facet normal -0.995193 -0.097938 0
    outer loop
      vertex -13.5 -10.5 220
      vertex -13.4424 -11.0853 200
      vertex -13.4424 -11.0853 220
    endloop
  endfacet
  facet normal -0.881957 -0.471329 0
    outer loop
      vertex -12.9944 -12.1667 200
      vertex -13.2716 -11.648 220
      vertex -13.2716 -11.648 200
    endloop
  endfacet
  facet normal -0.881957 -0.471329 0
    outer loop
      vertex -13.2716 -11.648 220
      vertex -12.9944 -12.1667 200
      vertex -12.9944 -12.1667 220
    endloop
  endfacet
  facet normal -0.772994 -0.634413 0
    outer loop
      vertex -12.6213 -12.6213 200
      vertex -12.9944 -12.1667 220
      vertex -12.9944 -12.1667 200
    endloop
  endfacet
  facet normal -0.772994 -0.634413 0
    outer loop
      vertex -12.9944 -12.1667 220
      vertex -12.6213 -12.6213 200
      vertex -12.6213 -12.6213 220
    endloop
  endfacet
  facet normal 0 -1 0
    outer loop
      vertex -10.5 -13.5 220
      vertex 0 -13.5 212.65
      vertex 10.5 -13.5 220
    endloop
  endfacet
  facet normal 0 -1 0
    outer loop
      vertex -10.5 -13.5 220
      vertex -0.516989 -13.5 212.599
      vertex 0 -13.5 212.65
    endloop
  endfacet
  facet normal 0 -1 0
    outer loop
      vertex -10.5 -13.5 220
      vertex -1.01411 -13.5 212.448
      vertex -0.516989 -13.5 212.599
    endloop
  endfacet
  facet normal 0 -1 0
    outer loop
      vertex -10.5 -13.5 220
      vertex -1.47226 -13.5 212.203
      vertex -1.01411 -13.5 212.448
    endloop
  endfacet
  facet normal 0 -1 0
    outer loop
      vertex -10.5 -13.5 220
      vertex -1.87383 -13.5 211.874
      vertex -1.47226 -13.5 212.203
    endloop
  endfacet
  facet normal 0 -1 0
    outer loop
      vertex -10.5 -13.5 220
      vertex -2.20339 -13.5 211.472
      vertex -1.87383 -13.5 211.874
    endloop
  endfacet
  facet normal 0 -1 0
    outer loop
      vertex -10.5 -13.5 220
      vertex -2.44828 -13.5 211.014
      vertex -2.20339 -13.5 211.472
    endloop
  endfacet
  facet normal 0 -1 0
    outer loop
      vertex -10.5 -13.5 220
      vertex -2.59908 -13.5 210.517
      vertex -2.44828 -13.5 211.014
    endloop
  endfacet
  facet normal 0 -1 0
    outer loop
      vertex -10.5 -13.5 220
      vertex -2.65 -13.5 210
      vertex -2.59908 -13.5 210.517
    endloop
  endfacet
  facet normal 0 -1 0
    outer loop
      vertex -10.5 -13.5 200
      vertex -2.65 -13.5 210
      vertex -10.5 -13.5 220
    endloop
  endfacet
  facet normal 0 -1 -0
    outer loop
      vertex -2.65 -13.5 210
      vertex -10.5 -13.5 200
      vertex -2.59908 -13.5 209.483
    endloop
  endfacet
  facet normal 0 -1 -0
    outer loop
      vertex -2.59908 -13.5 209.483
      vertex -10.5 -13.5 200
      vertex -2.44828 -13.5 208.986
    endloop
  endfacet
  facet normal 0 -1 -0
    outer loop
      vertex -0.516989 -13.5 207.401
      vertex -10.5 -13.5 200
      vertex 0 -13.5 207.35
    endloop
  endfacet
  facet normal 0 -1 -0
    outer loop
      vertex -1.01411 -13.5 207.552
      vertex -10.5 -13.5 200
      vertex -0.516989 -13.5 207.401
    endloop
  endfacet
  facet normal 0 -1 -0
    outer loop
      vertex -1.47226 -13.5 207.797
      vertex -10.5 -13.5 200
      vertex -1.01411 -13.5 207.552
    endloop
  endfacet
  facet normal 0 -1 -0
    outer loop
      vertex -1.87383 -13.5 208.126
      vertex -10.5 -13.5 200
      vertex -1.47226 -13.5 207.797
    endloop
  endfacet
  facet normal 0 -1 -0
    outer loop
      vertex -2.20339 -13.5 208.528
      vertex -10.5 -13.5 200
      vertex -1.87383 -13.5 208.126
    endloop
  endfacet
  facet normal 0 -1 -0
    outer loop
      vertex -2.44828 -13.5 208.986
      vertex -10.5 -13.5 200
      vertex -2.20339 -13.5 208.528
    endloop
  endfacet
  facet normal 0 -1 0
    outer loop
      vertex 0.516989 -13.5 212.599
      vertex 10.5 -13.5 220
      vertex 0 -13.5 212.65
    endloop
  endfacet
  facet normal 0 -1 0
    outer loop
      vertex 1.01411 -13.5 212.448
      vertex 10.5 -13.5 220
      vertex 0.516989 -13.5 212.599
    endloop
  endfacet
  facet normal 0 -1 0
    outer loop
      vertex 1.47226 -13.5 212.203
      vertex 10.5 -13.5 220
      vertex 1.01411 -13.5 212.448
    endloop
  endfacet
  facet normal 0 -1 0
    outer loop
      vertex 1.87383 -13.5 211.874
      vertex 10.5 -13.5 220
      vertex 1.47226 -13.5 212.203
    endloop
  endfacet
  facet normal 0 -1 0
    outer loop
      vertex 2.20339 -13.5 211.472
      vertex 10.5 -13.5 220
      vertex 1.87383 -13.5 211.874
    endloop
  endfacet
  facet normal 0 -1 0
    outer loop
      vertex 2.44828 -13.5 211.014
      vertex 10.5 -13.5 220
      vertex 2.20339 -13.5 211.472
    endloop
  endfacet
  facet normal 0 -1 0
    outer loop
      vertex 2.59908 -13.5 210.517
      vertex 10.5 -13.5 220
      vertex 2.44828 -13.5 211.014
    endloop
  endfacet
  facet normal 0 -1 0
    outer loop
      vertex 2.65 -13.5 210
      vertex 10.5 -13.5 220
      vertex 2.59908 -13.5 210.517
    endloop
  endfacet
  facet normal 0 -1 0
    outer loop
      vertex 10.5 -13.5 200
      vertex 2.65 -13.5 210
      vertex 2.59908 -13.5 209.483
    endloop
  endfacet
  facet normal 0 -1 0
    outer loop
      vertex 10.5 -13.5 200
      vertex 2.59908 -13.5 209.483
      vertex 2.44828 -13.5 208.986
    endloop
  endfacet
  facet normal 0 -1 0
    outer loop
      vertex 10.5 -13.5 200
      vertex 2.44828 -13.5 208.986
      vertex 2.20339 -13.5 208.528
    endloop
  endfacet
  facet normal 0 -1 0
    outer loop
      vertex 10.5 -13.5 200
      vertex 0 -13.5 207.35
      vertex -10.5 -13.5 200
    endloop
  endfacet
  facet normal 0 -1 0
    outer loop
      vertex 0 -13.5 207.35
      vertex 10.5 -13.5 200
      vertex 0.516989 -13.5 207.401
    endloop
  endfacet
  facet normal 0 -1 0
    outer loop
      vertex 0.516989 -13.5 207.401
      vertex 10.5 -13.5 200
      vertex 1.01411 -13.5 207.552
    endloop
  endfacet
  facet normal 0 -1 0
    outer loop
      vertex 2.65 -13.5 210
      vertex 10.5 -13.5 200
      vertex 10.5 -13.5 220
    endloop
  endfacet
  facet normal 0 -1 0
    outer loop
      vertex 1.87383 -13.5 208.126
      vertex 10.5 -13.5 200
      vertex 2.20339 -13.5 208.528
    endloop
  endfacet
  facet normal 0 -1 0
    outer loop
      vertex 1.47226 -13.5 207.797
      vertex 10.5 -13.5 200
      vertex 1.87383 -13.5 208.126
    endloop
  endfacet
  facet normal 0 -1 0
    outer loop
      vertex 1.01411 -13.5 207.552
      vertex 10.5 -13.5 200
      vertex 1.47226 -13.5 207.797
    endloop
  endfacet
  facet normal 0 0 1
    outer loop
      vertex 10.0924 10.0383 220
      vertex 13.5 10.5 220
      vertex 13.4424 11.0853 220
    endloop
  endfacet
  facet normal 0 0 1
    outer loop
      vertex 13.5 10.5 220
      vertex 10.1 10 220
      vertex 13.5 -10.5 220
    endloop
  endfacet
  facet normal 0 0 1
    outer loop
      vertex 10.0924 10.0383 220
      vertex 13.4424 11.0853 220
      vertex 13.2716 11.648 220
    endloop
  endfacet
  facet normal -0 0 1
    outer loop
      vertex 10.1 -10 220
      vertex 13.5 -10.5 220
      vertex 10.1 10 220
    endloop
  endfacet
  facet normal 0 0 1
    outer loop
      vertex 10.0831 10.0556 220
      vertex 13.2716 11.648 220
      vertex 12.9944 12.1667 220
    endloop
  endfacet
  facet normal -0 0 1
    outer loop
      vertex 10.0981 -10.0195 220
      vertex 13.5 -10.5 220
      vertex 10.1 -10 220
    endloop
  endfacet
  facet normal 0 0 1
    outer loop
      vertex 10.0707 10.0707 220
      vertex 12.9944 12.1667 220
      vertex 12.6213 12.6213 220
    endloop
  endfacet
  facet normal -0 0 1
    outer loop
      vertex 10.0924 -10.0383 220
      vertex 13.5 -10.5 220
      vertex 10.0981 -10.0195 220
    endloop
  endfacet
  facet normal 0 0 1
    outer loop
      vertex 10.0707 10.0707 220
      vertex 12.6213 12.6213 220
      vertex 12.1667 12.9944 220
    endloop
  endfacet
  facet normal 0 0 1
    outer loop
      vertex 13.5 -10.5 220
      vertex 10.0924 -10.0383 220
      vertex 13.4424 -11.0853 220
    endloop
  endfacet
  facet normal 0 0 1
    outer loop
      vertex 10.0556 10.0831 220
      vertex 12.1667 12.9944 220
      vertex 11.648 13.2716 220
    endloop
  endfacet
  facet normal 0 0 1
    outer loop
      vertex 13.4424 -11.0853 220
      vertex 10.0924 -10.0383 220
      vertex 13.2716 -11.648 220
    endloop
  endfacet
  facet normal 0 0 1
    outer loop
      vertex 10.0383 10.0924 220
      vertex 11.648 13.2716 220
      vertex 11.0853 13.4424 220
    endloop
  endfacet
  facet normal -0 0 1
    outer loop
      vertex 10.0831 -10.0556 220
      vertex 13.2716 -11.648 220
      vertex 10.0924 -10.0383 220
    endloop
  endfacet
  facet normal 0 0 1
    outer loop
      vertex 10.0383 10.0924 220
      vertex 11.0853 13.4424 220
      vertex 10.5 13.5 220
    endloop
  endfacet
  facet normal 0 0 1
    outer loop
      vertex 13.2716 -11.648 220
      vertex 10.0831 -10.0556 220
      vertex 12.9944 -12.1667 220
    endloop
  endfacet
  facet normal -0 0 1
    outer loop
      vertex 10.0707 -10.0707 220
      vertex 12.9944 -12.1667 220
      vertex 10.0831 -10.0556 220
    endloop
  endfacet
  facet normal 0 0 1
    outer loop
      vertex 13.5 10.5 220
      vertex 10.0981 10.0195 220
      vertex 10.1 10 220
    endloop
  endfacet
  facet normal 0 0 1
    outer loop
      vertex 13.5 10.5 220
      vertex 10.0924 10.0383 220
      vertex 10.0981 10.0195 220
    endloop
  endfacet
  facet normal 0 0 1
    outer loop
      vertex 13.2716 11.648 220
      vertex 10.0831 10.0556 220
      vertex 10.0924 10.0383 220
    endloop
  endfacet
  facet normal 0 0 1
    outer loop
      vertex 12.9944 12.1667 220
      vertex 10.0707 10.0707 220
      vertex 10.0831 10.0556 220
    endloop
  endfacet
  facet normal 0 0 1
    outer loop
      vertex 12.1667 12.9944 220
      vertex 10.0556 10.0831 220
      vertex 10.0707 10.0707 220
    endloop
  endfacet
  facet normal 0 0 1
    outer loop
      vertex 11.648 13.2716 220
      vertex 10.0383 10.0924 220
      vertex 10.0556 10.0831 220
    endloop
  endfacet
  facet normal 0 0 1
    outer loop
      vertex 10.5 13.5 220
      vertex 10.0195 10.0981 220
      vertex 10.0383 10.0924 220
    endloop
  endfacet
  facet normal 0 0 1
    outer loop
      vertex 10.5 13.5 220
      vertex 10 10.1 220
      vertex 10.0195 10.0981 220
    endloop
  endfacet
  facet normal 0 0 1
    outer loop
      vertex 10.5 13.5 220
      vertex -10 10.1 220
      vertex 10 10.1 220
    endloop
  endfacet
  facet normal -0 0 1
    outer loop
      vertex -29.5 13.5 220
      vertex -10 10.1 220
      vertex 10.5 13.5 220
    endloop
  endfacet
  facet normal -0 0 1
    outer loop
      vertex -13.5 10 220
      vertex -10.1 -10 220
      vertex -10.1 10 220
    endloop
  endfacet
  facet normal 0 -0 1
    outer loop
      vertex -13.4424 -11.0853 220
      vertex -10.1 -10 220
      vertex -13.5 -10.5 220
    endloop
  endfacet
  facet normal 0 0 1
    outer loop
      vertex -10.1 -10 220
      vertex -11.0853 -13.4424 220
      vertex -10.5 -13.5 220
    endloop
  endfacet
  facet normal 0 0 1
    outer loop
      vertex -10.1 -10 220
      vertex -11.648 -13.2716 220
      vertex -11.0853 -13.4424 220
    endloop
  endfacet
  facet normal 0 0 1
    outer loop
      vertex -10.1 -10 220
      vertex -12.1667 -12.9944 220
      vertex -11.648 -13.2716 220
    endloop
  endfacet
  facet normal 0 0 1
    outer loop
      vertex -13.5 10 220
      vertex -10.1 10 220
      vertex -10.0981 10.0195 220
    endloop
  endfacet
  facet normal 0 0 1
    outer loop
      vertex -10.1 -10 220
      vertex -12.6213 -12.6213 220
      vertex -12.1667 -12.9944 220
    endloop
  endfacet
  facet normal 0 0 1
    outer loop
      vertex -10.1 -10 220
      vertex -12.9944 -12.1667 220
      vertex -12.6213 -12.6213 220
    endloop
  endfacet
  facet normal 0 0 1
    outer loop
      vertex -10.1 -10 220
      vertex -13.2716 -11.648 220
      vertex -12.9944 -12.1667 220
    endloop
  endfacet
  facet normal 0 0 1
    outer loop
      vertex -10.1 -10 220
      vertex -13.5 10 220
      vertex -13.5 -10.5 220
    endloop
  endfacet
  facet normal 0 0 1
    outer loop
      vertex -10.0924 10.0383 220
      vertex -13.5 10 220
      vertex -10.0981 10.0195 220
    endloop
  endfacet
  facet normal 0 0 1
    outer loop
      vertex -10.0831 10.0556 220
      vertex -13.5 10 220
      vertex -10.0924 10.0383 220
    endloop
  endfacet
  facet normal 0 0 1
    outer loop
      vertex -10.0707 10.0707 220
      vertex -13.5 10 220
      vertex -10.0831 10.0556 220
    endloop
  endfacet
  facet normal 0 0 1
    outer loop
      vertex -10.0556 10.0831 220
      vertex -13.5 10 220
      vertex -10.0707 10.0707 220
    endloop
  endfacet
  facet normal 0 0 1
    outer loop
      vertex -10.0383 10.0924 220
      vertex -13.5 10 220
      vertex -10.0556 10.0831 220
    endloop
  endfacet
  facet normal 0 0 1
    outer loop
      vertex -10.0195 10.0981 220
      vertex -13.5 10 220
      vertex -10.0383 10.0924 220
    endloop
  endfacet
  facet normal 0 -0 1
    outer loop
      vertex -13.5 10 220
      vertex -10 10.1 220
      vertex -29.5 13.5 220
    endloop
  endfacet
  facet normal 0 0 1
    outer loop
      vertex -10 10.1 220
      vertex -13.5 10 220
      vertex -10.0195 10.0981 220
    endloop
  endfacet
  facet normal 0 0 1
    outer loop
      vertex -29.5 13.5 220
      vertex -29.5 10 220
      vertex -13.5 10 220
    endloop
  endfacet
  facet normal 0 0 1
    outer loop
      vertex -31 12 220
      vertex -29.5 13.5 220
      vertex -29.7926 13.4712 220
    endloop
  endfacet
  facet normal 0 0 1
    outer loop
      vertex -29.5 13.5 220
      vertex -31 12 220
      vertex -29.5 10 220
    endloop
  endfacet
  facet normal 0 0 1
    outer loop
      vertex -31 12 220
      vertex -29.7926 13.4712 220
      vertex -30.074 13.3858 220
    endloop
  endfacet
  facet normal -0 0 1
    outer loop
      vertex -31 11.5 220
      vertex -29.5 10 220
      vertex -31 12 220
    endloop
  endfacet
  facet normal 0 0 1
    outer loop
      vertex -31 12 220
      vertex -30.074 13.3858 220
      vertex -30.3334 13.2472 220
    endloop
  endfacet
  facet normal 0 0 1
    outer loop
      vertex -29.5 10 220
      vertex -31 11.5 220
      vertex -29.7926 10.0288 220
    endloop
  endfacet
  facet normal 0 0 1
    outer loop
      vertex -31 12 220
      vertex -30.3334 13.2472 220
      vertex -30.5607 13.0607 220
    endloop
  endfacet
  facet normal 0 0 1
    outer loop
      vertex -29.7926 10.0288 220
      vertex -31 11.5 220
      vertex -30.074 10.1142 220
    endloop
  endfacet
  facet normal 0 0 1
    outer loop
      vertex -31 12 220
      vertex -30.5607 13.0607 220
      vertex -30.7472 12.8334 220
    endloop
  endfacet
  facet normal 0 0 1
    outer loop
      vertex -30.074 10.1142 220
      vertex -31 11.5 220
      vertex -30.3334 10.2528 220
    endloop
  endfacet
  facet normal 0 0 1
    outer loop
      vertex -31 12 220
      vertex -30.7472 12.8334 220
      vertex -30.8858 12.574 220
    endloop
  endfacet
  facet normal 0 0 1
    outer loop
      vertex -30.3334 10.2528 220
      vertex -31 11.5 220
      vertex -30.5607 10.4393 220
    endloop
  endfacet
  facet normal 0 0 1
    outer loop
      vertex -31 12 220
      vertex -30.8858 12.574 220
      vertex -30.9712 12.2926 220
    endloop
  endfacet
  facet normal 0 0 1
    outer loop
      vertex -30.5607 10.4393 220
      vertex -31 11.5 220
      vertex -30.7472 10.6666 220
    endloop
  endfacet
  facet normal 0 0 1
    outer loop
      vertex -30.7472 10.6666 220
      vertex -31 11.5 220
      vertex -30.8858 10.926 220
    endloop
  endfacet
  facet normal 0 0 1
    outer loop
      vertex -30.8858 10.926 220
      vertex -31 11.5 220
      vertex -30.9712 11.2074 220
    endloop
  endfacet
  facet normal 0 0 1
    outer loop
      vertex 12.9944 -12.1667 220
      vertex 10.0707 -10.0707 220
      vertex 12.6213 -12.6213 220
    endloop
  endfacet
  facet normal 0 0 1
    outer loop
      vertex 12.6213 -12.6213 220
      vertex 10.0707 -10.0707 220
      vertex 12.1667 -12.9944 220
    endloop
  endfacet
  facet normal -0 0 1
    outer loop
      vertex 10.0556 -10.0831 220
      vertex 12.1667 -12.9944 220
      vertex 10.0707 -10.0707 220
    endloop
  endfacet
  facet normal 0 0 1
    outer loop
      vertex 12.1667 -12.9944 220
      vertex 10.0556 -10.0831 220
      vertex 11.648 -13.2716 220
    endloop
  endfacet
  facet normal -0 0 1
    outer loop
      vertex 10.0383 -10.0924 220
      vertex 11.648 -13.2716 220
      vertex 10.0556 -10.0831 220
    endloop
  endfacet
  facet normal 0 0 1
    outer loop
      vertex 11.648 -13.2716 220
      vertex 10.0383 -10.0924 220
      vertex 11.0853 -13.4424 220
    endloop
  endfacet
  facet normal 0 0 1
    outer loop
      vertex 11.0853 -13.4424 220
      vertex 10.0383 -10.0924 220
      vertex 10.5 -13.5 220
    endloop
  endfacet
  facet normal -0 0 1
    outer loop
      vertex 10.0195 -10.0981 220
      vertex 10.5 -13.5 220
      vertex 10.0383 -10.0924 220
    endloop
  endfacet
  facet normal -0 0 1
    outer loop
      vertex 10 -10.1 220
      vertex 10.5 -13.5 220
      vertex 10.0195 -10.0981 220
    endloop
  endfacet
  facet normal -0 0 1
    outer loop
      vertex -10 -10.1 220
      vertex 10.5 -13.5 220
      vertex 10 -10.1 220
    endloop
  endfacet
  facet normal 0 0 1
    outer loop
      vertex -10.5 -13.5 220
      vertex -10 -10.1 220
      vertex -10.0195 -10.0981 220
    endloop
  endfacet
  facet normal 0 0 1
    outer loop
      vertex -10 -10.1 220
      vertex -10.5 -13.5 220
      vertex 10.5 -13.5 220
    endloop
  endfacet
  facet normal 0 0 1
    outer loop
      vertex -10.0383 -10.0924 220
      vertex -10.5 -13.5 220
      vertex -10.0195 -10.0981 220
    endloop
  endfacet
  facet normal 0 0 1
    outer loop
      vertex -10.0556 -10.0831 220
      vertex -10.5 -13.5 220
      vertex -10.0383 -10.0924 220
    endloop
  endfacet
  facet normal 0 0 1
    outer loop
      vertex -10.0707 -10.0707 220
      vertex -10.5 -13.5 220
      vertex -10.0556 -10.0831 220
    endloop
  endfacet
  facet normal 0 0 1
    outer loop
      vertex -10.0831 -10.0556 220
      vertex -10.5 -13.5 220
      vertex -10.0707 -10.0707 220
    endloop
  endfacet
  facet normal 0 0 1
    outer loop
      vertex -10.0924 -10.0383 220
      vertex -10.5 -13.5 220
      vertex -10.0831 -10.0556 220
    endloop
  endfacet
  facet normal 0 0 1
    outer loop
      vertex -10.0981 -10.0195 220
      vertex -10.5 -13.5 220
      vertex -10.0924 -10.0383 220
    endloop
  endfacet
  facet normal 0 0 1
    outer loop
      vertex -10.5 -13.5 220
      vertex -10.0981 -10.0195 220
      vertex -10.1 -10 220
    endloop
  endfacet
  facet normal 0 0 1
    outer loop
      vertex -10.1 -10 220
      vertex -13.4424 -11.0853 220
      vertex -13.2716 -11.648 220
    endloop
  endfacet
  facet normal 1 -0 0
    outer loop
      vertex 13.5 -10.5 220
      vertex 13.5 10.5 200
      vertex 13.5 10.5 220
    endloop
  endfacet
  facet normal 1 0 0
    outer loop
      vertex 13.5 10.5 200
      vertex 13.5 -10.5 220
      vertex 13.5 -10.5 200
    endloop
  endfacet
  facet normal -1 0 0
    outer loop
      vertex -13.5 -10.5 200
      vertex -13.5 10 220
      vertex -13.5 10 200
    endloop
  endfacet
  facet normal -1 -0 0
    outer loop
      vertex -13.5 10 220
      vertex -13.5 -10.5 200
      vertex -13.5 -10.5 220
    endloop
  endfacet
  facet normal 0 0 -1
    outer loop
      vertex 10.0924 -10.0383 200
      vertex 13.5 -10.5 200
      vertex 13.4424 -11.0853 200
    endloop
  endfacet
  facet normal 0 0 -1
    outer loop
      vertex 13.5 -10.5 200
      vertex 10.1 -10 200
      vertex 13.5 10.5 200
    endloop
  endfacet
  facet normal 0 0 -1
    outer loop
      vertex 10.0924 -10.0383 200
      vertex 13.4424 -11.0853 200
      vertex 13.2716 -11.648 200
    endloop
  endfacet
  facet normal 0 0 -1
    outer loop
      vertex 10.1 10 200
      vertex 13.5 10.5 200
      vertex 10.1 -10 200
    endloop
  endfacet
  facet normal 0 0 -1
    outer loop
      vertex 10.0831 -10.0556 200
      vertex 13.2716 -11.648 200
      vertex 12.9944 -12.1667 200
    endloop
  endfacet
  facet normal 0 0 -1
    outer loop
      vertex 10.0981 10.0195 200
      vertex 13.5 10.5 200
      vertex 10.1 10 200
    endloop
  endfacet
  facet normal 0 0 -1
    outer loop
      vertex 10.0707 -10.0707 200
      vertex 12.9944 -12.1667 200
      vertex 12.6213 -12.6213 200
    endloop
  endfacet
  facet normal 0 0 -1
    outer loop
      vertex 10.0924 10.0383 200
      vertex 13.5 10.5 200
      vertex 10.0981 10.0195 200
    endloop
  endfacet
  facet normal 0 0 -1
    outer loop
      vertex 10.0707 -10.0707 200
      vertex 12.6213 -12.6213 200
      vertex 12.1667 -12.9944 200
    endloop
  endfacet
  facet normal -0 0 -1
    outer loop
      vertex 13.5 10.5 200
      vertex 10.0924 10.0383 200
      vertex 13.4424 11.0853 200
    endloop
  endfacet
  facet normal 0 0 -1
    outer loop
      vertex 10.0556 -10.0831 200
      vertex 12.1667 -12.9944 200
      vertex 11.648 -13.2716 200
    endloop
  endfacet
  facet normal -0 0 -1
    outer loop
      vertex 13.4424 11.0853 200
      vertex 10.0924 10.0383 200
      vertex 13.2716 11.648 200
    endloop
  endfacet
  facet normal 0 0 -1
    outer loop
      vertex 10.0383 -10.0924 200
      vertex 11.648 -13.2716 200
      vertex 11.0853 -13.4424 200
    endloop
  endfacet
  facet normal 0 0 -1
    outer loop
      vertex 10.0831 10.0556 200
      vertex 13.2716 11.648 200
      vertex 10.0924 10.0383 200
    endloop
  endfacet
  facet normal 0 0 -1
    outer loop
      vertex 10.0383 -10.0924 200
      vertex 11.0853 -13.4424 200
      vertex 10.5 -13.5 200
    endloop
  endfacet
  facet normal -0 0 -1
    outer loop
      vertex 13.2716 11.648 200
      vertex 10.0831 10.0556 200
      vertex 12.9944 12.1667 200
    endloop
  endfacet
  facet normal 0 0 -1
    outer loop
      vertex 10.0707 10.0707 200
      vertex 12.9944 12.1667 200
      vertex 10.0831 10.0556 200
    endloop
  endfacet
  facet normal 0 0 -1
    outer loop
      vertex 13.5 -10.5 200
      vertex 10.0981 -10.0195 200
      vertex 10.1 -10 200
    endloop
  endfacet
  facet normal 0 0 -1
    outer loop
      vertex 13.5 -10.5 200
      vertex 10.0924 -10.0383 200
      vertex 10.0981 -10.0195 200
    endloop
  endfacet
  facet normal 0 0 -1
    outer loop
      vertex 13.2716 -11.648 200
      vertex 10.0831 -10.0556 200
      vertex 10.0924 -10.0383 200
    endloop
  endfacet
  facet normal 0 0 -1
    outer loop
      vertex 12.9944 -12.1667 200
      vertex 10.0707 -10.0707 200
      vertex 10.0831 -10.0556 200
    endloop
  endfacet
  facet normal 0 0 -1
    outer loop
      vertex 12.1667 -12.9944 200
      vertex 10.0556 -10.0831 200
      vertex 10.0707 -10.0707 200
    endloop
  endfacet
  facet normal 0 0 -1
    outer loop
      vertex 11.648 -13.2716 200
      vertex 10.0383 -10.0924 200
      vertex 10.0556 -10.0831 200
    endloop
  endfacet
  facet normal 0 0 -1
    outer loop
      vertex 10.5 -13.5 200
      vertex 10.0195 -10.0981 200
      vertex 10.0383 -10.0924 200
    endloop
  endfacet
  facet normal 0 0 -1
    outer loop
      vertex 10.5 -13.5 200
      vertex 10 -10.1 200
      vertex 10.0195 -10.0981 200
    endloop
  endfacet
  facet normal 0 0 -1
    outer loop
      vertex 10.5 -13.5 200
      vertex -10 -10.1 200
      vertex 10 -10.1 200
    endloop
  endfacet
  facet normal 0 0 -1
    outer loop
      vertex -10.5 -13.5 200
      vertex -10 -10.1 200
      vertex 10.5 -13.5 200
    endloop
  endfacet
  facet normal 0 0 -1
    outer loop
      vertex -12.9944 -12.1667 200
      vertex -10.0707 -10.0707 200
      vertex -12.6213 -12.6213 200
    endloop
  endfacet
  facet normal 0 0 -1
    outer loop
      vertex -12.6213 -12.6213 200
      vertex -10.0707 -10.0707 200
      vertex -12.1667 -12.9944 200
    endloop
  endfacet
  facet normal -0 0 -1
    outer loop
      vertex -10.0556 -10.0831 200
      vertex -12.1667 -12.9944 200
      vertex -10.0707 -10.0707 200
    endloop
  endfacet
  facet normal 0 0 -1
    outer loop
      vertex -12.1667 -12.9944 200
      vertex -10.0556 -10.0831 200
      vertex -11.648 -13.2716 200
    endloop
  endfacet
  facet normal -0 0 -1
    outer loop
      vertex -10.0383 -10.0924 200
      vertex -11.648 -13.2716 200
      vertex -10.0556 -10.0831 200
    endloop
  endfacet
  facet normal 0 0 -1
    outer loop
      vertex -11.648 -13.2716 200
      vertex -10.0383 -10.0924 200
      vertex -11.0853 -13.4424 200
    endloop
  endfacet
  facet normal 0 0 -1
    outer loop
      vertex -11.0853 -13.4424 200
      vertex -10.0383 -10.0924 200
      vertex -10.5 -13.5 200
    endloop
  endfacet
  facet normal -0 0 -1
    outer loop
      vertex -10.0195 -10.0981 200
      vertex -10.5 -13.5 200
      vertex -10.0383 -10.0924 200
    endloop
  endfacet
  facet normal -0 0 -1
    outer loop
      vertex -10 -10.1 200
      vertex -10.5 -13.5 200
      vertex -10.0195 -10.0981 200
    endloop
  endfacet
  facet normal -0 0 -1
    outer loop
      vertex 12.9944 12.1667 200
      vertex 10.0707 10.0707 200
      vertex 12.6213 12.6213 200
    endloop
  endfacet
  facet normal -0 0 -1
    outer loop
      vertex 12.6213 12.6213 200
      vertex 10.0707 10.0707 200
      vertex 12.1667 12.9944 200
    endloop
  endfacet
  facet normal 0 0 -1
    outer loop
      vertex 10.0556 10.0831 200
      vertex 12.1667 12.9944 200
      vertex 10.0707 10.0707 200
    endloop
  endfacet
  facet normal -0 0 -1
    outer loop
      vertex 12.1667 12.9944 200
      vertex 10.0556 10.0831 200
      vertex 11.648 13.2716 200
    endloop
  endfacet
  facet normal 0 0 -1
    outer loop
      vertex 10.0383 10.0924 200
      vertex 11.648 13.2716 200
      vertex 10.0556 10.0831 200
    endloop
  endfacet
  facet normal -0 0 -1
    outer loop
      vertex 11.648 13.2716 200
      vertex 10.0383 10.0924 200
      vertex 11.0853 13.4424 200
    endloop
  endfacet
  facet normal -0 0 -1
    outer loop
      vertex 11.0853 13.4424 200
      vertex 10.0383 10.0924 200
      vertex 10.5 13.5 200
    endloop
  endfacet
  facet normal 0 0 -1
    outer loop
      vertex 10.0195 10.0981 200
      vertex 10.5 13.5 200
      vertex 10.0383 10.0924 200
    endloop
  endfacet
  facet normal 0 0 -1
    outer loop
      vertex 10 10.1 200
      vertex 10.5 13.5 200
      vertex 10.0195 10.0981 200
    endloop
  endfacet
  facet normal 0 0 -1
    outer loop
      vertex -10 10.1 200
      vertex 10.5 13.5 200
      vertex 10 10.1 200
    endloop
  endfacet
  facet normal 0 0 -1
    outer loop
      vertex -13.5 10 200
      vertex -10 10.1 200
      vertex -10.0195 10.0981 200
    endloop
  endfacet
  facet normal -0 0 -1
    outer loop
      vertex -10.0707 -10.0707 200
      vertex -12.9944 -12.1667 200
      vertex -10.0831 -10.0556 200
    endloop
  endfacet
  facet normal 0 0 -1
    outer loop
      vertex -13.2716 -11.648 200
      vertex -10.0831 -10.0556 200
      vertex -12.9944 -12.1667 200
    endloop
  endfacet
  facet normal -0 0 -1
    outer loop
      vertex -10.0831 -10.0556 200
      vertex -13.2716 -11.648 200
      vertex -10.0924 -10.0383 200
    endloop
  endfacet
  facet normal 0 0 -1
    outer loop
      vertex -13.4424 -11.0853 200
      vertex -10.0924 -10.0383 200
      vertex -13.2716 -11.648 200
    endloop
  endfacet
  facet normal 0 0 -1
    outer loop
      vertex -13.5 10 200
      vertex -10.1 -10 200
      vertex -13.5 -10.5 200
    endloop
  endfacet
  facet normal 0 0 -1
    outer loop
      vertex -13.5 -10.5 200
      vertex -10.0924 -10.0383 200
      vertex -13.4424 -11.0853 200
    endloop
  endfacet
  facet normal -0 0 -1
    outer loop
      vertex -10.0924 -10.0383 200
      vertex -13.5 -10.5 200
      vertex -10.0981 -10.0195 200
    endloop
  endfacet
  facet normal -0 0 -1
    outer loop
      vertex -10.0981 -10.0195 200
      vertex -13.5 -10.5 200
      vertex -10.1 -10 200
    endloop
  endfacet
  facet normal 0 0 -1
    outer loop
      vertex -10.1 -10 200
      vertex -13.5 10 200
      vertex -10.1 10 200
    endloop
  endfacet
  facet normal 0 0 -1
    outer loop
      vertex -10.1 10 200
      vertex -13.5 10 200
      vertex -10.0981 10.0195 200
    endloop
  endfacet
  facet normal 0 0 -1
    outer loop
      vertex -13.5 10 200
      vertex -10.0924 10.0383 200
      vertex -10.0981 10.0195 200
    endloop
  endfacet
  facet normal 0 0 -1
    outer loop
      vertex -13.5 10 200
      vertex -10.0831 10.0556 200
      vertex -10.0924 10.0383 200
    endloop
  endfacet
  facet normal 0 0 -1
    outer loop
      vertex -13.5 10 200
      vertex -10.0707 10.0707 200
      vertex -10.0831 10.0556 200
    endloop
  endfacet
  facet normal 0 0 -1
    outer loop
      vertex -13.5 10 200
      vertex -10.0556 10.0831 200
      vertex -10.0707 10.0707 200
    endloop
  endfacet
  facet normal 0 0 -1
    outer loop
      vertex -13.5 10 200
      vertex -10.0383 10.0924 200
      vertex -10.0556 10.0831 200
    endloop
  endfacet
  facet normal 0 0 -1
    outer loop
      vertex -13.5 10 200
      vertex -10.0195 10.0981 200
      vertex -10.0383 10.0924 200
    endloop
  endfacet
  facet normal -0 0 -1
    outer loop
      vertex -10 10.1 200
      vertex -13.5 10 200
      vertex -29.5 13.5 200
    endloop
  endfacet
  facet normal 0 0 -1
    outer loop
      vertex -29.5 13.5 200
      vertex -13.5 10 200
      vertex -29.5 10 200
    endloop
  endfacet
  facet normal 0 0 -1
    outer loop
      vertex -10 10.1 200
      vertex -29.5 13.5 200
      vertex 10.5 13.5 200
    endloop
  endfacet
  facet normal 0 0 -1
    outer loop
      vertex -31 11.5 200
      vertex -29.5 10 200
      vertex -29.7926 10.0288 200
    endloop
  endfacet
  facet normal 0 0 -1
    outer loop
      vertex -29.5 10 200
      vertex -31 11.5 200
      vertex -29.5 13.5 200
    endloop
  endfacet
  facet normal 0 0 -1
    outer loop
      vertex -31 11.5 200
      vertex -29.7926 10.0288 200
      vertex -30.074 10.1142 200
    endloop
  endfacet
  facet normal 0 0 -1
    outer loop
      vertex -31 12 200
      vertex -29.5 13.5 200
      vertex -31 11.5 200
    endloop
  endfacet
  facet normal 0 0 -1
    outer loop
      vertex -31 11.5 200
      vertex -30.074 10.1142 200
      vertex -30.3334 10.2528 200
    endloop
  endfacet
  facet normal 0 0 -1
    outer loop
      vertex -29.5 13.5 200
      vertex -31 12 200
      vertex -29.7926 13.4712 200
    endloop
  endfacet
  facet normal 0 0 -1
    outer loop
      vertex -31 11.5 200
      vertex -30.3334 10.2528 200
      vertex -30.5607 10.4393 200
    endloop
  endfacet
  facet normal 0 0 -1
    outer loop
      vertex -29.7926 13.4712 200
      vertex -31 12 200
      vertex -30.074 13.3858 200
    endloop
  endfacet
  facet normal 0 0 -1
    outer loop
      vertex -31 11.5 200
      vertex -30.5607 10.4393 200
      vertex -30.7472 10.6666 200
    endloop
  endfacet
  facet normal 0 0 -1
    outer loop
      vertex -30.074 13.3858 200
      vertex -31 12 200
      vertex -30.3334 13.2472 200
    endloop
  endfacet
  facet normal 0 0 -1
    outer loop
      vertex -31 11.5 200
      vertex -30.7472 10.6666 200
      vertex -30.8858 10.926 200
    endloop
  endfacet
  facet normal 0 0 -1
    outer loop
      vertex -30.3334 13.2472 200
      vertex -31 12 200
      vertex -30.5607 13.0607 200
    endloop
  endfacet
  facet normal 0 0 -1
    outer loop
      vertex -31 11.5 200
      vertex -30.8858 10.926 200
      vertex -30.9712 11.2074 200
    endloop
  endfacet
  facet normal 0 0 -1
    outer loop
      vertex -30.5607 13.0607 200
      vertex -31 12 200
      vertex -30.7472 12.8334 200
    endloop
  endfacet
  facet normal 0 0 -1
    outer loop
      vertex -30.7472 12.8334 200
      vertex -31 12 200
      vertex -30.8858 12.574 200
    endloop
  endfacet
  facet normal 0 0 -1
    outer loop
      vertex -30.8858 12.574 200
      vertex -31 12 200
      vertex -30.9712 12.2926 200
    endloop
  endfacet
  facet normal 0.097938 0.995193 -0
    outer loop
      vertex 11.0853 13.4424 200
      vertex 10.5 13.5 220
      vertex 11.0853 13.4424 220
    endloop
  endfacet
  facet normal 0.097938 0.995193 0
    outer loop
      vertex 10.5 13.5 220
      vertex 11.0853 13.4424 200
      vertex 10.5 13.5 200
    endloop
  endfacet
  facet normal 0 1 -0
    outer loop
      vertex -20.4323 13.5 214.388
      vertex -29.5 13.5 220
      vertex 10.5 13.5 220
    endloop
  endfacet
  facet normal 0 1 0
    outer loop
      vertex -29.5 13.5 220
      vertex -21.3233 13.5 214.659
      vertex -22.25 13.5 214.75
    endloop
  endfacet
  facet normal 0 1 0
    outer loop
      vertex -29.5 13.5 220
      vertex -20.4323 13.5 214.388
      vertex -21.3233 13.5 214.659
    endloop
  endfacet
  facet normal 0 1 0
    outer loop
      vertex 10.5 13.5 220
      vertex -19.611 13.5 213.949
      vertex -20.4323 13.5 214.388
    endloop
  endfacet
  facet normal 0 1 0
    outer loop
      vertex 10.5 13.5 220
      vertex -18.8912 13.5 213.359
      vertex -19.611 13.5 213.949
    endloop
  endfacet
  facet normal 0 1 0
    outer loop
      vertex 10.5 13.5 220
      vertex -18.3005 13.5 212.639
      vertex -18.8912 13.5 213.359
    endloop
  endfacet
  facet normal 0 1 0
    outer loop
      vertex 10.5 13.5 220
      vertex -17.8616 13.5 211.818
      vertex -18.3005 13.5 212.639
    endloop
  endfacet
  facet normal 0 1 0
    outer loop
      vertex 10.5 13.5 220
      vertex -17.5913 13.5 210.927
      vertex -17.8616 13.5 211.818
    endloop
  endfacet
  facet normal 0 1 0
    outer loop
      vertex 10.5 13.5 220
      vertex -17.5 13.5 210
      vertex -17.5913 13.5 210.927
    endloop
  endfacet
  facet normal 0 1 -0
    outer loop
      vertex 10.5 13.5 200
      vertex -17.5 13.5 210
      vertex 10.5 13.5 220
    endloop
  endfacet
  facet normal 0 1 0
    outer loop
      vertex -17.5 13.5 210
      vertex 10.5 13.5 200
      vertex -17.5913 13.5 209.073
    endloop
  endfacet
  facet normal 0 1 0
    outer loop
      vertex -17.5913 13.5 209.073
      vertex 10.5 13.5 200
      vertex -17.8616 13.5 208.182
    endloop
  endfacet
  facet normal 0 1 0
    outer loop
      vertex -17.8616 13.5 208.182
      vertex 10.5 13.5 200
      vertex -18.3005 13.5 207.361
    endloop
  endfacet
  facet normal 0 1 0
    outer loop
      vertex -18.3005 13.5 207.361
      vertex 10.5 13.5 200
      vertex -18.8912 13.5 206.641
    endloop
  endfacet
  facet normal 0 1 0
    outer loop
      vertex -18.8912 13.5 206.641
      vertex 10.5 13.5 200
      vertex -19.611 13.5 206.051
    endloop
  endfacet
  facet normal 0 1 0
    outer loop
      vertex -20.4323 13.5 205.612
      vertex -29.5 13.5 200
      vertex -21.3233 13.5 205.341
    endloop
  endfacet
  facet normal 0 1 0
    outer loop
      vertex -29.5 13.5 200
      vertex -20.4323 13.5 205.612
      vertex 10.5 13.5 200
    endloop
  endfacet
  facet normal 0 1 0
    outer loop
      vertex -19.611 13.5 206.051
      vertex 10.5 13.5 200
      vertex -20.4323 13.5 205.612
    endloop
  endfacet
  facet normal 0 1 -0
    outer loop
      vertex -23.1767 13.5 214.659
      vertex -29.5 13.5 220
      vertex -22.25 13.5 214.75
    endloop
  endfacet
  facet normal 0 1 -0
    outer loop
      vertex -24.0677 13.5 214.388
      vertex -29.5 13.5 220
      vertex -23.1767 13.5 214.659
    endloop
  endfacet
  facet normal 0 1 -0
    outer loop
      vertex -24.889 13.5 213.949
      vertex -29.5 13.5 220
      vertex -24.0677 13.5 214.388
    endloop
  endfacet
  facet normal 0 1 -0
    outer loop
      vertex -25.6088 13.5 213.359
      vertex -29.5 13.5 220
      vertex -24.889 13.5 213.949
    endloop
  endfacet
  facet normal 0 1 -0
    outer loop
      vertex -26.1995 13.5 212.639
      vertex -29.5 13.5 220
      vertex -25.6088 13.5 213.359
    endloop
  endfacet
  facet normal 0 1 -0
    outer loop
      vertex -26.6384 13.5 211.818
      vertex -29.5 13.5 220
      vertex -26.1995 13.5 212.639
    endloop
  endfacet
  facet normal 0 1 -0
    outer loop
      vertex -26.9087 13.5 210.927
      vertex -29.5 13.5 220
      vertex -26.6384 13.5 211.818
    endloop
  endfacet
  facet normal 0 1 -0
    outer loop
      vertex -27 13.5 210
      vertex -29.5 13.5 220
      vertex -26.9087 13.5 210.927
    endloop
  endfacet
  facet normal 0 1 0
    outer loop
      vertex -29.5 13.5 200
      vertex -27 13.5 210
      vertex -26.9087 13.5 209.073
    endloop
  endfacet
  facet normal 0 1 0
    outer loop
      vertex -21.3233 13.5 205.341
      vertex -29.5 13.5 200
      vertex -22.25 13.5 205.25
    endloop
  endfacet
  facet normal 0 1 0
    outer loop
      vertex -27 13.5 210
      vertex -29.5 13.5 200
      vertex -29.5 13.5 220
    endloop
  endfacet
  facet normal 0 1 0
    outer loop
      vertex -26.6384 13.5 208.182
      vertex -29.5 13.5 200
      vertex -26.9087 13.5 209.073
    endloop
  endfacet
  facet normal 0 1 0
    outer loop
      vertex -26.1995 13.5 207.361
      vertex -29.5 13.5 200
      vertex -26.6384 13.5 208.182
    endloop
  endfacet
  facet normal 0 1 0
    outer loop
      vertex -25.6088 13.5 206.641
      vertex -29.5 13.5 200
      vertex -26.1995 13.5 207.361
    endloop
  endfacet
  facet normal 0 1 0
    outer loop
      vertex -24.889 13.5 206.051
      vertex -29.5 13.5 200
      vertex -25.6088 13.5 206.641
    endloop
  endfacet
  facet normal 0 1 0
    outer loop
      vertex -24.0677 13.5 205.612
      vertex -29.5 13.5 200
      vertex -24.889 13.5 206.051
    endloop
  endfacet
  facet normal 0 1 0
    outer loop
      vertex -23.1767 13.5 205.341
      vertex -29.5 13.5 200
      vertex -24.0677 13.5 205.612
    endloop
  endfacet
  facet normal 0 1 0
    outer loop
      vertex -22.25 13.5 205.25
      vertex -29.5 13.5 200
      vertex -23.1767 13.5 205.341
    endloop
  endfacet
  facet normal 0.995193 0.097938 0
    outer loop
      vertex 13.5 10.5 220
      vertex 13.4424 11.0853 200
      vertex 13.4424 11.0853 220
    endloop
  endfacet
  facet normal 0.995193 0.097938 0
    outer loop
      vertex 13.4424 11.0853 200
      vertex 13.5 10.5 220
      vertex 13.5 10.5 200
    endloop
  endfacet
  facet normal 0.995193 -0.097938 0
    outer loop
      vertex 13.4424 -11.0853 220
      vertex 13.5 -10.5 200
      vertex 13.5 -10.5 220
    endloop
  endfacet
  facet normal 0.995193 -0.097938 0
    outer loop
      vertex 13.5 -10.5 200
      vertex 13.4424 -11.0853 220
      vertex 13.4424 -11.0853 200
    endloop
  endfacet
  facet normal 0.772994 -0.634413 0
    outer loop
      vertex 12.6213 -12.6213 220
      vertex 12.9944 -12.1667 200
      vertex 12.9944 -12.1667 220
    endloop
  endfacet
  facet normal 0.772994 -0.634413 0
    outer loop
      vertex 12.9944 -12.1667 200
      vertex 12.6213 -12.6213 220
      vertex 12.6213 -12.6213 200
    endloop
  endfacet
  facet normal 0.290451 0.95689 -0
    outer loop
      vertex 11.648 13.2716 200
      vertex 11.0853 13.4424 220
      vertex 11.648 13.2716 220
    endloop
  endfacet
  facet normal 0.290451 0.95689 0
    outer loop
      vertex 11.0853 13.4424 220
      vertex 11.648 13.2716 200
      vertex 11.0853 13.4424 200
    endloop
  endfacet
  facet normal 0.634413 0.772994 -0
    outer loop
      vertex 12.6213 12.6213 200
      vertex 12.1667 12.9944 220
      vertex 12.6213 12.6213 220
    endloop
  endfacet
  facet normal 0.634413 0.772994 0
    outer loop
      vertex 12.1667 12.9944 220
      vertex 12.6213 12.6213 200
      vertex 12.1667 12.9944 200
    endloop
  endfacet
  facet normal 0.772994 0.634413 0
    outer loop
      vertex 12.9944 12.1667 220
      vertex 12.6213 12.6213 200
      vertex 12.6213 12.6213 220
    endloop
  endfacet
  facet normal 0.772994 0.634413 0
    outer loop
      vertex 12.6213 12.6213 200
      vertex 12.9944 12.1667 220
      vertex 12.9944 12.1667 200
    endloop
  endfacet
  facet normal 0.881957 0.471329 0
    outer loop
      vertex 13.2716 11.648 220
      vertex 12.9944 12.1667 200
      vertex 12.9944 12.1667 220
    endloop
  endfacet
  facet normal 0.881957 0.471329 0
    outer loop
      vertex 12.9944 12.1667 200
      vertex 13.2716 11.648 220
      vertex 13.2716 11.648 200
    endloop
  endfacet
  facet normal 0.95689 -0.290451 0
    outer loop
      vertex 13.2716 -11.648 220
      vertex 13.4424 -11.0853 200
      vertex 13.4424 -11.0853 220
    endloop
  endfacet
  facet normal 0.95689 -0.290451 0
    outer loop
      vertex 13.4424 -11.0853 200
      vertex 13.2716 -11.648 220
      vertex 13.2716 -11.648 200
    endloop
  endfacet
  facet normal 0.95689 0.290451 0
    outer loop
      vertex 13.4424 11.0853 220
      vertex 13.2716 11.648 200
      vertex 13.2716 11.648 220
    endloop
  endfacet
  facet normal 0.95689 0.290451 0
    outer loop
      vertex 13.2716 11.648 200
      vertex 13.4424 11.0853 220
      vertex 13.4424 11.0853 200
    endloop
  endfacet
  facet normal 0.881957 -0.471329 0
    outer loop
      vertex 12.9944 -12.1667 220
      vertex 13.2716 -11.648 200
      vertex 13.2716 -11.648 220
    endloop
  endfacet
  facet normal 0.881957 -0.471329 0
    outer loop
      vertex 13.2716 -11.648 200
      vertex 12.9944 -12.1667 220
      vertex 12.9944 -12.1667 200
    endloop
  endfacet
  facet normal -0.097938 -0.995193 0
    outer loop
      vertex -11.0853 -13.4424 200
      vertex -10.5 -13.5 220
      vertex -11.0853 -13.4424 220
    endloop
  endfacet
  facet normal -0.097938 -0.995193 -0
    outer loop
      vertex -10.5 -13.5 220
      vertex -11.0853 -13.4424 200
      vertex -10.5 -13.5 200
    endloop
  endfacet
  facet normal 0.471329 0.881957 -0
    outer loop
      vertex 12.1667 12.9944 200
      vertex 11.648 13.2716 220
      vertex 12.1667 12.9944 220
    endloop
  endfacet
  facet normal 0.471329 0.881957 0
    outer loop
      vertex 11.648 13.2716 220
      vertex 12.1667 12.9944 200
      vertex 11.648 13.2716 200
    endloop
  endfacet
  facet normal 0.471329 -0.881957 0
    outer loop
      vertex 11.648 -13.2716 200
      vertex 12.1667 -12.9944 220
      vertex 11.648 -13.2716 220
    endloop
  endfacet
  facet normal 0.471329 -0.881957 0
    outer loop
      vertex 12.1667 -12.9944 220
      vertex 11.648 -13.2716 200
      vertex 12.1667 -12.9944 200
    endloop
  endfacet
  facet normal 0.097938 -0.995193 0
    outer loop
      vertex 10.5 -13.5 200
      vertex 11.0853 -13.4424 220
      vertex 10.5 -13.5 220
    endloop
  endfacet
  facet normal 0.097938 -0.995193 0
    outer loop
      vertex 11.0853 -13.4424 220
      vertex 10.5 -13.5 200
      vertex 11.0853 -13.4424 200
    endloop
  endfacet
  facet normal -0.634413 -0.772994 0
    outer loop
      vertex -12.6213 -12.6213 200
      vertex -12.1667 -12.9944 220
      vertex -12.6213 -12.6213 220
    endloop
  endfacet
  facet normal -0.634413 -0.772994 -0
    outer loop
      vertex -12.1667 -12.9944 220
      vertex -12.6213 -12.6213 200
      vertex -12.1667 -12.9944 200
    endloop
  endfacet
  facet normal 0.290451 -0.95689 0
    outer loop
      vertex 11.0853 -13.4424 200
      vertex 11.648 -13.2716 220
      vertex 11.0853 -13.4424 220
    endloop
  endfacet
  facet normal 0.290451 -0.95689 0
    outer loop
      vertex 11.648 -13.2716 220
      vertex 11.0853 -13.4424 200
      vertex 11.648 -13.2716 200
    endloop
  endfacet
  facet normal 0.634413 -0.772994 0
    outer loop
      vertex 12.1667 -12.9944 200
      vertex 12.6213 -12.6213 220
      vertex 12.1667 -12.9944 220
    endloop
  endfacet
  facet normal 0.634413 -0.772994 0
    outer loop
      vertex 12.6213 -12.6213 220
      vertex 12.1667 -12.9944 200
      vertex 12.6213 -12.6213 200
    endloop
  endfacet
  facet normal -0.471329 -0.881957 0
    outer loop
      vertex -12.1667 -12.9944 200
      vertex -11.648 -13.2716 220
      vertex -12.1667 -12.9944 220
    endloop
  endfacet
  facet normal -0.471329 -0.881957 -0
    outer loop
      vertex -11.648 -13.2716 220
      vertex -12.1667 -12.9944 200
      vertex -11.648 -13.2716 200
    endloop
  endfacet
  facet normal -0.290451 -0.95689 0
    outer loop
      vertex -11.648 -13.2716 200
      vertex -11.0853 -13.4424 220
      vertex -11.648 -13.2716 220
    endloop
  endfacet
  facet normal -0.290451 -0.95689 -0
    outer loop
      vertex -11.0853 -13.4424 220
      vertex -11.648 -13.2716 200
      vertex -11.0853 -13.4424 200
    endloop
  endfacet
  facet normal -0.956904 -0.290404 0
    outer loop
      vertex -30.8858 10.926 200
      vertex -30.9712 11.2074 220
      vertex -30.9712 11.2074 200
    endloop
  endfacet
  facet normal -0.956904 -0.290404 0
    outer loop
      vertex -30.9712 11.2074 220
      vertex -30.8858 10.926 200
      vertex -30.8858 10.926 220
    endloop
  endfacet
  facet normal -0.881995 -0.471259 0
    outer loop
      vertex -30.7472 10.6666 200
      vertex -30.8858 10.926 220
      vertex -30.8858 10.926 200
    endloop
  endfacet
  facet normal -0.881995 -0.471259 0
    outer loop
      vertex -30.8858 10.926 220
      vertex -30.7472 10.6666 200
      vertex -30.7472 10.6666 220
    endloop
  endfacet
  facet normal -0.773078 -0.634311 0
    outer loop
      vertex -30.5607 10.4393 200
      vertex -30.7472 10.6666 220
      vertex -30.7472 10.6666 200
    endloop
  endfacet
  facet normal -0.773078 -0.634311 0
    outer loop
      vertex -30.7472 10.6666 220
      vertex -30.5607 10.4393 200
      vertex -30.5607 10.4393 220
    endloop
  endfacet
  facet normal -0.773078 0.634311 0
    outer loop
      vertex -30.7472 12.8334 200
      vertex -30.5607 13.0607 220
      vertex -30.5607 13.0607 200
    endloop
  endfacet
  facet normal -0.773078 0.634311 0
    outer loop
      vertex -30.5607 13.0607 220
      vertex -30.7472 12.8334 200
      vertex -30.7472 12.8334 220
    endloop
  endfacet
  facet normal -0.995191 0.0979545 0
    outer loop
      vertex -31 12 200
      vertex -30.9712 12.2926 220
      vertex -30.9712 12.2926 200
    endloop
  endfacet
  facet normal -0.995191 0.0979545 0
    outer loop
      vertex -30.9712 12.2926 220
      vertex -31 12 200
      vertex -31 12 220
    endloop
  endfacet
  facet normal 0 -1 0
    outer loop
      vertex -29.5 10 220
      vertex -22.25 10 214.75
      vertex -13.5 10 220
    endloop
  endfacet
  facet normal 0 -1 0
    outer loop
      vertex -29.5 10 220
      vertex -23.1767 10 214.659
      vertex -22.25 10 214.75
    endloop
  endfacet
  facet normal 0 -1 0
    outer loop
      vertex -29.5 10 220
      vertex -24.0677 10 214.388
      vertex -23.1767 10 214.659
    endloop
  endfacet
  facet normal 0 -1 0
    outer loop
      vertex -29.5 10 220
      vertex -24.889 10 213.949
      vertex -24.0677 10 214.388
    endloop
  endfacet
  facet normal 0 -1 0
    outer loop
      vertex -29.5 10 220
      vertex -25.6088 10 213.359
      vertex -24.889 10 213.949
    endloop
  endfacet
  facet normal 0 -1 0
    outer loop
      vertex -29.5 10 220
      vertex -26.1995 10 212.639
      vertex -25.6088 10 213.359
    endloop
  endfacet
  facet normal 0 -1 0
    outer loop
      vertex -29.5 10 220
      vertex -26.6384 10 211.818
      vertex -26.1995 10 212.639
    endloop
  endfacet
  facet normal 0 -1 0
    outer loop
      vertex -29.5 10 220
      vertex -26.9087 10 210.927
      vertex -26.6384 10 211.818
    endloop
  endfacet
  facet normal 0 -1 0
    outer loop
      vertex -29.5 10 220
      vertex -27 10 210
      vertex -26.9087 10 210.927
    endloop
  endfacet
  facet normal 0 -1 0
    outer loop
      vertex -29.5 10 200
      vertex -27 10 210
      vertex -29.5 10 220
    endloop
  endfacet
  facet normal 0 -1 -0
    outer loop
      vertex -23.1767 10 205.341
      vertex -29.5 10 200
      vertex -22.25 10 205.25
    endloop
  endfacet
  facet normal 0 -1 -0
    outer loop
      vertex -24.0677 10 205.612
      vertex -29.5 10 200
      vertex -23.1767 10 205.341
    endloop
  endfacet
  facet normal 0 -1 -0
    outer loop
      vertex -24.889 10 206.051
      vertex -29.5 10 200
      vertex -24.0677 10 205.612
    endloop
  endfacet
  facet normal 0 -1 -0
    outer loop
      vertex -25.6088 10 206.641
      vertex -29.5 10 200
      vertex -24.889 10 206.051
    endloop
  endfacet
  facet normal 0 -1 -0
    outer loop
      vertex -26.1995 10 207.361
      vertex -29.5 10 200
      vertex -25.6088 10 206.641
    endloop
  endfacet
  facet normal 0 -1 -0
    outer loop
      vertex -26.6384 10 208.182
      vertex -29.5 10 200
      vertex -26.1995 10 207.361
    endloop
  endfacet
  facet normal 0 -1 -0
    outer loop
      vertex -26.9087 10 209.073
      vertex -29.5 10 200
      vertex -26.6384 10 208.182
    endloop
  endfacet
  facet normal 0 -1 -0
    outer loop
      vertex -27 10 210
      vertex -29.5 10 200
      vertex -26.9087 10 209.073
    endloop
  endfacet
  facet normal 0 -1 0
    outer loop
      vertex -21.3233 10 214.659
      vertex -13.5 10 220
      vertex -22.25 10 214.75
    endloop
  endfacet
  facet normal 0 -1 0
    outer loop
      vertex -20.4323 10 214.388
      vertex -13.5 10 220
      vertex -21.3233 10 214.659
    endloop
  endfacet
  facet normal 0 -1 0
    outer loop
      vertex -19.611 10 213.949
      vertex -13.5 10 220
      vertex -20.4323 10 214.388
    endloop
  endfacet
  facet normal 0 -1 0
    outer loop
      vertex -18.8912 10 213.359
      vertex -13.5 10 220
      vertex -19.611 10 213.949
    endloop
  endfacet
  facet normal 0 -1 0
    outer loop
      vertex -18.3005 10 212.639
      vertex -13.5 10 220
      vertex -18.8912 10 213.359
    endloop
  endfacet
  facet normal 0 -1 0
    outer loop
      vertex -17.8616 10 211.818
      vertex -13.5 10 220
      vertex -18.3005 10 212.639
    endloop
  endfacet
  facet normal 0 -1 0
    outer loop
      vertex -17.5913 10 210.927
      vertex -13.5 10 220
      vertex -17.8616 10 211.818
    endloop
  endfacet
  facet normal 0 -1 0
    outer loop
      vertex -17.5 10 210
      vertex -13.5 10 220
      vertex -17.5913 10 210.927
    endloop
  endfacet
  facet normal 0 -1 0
    outer loop
      vertex -13.5 10 200
      vertex -17.5 10 210
      vertex -17.5913 10 209.073
    endloop
  endfacet
  facet normal 0 -1 0
    outer loop
      vertex -13.5 10 200
      vertex -17.5913 10 209.073
      vertex -17.8616 10 208.182
    endloop
  endfacet
  facet normal 0 -1 0
    outer loop
      vertex -13.5 10 200
      vertex -22.25 10 205.25
      vertex -29.5 10 200
    endloop
  endfacet
  facet normal 0 -1 0
    outer loop
      vertex -22.25 10 205.25
      vertex -13.5 10 200
      vertex -21.3233 10 205.341
    endloop
  endfacet
  facet normal 0 -1 0
    outer loop
      vertex -21.3233 10 205.341
      vertex -13.5 10 200
      vertex -20.4323 10 205.612
    endloop
  endfacet
  facet normal 0 -1 0
    outer loop
      vertex -17.5 10 210
      vertex -13.5 10 200
      vertex -13.5 10 220
    endloop
  endfacet
  facet normal 0 -1 0
    outer loop
      vertex -18.3005 10 207.361
      vertex -13.5 10 200
      vertex -17.8616 10 208.182
    endloop
  endfacet
  facet normal 0 -1 0
    outer loop
      vertex -18.8912 10 206.641
      vertex -13.5 10 200
      vertex -18.3005 10 207.361
    endloop
  endfacet
  facet normal 0 -1 0
    outer loop
      vertex -19.611 10 206.051
      vertex -13.5 10 200
      vertex -18.8912 10 206.641
    endloop
  endfacet
  facet normal 0 -1 0
    outer loop
      vertex -20.4323 10 205.612
      vertex -13.5 10 200
      vertex -19.611 10 206.051
    endloop
  endfacet
  facet normal -0.0979545 -0.995191 0
    outer loop
      vertex -29.7926 10.0288 200
      vertex -29.5 10 220
      vertex -29.7926 10.0288 220
    endloop
  endfacet
  facet normal -0.0979545 -0.995191 -0
    outer loop
      vertex -29.5 10 220
      vertex -29.7926 10.0288 200
      vertex -29.5 10 200
    endloop
  endfacet
  facet normal -0.634311 -0.773078 0
    outer loop
      vertex -30.5607 10.4393 200
      vertex -30.3334 10.2528 220
      vertex -30.5607 10.4393 220
    endloop
  endfacet
  facet normal -0.634311 -0.773078 -0
    outer loop
      vertex -30.3334 10.2528 220
      vertex -30.5607 10.4393 200
      vertex -30.3334 10.2528 200
    endloop
  endfacet
  facet normal -0.471259 0.881995 0
    outer loop
      vertex -30.074 13.3858 200
      vertex -30.3334 13.2472 220
      vertex -30.074 13.3858 220
    endloop
  endfacet
  facet normal -0.471259 0.881995 0
    outer loop
      vertex -30.3334 13.2472 220
      vertex -30.074 13.3858 200
      vertex -30.3334 13.2472 200
    endloop
  endfacet
  facet normal -0.634311 0.773078 0
    outer loop
      vertex -30.3334 13.2472 200
      vertex -30.5607 13.0607 220
      vertex -30.3334 13.2472 220
    endloop
  endfacet
  facet normal -0.634311 0.773078 0
    outer loop
      vertex -30.5607 13.0607 220
      vertex -30.3334 13.2472 200
      vertex -30.5607 13.0607 200
    endloop
  endfacet
  facet normal -0.881995 0.471259 0
    outer loop
      vertex -30.8858 12.574 200
      vertex -30.7472 12.8334 220
      vertex -30.7472 12.8334 200
    endloop
  endfacet
  facet normal -0.881995 0.471259 0
    outer loop
      vertex -30.7472 12.8334 220
      vertex -30.8858 12.574 200
      vertex -30.8858 12.574 220
    endloop
  endfacet
  facet normal -0.290404 0.956904 0
    outer loop
      vertex -29.7926 13.4712 200
      vertex -30.074 13.3858 220
      vertex -29.7926 13.4712 220
    endloop
  endfacet
  facet normal -0.290404 0.956904 0
    outer loop
      vertex -30.074 13.3858 220
      vertex -29.7926 13.4712 200
      vertex -30.074 13.3858 200
    endloop
  endfacet
  facet normal -0.0979545 0.995191 0
    outer loop
      vertex -29.5 13.5 200
      vertex -29.7926 13.4712 220
      vertex -29.5 13.5 220
    endloop
  endfacet
  facet normal -0.0979545 0.995191 0
    outer loop
      vertex -29.7926 13.4712 220
      vertex -29.5 13.5 200
      vertex -29.7926 13.4712 200
    endloop
  endfacet
  facet normal -0.956904 0.290404 0
    outer loop
      vertex -30.9712 12.2926 200
      vertex -30.8858 12.574 220
      vertex -30.8858 12.574 200
    endloop
  endfacet
  facet normal -0.956904 0.290404 0
    outer loop
      vertex -30.8858 12.574 220
      vertex -30.9712 12.2926 200
      vertex -30.9712 12.2926 220
    endloop
  endfacet
  facet normal -0.995191 -0.0979545 0
    outer loop
      vertex -30.9712 11.2074 200
      vertex -31 11.5 220
      vertex -31 11.5 200
    endloop
  endfacet
  facet normal -0.995191 -0.0979545 0
    outer loop
      vertex -31 11.5 220
      vertex -30.9712 11.2074 200
      vertex -30.9712 11.2074 220
    endloop
  endfacet
  facet normal -0.471259 -0.881995 0
    outer loop
      vertex -30.3334 10.2528 200
      vertex -30.074 10.1142 220
      vertex -30.3334 10.2528 220
    endloop
  endfacet
  facet normal -0.471259 -0.881995 -0
    outer loop
      vertex -30.074 10.1142 220
      vertex -30.3334 10.2528 200
      vertex -30.074 10.1142 200
    endloop
  endfacet
  facet normal -1 0 0
    outer loop
      vertex -31 11.5 200
      vertex -31 12 220
      vertex -31 12 200
    endloop
  endfacet
  facet normal -1 -0 0
    outer loop
      vertex -31 12 220
      vertex -31 11.5 200
      vertex -31 11.5 220
    endloop
  endfacet
  facet normal -0.290404 -0.956904 0
    outer loop
      vertex -30.074 10.1142 200
      vertex -29.7926 10.0288 220
      vertex -30.074 10.1142 220
    endloop
  endfacet
  facet normal -0.290404 -0.956904 -0
    outer loop
      vertex -29.7926 10.0288 220
      vertex -30.074 10.1142 200
      vertex -29.7926 10.0288 200
    endloop
  endfacet
  facet normal -0.995185 0 0.0980155
    outer loop
      vertex -17.5913 10 209.073
      vertex -17.5 13.5 210
      vertex -17.5913 13.5 209.073
    endloop
  endfacet
  facet normal -0.995185 0 0.0980155
    outer loop
      vertex -17.5 13.5 210
      vertex -17.5913 10 209.073
      vertex -17.5 10 210
    endloop
  endfacet
  facet normal 0.995185 -0 0.0980155
    outer loop
      vertex -27 10 210
      vertex -26.9087 13.5 209.073
      vertex -27 13.5 210
    endloop
  endfacet
  facet normal 0.995185 0 0.0980155
    outer loop
      vertex -26.9087 13.5 209.073
      vertex -27 10 210
      vertex -26.9087 10 209.073
    endloop
  endfacet
  facet normal 0.0977279 0 0.995213
    outer loop
      vertex -23.1767 13.5 205.341
      vertex -22.25 10 205.25
      vertex -22.25 13.5 205.25
    endloop
  endfacet
  facet normal 0.0977279 0 0.995213
    outer loop
      vertex -22.25 10 205.25
      vertex -23.1767 13.5 205.341
      vertex -23.1767 10 205.341
    endloop
  endfacet
  facet normal 0.0977279 0 -0.995213
    outer loop
      vertex -23.1767 10 214.659
      vertex -22.25 13.5 214.75
      vertex -22.25 10 214.75
    endloop
  endfacet
  facet normal 0.0977279 0 -0.995213
    outer loop
      vertex -22.25 13.5 214.75
      vertex -23.1767 10 214.659
      vertex -23.1767 13.5 214.659
    endloop
  endfacet
  facet normal -0.633928 0 0.773392
    outer loop
      vertex -19.611 13.5 206.051
      vertex -18.8912 10 206.641
      vertex -18.8912 13.5 206.641
    endloop
  endfacet
  facet normal -0.633928 0 0.773392
    outer loop
      vertex -18.8912 10 206.641
      vertex -19.611 13.5 206.051
      vertex -19.611 10 206.051
    endloop
  endfacet
  facet normal 0.633928 0 0.773392
    outer loop
      vertex -25.6088 13.5 206.641
      vertex -24.889 10 206.051
      vertex -24.889 13.5 206.051
    endloop
  endfacet
  facet normal 0.633928 0 0.773392
    outer loop
      vertex -24.889 10 206.051
      vertex -25.6088 13.5 206.641
      vertex -25.6088 10 206.641
    endloop
  endfacet
  facet normal 0.290991 0 0.956726
    outer loop
      vertex -24.0677 13.5 205.612
      vertex -23.1767 10 205.341
      vertex -23.1767 13.5 205.341
    endloop
  endfacet
  facet normal 0.290991 0 0.956726
    outer loop
      vertex -23.1767 10 205.341
      vertex -24.0677 13.5 205.612
      vertex -24.0677 10 205.612
    endloop
  endfacet
  facet normal -0.633928 0 -0.773392
    outer loop
      vertex -19.611 10 213.949
      vertex -18.8912 13.5 213.359
      vertex -18.8912 10 213.359
    endloop
  endfacet
  facet normal -0.633928 0 -0.773392
    outer loop
      vertex -18.8912 13.5 213.359
      vertex -19.611 10 213.949
      vertex -19.611 13.5 213.949
    endloop
  endfacet
  facet normal -0.881892 0 0.471452
    outer loop
      vertex -18.3005 10 207.361
      vertex -17.8616 13.5 208.182
      vertex -18.3005 13.5 207.361
    endloop
  endfacet
  facet normal -0.881892 0 0.471452
    outer loop
      vertex -17.8616 13.5 208.182
      vertex -18.3005 10 207.361
      vertex -17.8616 10 208.182
    endloop
  endfacet
  facet normal -0.956935 0 0.290302
    outer loop
      vertex -17.8616 10 208.182
      vertex -17.5913 13.5 209.073
      vertex -17.8616 13.5 208.182
    endloop
  endfacet
  facet normal -0.956935 0 0.290302
    outer loop
      vertex -17.5913 13.5 209.073
      vertex -17.8616 10 208.182
      vertex -17.5913 10 209.073
    endloop
  endfacet
  facet normal -0.77311 0 0.634272
    outer loop
      vertex -18.8912 10 206.641
      vertex -18.3005 13.5 207.361
      vertex -18.8912 13.5 206.641
    endloop
  endfacet
  facet normal -0.77311 0 0.634272
    outer loop
      vertex -18.3005 13.5 207.361
      vertex -18.8912 10 206.641
      vertex -18.3005 10 207.361
    endloop
  endfacet
  facet normal -0.290991 0 0.956726
    outer loop
      vertex -21.3233 13.5 205.341
      vertex -20.4323 10 205.612
      vertex -20.4323 13.5 205.612
    endloop
  endfacet
  facet normal -0.290991 0 0.956726
    outer loop
      vertex -20.4323 10 205.612
      vertex -21.3233 13.5 205.341
      vertex -21.3233 10 205.341
    endloop
  endfacet
  facet normal -0.0977279 0 0.995213
    outer loop
      vertex -22.25 13.5 205.25
      vertex -21.3233 10 205.341
      vertex -21.3233 13.5 205.341
    endloop
  endfacet
  facet normal -0.0977279 0 0.995213
    outer loop
      vertex -21.3233 10 205.341
      vertex -22.25 13.5 205.25
      vertex -22.25 10 205.25
    endloop
  endfacet
  facet normal -0.471402 0 0.881919
    outer loop
      vertex -20.4323 13.5 205.612
      vertex -19.611 10 206.051
      vertex -19.611 13.5 206.051
    endloop
  endfacet
  facet normal -0.471402 0 0.881919
    outer loop
      vertex -19.611 10 206.051
      vertex -20.4323 13.5 205.612
      vertex -20.4323 10 205.612
    endloop
  endfacet
  facet normal 0.881892 -0 0.471452
    outer loop
      vertex -26.6384 10 208.182
      vertex -26.1995 13.5 207.361
      vertex -26.6384 13.5 208.182
    endloop
  endfacet
  facet normal 0.881892 0 0.471452
    outer loop
      vertex -26.1995 13.5 207.361
      vertex -26.6384 10 208.182
      vertex -26.1995 10 207.361
    endloop
  endfacet
  facet normal 0.77311 -0 0.634272
    outer loop
      vertex -26.1995 10 207.361
      vertex -25.6088 13.5 206.641
      vertex -26.1995 13.5 207.361
    endloop
  endfacet
  facet normal 0.77311 0 0.634272
    outer loop
      vertex -25.6088 13.5 206.641
      vertex -26.1995 10 207.361
      vertex -25.6088 10 206.641
    endloop
  endfacet
  facet normal 0.956935 -0 0.290302
    outer loop
      vertex -26.9087 10 209.073
      vertex -26.6384 13.5 208.182
      vertex -26.9087 13.5 209.073
    endloop
  endfacet
  facet normal 0.956935 0 0.290302
    outer loop
      vertex -26.6384 13.5 208.182
      vertex -26.9087 10 209.073
      vertex -26.6384 10 208.182
    endloop
  endfacet
  facet normal 0.471402 0 0.881919
    outer loop
      vertex -24.889 13.5 206.051
      vertex -24.0677 10 205.612
      vertex -24.0677 13.5 205.612
    endloop
  endfacet
  facet normal 0.471402 0 0.881919
    outer loop
      vertex -24.0677 10 205.612
      vertex -24.889 13.5 206.051
      vertex -24.889 10 206.051
    endloop
  endfacet
  facet normal -0.0977279 0 -0.995213
    outer loop
      vertex -22.25 10 214.75
      vertex -21.3233 13.5 214.659
      vertex -21.3233 10 214.659
    endloop
  endfacet
  facet normal -0.0977279 0 -0.995213
    outer loop
      vertex -21.3233 13.5 214.659
      vertex -22.25 10 214.75
      vertex -22.25 13.5 214.75
    endloop
  endfacet
  facet normal -0.471402 0 -0.881919
    outer loop
      vertex -20.4323 10 214.388
      vertex -19.611 13.5 213.949
      vertex -19.611 10 213.949
    endloop
  endfacet
  facet normal -0.471402 0 -0.881919
    outer loop
      vertex -19.611 13.5 213.949
      vertex -20.4323 10 214.388
      vertex -20.4323 13.5 214.388
    endloop
  endfacet
  facet normal 0.633928 0 -0.773392
    outer loop
      vertex -25.6088 10 213.359
      vertex -24.889 13.5 213.949
      vertex -24.889 10 213.949
    endloop
  endfacet
  facet normal 0.633928 0 -0.773392
    outer loop
      vertex -24.889 13.5 213.949
      vertex -25.6088 10 213.359
      vertex -25.6088 13.5 213.359
    endloop
  endfacet
  facet normal 0.290991 0 -0.956726
    outer loop
      vertex -24.0677 10 214.388
      vertex -23.1767 13.5 214.659
      vertex -23.1767 10 214.659
    endloop
  endfacet
  facet normal 0.290991 0 -0.956726
    outer loop
      vertex -23.1767 13.5 214.659
      vertex -24.0677 10 214.388
      vertex -24.0677 13.5 214.388
    endloop
  endfacet
  facet normal 0.881892 0 -0.471452
    outer loop
      vertex -26.1995 10 212.639
      vertex -26.6384 13.5 211.818
      vertex -26.1995 13.5 212.639
    endloop
  endfacet
  facet normal 0.881892 0 -0.471452
    outer loop
      vertex -26.6384 13.5 211.818
      vertex -26.1995 10 212.639
      vertex -26.6384 10 211.818
    endloop
  endfacet
  facet normal 0.77311 0 -0.634272
    outer loop
      vertex -25.6088 10 213.359
      vertex -26.1995 13.5 212.639
      vertex -25.6088 13.5 213.359
    endloop
  endfacet
  facet normal 0.77311 0 -0.634272
    outer loop
      vertex -26.1995 13.5 212.639
      vertex -25.6088 10 213.359
      vertex -26.1995 10 212.639
    endloop
  endfacet
  facet normal 0.995185 0 -0.0980155
    outer loop
      vertex -26.9087 10 210.927
      vertex -27 13.5 210
      vertex -26.9087 13.5 210.927
    endloop
  endfacet
  facet normal 0.995185 0 -0.0980155
    outer loop
      vertex -27 13.5 210
      vertex -26.9087 10 210.927
      vertex -27 10 210
    endloop
  endfacet
  facet normal -0.995185 0 -0.0980155
    outer loop
      vertex -17.5 10 210
      vertex -17.5913 13.5 210.927
      vertex -17.5 13.5 210
    endloop
  endfacet
  facet normal -0.995185 -0 -0.0980155
    outer loop
      vertex -17.5913 13.5 210.927
      vertex -17.5 10 210
      vertex -17.5913 10 210.927
    endloop
  endfacet
  facet normal -0.290991 0 -0.956726
    outer loop
      vertex -21.3233 10 214.659
      vertex -20.4323 13.5 214.388
      vertex -20.4323 10 214.388
    endloop
  endfacet
  facet normal -0.290991 0 -0.956726
    outer loop
      vertex -20.4323 13.5 214.388
      vertex -21.3233 10 214.659
      vertex -21.3233 13.5 214.659
    endloop
  endfacet
  facet normal -0.881892 0 -0.471452
    outer loop
      vertex -17.8616 10 211.818
      vertex -18.3005 13.5 212.639
      vertex -17.8616 13.5 211.818
    endloop
  endfacet
  facet normal -0.881892 -0 -0.471452
    outer loop
      vertex -18.3005 13.5 212.639
      vertex -17.8616 10 211.818
      vertex -18.3005 10 212.639
    endloop
  endfacet
  facet normal -0.77311 0 -0.634272
    outer loop
      vertex -18.3005 10 212.639
      vertex -18.8912 13.5 213.359
      vertex -18.3005 13.5 212.639
    endloop
  endfacet
  facet normal -0.77311 -0 -0.634272
    outer loop
      vertex -18.8912 13.5 213.359
      vertex -18.3005 10 212.639
      vertex -18.8912 10 213.359
    endloop
  endfacet
  facet normal 0.471402 0 -0.881919
    outer loop
      vertex -24.889 10 213.949
      vertex -24.0677 13.5 214.388
      vertex -24.0677 10 214.388
    endloop
  endfacet
  facet normal 0.471402 0 -0.881919
    outer loop
      vertex -24.0677 13.5 214.388
      vertex -24.889 10 213.949
      vertex -24.889 13.5 213.949
    endloop
  endfacet
  facet normal 0.956935 0 -0.290302
    outer loop
      vertex -26.6384 10 211.818
      vertex -26.9087 13.5 210.927
      vertex -26.6384 13.5 211.818
    endloop
  endfacet
  facet normal 0.956935 0 -0.290302
    outer loop
      vertex -26.9087 13.5 210.927
      vertex -26.6384 10 211.818
      vertex -26.9087 10 210.927
    endloop
  endfacet
  facet normal -0.956935 0 -0.290302
    outer loop
      vertex -17.5913 10 210.927
      vertex -17.8616 13.5 211.818
      vertex -17.5913 13.5 210.927
    endloop
  endfacet
  facet normal -0.956935 -0 -0.290302
    outer loop
      vertex -17.8616 13.5 211.818
      vertex -17.5913 10 210.927
      vertex -17.8616 10 211.818
    endloop
  endfacet
  facet normal -0.995185 0 -0.098017
    outer loop
      vertex 2.65 -13.5 210
      vertex 2.59908 -10.1 210.517
      vertex 2.65 -10.1 210
    endloop
  endfacet
  facet normal -0.995185 -0 -0.098017
    outer loop
      vertex 2.59908 -10.1 210.517
      vertex 2.65 -13.5 210
      vertex 2.59908 -13.5 210.517
    endloop
  endfacet
  facet normal -0.956921 0 -0.290349
    outer loop
      vertex 2.59908 -13.5 210.517
      vertex 2.44828 -10.1 211.014
      vertex 2.59908 -10.1 210.517
    endloop
  endfacet
  facet normal -0.956921 -0 -0.290349
    outer loop
      vertex 2.44828 -10.1 211.014
      vertex 2.59908 -13.5 210.517
      vertex 2.44828 -13.5 211.014
    endloop
  endfacet
  facet normal 0.0981716 0 -0.99517
    outer loop
      vertex -0.516989 -13.5 212.599
      vertex 0 -10.1 212.65
      vertex 0 -13.5 212.65
    endloop
  endfacet
  facet normal 0.0981716 0 -0.99517
    outer loop
      vertex 0 -10.1 212.65
      vertex -0.516989 -13.5 212.599
      vertex -0.516989 -10.1 212.599
    endloop
  endfacet
  facet normal -0.633748 0 -0.773539
    outer loop
      vertex 1.47226 -13.5 212.203
      vertex 1.87383 -10.1 211.874
      vertex 1.87383 -13.5 211.874
    endloop
  endfacet
  facet normal -0.633748 0 -0.773539
    outer loop
      vertex 1.87383 -10.1 211.874
      vertex 1.47226 -13.5 212.203
      vertex 1.47226 -10.1 212.203
    endloop
  endfacet
  facet normal 0.773343 0 -0.633988
    outer loop
      vertex -1.87383 -13.5 211.874
      vertex -2.20339 -10.1 211.472
      vertex -1.87383 -10.1 211.874
    endloop
  endfacet
  facet normal 0.773343 0 -0.633988
    outer loop
      vertex -2.20339 -10.1 211.472
      vertex -1.87383 -13.5 211.874
      vertex -2.20339 -13.5 211.472
    endloop
  endfacet
  facet normal 0.471567 0 -0.88183
    outer loop
      vertex -1.47226 -13.5 212.203
      vertex -1.01411 -10.1 212.448
      vertex -1.01411 -13.5 212.448
    endloop
  endfacet
  facet normal 0.471567 0 -0.88183
    outer loop
      vertex -1.01411 -10.1 212.448
      vertex -1.47226 -13.5 212.203
      vertex -1.47226 -10.1 212.203
    endloop
  endfacet
  facet normal -0.881854 0 -0.471522
    outer loop
      vertex 2.44828 -13.5 211.014
      vertex 2.20339 -10.1 211.472
      vertex 2.44828 -10.1 211.014
    endloop
  endfacet
  facet normal -0.881854 -0 -0.471522
    outer loop
      vertex 2.20339 -10.1 211.472
      vertex 2.44828 -13.5 211.014
      vertex 2.20339 -13.5 211.472
    endloop
  endfacet
  facet normal -0.290637 0 -0.956833
    outer loop
      vertex 0.516989 -13.5 212.599
      vertex 1.01411 -10.1 212.448
      vertex 1.01411 -13.5 212.448
    endloop
  endfacet
  facet normal -0.290637 0 -0.956833
    outer loop
      vertex 1.01411 -10.1 212.448
      vertex 0.516989 -13.5 212.599
      vertex 0.516989 -10.1 212.599
    endloop
  endfacet
  facet normal -0.471567 0 -0.88183
    outer loop
      vertex 1.01411 -13.5 212.448
      vertex 1.47226 -10.1 212.203
      vertex 1.47226 -13.5 212.203
    endloop
  endfacet
  facet normal -0.471567 0 -0.88183
    outer loop
      vertex 1.47226 -10.1 212.203
      vertex 1.01411 -13.5 212.448
      vertex 1.01411 -10.1 212.448
    endloop
  endfacet
  facet normal 0.956921 0 -0.290349
    outer loop
      vertex -2.44828 -13.5 211.014
      vertex -2.59908 -10.1 210.517
      vertex -2.44828 -10.1 211.014
    endloop
  endfacet
  facet normal 0.956921 0 -0.290349
    outer loop
      vertex -2.59908 -10.1 210.517
      vertex -2.44828 -13.5 211.014
      vertex -2.59908 -13.5 210.517
    endloop
  endfacet
  facet normal 0.881854 0 -0.471522
    outer loop
      vertex -2.20339 -13.5 211.472
      vertex -2.44828 -10.1 211.014
      vertex -2.20339 -10.1 211.472
    endloop
  endfacet
  facet normal 0.881854 0 -0.471522
    outer loop
      vertex -2.44828 -10.1 211.014
      vertex -2.20339 -13.5 211.472
      vertex -2.44828 -13.5 211.014
    endloop
  endfacet
  facet normal 0.290637 0 -0.956833
    outer loop
      vertex -1.01411 -13.5 212.448
      vertex -0.516989 -10.1 212.599
      vertex -0.516989 -13.5 212.599
    endloop
  endfacet
  facet normal 0.290637 0 -0.956833
    outer loop
      vertex -0.516989 -10.1 212.599
      vertex -1.01411 -13.5 212.448
      vertex -1.01411 -10.1 212.448
    endloop
  endfacet
  facet normal -0.995185 0 0.098017
    outer loop
      vertex 2.59908 -13.5 209.483
      vertex 2.65 -10.1 210
      vertex 2.59908 -10.1 209.483
    endloop
  endfacet
  facet normal -0.995185 0 0.098017
    outer loop
      vertex 2.65 -10.1 210
      vertex 2.59908 -13.5 209.483
      vertex 2.65 -13.5 210
    endloop
  endfacet
  facet normal 0.956921 -0 0.290349
    outer loop
      vertex -2.59908 -13.5 209.483
      vertex -2.44828 -10.1 208.986
      vertex -2.59908 -10.1 209.483
    endloop
  endfacet
  facet normal 0.956921 0 0.290349
    outer loop
      vertex -2.44828 -10.1 208.986
      vertex -2.59908 -13.5 209.483
      vertex -2.44828 -13.5 208.986
    endloop
  endfacet
  facet normal -0.290637 0 0.956833
    outer loop
      vertex 0.516989 -10.1 207.401
      vertex 1.01411 -13.5 207.552
      vertex 1.01411 -10.1 207.552
    endloop
  endfacet
  facet normal -0.290637 0 0.956833
    outer loop
      vertex 1.01411 -13.5 207.552
      vertex 0.516989 -10.1 207.401
      vertex 0.516989 -13.5 207.401
    endloop
  endfacet
  facet normal -0.471567 0 0.88183
    outer loop
      vertex 1.01411 -10.1 207.552
      vertex 1.47226 -13.5 207.797
      vertex 1.47226 -10.1 207.797
    endloop
  endfacet
  facet normal -0.471567 0 0.88183
    outer loop
      vertex 1.47226 -13.5 207.797
      vertex 1.01411 -10.1 207.552
      vertex 1.01411 -13.5 207.552
    endloop
  endfacet
  facet normal -0.773343 0 -0.633988
    outer loop
      vertex 2.20339 -13.5 211.472
      vertex 1.87383 -10.1 211.874
      vertex 2.20339 -10.1 211.472
    endloop
  endfacet
  facet normal -0.773343 -0 -0.633988
    outer loop
      vertex 1.87383 -10.1 211.874
      vertex 2.20339 -13.5 211.472
      vertex 1.87383 -13.5 211.874
    endloop
  endfacet
  facet normal -0.0981716 0 -0.99517
    outer loop
      vertex 0 -13.5 212.65
      vertex 0.516989 -10.1 212.599
      vertex 0.516989 -13.5 212.599
    endloop
  endfacet
  facet normal -0.0981716 0 -0.99517
    outer loop
      vertex 0.516989 -10.1 212.599
      vertex 0 -13.5 212.65
      vertex 0 -10.1 212.65
    endloop
  endfacet
  facet normal 0.995185 0 -0.098017
    outer loop
      vertex -2.59908 -13.5 210.517
      vertex -2.65 -10.1 210
      vertex -2.59908 -10.1 210.517
    endloop
  endfacet
  facet normal 0.995185 0 -0.098017
    outer loop
      vertex -2.65 -10.1 210
      vertex -2.59908 -13.5 210.517
      vertex -2.65 -13.5 210
    endloop
  endfacet
  facet normal 0.995185 -0 0.098017
    outer loop
      vertex -2.65 -13.5 210
      vertex -2.59908 -10.1 209.483
      vertex -2.65 -10.1 210
    endloop
  endfacet
  facet normal 0.995185 0 0.098017
    outer loop
      vertex -2.59908 -10.1 209.483
      vertex -2.65 -13.5 210
      vertex -2.59908 -13.5 209.483
    endloop
  endfacet
  facet normal 0.633748 0 -0.773539
    outer loop
      vertex -1.87383 -13.5 211.874
      vertex -1.47226 -10.1 212.203
      vertex -1.47226 -13.5 212.203
    endloop
  endfacet
  facet normal 0.633748 0 -0.773539
    outer loop
      vertex -1.47226 -10.1 212.203
      vertex -1.87383 -13.5 211.874
      vertex -1.87383 -10.1 211.874
    endloop
  endfacet
  facet normal -0.633748 0 0.773539
    outer loop
      vertex 1.47226 -10.1 207.797
      vertex 1.87383 -13.5 208.126
      vertex 1.87383 -10.1 208.126
    endloop
  endfacet
  facet normal -0.633748 0 0.773539
    outer loop
      vertex 1.87383 -13.5 208.126
      vertex 1.47226 -10.1 207.797
      vertex 1.47226 -13.5 207.797
    endloop
  endfacet
  facet normal 0.633748 0 0.773539
    outer loop
      vertex -1.87383 -10.1 208.126
      vertex -1.47226 -13.5 207.797
      vertex -1.47226 -10.1 207.797
    endloop
  endfacet
  facet normal 0.633748 0 0.773539
    outer loop
      vertex -1.47226 -13.5 207.797
      vertex -1.87383 -10.1 208.126
      vertex -1.87383 -13.5 208.126
    endloop
  endfacet
  facet normal -0.0981716 0 0.99517
    outer loop
      vertex 0 -10.1 207.35
      vertex 0.516989 -13.5 207.401
      vertex 0.516989 -10.1 207.401
    endloop
  endfacet
  facet normal -0.0981716 0 0.99517
    outer loop
      vertex 0.516989 -13.5 207.401
      vertex 0 -10.1 207.35
      vertex 0 -13.5 207.35
    endloop
  endfacet
  facet normal -0.881854 0 0.471522
    outer loop
      vertex 2.20339 -13.5 208.528
      vertex 2.44828 -10.1 208.986
      vertex 2.20339 -10.1 208.528
    endloop
  endfacet
  facet normal -0.881854 0 0.471522
    outer loop
      vertex 2.44828 -10.1 208.986
      vertex 2.20339 -13.5 208.528
      vertex 2.44828 -13.5 208.986
    endloop
  endfacet
  facet normal -0.956921 0 0.290349
    outer loop
      vertex 2.44828 -13.5 208.986
      vertex 2.59908 -10.1 209.483
      vertex 2.44828 -10.1 208.986
    endloop
  endfacet
  facet normal -0.956921 0 0.290349
    outer loop
      vertex 2.59908 -10.1 209.483
      vertex 2.44828 -13.5 208.986
      vertex 2.59908 -13.5 209.483
    endloop
  endfacet
  facet normal 0.471567 0 0.88183
    outer loop
      vertex -1.47226 -10.1 207.797
      vertex -1.01411 -13.5 207.552
      vertex -1.01411 -10.1 207.552
    endloop
  endfacet
  facet normal 0.471567 0 0.88183
    outer loop
      vertex -1.01411 -13.5 207.552
      vertex -1.47226 -10.1 207.797
      vertex -1.47226 -13.5 207.797
    endloop
  endfacet
  facet normal 0.290637 0 0.956833
    outer loop
      vertex -1.01411 -10.1 207.552
      vertex -0.516989 -13.5 207.401
      vertex -0.516989 -10.1 207.401
    endloop
  endfacet
  facet normal 0.290637 0 0.956833
    outer loop
      vertex -0.516989 -13.5 207.401
      vertex -1.01411 -10.1 207.552
      vertex -1.01411 -13.5 207.552
    endloop
  endfacet
  facet normal 0.0981716 0 0.99517
    outer loop
      vertex -0.516989 -10.1 207.401
      vertex 0 -13.5 207.35
      vertex 0 -10.1 207.35
    endloop
  endfacet
  facet normal 0.0981716 0 0.99517
    outer loop
      vertex 0 -13.5 207.35
      vertex -0.516989 -10.1 207.401
      vertex -0.516989 -13.5 207.401
    endloop
  endfacet
  facet normal 0.881854 -0 0.471522
    outer loop
      vertex -2.44828 -13.5 208.986
      vertex -2.20339 -10.1 208.528
      vertex -2.44828 -10.1 208.986
    endloop
  endfacet
  facet normal 0.881854 0 0.471522
    outer loop
      vertex -2.20339 -10.1 208.528
      vertex -2.44828 -13.5 208.986
      vertex -2.20339 -13.5 208.528
    endloop
  endfacet
  facet normal 0.773343 -0 0.633988
    outer loop
      vertex -2.20339 -13.5 208.528
      vertex -1.87383 -10.1 208.126
      vertex -2.20339 -10.1 208.528
    endloop
  endfacet
  facet normal 0.773343 0 0.633988
    outer loop
      vertex -1.87383 -10.1 208.126
      vertex -2.20339 -13.5 208.528
      vertex -1.87383 -13.5 208.126
    endloop
  endfacet
  facet normal -0.773343 0 0.633988
    outer loop
      vertex 1.87383 -13.5 208.126
      vertex 2.20339 -10.1 208.528
      vertex 1.87383 -10.1 208.126
    endloop
  endfacet
  facet normal -0.773343 0 0.633988
    outer loop
      vertex 2.20339 -10.1 208.528
      vertex 1.87383 -13.5 208.126
      vertex 2.20339 -13.5 208.528
    endloop
  endfacet
  facet normal 0.956982 0.290149 0
    outer loop
      vertex -10.0924 -10.0383 220
      vertex -10.0981 -10.0195 200
      vertex -10.0981 -10.0195 220
    endloop
  endfacet
  facet normal 0.956982 0.290149 0
    outer loop
      vertex -10.0981 -10.0195 200
      vertex -10.0924 -10.0383 220
      vertex -10.0924 -10.0383 200
    endloop
  endfacet
  facet normal 1 -0 0
    outer loop
      vertex -10.1 -10 220
      vertex -10.1 10 200
      vertex -10.1 10 220
    endloop
  endfacet
  facet normal 1 0 0
    outer loop
      vertex -10.1 10 200
      vertex -10.1 -10 220
      vertex -10.1 -10 200
    endloop
  endfacet
  facet normal -0.995287 -0.0969766 0
    outer loop
      vertex 10.1 10 200
      vertex 10.0981 10.0195 220
      vertex 10.0981 10.0195 200
    endloop
  endfacet
  facet normal -0.995287 -0.0969766 0
    outer loop
      vertex 10.0981 10.0195 220
      vertex 10.1 10 200
      vertex 10.1 10 220
    endloop
  endfacet
  facet normal 0.995287 0.0969766 0
    outer loop
      vertex -10.0981 -10.0195 220
      vertex -10.1 -10 200
      vertex -10.1 -10 220
    endloop
  endfacet
  facet normal 0.995287 0.0969766 0
    outer loop
      vertex -10.1 -10 200
      vertex -10.0981 -10.0195 220
      vertex -10.0981 -10.0195 200
    endloop
  endfacet
  facet normal 0.63463 -0.772816 0
    outer loop
      vertex -10.0707 10.0707 200
      vertex -10.0556 10.0831 220
      vertex -10.0707 10.0707 220
    endloop
  endfacet
  facet normal 0.63463 -0.772816 0
    outer loop
      vertex -10.0556 10.0831 220
      vertex -10.0707 10.0707 200
      vertex -10.0556 10.0831 200
    endloop
  endfacet
  facet normal -0.0969766 -0.995287 0
    outer loop
      vertex 10 10.1 200
      vertex 10.0195 10.0981 220
      vertex 10 10.1 220
    endloop
  endfacet
  facet normal -0.0969766 -0.995287 -0
    outer loop
      vertex 10.0195 10.0981 220
      vertex 10 10.1 200
      vertex 10.0195 10.0981 200
    endloop
  endfacet
  facet normal 0 -1 0
    outer loop
      vertex -10 10.1 200
      vertex 10 10.1 220
      vertex -10 10.1 220
    endloop
  endfacet
  facet normal 0 -1 -0
    outer loop
      vertex 10 10.1 220
      vertex -10 10.1 200
      vertex 10 10.1 200
    endloop
  endfacet
  facet normal 0.995287 -0.0969766 0
    outer loop
      vertex -10.1 10 220
      vertex -10.0981 10.0195 200
      vertex -10.0981 10.0195 220
    endloop
  endfacet
  facet normal 0.995287 -0.0969766 0
    outer loop
      vertex -10.0981 10.0195 200
      vertex -10.1 10 220
      vertex -10.1 10 200
    endloop
  endfacet
  facet normal -1 0 0
    outer loop
      vertex 10.1 -10 200
      vertex 10.1 10 220
      vertex 10.1 10 200
    endloop
  endfacet
  facet normal -1 -0 0
    outer loop
      vertex 10.1 10 220
      vertex 10.1 -10 200
      vertex 10.1 -10 220
    endloop
  endfacet
  facet normal 0 1 0
    outer loop
      vertex 10 -10.1 220
      vertex 0 -10.1 212.65
      vertex -10 -10.1 220
    endloop
  endfacet
  facet normal 0 1 0
    outer loop
      vertex 10 -10.1 220
      vertex 0.516989 -10.1 212.599
      vertex 0 -10.1 212.65
    endloop
  endfacet
  facet normal 0 1 0
    outer loop
      vertex 10 -10.1 220
      vertex 1.01411 -10.1 212.448
      vertex 0.516989 -10.1 212.599
    endloop
  endfacet
  facet normal 0 1 0
    outer loop
      vertex 10 -10.1 220
      vertex 1.47226 -10.1 212.203
      vertex 1.01411 -10.1 212.448
    endloop
  endfacet
  facet normal 0 1 0
    outer loop
      vertex 10 -10.1 220
      vertex 1.87383 -10.1 211.874
      vertex 1.47226 -10.1 212.203
    endloop
  endfacet
  facet normal 0 1 0
    outer loop
      vertex 10 -10.1 220
      vertex 2.20339 -10.1 211.472
      vertex 1.87383 -10.1 211.874
    endloop
  endfacet
  facet normal 0 1 0
    outer loop
      vertex 10 -10.1 220
      vertex 2.44828 -10.1 211.014
      vertex 2.20339 -10.1 211.472
    endloop
  endfacet
  facet normal 0 1 0
    outer loop
      vertex 10 -10.1 220
      vertex 2.59908 -10.1 210.517
      vertex 2.44828 -10.1 211.014
    endloop
  endfacet
  facet normal 0 1 0
    outer loop
      vertex 10 -10.1 220
      vertex 2.65 -10.1 210
      vertex 2.59908 -10.1 210.517
    endloop
  endfacet
  facet normal 0 1 -0
    outer loop
      vertex 10 -10.1 200
      vertex 2.65 -10.1 210
      vertex 10 -10.1 220
    endloop
  endfacet
  facet normal 0 1 0
    outer loop
      vertex 2.65 -10.1 210
      vertex 10 -10.1 200
      vertex 2.59908 -10.1 209.483
    endloop
  endfacet
  facet normal 0 1 0
    outer loop
      vertex 2.59908 -10.1 209.483
      vertex 10 -10.1 200
      vertex 2.44828 -10.1 208.986
    endloop
  endfacet
  facet normal 0 1 0
    outer loop
      vertex 0.516989 -10.1 207.401
      vertex 10 -10.1 200
      vertex 0 -10.1 207.35
    endloop
  endfacet
  facet normal 0 1 0
    outer loop
      vertex 1.01411 -10.1 207.552
      vertex 10 -10.1 200
      vertex 0.516989 -10.1 207.401
    endloop
  endfacet
  facet normal 0 1 0
    outer loop
      vertex 1.47226 -10.1 207.797
      vertex 10 -10.1 200
      vertex 1.01411 -10.1 207.552
    endloop
  endfacet
  facet normal 0 1 0
    outer loop
      vertex 1.87383 -10.1 208.126
      vertex 10 -10.1 200
      vertex 1.47226 -10.1 207.797
    endloop
  endfacet
  facet normal 0 1 0
    outer loop
      vertex 2.20339 -10.1 208.528
      vertex 10 -10.1 200
      vertex 1.87383 -10.1 208.126
    endloop
  endfacet
  facet normal 0 1 0
    outer loop
      vertex 2.44828 -10.1 208.986
      vertex 10 -10.1 200
      vertex 2.20339 -10.1 208.528
    endloop
  endfacet
  facet normal 0 1 -0
    outer loop
      vertex -0.516989 -10.1 212.599
      vertex -10 -10.1 220
      vertex 0 -10.1 212.65
    endloop
  endfacet
  facet normal 0 1 -0
    outer loop
      vertex -1.01411 -10.1 212.448
      vertex -10 -10.1 220
      vertex -0.516989 -10.1 212.599
    endloop
  endfacet
  facet normal 0 1 -0
    outer loop
      vertex -1.47226 -10.1 212.203
      vertex -10 -10.1 220
      vertex -1.01411 -10.1 212.448
    endloop
  endfacet
  facet normal 0 1 -0
    outer loop
      vertex -1.87383 -10.1 211.874
      vertex -10 -10.1 220
      vertex -1.47226 -10.1 212.203
    endloop
  endfacet
  facet normal 0 1 -0
    outer loop
      vertex -2.20339 -10.1 211.472
      vertex -10 -10.1 220
      vertex -1.87383 -10.1 211.874
    endloop
  endfacet
  facet normal 0 1 -0
    outer loop
      vertex -2.44828 -10.1 211.014
      vertex -10 -10.1 220
      vertex -2.20339 -10.1 211.472
    endloop
  endfacet
  facet normal 0 1 -0
    outer loop
      vertex -2.59908 -10.1 210.517
      vertex -10 -10.1 220
      vertex -2.44828 -10.1 211.014
    endloop
  endfacet
  facet normal 0 1 -0
    outer loop
      vertex -2.65 -10.1 210
      vertex -10 -10.1 220
      vertex -2.59908 -10.1 210.517
    endloop
  endfacet
  facet normal 0 1 0
    outer loop
      vertex -10 -10.1 200
      vertex -2.65 -10.1 210
      vertex -2.59908 -10.1 209.483
    endloop
  endfacet
  facet normal 0 1 0
    outer loop
      vertex -10 -10.1 200
      vertex -2.59908 -10.1 209.483
      vertex -2.44828 -10.1 208.986
    endloop
  endfacet
  facet normal 0 1 0
    outer loop
      vertex -10 -10.1 200
      vertex -2.44828 -10.1 208.986
      vertex -2.20339 -10.1 208.528
    endloop
  endfacet
  facet normal 0 1 0
    outer loop
      vertex -10 -10.1 200
      vertex 0 -10.1 207.35
      vertex 10 -10.1 200
    endloop
  endfacet
  facet normal 0 1 0
    outer loop
      vertex 0 -10.1 207.35
      vertex -10 -10.1 200
      vertex -0.516989 -10.1 207.401
    endloop
  endfacet
  facet normal 0 1 0
    outer loop
      vertex -0.516989 -10.1 207.401
      vertex -10 -10.1 200
      vertex -1.01411 -10.1 207.552
    endloop
  endfacet
  facet normal 0 1 0
    outer loop
      vertex -2.65 -10.1 210
      vertex -10 -10.1 200
      vertex -10 -10.1 220
    endloop
  endfacet
  facet normal 0 1 0
    outer loop
      vertex -1.87383 -10.1 208.126
      vertex -10 -10.1 200
      vertex -2.20339 -10.1 208.528
    endloop
  endfacet
  facet normal 0 1 0
    outer loop
      vertex -1.47226 -10.1 207.797
      vertex -10 -10.1 200
      vertex -1.87383 -10.1 208.126
    endloop
  endfacet
  facet normal 0 1 0
    outer loop
      vertex -1.01411 -10.1 207.552
      vertex -10 -10.1 200
      vertex -1.47226 -10.1 207.797
    endloop
  endfacet
  facet normal -0.880798 -0.473492 0
    outer loop
      vertex 10.0924 10.0383 200
      vertex 10.0831 10.0556 220
      vertex 10.0831 10.0556 200
    endloop
  endfacet
  facet normal -0.880798 -0.473492 0
    outer loop
      vertex 10.0831 10.0556 220
      vertex 10.0924 10.0383 200
      vertex 10.0924 10.0383 220
    endloop
  endfacet
  facet normal -0.956982 -0.290149 0
    outer loop
      vertex 10.0981 10.0195 200
      vertex 10.0924 10.0383 220
      vertex 10.0924 10.0383 200
    endloop
  endfacet
  facet normal -0.956982 -0.290149 0
    outer loop
      vertex 10.0924 10.0383 220
      vertex 10.0981 10.0195 200
      vertex 10.0981 10.0195 220
    endloop
  endfacet
  facet normal 0.880798 -0.473492 0
    outer loop
      vertex -10.0924 10.0383 220
      vertex -10.0831 10.0556 200
      vertex -10.0831 10.0556 220
    endloop
  endfacet
  facet normal 0.880798 -0.473492 0
    outer loop
      vertex -10.0831 10.0556 200
      vertex -10.0924 10.0383 220
      vertex -10.0924 10.0383 200
    endloop
  endfacet
  facet normal 0.772816 -0.63463 0
    outer loop
      vertex -10.0831 10.0556 220
      vertex -10.0707 10.0707 200
      vertex -10.0707 10.0707 220
    endloop
  endfacet
  facet normal 0.772816 -0.63463 0
    outer loop
      vertex -10.0707 10.0707 200
      vertex -10.0831 10.0556 220
      vertex -10.0831 10.0556 200
    endloop
  endfacet
  facet normal 0.956982 -0.290149 0
    outer loop
      vertex -10.0981 10.0195 220
      vertex -10.0924 10.0383 200
      vertex -10.0924 10.0383 220
    endloop
  endfacet
  facet normal 0.956982 -0.290149 0
    outer loop
      vertex -10.0924 10.0383 200
      vertex -10.0981 10.0195 220
      vertex -10.0981 10.0195 200
    endloop
  endfacet
  facet normal -0.772816 0.63463 0
    outer loop
      vertex 10.0707 -10.0707 200
      vertex 10.0831 -10.0556 220
      vertex 10.0831 -10.0556 200
    endloop
  endfacet
  facet normal -0.772816 0.63463 0
    outer loop
      vertex 10.0831 -10.0556 220
      vertex 10.0707 -10.0707 200
      vertex 10.0707 -10.0707 220
    endloop
  endfacet
  facet normal -0.956982 0.290149 0
    outer loop
      vertex 10.0924 -10.0383 200
      vertex 10.0981 -10.0195 220
      vertex 10.0981 -10.0195 200
    endloop
  endfacet
  facet normal -0.956982 0.290149 0
    outer loop
      vertex 10.0981 -10.0195 220
      vertex 10.0924 -10.0383 200
      vertex 10.0924 -10.0383 220
    endloop
  endfacet
  facet normal -0.63463 0.772816 0
    outer loop
      vertex 10.0707 -10.0707 200
      vertex 10.0556 -10.0831 220
      vertex 10.0707 -10.0707 220
    endloop
  endfacet
  facet normal -0.63463 0.772816 0
    outer loop
      vertex 10.0556 -10.0831 220
      vertex 10.0707 -10.0707 200
      vertex 10.0556 -10.0831 200
    endloop
  endfacet
  facet normal 0.473492 0.880798 -0
    outer loop
      vertex -10.0383 -10.0924 200
      vertex -10.0556 -10.0831 220
      vertex -10.0383 -10.0924 220
    endloop
  endfacet
  facet normal 0.473492 0.880798 0
    outer loop
      vertex -10.0556 -10.0831 220
      vertex -10.0383 -10.0924 200
      vertex -10.0556 -10.0831 200
    endloop
  endfacet
  facet normal 0.0969766 0.995287 -0
    outer loop
      vertex -10 -10.1 200
      vertex -10.0195 -10.0981 220
      vertex -10 -10.1 220
    endloop
  endfacet
  facet normal 0.0969766 0.995287 0
    outer loop
      vertex -10.0195 -10.0981 220
      vertex -10 -10.1 200
      vertex -10.0195 -10.0981 200
    endloop
  endfacet
  facet normal -0.772816 -0.63463 0
    outer loop
      vertex 10.0831 10.0556 200
      vertex 10.0707 10.0707 220
      vertex 10.0707 10.0707 200
    endloop
  endfacet
  facet normal -0.772816 -0.63463 0
    outer loop
      vertex 10.0707 10.0707 220
      vertex 10.0831 10.0556 200
      vertex 10.0831 10.0556 220
    endloop
  endfacet
  facet normal -0.63463 -0.772816 0
    outer loop
      vertex 10.0556 10.0831 200
      vertex 10.0707 10.0707 220
      vertex 10.0556 10.0831 220
    endloop
  endfacet
  facet normal -0.63463 -0.772816 -0
    outer loop
      vertex 10.0707 10.0707 220
      vertex 10.0556 10.0831 200
      vertex 10.0707 10.0707 200
    endloop
  endfacet
  facet normal -0.473492 -0.880798 0
    outer loop
      vertex 10.0383 10.0924 200
      vertex 10.0556 10.0831 220
      vertex 10.0383 10.0924 220
    endloop
  endfacet
  facet normal -0.473492 -0.880798 -0
    outer loop
      vertex 10.0556 10.0831 220
      vertex 10.0383 10.0924 200
      vertex 10.0556 10.0831 200
    endloop
  endfacet
  facet normal 0.290149 -0.956982 0
    outer loop
      vertex -10.0383 10.0924 200
      vertex -10.0195 10.0981 220
      vertex -10.0383 10.0924 220
    endloop
  endfacet
  facet normal 0.290149 -0.956982 0
    outer loop
      vertex -10.0195 10.0981 220
      vertex -10.0383 10.0924 200
      vertex -10.0195 10.0981 200
    endloop
  endfacet
  facet normal 0.0969766 -0.995287 0
    outer loop
      vertex -10.0195 10.0981 200
      vertex -10 10.1 220
      vertex -10.0195 10.0981 220
    endloop
  endfacet
  facet normal 0.0969766 -0.995287 0
    outer loop
      vertex -10 10.1 220
      vertex -10.0195 10.0981 200
      vertex -10 10.1 200
    endloop
  endfacet
  facet normal 0.473492 -0.880798 0
    outer loop
      vertex -10.0556 10.0831 200
      vertex -10.0383 10.0924 220
      vertex -10.0556 10.0831 220
    endloop
  endfacet
  facet normal 0.473492 -0.880798 0
    outer loop
      vertex -10.0383 10.0924 220
      vertex -10.0556 10.0831 200
      vertex -10.0383 10.0924 200
    endloop
  endfacet
  facet normal -0.880798 0.473492 0
    outer loop
      vertex 10.0831 -10.0556 200
      vertex 10.0924 -10.0383 220
      vertex 10.0924 -10.0383 200
    endloop
  endfacet
  facet normal -0.880798 0.473492 0
    outer loop
      vertex 10.0924 -10.0383 220
      vertex 10.0831 -10.0556 200
      vertex 10.0831 -10.0556 220
    endloop
  endfacet
  facet normal -0.995287 0.0969766 0
    outer loop
      vertex 10.0981 -10.0195 200
      vertex 10.1 -10 220
      vertex 10.1 -10 200
    endloop
  endfacet
  facet normal -0.995287 0.0969766 0
    outer loop
      vertex 10.1 -10 220
      vertex 10.0981 -10.0195 200
      vertex 10.0981 -10.0195 220
    endloop
  endfacet
  facet normal -0.290149 0.956982 0
    outer loop
      vertex 10.0383 -10.0924 200
      vertex 10.0195 -10.0981 220
      vertex 10.0383 -10.0924 220
    endloop
  endfacet
  facet normal -0.290149 0.956982 0
    outer loop
      vertex 10.0195 -10.0981 220
      vertex 10.0383 -10.0924 200
      vertex 10.0195 -10.0981 200
    endloop
  endfacet
  facet normal -0.0969766 0.995287 0
    outer loop
      vertex 10.0195 -10.0981 200
      vertex 10 -10.1 220
      vertex 10.0195 -10.0981 220
    endloop
  endfacet
  facet normal -0.0969766 0.995287 0
    outer loop
      vertex 10 -10.1 220
      vertex 10.0195 -10.0981 200
      vertex 10 -10.1 200
    endloop
  endfacet
  facet normal -0.473492 0.880798 0
    outer loop
      vertex 10.0556 -10.0831 200
      vertex 10.0383 -10.0924 220
      vertex 10.0556 -10.0831 220
    endloop
  endfacet
  facet normal -0.473492 0.880798 0
    outer loop
      vertex 10.0383 -10.0924 220
      vertex 10.0556 -10.0831 200
      vertex 10.0383 -10.0924 200
    endloop
  endfacet
  facet normal 0.290149 0.956982 -0
    outer loop
      vertex -10.0195 -10.0981 200
      vertex -10.0383 -10.0924 220
      vertex -10.0195 -10.0981 220
    endloop
  endfacet
  facet normal 0.290149 0.956982 0
    outer loop
      vertex -10.0383 -10.0924 220
      vertex -10.0195 -10.0981 200
      vertex -10.0383 -10.0924 200
    endloop
  endfacet
  facet normal 0.63463 0.772816 -0
    outer loop
      vertex -10.0556 -10.0831 200
      vertex -10.0707 -10.0707 220
      vertex -10.0556 -10.0831 220
    endloop
  endfacet
  facet normal 0.63463 0.772816 0
    outer loop
      vertex -10.0707 -10.0707 220
      vertex -10.0556 -10.0831 200
      vertex -10.0707 -10.0707 200
    endloop
  endfacet
  facet normal 0.880798 0.473492 0
    outer loop
      vertex -10.0831 -10.0556 220
      vertex -10.0924 -10.0383 200
      vertex -10.0924 -10.0383 220
    endloop
  endfacet
  facet normal 0.880798 0.473492 0
    outer loop
      vertex -10.0924 -10.0383 200
      vertex -10.0831 -10.0556 220
      vertex -10.0831 -10.0556 200
    endloop
  endfacet
  facet normal -0.290149 -0.956982 0
    outer loop
      vertex 10.0195 10.0981 200
      vertex 10.0383 10.0924 220
      vertex 10.0195 10.0981 220
    endloop
  endfacet
  facet normal -0.290149 -0.956982 -0
    outer loop
      vertex 10.0383 10.0924 220
      vertex 10.0195 10.0981 200
      vertex 10.0383 10.0924 200
    endloop
  endfacet
  facet normal 0.772816 0.63463 0
    outer loop
      vertex -10.0707 -10.0707 220
      vertex -10.0831 -10.0556 200
      vertex -10.0831 -10.0556 220
    endloop
  endfacet
  facet normal 0.772816 0.63463 0
    outer loop
      vertex -10.0831 -10.0556 200
      vertex -10.0707 -10.0707 220
      vertex -10.0707 -10.0707 200
    endloop
  endfacet
endsolid OpenSCAD_Model
