M48
;DRILL file {KiCad 5.0.0} date Thu Oct 11 21:16:11 2018
;FORMAT={-:-/ absolute / metric / decimal}
FMAT,2
METRIC,TZ
T1C0.800
T2C1.000
T3C4.000
%
G90
G05
M71
T1
X118.Y27.24
X118.Y12.
X120.54Y27.24
X120.54Y12.
X123.08Y27.24
X123.08Y12.
X125.62Y27.24
X125.62Y12.
X128.16Y27.24
X128.16Y12.
X130.7Y27.24
X130.7Y12.
X133.24Y27.24
X133.24Y12.
X135.78Y27.24
X135.78Y12.
X138.32Y27.24
X138.32Y12.
X140.86Y27.24
X140.86Y12.
X143.4Y27.24
X143.4Y12.
X145.94Y27.24
X145.94Y12.
X148.48Y27.24
X148.48Y12.
X151.02Y27.24
X151.02Y12.
X153.56Y27.24
X153.56Y12.
T2
X66.Y36.
X66.Y33.46
X66.Y30.92
X78.Y36.
X78.Y33.46
X78.Y30.92
X14.Y21.5
X14.Y18.96
X84.Y36.
X84.Y33.46
X84.Y30.92
X102.Y36.
X102.Y33.46
X102.Y30.92
X48.Y36.
X48.Y33.46
X48.Y30.92
X96.Y36.
X96.Y33.46
X96.Y30.92
X54.Y36.
X54.Y33.46
X54.Y30.92
X42.Y36.
X42.Y33.46
X42.Y30.92
X60.Y36.
X60.Y33.46
X60.Y30.92
X90.Y36.
X90.Y33.46
X90.Y30.92
X23.5Y23.5
X23.5Y4.5
X68.5Y23.5
X68.5Y4.5
X72.Y36.
X72.Y33.46
X72.Y30.92
X108.Y36.
X108.Y33.46
X108.Y30.92
X6.5Y21.5
X6.5Y18.96
X9.04Y21.5
X9.04Y18.96
T3
X10.Y35.
X10.Y5.
X150.Y35.
X150.Y5.
T0
M30
